<?xml version="1.0" encoding="UTF-8" standalone="no"?>
<!DOCTYPE svg PUBLIC "-//W3C//DTD SVG 1.1//EN"
 "http://www.w3.org/Graphics/SVG/1.1/DTD/svg11.dtd">
<!-- Generated by graphviz version 2.50.0 (0)
 -->
<!-- Pages: 1 -->
<svg width="2902pt" height="411pt"
 viewBox="14.40 14.40 2888.00 397.00" xmlns="http://www.w3.org/2000/svg" xmlns:xlink="http://www.w3.org/1999/xlink">
<g id="graph0" class="graph" transform="scale(1 1) rotate(0) translate(43.2 368.2)">
<polygon fill="white" stroke="transparent" points="-28.8,28.8 -28.8,-353.8 2844.8,-353.8 2844.8,28.8 -28.8,28.8"/>
<text text-anchor="middle" x="1408" y="-306.6" font-family="Arial Bold" font-size="18.00" fill="darkblue">University Reporting System Overview</text>
<text text-anchor="middle" x="1408" y="-286.6" font-family="Arial Bold" font-size="18.00" fill="darkblue">Database Entity Relationship Diagram</text>
<!-- toChuc -->
<g id="node1" class="node">
<title>toChuc</title>
<path fill="lightcoral" stroke="darkred" d="M1324,-0.5C1324,-0.5 1379,-0.5 1379,-0.5 1385,-0.5 1391,-6.5 1391,-12.5 1391,-12.5 1391,-24.5 1391,-24.5 1391,-30.5 1385,-36.5 1379,-36.5 1379,-36.5 1324,-36.5 1324,-36.5 1318,-36.5 1312,-30.5 1312,-24.5 1312,-24.5 1312,-12.5 1312,-12.5 1312,-6.5 1318,-0.5 1324,-0.5"/>
<text text-anchor="middle" x="1351.5" y="-25.6" font-family="Arial Bold" font-size="8.00">toChuc</text>
<polyline fill="none" stroke="darkred" points="1312,-18.5 1391,-18.5 "/>
<text text-anchor="start" x="1316" y="-7.6" font-family="Arial Bold" font-size="8.00">🔑 idToChuc</text>
</g>
<!-- donVi -->
<g id="node2" class="node">
<title>donVi</title>
<path fill="lightcoral" stroke="darkred" d="M1324,-73.5C1324,-73.5 1379,-73.5 1379,-73.5 1385,-73.5 1391,-79.5 1391,-85.5 1391,-85.5 1391,-104.5 1391,-104.5 1391,-110.5 1385,-116.5 1379,-116.5 1379,-116.5 1324,-116.5 1324,-116.5 1318,-116.5 1312,-110.5 1312,-104.5 1312,-104.5 1312,-85.5 1312,-85.5 1312,-79.5 1318,-73.5 1324,-73.5"/>
<text text-anchor="middle" x="1351.5" y="-106.1" font-family="Arial Bold" font-size="8.00">donVi</text>
<polyline fill="none" stroke="darkred" points="1312,-99.5 1391,-99.5 "/>
<text text-anchor="start" x="1316" y="-89.1" font-family="Arial Bold" font-size="8.00">🔑 idDonVi</text>
<text text-anchor="start" x="1316" y="-80.1" font-family="Arial Bold" font-size="8.00">🔗 idToChuc</text>
</g>
<!-- donVi&#45;&gt;toChuc -->
<g id="edge1" class="edge">
<title>donVi&#45;&gt;toChuc</title>
<path fill="none" stroke="darkblue" stroke-width="0.8" d="M1351.5,-73.25C1351.5,-64.14 1351.5,-53.39 1351.5,-43.9"/>
<polygon fill="darkblue" stroke="darkblue" stroke-width="0.8" points="1351.5,-43.62 1354.65,-36.62 1351.5,-40.12 1351.5,-36.62 1351.5,-36.62 1351.5,-36.62 1351.5,-40.12 1348.35,-36.62 1351.5,-43.62 1351.5,-43.62"/>
</g>
<!-- nguoiBaoCao -->
<g id="node3" class="node">
<title>nguoiBaoCao</title>
<path fill="lightcoral" stroke="darkred" d="M1310,-153.5C1310,-153.5 1393,-153.5 1393,-153.5 1399,-153.5 1405,-159.5 1405,-165.5 1405,-165.5 1405,-184.5 1405,-184.5 1405,-190.5 1399,-196.5 1393,-196.5 1393,-196.5 1310,-196.5 1310,-196.5 1304,-196.5 1298,-190.5 1298,-184.5 1298,-184.5 1298,-165.5 1298,-165.5 1298,-159.5 1304,-153.5 1310,-153.5"/>
<text text-anchor="middle" x="1351.5" y="-186.1" font-family="Arial Bold" font-size="8.00">nguoiBaoCao</text>
<polyline fill="none" stroke="darkred" points="1298,-179.5 1405,-179.5 "/>
<text text-anchor="start" x="1302" y="-169.1" font-family="Arial Bold" font-size="8.00">🔑 idNguoiBaoCao</text>
<text text-anchor="start" x="1302" y="-160.1" font-family="Arial Bold" font-size="8.00">🔗 idDonVi</text>
</g>
<!-- nguoiBaoCao&#45;&gt;donVi -->
<g id="edge2" class="edge">
<title>nguoiBaoCao&#45;&gt;donVi</title>
<path fill="none" stroke="darkblue" stroke-width="0.8" d="M1351.5,-153.1C1351.5,-144.11 1351.5,-133.47 1351.5,-123.83"/>
<polygon fill="darkblue" stroke="darkblue" stroke-width="0.8" points="1351.5,-123.69 1354.65,-116.69 1351.5,-120.19 1351.5,-116.69 1351.5,-116.69 1351.5,-116.69 1351.5,-120.19 1348.35,-116.69 1351.5,-123.69 1351.5,-123.69"/>
</g>
<!-- giaiDoanBaoCao -->
<g id="node4" class="node">
<title>giaiDoanBaoCao</title>
<path fill="lightcoral" stroke="darkred" d="M1439.5,-157C1439.5,-157 1503.5,-157 1503.5,-157 1509.5,-157 1515.5,-163 1515.5,-169 1515.5,-169 1515.5,-181 1515.5,-181 1515.5,-187 1509.5,-193 1503.5,-193 1503.5,-193 1439.5,-193 1439.5,-193 1433.5,-193 1427.5,-187 1427.5,-181 1427.5,-181 1427.5,-169 1427.5,-169 1427.5,-163 1433.5,-157 1439.5,-157"/>
<text text-anchor="middle" x="1471.5" y="-182.1" font-family="Arial Bold" font-size="8.00">giaiDoanBaoCao</text>
<polyline fill="none" stroke="darkred" points="1427.5,-175 1515.5,-175 "/>
<text text-anchor="start" x="1431.5" y="-164.1" font-family="Arial Bold" font-size="8.00">🔑 idGiaiDoan</text>
</g>
<!-- bcK -->
<g id="node5" class="node">
<title>bcK</title>
<path fill="lightblue" stroke="darkblue" d="M2463,-233.5C2463,-233.5 2546,-233.5 2546,-233.5 2552,-233.5 2558,-239.5 2558,-245.5 2558,-245.5 2558,-264.5 2558,-264.5 2558,-270.5 2552,-276.5 2546,-276.5 2546,-276.5 2463,-276.5 2463,-276.5 2457,-276.5 2451,-270.5 2451,-264.5 2451,-264.5 2451,-245.5 2451,-245.5 2451,-239.5 2457,-233.5 2463,-233.5"/>
<text text-anchor="middle" x="2504.5" y="-266.1" font-family="Arial Bold" font-size="8.00">bcK</text>
<polyline fill="none" stroke="darkblue" points="2451,-259.5 2558,-259.5 "/>
<text text-anchor="start" x="2455" y="-249.1" font-family="Arial Bold" font-size="8.00">🔑 idBaoCao</text>
<text text-anchor="start" x="2455" y="-240.1" font-family="Arial Bold" font-size="8.00">🔗 idNguoiBaoCao</text>
</g>
<!-- bcK&#45;&gt;donVi -->
<g id="edge5" class="edge">
<title>bcK&#45;&gt;donVi</title>
<path fill="none" stroke="darkblue" stroke-width="0.8" d="M2450.82,-236.03C2447.34,-234.97 2443.88,-233.96 2440.5,-233 2293.21,-191.32 2256.74,-176.62 2105.5,-153 1839.98,-111.53 1516.96,-99.93 1398.19,-96.95"/>
<polygon fill="darkblue" stroke="darkblue" stroke-width="0.8" points="1398,-96.95 1391.08,-93.63 1394.5,-96.86 1391,-96.78 1391,-96.78 1391,-96.78 1394.5,-96.86 1390.92,-99.93 1398,-96.95 1398,-96.95"/>
</g>
<!-- bcK&#45;&gt;nguoiBaoCao -->
<g id="edge4" class="edge">
<title>bcK&#45;&gt;nguoiBaoCao</title>
<path fill="none" stroke="darkblue" stroke-width="0.8" d="M2450.65,-235.15C2447.24,-234.32 2443.84,-233.59 2440.5,-233 1992.15,-153.22 1865.03,-275.76 1416.5,-197 1415.1,-196.75 1413.69,-196.48 1412.26,-196.2"/>
<polygon fill="darkblue" stroke="darkblue" stroke-width="0.8" points="1411.95,-196.12 1405.81,-191.52 1408.54,-195.36 1405.12,-194.59 1405.12,-194.59 1405.12,-194.59 1408.54,-195.36 1404.43,-197.66 1411.95,-196.12 1411.95,-196.12"/>
</g>
<!-- bcK&#45;&gt;giaiDoanBaoCao -->
<g id="edge3" class="edge">
<title>bcK&#45;&gt;giaiDoanBaoCao</title>
<path fill="none" stroke="darkblue" stroke-width="0.8" d="M2450.99,-235.33C2447.46,-234.45 2443.95,-233.66 2440.5,-233 2261.99,-199.06 1696.6,-181.85 1522.82,-177.27"/>
<polygon fill="darkblue" stroke="darkblue" stroke-width="0.8" points="1522.57,-177.27 1515.66,-173.93 1519.08,-177.17 1515.58,-177.08 1515.58,-177.08 1515.58,-177.08 1519.08,-177.17 1515.49,-180.23 1522.57,-177.27 1522.57,-177.27"/>
</g>
<!-- bcPCsdlCntt -->
<g id="node6" class="node">
<title>bcPCsdlCntt</title>
<path fill="lightblue" stroke="darkblue" d="M528,-233.5C528,-233.5 611,-233.5 611,-233.5 617,-233.5 623,-239.5 623,-245.5 623,-245.5 623,-264.5 623,-264.5 623,-270.5 617,-276.5 611,-276.5 611,-276.5 528,-276.5 528,-276.5 522,-276.5 516,-270.5 516,-264.5 516,-264.5 516,-245.5 516,-245.5 516,-239.5 522,-233.5 528,-233.5"/>
<text text-anchor="middle" x="569.5" y="-266.1" font-family="Arial Bold" font-size="8.00">bcPCsdlCntt</text>
<polyline fill="none" stroke="darkblue" points="516,-259.5 623,-259.5 "/>
<text text-anchor="start" x="520" y="-249.1" font-family="Arial Bold" font-size="8.00">🔑 idBaoCao</text>
<text text-anchor="start" x="520" y="-240.1" font-family="Arial Bold" font-size="8.00">🔗 idNguoiBaoCao</text>
</g>
<!-- bcPCsdlCntt&#45;&gt;donVi -->
<g id="edge6" class="edge">
<title>bcPCsdlCntt&#45;&gt;donVi</title>
<path fill="none" stroke="darkblue" stroke-width="0.8" d="M623.09,-235.71C626.6,-234.74 630.09,-233.82 633.5,-233 734.53,-208.72 765.25,-227.74 864.5,-197 907.8,-183.59 913.13,-166.17 956.5,-153 1078.85,-115.86 1230.07,-102.65 1304.96,-98.16"/>
<polygon fill="darkblue" stroke="darkblue" stroke-width="0.8" points="1304.97,-98.16 1312.14,-100.9 1308.47,-97.96 1311.96,-97.76 1311.96,-97.76 1311.96,-97.76 1308.47,-97.96 1311.78,-94.61 1304.97,-98.16 1304.97,-98.16"/>
</g>
<!-- bcPCsdlCntt&#45;&gt;nguoiBaoCao -->
<g id="edge8" class="edge">
<title>bcPCsdlCntt&#45;&gt;nguoiBaoCao</title>
<path fill="none" stroke="darkblue" stroke-width="0.8" d="M623.03,-235.41C626.55,-234.51 630.06,-233.69 633.5,-233 758.66,-207.87 1140.91,-186.57 1290.53,-178.97"/>
<polygon fill="darkblue" stroke="darkblue" stroke-width="0.8" points="1290.92,-178.95 1298.07,-181.75 1294.41,-178.78 1297.91,-178.6 1297.91,-178.6 1297.91,-178.6 1294.41,-178.78 1297.75,-175.45 1290.92,-178.95 1290.92,-178.95"/>
</g>
<!-- bcPCsdlCntt&#45;&gt;giaiDoanBaoCao -->
<g id="edge7" class="edge">
<title>bcPCsdlCntt&#45;&gt;giaiDoanBaoCao</title>
<path fill="none" stroke="darkblue" stroke-width="0.8" d="M623,-235.28C626.53,-234.41 630.05,-233.63 633.5,-233 975.71,-170.19 1074.68,-266.94 1415.5,-197 1418.09,-196.47 1420.73,-195.83 1423.36,-195.12"/>
<polygon fill="darkblue" stroke="darkblue" stroke-width="0.8" points="1423.62,-195.05 1431.22,-196.1 1426.98,-194.06 1430.34,-193.08 1430.34,-193.08 1430.34,-193.08 1426.98,-194.06 1429.45,-190.06 1423.62,-195.05 1423.62,-195.05"/>
</g>
<!-- bcPCsvc -->
<g id="node7" class="node">
<title>bcPCsvc</title>
<path fill="lightblue" stroke="darkblue" d="M2592,-233.5C2592,-233.5 2675,-233.5 2675,-233.5 2681,-233.5 2687,-239.5 2687,-245.5 2687,-245.5 2687,-264.5 2687,-264.5 2687,-270.5 2681,-276.5 2675,-276.5 2675,-276.5 2592,-276.5 2592,-276.5 2586,-276.5 2580,-270.5 2580,-264.5 2580,-264.5 2580,-245.5 2580,-245.5 2580,-239.5 2586,-233.5 2592,-233.5"/>
<text text-anchor="middle" x="2633.5" y="-266.1" font-family="Arial Bold" font-size="8.00">bcPCsvc</text>
<polyline fill="none" stroke="darkblue" points="2580,-259.5 2687,-259.5 "/>
<text text-anchor="start" x="2584" y="-249.1" font-family="Arial Bold" font-size="8.00">🔑 idBaoCao</text>
<text text-anchor="start" x="2584" y="-240.1" font-family="Arial Bold" font-size="8.00">🔗 idNguoiBaoCao</text>
</g>
<!-- bcPCsvc&#45;&gt;donVi -->
<g id="edge11" class="edge">
<title>bcPCsvc&#45;&gt;donVi</title>
<path fill="none" stroke="darkblue" stroke-width="0.8" d="M2579.83,-236.01C2576.34,-234.96 2572.88,-233.95 2569.5,-233 2418.77,-190.78 2381.35,-175.94 2226.5,-153 1912.81,-106.52 1530.26,-97.94 1398.62,-96.36"/>
<polygon fill="darkblue" stroke="darkblue" stroke-width="0.8" points="1398.43,-96.36 1391.46,-93.13 1394.93,-96.32 1391.43,-96.28 1391.43,-96.28 1391.43,-96.28 1394.93,-96.32 1391.39,-99.43 1398.43,-96.36 1398.43,-96.36"/>
</g>
<!-- bcPCsvc&#45;&gt;nguoiBaoCao -->
<g id="edge9" class="edge">
<title>bcPCsvc&#45;&gt;nguoiBaoCao</title>
<path fill="none" stroke="darkblue" stroke-width="0.8" d="M2579.66,-235.13C2576.24,-234.31 2572.84,-233.59 2569.5,-233 2064.56,-144.17 1921.64,-284.67 1416.5,-197 1415.1,-196.76 1413.68,-196.49 1412.26,-196.2"/>
<polygon fill="darkblue" stroke="darkblue" stroke-width="0.8" points="1411.95,-196.13 1405.81,-191.53 1408.53,-195.37 1405.12,-194.61 1405.12,-194.61 1405.12,-194.61 1408.53,-195.37 1404.43,-197.68 1411.95,-196.13 1411.95,-196.13"/>
</g>
<!-- bcPCsvc&#45;&gt;giaiDoanBaoCao -->
<g id="edge10" class="edge">
<title>bcPCsvc&#45;&gt;giaiDoanBaoCao</title>
<path fill="none" stroke="darkblue" stroke-width="0.8" d="M2579.99,-235.3C2576.47,-234.42 2572.95,-233.64 2569.5,-233 2364.67,-194.78 1710.65,-180.29 1522.55,-176.86"/>
<polygon fill="darkblue" stroke="darkblue" stroke-width="0.8" points="1522.53,-176.86 1515.59,-173.58 1519.03,-176.79 1515.53,-176.73 1515.53,-176.73 1515.53,-176.73 1519.03,-176.79 1515.47,-179.88 1522.53,-176.86 1522.53,-176.86"/>
</g>
<!-- bcPCtsv -->
<g id="node8" class="node">
<title>bcPCtsv</title>
<path fill="lightblue" stroke="darkblue" d="M786,-233.5C786,-233.5 869,-233.5 869,-233.5 875,-233.5 881,-239.5 881,-245.5 881,-245.5 881,-264.5 881,-264.5 881,-270.5 875,-276.5 869,-276.5 869,-276.5 786,-276.5 786,-276.5 780,-276.5 774,-270.5 774,-264.5 774,-264.5 774,-245.5 774,-245.5 774,-239.5 780,-233.5 786,-233.5"/>
<text text-anchor="middle" x="827.5" y="-266.1" font-family="Arial Bold" font-size="8.00">bcPCtsv</text>
<polyline fill="none" stroke="darkblue" points="774,-259.5 881,-259.5 "/>
<text text-anchor="start" x="778" y="-249.1" font-family="Arial Bold" font-size="8.00">🔑 idBaoCao</text>
<text text-anchor="start" x="778" y="-240.1" font-family="Arial Bold" font-size="8.00">🔗 idNguoiBaoCao</text>
</g>
<!-- bcPCtsv&#45;&gt;donVi -->
<g id="edge13" class="edge">
<title>bcPCtsv&#45;&gt;donVi</title>
<path fill="none" stroke="darkblue" stroke-width="0.8" d="M881.21,-236.13C884.68,-235.05 888.14,-234 891.5,-233 951.02,-215.31 970.83,-224.51 1026.5,-197 1055.19,-182.82 1054.46,-166.44 1083.5,-153 1156.21,-119.35 1249.26,-105.3 1304.41,-99.63"/>
<polygon fill="darkblue" stroke="darkblue" stroke-width="0.8" points="1304.64,-99.61 1311.91,-102.05 1308.12,-99.26 1311.6,-98.92 1311.6,-98.92 1311.6,-98.92 1308.12,-99.26 1311.29,-95.78 1304.64,-99.61 1304.64,-99.61"/>
</g>
<!-- bcPCtsv&#45;&gt;nguoiBaoCao -->
<g id="edge12" class="edge">
<title>bcPCtsv&#45;&gt;nguoiBaoCao</title>
<path fill="none" stroke="darkblue" stroke-width="0.8" d="M881.06,-235.59C884.58,-234.64 888.08,-233.77 891.5,-233 1032.57,-201.43 1202.16,-186.1 1290.78,-179.76"/>
<polygon fill="darkblue" stroke="darkblue" stroke-width="0.8" points="1290.82,-179.76 1298.02,-182.41 1294.31,-179.51 1297.8,-179.27 1297.8,-179.27 1297.8,-179.27 1294.31,-179.51 1297.58,-176.13 1290.82,-179.76 1290.82,-179.76"/>
</g>
<!-- bcPCtsv&#45;&gt;giaiDoanBaoCao -->
<g id="edge14" class="edge">
<title>bcPCtsv&#45;&gt;giaiDoanBaoCao</title>
<path fill="none" stroke="darkblue" stroke-width="0.8" d="M881.02,-235.37C884.54,-234.48 888.06,-233.67 891.5,-233 1120.61,-188.27 1187.37,-246.5 1415.5,-197 1418.03,-196.45 1420.61,-195.81 1423.18,-195.1"/>
<polygon fill="darkblue" stroke="darkblue" stroke-width="0.8" points="1423.3,-195.06 1430.9,-196.09 1426.65,-194.07 1430.01,-193.07 1430.01,-193.07 1430.01,-193.07 1426.65,-194.07 1429.11,-190.05 1423.3,-195.06 1423.3,-195.06"/>
</g>
<!-- bcPDbclKt -->
<g id="node9" class="node">
<title>bcPDbclKt</title>
<path fill="lightblue" stroke="darkblue" d="M2721,-233.5C2721,-233.5 2804,-233.5 2804,-233.5 2810,-233.5 2816,-239.5 2816,-245.5 2816,-245.5 2816,-264.5 2816,-264.5 2816,-270.5 2810,-276.5 2804,-276.5 2804,-276.5 2721,-276.5 2721,-276.5 2715,-276.5 2709,-270.5 2709,-264.5 2709,-264.5 2709,-245.5 2709,-245.5 2709,-239.5 2715,-233.5 2721,-233.5"/>
<text text-anchor="middle" x="2762.5" y="-266.1" font-family="Arial Bold" font-size="8.00">bcPDbclKt</text>
<polyline fill="none" stroke="darkblue" points="2709,-259.5 2816,-259.5 "/>
<text text-anchor="start" x="2713" y="-249.1" font-family="Arial Bold" font-size="8.00">🔑 idBaoCao</text>
<text text-anchor="start" x="2713" y="-240.1" font-family="Arial Bold" font-size="8.00">🔗 idNguoiBaoCao</text>
</g>
<!-- bcPDbclKt&#45;&gt;donVi -->
<g id="edge15" class="edge">
<title>bcPDbclKt&#45;&gt;donVi</title>
<path fill="none" stroke="darkblue" stroke-width="0.8" d="M2708.83,-235.99C2705.35,-234.95 2701.88,-233.94 2698.5,-233 2545.18,-190.37 2507.05,-175.39 2349.5,-153 1986.16,-101.36 1542.11,-96.14 1398.61,-95.89"/>
<polygon fill="darkblue" stroke="darkblue" stroke-width="0.8" points="1398.2,-95.89 1391.2,-92.73 1394.7,-95.88 1391.2,-95.88 1391.2,-95.88 1391.2,-95.88 1394.7,-95.88 1391.19,-99.03 1398.2,-95.89 1398.2,-95.89"/>
</g>
<!-- bcPDbclKt&#45;&gt;nguoiBaoCao -->
<g id="edge17" class="edge">
<title>bcPDbclKt&#45;&gt;nguoiBaoCao</title>
<path fill="none" stroke="darkblue" stroke-width="0.8" d="M2708.66,-235.12C2705.25,-234.3 2701.84,-233.58 2698.5,-233 2136.96,-135.13 1978.26,-293.59 1416.5,-197 1415.1,-196.76 1413.68,-196.49 1412.26,-196.21"/>
<polygon fill="darkblue" stroke="darkblue" stroke-width="0.8" points="1411.95,-196.14 1405.8,-191.55 1408.53,-195.38 1405.12,-194.62 1405.12,-194.62 1405.12,-194.62 1408.53,-195.38 1404.43,-197.7 1411.95,-196.14 1411.95,-196.14"/>
</g>
<!-- bcPDbclKt&#45;&gt;giaiDoanBaoCao -->
<g id="edge16" class="edge">
<title>bcPDbclKt&#45;&gt;giaiDoanBaoCao</title>
<path fill="none" stroke="darkblue" stroke-width="0.8" d="M2709,-235.28C2705.47,-234.41 2701.95,-233.63 2698.5,-233 2467.5,-190.55 1725.57,-178.95 1523.01,-176.54"/>
<polygon fill="darkblue" stroke="darkblue" stroke-width="0.8" points="1522.75,-176.54 1515.79,-173.31 1519.25,-176.5 1515.75,-176.45 1515.75,-176.45 1515.75,-176.45 1519.25,-176.5 1515.72,-179.6 1522.75,-176.54 1522.75,-176.54"/>
</g>
<!-- bcPDtdh -->
<g id="node10" class="node">
<title>bcPDtdh</title>
<path fill="lightblue" stroke="darkblue" d="M1044,-233.5C1044,-233.5 1127,-233.5 1127,-233.5 1133,-233.5 1139,-239.5 1139,-245.5 1139,-245.5 1139,-264.5 1139,-264.5 1139,-270.5 1133,-276.5 1127,-276.5 1127,-276.5 1044,-276.5 1044,-276.5 1038,-276.5 1032,-270.5 1032,-264.5 1032,-264.5 1032,-245.5 1032,-245.5 1032,-239.5 1038,-233.5 1044,-233.5"/>
<text text-anchor="middle" x="1085.5" y="-266.1" font-family="Arial Bold" font-size="8.00">bcPDtdh</text>
<polyline fill="none" stroke="darkblue" points="1032,-259.5 1139,-259.5 "/>
<text text-anchor="start" x="1036" y="-249.1" font-family="Arial Bold" font-size="8.00">🔑 idBaoCao</text>
<text text-anchor="start" x="1036" y="-240.1" font-family="Arial Bold" font-size="8.00">🔗 idNguoiBaoCao</text>
</g>
<!-- bcPDtdh&#45;&gt;donVi -->
<g id="edge20" class="edge">
<title>bcPDtdh&#45;&gt;donVi</title>
<path fill="none" stroke="darkblue" stroke-width="0.8" d="M1115.45,-233.38C1146.46,-212.32 1196.59,-179.1 1241.5,-153 1262.14,-141.01 1285.56,-128.7 1305.47,-118.6"/>
<polygon fill="darkblue" stroke="darkblue" stroke-width="0.8" points="1305.55,-118.56 1313.22,-118.22 1308.68,-116.98 1311.8,-115.41 1311.8,-115.41 1311.8,-115.41 1308.68,-116.98 1310.38,-112.6 1305.55,-118.56 1305.55,-118.56"/>
</g>
<!-- bcPDtdh&#45;&gt;nguoiBaoCao -->
<g id="edge19" class="edge">
<title>bcPDtdh&#45;&gt;nguoiBaoCao</title>
<path fill="none" stroke="darkblue" stroke-width="0.8" d="M1139.22,-236.19C1142.7,-235.1 1146.14,-234.02 1149.5,-233 1196.78,-218.58 1250.67,-203.44 1290.89,-192.39"/>
<polygon fill="darkblue" stroke="darkblue" stroke-width="0.8" points="1290.98,-192.36 1298.57,-193.55 1294.36,-191.44 1297.73,-190.51 1297.73,-190.51 1297.73,-190.51 1294.36,-191.44 1296.9,-187.47 1290.98,-192.36 1290.98,-192.36"/>
</g>
<!-- bcPDtdh&#45;&gt;giaiDoanBaoCao -->
<g id="edge18" class="edge">
<title>bcPDtdh&#45;&gt;giaiDoanBaoCao</title>
<path fill="none" stroke="darkblue" stroke-width="0.8" d="M1139.08,-235.63C1142.58,-234.68 1146.08,-233.79 1149.5,-233 1265.77,-206.29 1299.81,-226.13 1415.5,-197 1417.72,-196.44 1419.96,-195.83 1422.22,-195.16"/>
<polygon fill="darkblue" stroke="darkblue" stroke-width="0.8" points="1422.32,-195.13 1429.94,-196.07 1425.67,-194.09 1429.01,-193.06 1429.01,-193.06 1429.01,-193.06 1425.67,-194.09 1428.08,-190.05 1422.32,-195.13 1422.32,-195.13"/>
</g>
<!-- bcPDtsdh -->
<g id="node11" class="node">
<title>bcPDtsdh</title>
<path fill="lightblue" stroke="darkblue" d="M12,-233.5C12,-233.5 95,-233.5 95,-233.5 101,-233.5 107,-239.5 107,-245.5 107,-245.5 107,-264.5 107,-264.5 107,-270.5 101,-276.5 95,-276.5 95,-276.5 12,-276.5 12,-276.5 6,-276.5 0,-270.5 0,-264.5 0,-264.5 0,-245.5 0,-245.5 0,-239.5 6,-233.5 12,-233.5"/>
<text text-anchor="middle" x="53.5" y="-266.1" font-family="Arial Bold" font-size="8.00">bcPDtsdh</text>
<polyline fill="none" stroke="darkblue" points="0,-259.5 107,-259.5 "/>
<text text-anchor="start" x="4" y="-249.1" font-family="Arial Bold" font-size="8.00">🔑 idBaoCao</text>
<text text-anchor="start" x="4" y="-240.1" font-family="Arial Bold" font-size="8.00">🔗 idNguoiBaoCao</text>
</g>
<!-- bcPDtsdh&#45;&gt;donVi -->
<g id="edge23" class="edge">
<title>bcPDtsdh&#45;&gt;donVi</title>
<path fill="none" stroke="darkblue" stroke-width="0.8" d="M98.76,-233.42C154.04,-209.36 251.01,-170.59 338.5,-153 527.15,-115.07 1131.66,-100.37 1304.77,-96.87"/>
<polygon fill="darkblue" stroke="darkblue" stroke-width="0.8" points="1304.96,-96.87 1312.02,-99.88 1308.46,-96.8 1311.96,-96.73 1311.96,-96.73 1311.96,-96.73 1308.46,-96.8 1311.9,-93.58 1304.96,-96.87 1304.96,-96.87"/>
</g>
<!-- bcPDtsdh&#45;&gt;nguoiBaoCao -->
<g id="edge21" class="edge">
<title>bcPDtsdh&#45;&gt;nguoiBaoCao</title>
<path fill="none" stroke="darkblue" stroke-width="0.8" d="M107,-235.28C110.53,-234.41 114.05,-233.63 117.5,-233 346.53,-190.94 1074.95,-179.22 1290.72,-176.63"/>
<polygon fill="darkblue" stroke="darkblue" stroke-width="0.8" points="1290.87,-176.63 1297.91,-179.7 1294.37,-176.59 1297.87,-176.55 1297.87,-176.55 1297.87,-176.55 1294.37,-176.59 1297.83,-173.4 1290.87,-176.63 1290.87,-176.63"/>
</g>
<!-- bcPDtsdh&#45;&gt;giaiDoanBaoCao -->
<g id="edge22" class="edge">
<title>bcPDtsdh&#45;&gt;giaiDoanBaoCao</title>
<path fill="none" stroke="darkblue" stroke-width="0.8" d="M107.34,-235.12C110.75,-234.3 114.16,-233.58 117.5,-233 401.78,-183.5 1132.32,-252.42 1415.5,-197 1418.15,-196.48 1420.84,-195.85 1423.54,-195.14"/>
<polygon fill="darkblue" stroke="darkblue" stroke-width="0.8" points="1423.94,-195.02 1431.54,-196.1 1427.3,-194.05 1430.66,-193.07 1430.66,-193.07 1430.66,-193.07 1427.3,-194.05 1429.79,-190.04 1423.94,-195.02 1423.94,-195.02"/>
</g>
<!-- bcPHcTh -->
<g id="node12" class="node">
<title>bcPHcTh</title>
<path fill="lightblue" stroke="darkblue" d="M141,-233.5C141,-233.5 224,-233.5 224,-233.5 230,-233.5 236,-239.5 236,-245.5 236,-245.5 236,-264.5 236,-264.5 236,-270.5 230,-276.5 224,-276.5 224,-276.5 141,-276.5 141,-276.5 135,-276.5 129,-270.5 129,-264.5 129,-264.5 129,-245.5 129,-245.5 129,-239.5 135,-233.5 141,-233.5"/>
<text text-anchor="middle" x="182.5" y="-266.1" font-family="Arial Bold" font-size="8.00">bcPHcTh</text>
<polyline fill="none" stroke="darkblue" points="129,-259.5 236,-259.5 "/>
<text text-anchor="start" x="133" y="-249.1" font-family="Arial Bold" font-size="8.00">🔑 idBaoCao</text>
<text text-anchor="start" x="133" y="-240.1" font-family="Arial Bold" font-size="8.00">🔗 idNguoiBaoCao</text>
</g>
<!-- bcPHcTh&#45;&gt;donVi -->
<g id="edge26" class="edge">
<title>bcPHcTh&#45;&gt;donVi</title>
<path fill="none" stroke="darkblue" stroke-width="0.8" d="M234.17,-233.42C296.62,-209.55 405.44,-171.16 502.5,-153 804.27,-96.54 1175.6,-94.18 1304.67,-95.3"/>
<polygon fill="darkblue" stroke="darkblue" stroke-width="0.8" points="1304.73,-95.3 1311.7,-98.51 1308.23,-95.33 1311.73,-95.36 1311.73,-95.36 1311.73,-95.36 1308.23,-95.33 1311.76,-92.21 1304.73,-95.3 1304.73,-95.3"/>
</g>
<!-- bcPHcTh&#45;&gt;nguoiBaoCao -->
<g id="edge24" class="edge">
<title>bcPHcTh&#45;&gt;nguoiBaoCao</title>
<path fill="none" stroke="darkblue" stroke-width="0.8" d="M236.01,-235.3C239.53,-234.42 243.05,-233.64 246.5,-233 449.36,-195.18 1090,-180.7 1290.74,-177.01"/>
<polygon fill="darkblue" stroke="darkblue" stroke-width="0.8" points="1290.98,-177.01 1298.03,-180.03 1294.48,-176.95 1297.98,-176.88 1297.98,-176.88 1297.98,-176.88 1294.48,-176.95 1297.92,-173.73 1290.98,-177.01 1290.98,-177.01"/>
</g>
<!-- bcPHcTh&#45;&gt;giaiDoanBaoCao -->
<g id="edge25" class="edge">
<title>bcPHcTh&#45;&gt;giaiDoanBaoCao</title>
<path fill="none" stroke="darkblue" stroke-width="0.8" d="M236.34,-235.13C239.76,-234.31 243.16,-233.59 246.5,-233 758.46,-143.05 905.53,-297.61 1415.5,-197 1418.15,-196.48 1420.84,-195.84 1423.54,-195.13"/>
<polygon fill="darkblue" stroke="darkblue" stroke-width="0.8" points="1423.94,-195.01 1431.54,-196.08 1427.3,-194.03 1430.66,-193.05 1430.66,-193.05 1430.66,-193.05 1427.3,-194.03 1429.78,-190.03 1423.94,-195.01 1423.94,-195.01"/>
</g>
<!-- bcPKhcnHtpt -->
<g id="node13" class="node">
<title>bcPKhcnHtpt</title>
<path fill="lightblue" stroke="darkblue" d="M270,-233.5C270,-233.5 353,-233.5 353,-233.5 359,-233.5 365,-239.5 365,-245.5 365,-245.5 365,-264.5 365,-264.5 365,-270.5 359,-276.5 353,-276.5 353,-276.5 270,-276.5 270,-276.5 264,-276.5 258,-270.5 258,-264.5 258,-264.5 258,-245.5 258,-245.5 258,-239.5 264,-233.5 270,-233.5"/>
<text text-anchor="middle" x="311.5" y="-266.1" font-family="Arial Bold" font-size="8.00">bcPKhcnHtpt</text>
<polyline fill="none" stroke="darkblue" points="258,-259.5 365,-259.5 "/>
<text text-anchor="start" x="262" y="-249.1" font-family="Arial Bold" font-size="8.00">🔑 idBaoCao</text>
<text text-anchor="start" x="262" y="-240.1" font-family="Arial Bold" font-size="8.00">🔗 idNguoiBaoCao</text>
</g>
<!-- bcPKhcnHtpt&#45;&gt;donVi -->
<g id="edge27" class="edge">
<title>bcPKhcnHtpt&#45;&gt;donVi</title>
<path fill="none" stroke="darkblue" stroke-width="0.8" d="M365.17,-235.99C368.65,-234.95 372.12,-233.94 375.5,-233 528.82,-190.37 567.35,-178.04 724.5,-153 939.54,-118.74 1199.6,-103.28 1304.38,-98.11"/>
<polygon fill="darkblue" stroke="darkblue" stroke-width="0.8" points="1304.66,-98.1 1311.81,-100.9 1308.16,-97.93 1311.66,-97.76 1311.66,-97.76 1311.66,-97.76 1308.16,-97.93 1311.5,-94.61 1304.66,-98.1 1304.66,-98.1"/>
</g>
<!-- bcPKhcnHtpt&#45;&gt;nguoiBaoCao -->
<g id="edge29" class="edge">
<title>bcPKhcnHtpt&#45;&gt;nguoiBaoCao</title>
<path fill="none" stroke="darkblue" stroke-width="0.8" d="M365.01,-235.33C368.54,-234.44 372.05,-233.65 375.5,-233 552.29,-199.42 1105.81,-182.36 1290.69,-177.49"/>
<polygon fill="darkblue" stroke="darkblue" stroke-width="0.8" points="1290.9,-177.49 1297.98,-180.45 1294.4,-177.4 1297.9,-177.31 1297.9,-177.31 1297.9,-177.31 1294.4,-177.4 1297.82,-174.16 1290.9,-177.49 1290.9,-177.49"/>
</g>
<!-- bcPKhcnHtpt&#45;&gt;giaiDoanBaoCao -->
<g id="edge28" class="edge">
<title>bcPKhcnHtpt&#45;&gt;giaiDoanBaoCao</title>
<path fill="none" stroke="darkblue" stroke-width="0.8" d="M365.35,-235.15C368.76,-234.32 372.16,-233.59 375.5,-233 830.87,-152.1 961.92,-287.38 1415.5,-197 1418.15,-196.47 1420.84,-195.83 1423.54,-195.11"/>
<polygon fill="darkblue" stroke="darkblue" stroke-width="0.8" points="1423.94,-195 1431.54,-196.06 1427.3,-194.02 1430.66,-193.04 1430.66,-193.04 1430.66,-193.04 1427.3,-194.02 1429.77,-190.01 1423.94,-195 1423.94,-195"/>
</g>
<!-- bcPTcKt -->
<g id="node14" class="node">
<title>bcPTcKt</title>
<path fill="lightblue" stroke="darkblue" d="M399,-233.5C399,-233.5 482,-233.5 482,-233.5 488,-233.5 494,-239.5 494,-245.5 494,-245.5 494,-264.5 494,-264.5 494,-270.5 488,-276.5 482,-276.5 482,-276.5 399,-276.5 399,-276.5 393,-276.5 387,-270.5 387,-264.5 387,-264.5 387,-245.5 387,-245.5 387,-239.5 393,-233.5 399,-233.5"/>
<text text-anchor="middle" x="440.5" y="-266.1" font-family="Arial Bold" font-size="8.00">bcPTcKt</text>
<polyline fill="none" stroke="darkblue" points="387,-259.5 494,-259.5 "/>
<text text-anchor="start" x="391" y="-249.1" font-family="Arial Bold" font-size="8.00">🔑 idBaoCao</text>
<text text-anchor="start" x="391" y="-240.1" font-family="Arial Bold" font-size="8.00">🔗 idNguoiBaoCao</text>
</g>
<!-- bcPTcKt&#45;&gt;donVi -->
<g id="edge32" class="edge">
<title>bcPTcKt&#45;&gt;donVi</title>
<path fill="none" stroke="darkblue" stroke-width="0.8" d="M494.1,-235.74C497.6,-234.76 501.09,-233.83 504.5,-233 601.18,-209.42 628.72,-220.18 725.5,-197 788.11,-182.01 800.57,-166.57 863.5,-153 1023.27,-118.54 1217.26,-103.73 1304.74,-98.46"/>
<polygon fill="darkblue" stroke="darkblue" stroke-width="0.8" points="1304.87,-98.45 1312.05,-101.19 1308.37,-98.25 1311.86,-98.04 1311.86,-98.04 1311.86,-98.04 1308.37,-98.25 1311.67,-94.9 1304.87,-98.45 1304.87,-98.45"/>
</g>
<!-- bcPTcKt&#45;&gt;nguoiBaoCao -->
<g id="edge30" class="edge">
<title>bcPTcKt&#45;&gt;nguoiBaoCao</title>
<path fill="none" stroke="darkblue" stroke-width="0.8" d="M494.02,-235.36C497.54,-234.47 501.06,-233.67 504.5,-233 655.34,-203.66 1122.42,-184.3 1290.48,-178.13"/>
<polygon fill="darkblue" stroke="darkblue" stroke-width="0.8" points="1290.78,-178.12 1297.89,-181.01 1294.28,-177.99 1297.77,-177.86 1297.77,-177.86 1297.77,-177.86 1294.28,-177.99 1297.66,-174.71 1290.78,-178.12 1290.78,-178.12"/>
</g>
<!-- bcPTcKt&#45;&gt;giaiDoanBaoCao -->
<g id="edge31" class="edge">
<title>bcPTcKt&#45;&gt;giaiDoanBaoCao</title>
<path fill="none" stroke="darkblue" stroke-width="0.8" d="M494.35,-235.17C497.76,-234.34 501.16,-233.6 504.5,-233 903.28,-161.14 1018.3,-277.16 1415.5,-197 1418.15,-196.47 1420.84,-195.82 1423.53,-195.1"/>
<polygon fill="darkblue" stroke="darkblue" stroke-width="0.8" points="1423.93,-194.98 1431.54,-196.04 1427.29,-194 1430.65,-193.01 1430.65,-193.01 1430.65,-193.01 1427.29,-194 1429.77,-189.99 1423.93,-194.98 1423.93,-194.98"/>
</g>
<!-- bcPTcns -->
<g id="node15" class="node">
<title>bcPTcns</title>
<path fill="lightblue" stroke="darkblue" d="M657,-233.5C657,-233.5 740,-233.5 740,-233.5 746,-233.5 752,-239.5 752,-245.5 752,-245.5 752,-264.5 752,-264.5 752,-270.5 746,-276.5 740,-276.5 740,-276.5 657,-276.5 657,-276.5 651,-276.5 645,-270.5 645,-264.5 645,-264.5 645,-245.5 645,-245.5 645,-239.5 651,-233.5 657,-233.5"/>
<text text-anchor="middle" x="698.5" y="-266.1" font-family="Arial Bold" font-size="8.00">bcPTcns</text>
<polyline fill="none" stroke="darkblue" points="645,-259.5 752,-259.5 "/>
<text text-anchor="start" x="649" y="-249.1" font-family="Arial Bold" font-size="8.00">🔑 idBaoCao</text>
<text text-anchor="start" x="649" y="-240.1" font-family="Arial Bold" font-size="8.00">🔗 idNguoiBaoCao</text>
</g>
<!-- bcPTcns&#45;&gt;donVi -->
<g id="edge35" class="edge">
<title>bcPTcns&#45;&gt;donVi</title>
<path fill="none" stroke="darkblue" stroke-width="0.8" d="M752.12,-235.83C755.62,-234.82 759.1,-233.87 762.5,-233 847.9,-211.21 875.6,-229.56 957.5,-197 990.95,-183.7 991.99,-166.14 1025.5,-153 1120.27,-115.84 1240.01,-102.81 1304.76,-98.31"/>
<polygon fill="darkblue" stroke="darkblue" stroke-width="0.8" points="1305.02,-98.3 1312.21,-100.97 1308.51,-98.06 1312,-97.83 1312,-97.83 1312,-97.83 1308.51,-98.06 1311.79,-94.69 1305.02,-98.3 1305.02,-98.3"/>
</g>
<!-- bcPTcns&#45;&gt;nguoiBaoCao -->
<g id="edge33" class="edge">
<title>bcPTcns&#45;&gt;nguoiBaoCao</title>
<path fill="none" stroke="darkblue" stroke-width="0.8" d="M752.04,-235.48C755.56,-234.56 759.07,-233.72 762.5,-233 862.29,-212.07 1161.45,-189.33 1290.8,-180.17"/>
<polygon fill="darkblue" stroke="darkblue" stroke-width="0.8" points="1290.97,-180.16 1298.18,-182.8 1294.46,-179.91 1297.95,-179.66 1297.95,-179.66 1297.95,-179.66 1294.46,-179.91 1297.73,-176.52 1290.97,-180.16 1290.97,-180.16"/>
</g>
<!-- bcPTcns&#45;&gt;giaiDoanBaoCao -->
<g id="edge34" class="edge">
<title>bcPTcns&#45;&gt;giaiDoanBaoCao</title>
<path fill="none" stroke="darkblue" stroke-width="0.8" d="M752.01,-235.31C755.53,-234.43 759.05,-233.65 762.5,-233 1048.15,-179.23 1131.04,-256.72 1415.5,-197 1418.09,-196.46 1420.72,-195.81 1423.36,-195.09"/>
<polygon fill="darkblue" stroke="darkblue" stroke-width="0.8" points="1423.61,-195.02 1431.22,-196.05 1426.97,-194.03 1430.33,-193.03 1430.33,-193.03 1430.33,-193.03 1426.97,-194.03 1429.44,-190.01 1423.61,-195.02 1423.61,-195.02"/>
</g>
<!-- bcPTtPc -->
<g id="node16" class="node">
<title>bcPTtPc</title>
<path fill="lightblue" stroke="darkblue" d="M915,-233.5C915,-233.5 998,-233.5 998,-233.5 1004,-233.5 1010,-239.5 1010,-245.5 1010,-245.5 1010,-264.5 1010,-264.5 1010,-270.5 1004,-276.5 998,-276.5 998,-276.5 915,-276.5 915,-276.5 909,-276.5 903,-270.5 903,-264.5 903,-264.5 903,-245.5 903,-245.5 903,-239.5 909,-233.5 915,-233.5"/>
<text text-anchor="middle" x="956.5" y="-266.1" font-family="Arial Bold" font-size="8.00">bcPTtPc</text>
<polyline fill="none" stroke="darkblue" points="903,-259.5 1010,-259.5 "/>
<text text-anchor="start" x="907" y="-249.1" font-family="Arial Bold" font-size="8.00">🔑 idBaoCao</text>
<text text-anchor="start" x="907" y="-240.1" font-family="Arial Bold" font-size="8.00">🔗 idNguoiBaoCao</text>
</g>
<!-- bcPTtPc&#45;&gt;donVi -->
<g id="edge36" class="edge">
<title>bcPTtPc&#45;&gt;donVi</title>
<path fill="none" stroke="darkblue" stroke-width="0.8" d="M1004.88,-233.39C1028.99,-222.88 1058.47,-209.67 1084.5,-197 1122.04,-178.72 1128.95,-169.03 1167.5,-153 1213.14,-134.03 1267.41,-117.96 1305.14,-107.77"/>
<polygon fill="darkblue" stroke="darkblue" stroke-width="0.8" points="1305.22,-107.75 1312.8,-108.98 1308.6,-106.84 1311.98,-105.94 1311.98,-105.94 1311.98,-105.94 1308.6,-106.84 1311.17,-102.9 1305.22,-107.75 1305.22,-107.75"/>
</g>
<!-- bcPTtPc&#45;&gt;nguoiBaoCao -->
<g id="edge38" class="edge">
<title>bcPTtPc&#45;&gt;nguoiBaoCao</title>
<path fill="none" stroke="darkblue" stroke-width="0.8" d="M1010.11,-235.78C1013.61,-234.78 1017.1,-233.85 1020.5,-233 1113.73,-209.81 1224.04,-192.86 1290.85,-183.72"/>
<polygon fill="darkblue" stroke="darkblue" stroke-width="0.8" points="1291.04,-183.7 1298.4,-185.88 1294.51,-183.23 1297.97,-182.76 1297.97,-182.76 1297.97,-182.76 1294.51,-183.23 1297.55,-179.64 1291.04,-183.7 1291.04,-183.7"/>
</g>
<!-- bcPTtPc&#45;&gt;giaiDoanBaoCao -->
<g id="edge37" class="edge">
<title>bcPTtPc&#45;&gt;giaiDoanBaoCao</title>
<path fill="none" stroke="darkblue" stroke-width="0.8" d="M1010.04,-235.46C1013.56,-234.54 1017.06,-233.71 1020.5,-233 1193.13,-197.29 1243.65,-236.3 1415.5,-197 1417.83,-196.47 1420.19,-195.86 1422.56,-195.2"/>
<polygon fill="darkblue" stroke="darkblue" stroke-width="0.8" points="1422.97,-195.08 1430.58,-196.08 1426.32,-194.07 1429.67,-193.06 1429.67,-193.06 1429.67,-193.06 1426.32,-194.07 1428.77,-190.04 1422.97,-195.08 1422.97,-195.08"/>
</g>
<!-- bcPTtQhdn -->
<g id="node17" class="node">
<title>bcPTtQhdn</title>
<path fill="lightblue" stroke="darkblue" d="M1173,-233.5C1173,-233.5 1256,-233.5 1256,-233.5 1262,-233.5 1268,-239.5 1268,-245.5 1268,-245.5 1268,-264.5 1268,-264.5 1268,-270.5 1262,-276.5 1256,-276.5 1256,-276.5 1173,-276.5 1173,-276.5 1167,-276.5 1161,-270.5 1161,-264.5 1161,-264.5 1161,-245.5 1161,-245.5 1161,-239.5 1167,-233.5 1173,-233.5"/>
<text text-anchor="middle" x="1214.5" y="-266.1" font-family="Arial Bold" font-size="8.00">bcPTtQhdn</text>
<polyline fill="none" stroke="darkblue" points="1161,-259.5 1268,-259.5 "/>
<text text-anchor="start" x="1165" y="-249.1" font-family="Arial Bold" font-size="8.00">🔑 idBaoCao</text>
<text text-anchor="start" x="1165" y="-240.1" font-family="Arial Bold" font-size="8.00">🔗 idNguoiBaoCao</text>
</g>
<!-- bcPTtQhdn&#45;&gt;donVi -->
<g id="edge39" class="edge">
<title>bcPTtQhdn&#45;&gt;donVi</title>
<path fill="none" stroke="darkblue" stroke-width="0.8" d="M1224.39,-233.14C1235.24,-211.59 1254.13,-177.71 1276.5,-153 1287.26,-141.12 1300.77,-129.98 1313.35,-120.76"/>
<polygon fill="darkblue" stroke="darkblue" stroke-width="0.8" points="1313.36,-120.75 1320.89,-119.22 1316.21,-118.71 1319.05,-116.66 1319.05,-116.66 1319.05,-116.66 1316.21,-118.71 1317.21,-114.1 1313.36,-120.75 1313.36,-120.75"/>
</g>
<!-- bcPTtQhdn&#45;&gt;nguoiBaoCao -->
<g id="edge40" class="edge">
<title>bcPTtQhdn&#45;&gt;nguoiBaoCao</title>
<path fill="none" stroke="darkblue" stroke-width="0.8" d="M1250.85,-233.3C1268.8,-223.08 1290.56,-210.7 1309.24,-200.06"/>
<polygon fill="darkblue" stroke="darkblue" stroke-width="0.8" points="1309.37,-199.99 1317.01,-199.26 1312.41,-198.26 1315.45,-196.52 1315.45,-196.52 1315.45,-196.52 1312.41,-198.26 1313.89,-193.79 1309.37,-199.99 1309.37,-199.99"/>
</g>
<!-- bcPTtQhdn&#45;&gt;giaiDoanBaoCao -->
<g id="edge41" class="edge">
<title>bcPTtQhdn&#45;&gt;giaiDoanBaoCao</title>
<path fill="none" stroke="darkblue" stroke-width="0.8" d="M1268.2,-236.12C1271.68,-235.04 1275.14,-233.99 1278.5,-233 1338.88,-215.18 1355.5,-216.08 1415.5,-197 1417.19,-196.46 1418.9,-195.9 1420.63,-195.33"/>
<polygon fill="darkblue" stroke="darkblue" stroke-width="0.8" points="1420.7,-195.3 1428.34,-196.02 1424.01,-194.17 1427.32,-193.04 1427.32,-193.04 1427.32,-193.04 1424.01,-194.17 1426.3,-190.06 1420.7,-195.3 1420.7,-195.3"/>
</g>
<!-- bcPTvts -->
<g id="node18" class="node">
<title>bcPTvts</title>
<path fill="lightblue" stroke="darkblue" d="M1302,-233.5C1302,-233.5 1385,-233.5 1385,-233.5 1391,-233.5 1397,-239.5 1397,-245.5 1397,-245.5 1397,-264.5 1397,-264.5 1397,-270.5 1391,-276.5 1385,-276.5 1385,-276.5 1302,-276.5 1302,-276.5 1296,-276.5 1290,-270.5 1290,-264.5 1290,-264.5 1290,-245.5 1290,-245.5 1290,-239.5 1296,-233.5 1302,-233.5"/>
<text text-anchor="middle" x="1343.5" y="-266.1" font-family="Arial Bold" font-size="8.00">bcPTvts</text>
<polyline fill="none" stroke="darkblue" points="1290,-259.5 1397,-259.5 "/>
<text text-anchor="start" x="1294" y="-249.1" font-family="Arial Bold" font-size="8.00">🔑 idBaoCao</text>
<text text-anchor="start" x="1294" y="-240.1" font-family="Arial Bold" font-size="8.00">🔗 idNguoiBaoCao</text>
</g>
<!-- bcPTvts&#45;&gt;donVi -->
<g id="edge42" class="edge">
<title>bcPTvts&#45;&gt;donVi</title>
<path fill="none" stroke="darkblue" stroke-width="0.8" d="M1314.78,-233.41C1303.74,-223.75 1292.39,-211.22 1286.5,-197 1279.02,-178.93 1278.43,-170.81 1286.5,-153 1292.09,-140.66 1301.82,-129.93 1312.08,-121.22"/>
<polygon fill="darkblue" stroke="darkblue" stroke-width="0.8" points="1312.37,-120.99 1319.79,-119.03 1315.09,-118.79 1317.81,-116.58 1317.81,-116.58 1317.81,-116.58 1315.09,-118.79 1315.83,-114.13 1312.37,-120.99 1312.37,-120.99"/>
</g>
<!-- bcPTvts&#45;&gt;nguoiBaoCao -->
<g id="edge44" class="edge">
<title>bcPTvts&#45;&gt;nguoiBaoCao</title>
<path fill="none" stroke="darkblue" stroke-width="0.8" d="M1345.64,-233.1C1346.57,-224.11 1347.66,-213.47 1348.65,-203.83"/>
<polygon fill="darkblue" stroke="darkblue" stroke-width="0.8" points="1348.66,-203.65 1352.51,-197.01 1349.02,-200.17 1349.38,-196.69 1349.38,-196.69 1349.38,-196.69 1349.02,-200.17 1346.24,-196.37 1348.66,-203.65 1348.66,-203.65"/>
</g>
<!-- bcPTvts&#45;&gt;giaiDoanBaoCao -->
<g id="edge43" class="edge">
<title>bcPTvts&#45;&gt;giaiDoanBaoCao</title>
<path fill="none" stroke="darkblue" stroke-width="0.8" d="M1377.47,-233.3C1395.96,-222.03 1418.79,-208.12 1437.32,-196.83"/>
<polygon fill="darkblue" stroke="darkblue" stroke-width="0.8" points="1437.45,-196.75 1445.07,-195.79 1440.44,-194.93 1443.43,-193.1 1443.43,-193.1 1443.43,-193.1 1440.44,-194.93 1441.79,-190.41 1437.45,-196.75 1437.45,-196.75"/>
</g>
<!-- bcTtTvplPvcd -->
<g id="node19" class="node">
<title>bcTtTvplPvcd</title>
<path fill="lightblue" stroke="darkblue" d="M1431,-233.5C1431,-233.5 1514,-233.5 1514,-233.5 1520,-233.5 1526,-239.5 1526,-245.5 1526,-245.5 1526,-264.5 1526,-264.5 1526,-270.5 1520,-276.5 1514,-276.5 1514,-276.5 1431,-276.5 1431,-276.5 1425,-276.5 1419,-270.5 1419,-264.5 1419,-264.5 1419,-245.5 1419,-245.5 1419,-239.5 1425,-233.5 1431,-233.5"/>
<text text-anchor="middle" x="1472.5" y="-266.1" font-family="Arial Bold" font-size="8.00">bcTtTvplPvcd</text>
<polyline fill="none" stroke="darkblue" points="1419,-259.5 1526,-259.5 "/>
<text text-anchor="start" x="1423" y="-249.1" font-family="Arial Bold" font-size="8.00">🔑 idBaoCao</text>
<text text-anchor="start" x="1423" y="-240.1" font-family="Arial Bold" font-size="8.00">🔗 idNguoiBaoCao</text>
</g>
<!-- bcTtTvplPvcd&#45;&gt;donVi -->
<g id="edge46" class="edge">
<title>bcTtTvplPvcd&#45;&gt;donVi</title>
<path fill="none" stroke="darkblue" stroke-width="0.8" d="M1499.46,-233.38C1510,-223.64 1520.9,-211.06 1526.5,-197 1533.74,-178.83 1537.99,-168.82 1526.5,-153 1497.4,-112.91 1439.36,-100.47 1398.11,-96.9"/>
<polygon fill="darkblue" stroke="darkblue" stroke-width="0.8" points="1398.11,-96.9 1391.37,-93.22 1394.62,-96.63 1391.13,-96.36 1391.13,-96.36 1391.13,-96.36 1394.62,-96.63 1390.89,-99.5 1398.11,-96.9 1398.11,-96.9"/>
</g>
<!-- bcTtTvplPvcd&#45;&gt;nguoiBaoCao -->
<g id="edge47" class="edge">
<title>bcTtTvplPvcd&#45;&gt;nguoiBaoCao</title>
<path fill="none" stroke="darkblue" stroke-width="0.8" d="M1440.39,-233.3C1424.68,-223.17 1405.66,-210.91 1389.25,-200.34"/>
<polygon fill="darkblue" stroke="darkblue" stroke-width="0.8" points="1389.22,-200.32 1385.05,-193.88 1386.28,-198.42 1383.34,-196.52 1383.34,-196.52 1383.34,-196.52 1386.28,-198.42 1381.63,-199.17 1389.22,-200.32 1389.22,-200.32"/>
</g>
<!-- bcTtTvplPvcd&#45;&gt;giaiDoanBaoCao -->
<g id="edge45" class="edge">
<title>bcTtTvplPvcd&#45;&gt;giaiDoanBaoCao</title>
<path fill="none" stroke="darkblue" stroke-width="0.8" d="M1472.23,-233.1C1472.1,-223 1471.95,-210.83 1471.81,-200.32"/>
<polygon fill="darkblue" stroke="darkblue" stroke-width="0.8" points="1471.81,-200.02 1474.87,-192.98 1471.76,-196.52 1471.72,-193.02 1471.72,-193.02 1471.72,-193.02 1471.76,-196.52 1468.57,-193.06 1471.81,-200.02 1471.81,-200.02"/>
</g>
<!-- bcTthl -->
<g id="node20" class="node">
<title>bcTthl</title>
<path fill="lightblue" stroke="darkblue" d="M1560,-233.5C1560,-233.5 1643,-233.5 1643,-233.5 1649,-233.5 1655,-239.5 1655,-245.5 1655,-245.5 1655,-264.5 1655,-264.5 1655,-270.5 1649,-276.5 1643,-276.5 1643,-276.5 1560,-276.5 1560,-276.5 1554,-276.5 1548,-270.5 1548,-264.5 1548,-264.5 1548,-245.5 1548,-245.5 1548,-239.5 1554,-233.5 1560,-233.5"/>
<text text-anchor="middle" x="1601.5" y="-266.1" font-family="Arial Bold" font-size="8.00">bcTthl</text>
<polyline fill="none" stroke="darkblue" points="1548,-259.5 1655,-259.5 "/>
<text text-anchor="start" x="1552" y="-249.1" font-family="Arial Bold" font-size="8.00">🔑 idBaoCao</text>
<text text-anchor="start" x="1552" y="-240.1" font-family="Arial Bold" font-size="8.00">🔗 idNguoiBaoCao</text>
</g>
<!-- bcTthl&#45;&gt;donVi -->
<g id="edge50" class="edge">
<title>bcTthl&#45;&gt;donVi</title>
<path fill="none" stroke="darkblue" stroke-width="0.8" d="M1595.81,-233.45C1588.41,-210.52 1573.29,-173.92 1547.5,-153 1504.61,-118.22 1441.32,-104.66 1398.35,-99.38"/>
<polygon fill="darkblue" stroke="darkblue" stroke-width="0.8" points="1398.32,-99.37 1391.73,-95.44 1394.84,-98.97 1391.37,-98.57 1391.37,-98.57 1391.37,-98.57 1394.84,-98.97 1391,-101.7 1398.32,-99.37 1398.32,-99.37"/>
</g>
<!-- bcTthl&#45;&gt;nguoiBaoCao -->
<g id="edge48" class="edge">
<title>bcTthl&#45;&gt;nguoiBaoCao</title>
<path fill="none" stroke="darkblue" stroke-width="0.8" d="M1547.97,-236.61C1544.09,-235.38 1540.24,-234.16 1536.5,-233 1483.34,-216.44 1469.66,-213.56 1416.5,-197 1414.98,-196.53 1413.44,-196.05 1411.89,-195.56"/>
<polygon fill="darkblue" stroke="darkblue" stroke-width="0.8" points="1411.71,-195.5 1405.98,-190.39 1408.37,-194.45 1405.03,-193.39 1405.03,-193.39 1405.03,-193.39 1408.37,-194.45 1404.08,-196.4 1411.71,-195.5 1411.71,-195.5"/>
</g>
<!-- bcTthl&#45;&gt;giaiDoanBaoCao -->
<g id="edge49" class="edge">
<title>bcTthl&#45;&gt;giaiDoanBaoCao</title>
<path fill="none" stroke="darkblue" stroke-width="0.8" d="M1567,-233.3C1548.22,-222.03 1525.03,-208.12 1506.21,-196.83"/>
<polygon fill="darkblue" stroke="darkblue" stroke-width="0.8" points="1506.01,-196.71 1501.63,-190.4 1503.01,-194.91 1500.01,-193.1 1500.01,-193.1 1500.01,-193.1 1503.01,-194.91 1498.39,-195.81 1506.01,-196.71 1506.01,-196.71"/>
</g>
<!-- bcTv -->
<g id="node21" class="node">
<title>bcTv</title>
<path fill="lightblue" stroke="darkblue" d="M1689,-233.5C1689,-233.5 1772,-233.5 1772,-233.5 1778,-233.5 1784,-239.5 1784,-245.5 1784,-245.5 1784,-264.5 1784,-264.5 1784,-270.5 1778,-276.5 1772,-276.5 1772,-276.5 1689,-276.5 1689,-276.5 1683,-276.5 1677,-270.5 1677,-264.5 1677,-264.5 1677,-245.5 1677,-245.5 1677,-239.5 1683,-233.5 1689,-233.5"/>
<text text-anchor="middle" x="1730.5" y="-266.1" font-family="Arial Bold" font-size="8.00">bcTv</text>
<polyline fill="none" stroke="darkblue" points="1677,-259.5 1784,-259.5 "/>
<text text-anchor="start" x="1681" y="-249.1" font-family="Arial Bold" font-size="8.00">🔑 idBaoCao</text>
<text text-anchor="start" x="1681" y="-240.1" font-family="Arial Bold" font-size="8.00">🔗 idNguoiBaoCao</text>
</g>
<!-- bcTv&#45;&gt;donVi -->
<g id="edge53" class="edge">
<title>bcTv&#45;&gt;donVi</title>
<path fill="none" stroke="darkblue" stroke-width="0.8" d="M1706.03,-233.37C1677.76,-210.54 1629.03,-174.18 1581.5,-153 1521.1,-126.08 1445.87,-110.49 1398.24,-102.62"/>
<polygon fill="darkblue" stroke="darkblue" stroke-width="0.8" points="1398.04,-102.59 1391.64,-98.36 1394.59,-102.03 1391.13,-101.47 1391.13,-101.47 1391.13,-101.47 1394.59,-102.03 1390.63,-104.58 1398.04,-102.59 1398.04,-102.59"/>
</g>
<!-- bcTv&#45;&gt;nguoiBaoCao -->
<g id="edge52" class="edge">
<title>bcTv&#45;&gt;nguoiBaoCao</title>
<path fill="none" stroke="darkblue" stroke-width="0.8" d="M1676.78,-235.87C1672.98,-234.83 1669.2,-233.86 1665.5,-233 1556.58,-207.72 1525.42,-222.28 1416.5,-197 1415.11,-196.68 1413.71,-196.34 1412.31,-195.99"/>
<polygon fill="darkblue" stroke="darkblue" stroke-width="0.8" points="1411.99,-195.91 1406.02,-191.08 1408.6,-195.02 1405.22,-194.13 1405.22,-194.13 1405.22,-194.13 1408.6,-195.02 1404.42,-197.17 1411.99,-195.91 1411.99,-195.91"/>
</g>
<!-- bcTv&#45;&gt;giaiDoanBaoCao -->
<g id="edge51" class="edge">
<title>bcTv&#45;&gt;giaiDoanBaoCao</title>
<path fill="none" stroke="darkblue" stroke-width="0.8" d="M1676.97,-236.58C1673.1,-235.36 1669.24,-234.15 1665.5,-233 1617.18,-218.1 1561.82,-201.92 1522.64,-190.62"/>
<polygon fill="darkblue" stroke="darkblue" stroke-width="0.8" points="1522.24,-190.51 1516.39,-185.54 1518.88,-189.54 1515.52,-188.57 1515.52,-188.57 1515.52,-188.57 1518.88,-189.54 1514.65,-191.6 1522.24,-190.51 1522.24,-190.51"/>
</g>
<!-- bcVDtbd -->
<g id="node22" class="node">
<title>bcVDtbd</title>
<path fill="lightblue" stroke="darkblue" d="M1818,-233.5C1818,-233.5 1901,-233.5 1901,-233.5 1907,-233.5 1913,-239.5 1913,-245.5 1913,-245.5 1913,-264.5 1913,-264.5 1913,-270.5 1907,-276.5 1901,-276.5 1901,-276.5 1818,-276.5 1818,-276.5 1812,-276.5 1806,-270.5 1806,-264.5 1806,-264.5 1806,-245.5 1806,-245.5 1806,-239.5 1812,-233.5 1818,-233.5"/>
<text text-anchor="middle" x="1859.5" y="-266.1" font-family="Arial Bold" font-size="8.00">bcVDtbd</text>
<polyline fill="none" stroke="darkblue" points="1806,-259.5 1913,-259.5 "/>
<text text-anchor="start" x="1810" y="-249.1" font-family="Arial Bold" font-size="8.00">🔑 idBaoCao</text>
<text text-anchor="start" x="1810" y="-240.1" font-family="Arial Bold" font-size="8.00">🔗 idNguoiBaoCao</text>
</g>
<!-- bcVDtbd&#45;&gt;donVi -->
<g id="edge54" class="edge">
<title>bcVDtbd&#45;&gt;donVi</title>
<path fill="none" stroke="darkblue" stroke-width="0.8" d="M1820.91,-233.36C1777.09,-210.7 1702.92,-174.66 1635.5,-153 1554,-126.82 1455.32,-110.25 1398.34,-102.09"/>
<polygon fill="darkblue" stroke="darkblue" stroke-width="0.8" points="1398.19,-102.07 1391.7,-97.97 1394.73,-101.58 1391.26,-101.09 1391.26,-101.09 1391.26,-101.09 1394.73,-101.58 1390.82,-104.21 1398.19,-102.07 1398.19,-102.07"/>
</g>
<!-- bcVDtbd&#45;&gt;nguoiBaoCao -->
<g id="edge56" class="edge">
<title>bcVDtbd&#45;&gt;nguoiBaoCao</title>
<path fill="none" stroke="darkblue" stroke-width="0.8" d="M1805.83,-235.67C1802.02,-234.67 1798.22,-233.77 1794.5,-233 1629.23,-198.86 1581.77,-231.14 1416.5,-197 1415.11,-196.71 1413.7,-196.41 1412.29,-196.08"/>
<polygon fill="darkblue" stroke="darkblue" stroke-width="0.8" points="1411.97,-196 1405.92,-191.28 1408.57,-195.17 1405.17,-194.33 1405.17,-194.33 1405.17,-194.33 1408.57,-195.17 1404.42,-197.39 1411.97,-196 1411.97,-196"/>
</g>
<!-- bcVDtbd&#45;&gt;giaiDoanBaoCao -->
<g id="edge55" class="edge">
<title>bcVDtbd&#45;&gt;giaiDoanBaoCao</title>
<path fill="none" stroke="darkblue" stroke-width="0.8" d="M1805.75,-236C1801.96,-234.93 1798.18,-233.92 1794.5,-233 1699.65,-209.43 1586.8,-191.84 1522.71,-182.81"/>
<polygon fill="darkblue" stroke="darkblue" stroke-width="0.8" points="1522.46,-182.78 1515.96,-178.69 1518.99,-182.29 1515.53,-181.81 1515.53,-181.81 1515.53,-181.81 1518.99,-182.29 1515.09,-184.92 1522.46,-182.78 1522.46,-182.78"/>
</g>
<!-- bcVDtqt -->
<g id="node23" class="node">
<title>bcVDtqt</title>
<path fill="lightblue" stroke="darkblue" d="M1947,-233.5C1947,-233.5 2030,-233.5 2030,-233.5 2036,-233.5 2042,-239.5 2042,-245.5 2042,-245.5 2042,-264.5 2042,-264.5 2042,-270.5 2036,-276.5 2030,-276.5 2030,-276.5 1947,-276.5 1947,-276.5 1941,-276.5 1935,-270.5 1935,-264.5 1935,-264.5 1935,-245.5 1935,-245.5 1935,-239.5 1941,-233.5 1947,-233.5"/>
<text text-anchor="middle" x="1988.5" y="-266.1" font-family="Arial Bold" font-size="8.00">bcVDtqt</text>
<polyline fill="none" stroke="darkblue" points="1935,-259.5 2042,-259.5 "/>
<text text-anchor="start" x="1939" y="-249.1" font-family="Arial Bold" font-size="8.00">🔑 idBaoCao</text>
<text text-anchor="start" x="1939" y="-240.1" font-family="Arial Bold" font-size="8.00">🔗 idNguoiBaoCao</text>
</g>
<!-- bcVDtqt&#45;&gt;donVi -->
<g id="edge59" class="edge">
<title>bcVDtqt&#45;&gt;donVi</title>
<path fill="none" stroke="darkblue" stroke-width="0.8" d="M1939.45,-233.3C1883.86,-210.58 1790.11,-174.49 1706.5,-153 1597.86,-125.08 1466.81,-108.27 1398.35,-100.73"/>
<polygon fill="darkblue" stroke="darkblue" stroke-width="0.8" points="1398.08,-100.7 1391.46,-96.81 1394.6,-100.32 1391.12,-99.94 1391.12,-99.94 1391.12,-99.94 1394.6,-100.32 1390.78,-103.07 1398.08,-100.7 1398.08,-100.7"/>
</g>
<!-- bcVDtqt&#45;&gt;nguoiBaoCao -->
<g id="edge57" class="edge">
<title>bcVDtqt&#45;&gt;nguoiBaoCao</title>
<path fill="none" stroke="darkblue" stroke-width="0.8" d="M1934.85,-235.56C1931.04,-234.59 1927.23,-233.72 1923.5,-233 1701.74,-189.96 1638.26,-240.04 1416.5,-197 1415.1,-196.73 1413.69,-196.44 1412.28,-196.13"/>
<polygon fill="darkblue" stroke="darkblue" stroke-width="0.8" points="1411.96,-196.05 1405.88,-191.37 1408.56,-195.24 1405.15,-194.44 1405.15,-194.44 1405.15,-194.44 1408.56,-195.24 1404.42,-197.5 1411.96,-196.05 1411.96,-196.05"/>
</g>
<!-- bcVDtqt&#45;&gt;giaiDoanBaoCao -->
<g id="edge58" class="edge">
<title>bcVDtqt&#45;&gt;giaiDoanBaoCao</title>
<path fill="none" stroke="darkblue" stroke-width="0.8" d="M1934.8,-235.8C1931,-234.77 1927.2,-233.82 1923.5,-233 1780.21,-201.11 1607.12,-185.5 1522.75,-179.33"/>
<polygon fill="darkblue" stroke="darkblue" stroke-width="0.8" points="1522.58,-179.32 1515.83,-175.67 1519.09,-179.06 1515.6,-178.81 1515.6,-178.81 1515.6,-178.81 1519.09,-179.06 1515.37,-181.95 1522.58,-179.32 1522.58,-179.32"/>
</g>
<!-- bcVLss -->
<g id="node24" class="node">
<title>bcVLss</title>
<path fill="lightblue" stroke="darkblue" d="M2076,-233.5C2076,-233.5 2159,-233.5 2159,-233.5 2165,-233.5 2171,-239.5 2171,-245.5 2171,-245.5 2171,-264.5 2171,-264.5 2171,-270.5 2165,-276.5 2159,-276.5 2159,-276.5 2076,-276.5 2076,-276.5 2070,-276.5 2064,-270.5 2064,-264.5 2064,-264.5 2064,-245.5 2064,-245.5 2064,-239.5 2070,-233.5 2076,-233.5"/>
<text text-anchor="middle" x="2117.5" y="-266.1" font-family="Arial Bold" font-size="8.00">bcVLss</text>
<polyline fill="none" stroke="darkblue" points="2064,-259.5 2171,-259.5 "/>
<text text-anchor="start" x="2068" y="-249.1" font-family="Arial Bold" font-size="8.00">🔑 idBaoCao</text>
<text text-anchor="start" x="2068" y="-240.1" font-family="Arial Bold" font-size="8.00">🔗 idNguoiBaoCao</text>
</g>
<!-- bcVLss&#45;&gt;donVi -->
<g id="edge61" class="edge">
<title>bcVLss&#45;&gt;donVi</title>
<path fill="none" stroke="darkblue" stroke-width="0.8" d="M2063.96,-236.63C2060.08,-235.39 2056.23,-234.17 2052.5,-233 1936.35,-196.51 1909.51,-178.71 1790.5,-153 1649.4,-122.52 1479.02,-106.08 1398.29,-99.49"/>
<polygon fill="darkblue" stroke="darkblue" stroke-width="0.8" points="1398.21,-99.48 1391.48,-95.78 1394.72,-99.2 1391.23,-98.92 1391.23,-98.92 1391.23,-98.92 1394.72,-99.2 1390.98,-102.06 1398.21,-99.48 1398.21,-99.48"/>
</g>
<!-- bcVLss&#45;&gt;nguoiBaoCao -->
<g id="edge60" class="edge">
<title>bcVLss&#45;&gt;nguoiBaoCao</title>
<path fill="none" stroke="darkblue" stroke-width="0.8" d="M2063.86,-235.5C2060.04,-234.55 2056.23,-233.7 2052.5,-233 1774.19,-181.06 1694.81,-248.94 1416.5,-197 1415.1,-196.74 1413.69,-196.46 1412.27,-196.15"/>
<polygon fill="darkblue" stroke="darkblue" stroke-width="0.8" points="1411.96,-196.08 1405.85,-191.43 1408.55,-195.29 1405.14,-194.5 1405.14,-194.5 1405.14,-194.5 1408.55,-195.29 1404.43,-197.57 1411.96,-196.08 1411.96,-196.08"/>
</g>
<!-- bcVLss&#45;&gt;giaiDoanBaoCao -->
<g id="edge62" class="edge">
<title>bcVLss&#45;&gt;giaiDoanBaoCao</title>
<path fill="none" stroke="darkblue" stroke-width="0.8" d="M2063.83,-235.68C2060.02,-234.68 2056.22,-233.77 2052.5,-233 1859.67,-192.88 1624.79,-180.82 1522.83,-177.34"/>
<polygon fill="darkblue" stroke="darkblue" stroke-width="0.8" points="1522.71,-177.34 1515.82,-173.96 1519.21,-177.22 1515.72,-177.11 1515.72,-177.11 1515.72,-177.11 1519.21,-177.22 1515.61,-180.26 1522.71,-177.34 1522.71,-177.34"/>
</g>
<!-- bcVShttKnDmst -->
<g id="node25" class="node">
<title>bcVShttKnDmst</title>
<path fill="lightblue" stroke="darkblue" d="M2205,-233.5C2205,-233.5 2288,-233.5 2288,-233.5 2294,-233.5 2300,-239.5 2300,-245.5 2300,-245.5 2300,-264.5 2300,-264.5 2300,-270.5 2294,-276.5 2288,-276.5 2288,-276.5 2205,-276.5 2205,-276.5 2199,-276.5 2193,-270.5 2193,-264.5 2193,-264.5 2193,-245.5 2193,-245.5 2193,-239.5 2199,-233.5 2205,-233.5"/>
<text text-anchor="middle" x="2246.5" y="-266.1" font-family="Arial Bold" font-size="8.00">bcVShttKnDmst</text>
<polyline fill="none" stroke="darkblue" points="2193,-259.5 2300,-259.5 "/>
<text text-anchor="start" x="2197" y="-249.1" font-family="Arial Bold" font-size="8.00">🔑 idBaoCao</text>
<text text-anchor="start" x="2197" y="-240.1" font-family="Arial Bold" font-size="8.00">🔗 idNguoiBaoCao</text>
</g>
<!-- bcVShttKnDmst&#45;&gt;donVi -->
<g id="edge63" class="edge">
<title>bcVShttKnDmst&#45;&gt;donVi</title>
<path fill="none" stroke="darkblue" stroke-width="0.8" d="M2192.79,-236.14C2189.32,-235.06 2185.86,-234 2182.5,-233 2051.08,-193.83 2019.31,-178.15 1884.5,-153 1706.62,-119.82 1491.48,-104.16 1398.29,-98.55"/>
<polygon fill="darkblue" stroke="darkblue" stroke-width="0.8" points="1398.24,-98.55 1391.44,-94.98 1394.75,-98.34 1391.26,-98.13 1391.26,-98.13 1391.26,-98.13 1394.75,-98.34 1391.07,-101.27 1398.24,-98.55 1398.24,-98.55"/>
</g>
<!-- bcVShttKnDmst&#45;&gt;nguoiBaoCao -->
<g id="edge65" class="edge">
<title>bcVShttKnDmst&#45;&gt;nguoiBaoCao</title>
<path fill="none" stroke="darkblue" stroke-width="0.8" d="M2193,-235.28C2189.47,-234.41 2185.95,-233.64 2182.5,-233 1847.31,-171.31 1751.83,-257.93 1416.5,-197 1415.1,-196.75 1413.69,-196.47 1412.27,-196.17"/>
<polygon fill="darkblue" stroke="darkblue" stroke-width="0.8" points="1411.95,-196.1 1405.83,-191.47 1408.54,-195.32 1405.13,-194.54 1405.13,-194.54 1405.13,-194.54 1408.54,-195.32 1404.43,-197.61 1411.95,-196.1 1411.95,-196.1"/>
</g>
<!-- bcVShttKnDmst&#45;&gt;giaiDoanBaoCao -->
<g id="edge64" class="edge">
<title>bcVShttKnDmst&#45;&gt;giaiDoanBaoCao</title>
<path fill="none" stroke="darkblue" stroke-width="0.8" d="M2192.97,-235.42C2189.45,-234.51 2185.94,-233.69 2182.5,-233 1939.03,-184.02 1640.67,-176.8 1522.85,-175.97"/>
<polygon fill="darkblue" stroke="darkblue" stroke-width="0.8" points="1522.69,-175.97 1515.71,-172.78 1519.19,-175.95 1515.69,-175.93 1515.69,-175.93 1515.69,-175.93 1519.19,-175.95 1515.67,-179.08 1522.69,-175.97 1522.69,-175.97"/>
</g>
<!-- bcVpduHdtCd -->
<g id="node26" class="node">
<title>bcVpduHdtCd</title>
<path fill="lightblue" stroke="darkblue" d="M2334,-233.5C2334,-233.5 2417,-233.5 2417,-233.5 2423,-233.5 2429,-239.5 2429,-245.5 2429,-245.5 2429,-264.5 2429,-264.5 2429,-270.5 2423,-276.5 2417,-276.5 2417,-276.5 2334,-276.5 2334,-276.5 2328,-276.5 2322,-270.5 2322,-264.5 2322,-264.5 2322,-245.5 2322,-245.5 2322,-239.5 2328,-233.5 2334,-233.5"/>
<text text-anchor="middle" x="2375.5" y="-266.1" font-family="Arial Bold" font-size="8.00">bcVpduHdtCd</text>
<polyline fill="none" stroke="darkblue" points="2322,-259.5 2429,-259.5 "/>
<text text-anchor="start" x="2326" y="-249.1" font-family="Arial Bold" font-size="8.00">🔑 idBaoCao</text>
<text text-anchor="start" x="2326" y="-240.1" font-family="Arial Bold" font-size="8.00">🔗 idNguoiBaoCao</text>
</g>
<!-- bcVpduHdtCd&#45;&gt;donVi -->
<g id="edge68" class="edge">
<title>bcVpduHdtCd&#45;&gt;donVi</title>
<path fill="none" stroke="darkblue" stroke-width="0.8" d="M2321.81,-236.08C2318.33,-235.01 2314.87,-233.97 2311.5,-233 2171.08,-192.41 2136.63,-177.33 1992.5,-153 1772,-115.78 1504.47,-101.92 1398.23,-97.64"/>
<polygon fill="darkblue" stroke="darkblue" stroke-width="0.8" points="1398.16,-97.64 1391.29,-94.21 1394.66,-97.5 1391.16,-97.36 1391.16,-97.36 1391.16,-97.36 1394.66,-97.5 1391.04,-100.51 1398.16,-97.64 1398.16,-97.64"/>
</g>
<!-- bcVpduHdtCd&#45;&gt;nguoiBaoCao -->
<g id="edge66" class="edge">
<title>bcVpduHdtCd&#45;&gt;nguoiBaoCao</title>
<path fill="none" stroke="darkblue" stroke-width="0.8" d="M2321.65,-235.17C2318.24,-234.34 2314.84,-233.6 2311.5,-233 1919.74,-162.27 1808.43,-266.84 1416.5,-197 1415.1,-196.75 1413.69,-196.48 1412.27,-196.19"/>
<polygon fill="darkblue" stroke="darkblue" stroke-width="0.8" points="1411.95,-196.11 1405.82,-191.5 1408.54,-195.34 1405.13,-194.57 1405.13,-194.57 1405.13,-194.57 1408.54,-195.34 1404.43,-197.64 1411.95,-196.11 1411.95,-196.11"/>
</g>
<!-- bcVpduHdtCd&#45;&gt;giaiDoanBaoCao -->
<g id="edge67" class="edge">
<title>bcVpduHdtCd&#45;&gt;giaiDoanBaoCao</title>
<path fill="none" stroke="darkblue" stroke-width="0.8" d="M2321.98,-235.37C2318.46,-234.47 2314.94,-233.67 2311.5,-233 2159.06,-203.3 1680.9,-183.63 1522.81,-177.81"/>
<polygon fill="darkblue" stroke="darkblue" stroke-width="0.8" points="1522.52,-177.8 1515.64,-174.39 1519.02,-177.67 1515.53,-177.54 1515.53,-177.54 1515.53,-177.54 1519.02,-177.67 1515.41,-180.69 1522.52,-177.8 1522.52,-177.8"/>
</g>
</g>
</svg>
