<?xml version="1.0" encoding="UTF-8" standalone="no"?>
<!DOCTYPE svg PUBLIC "-//W3C//DTD SVG 1.1//EN"
 "http://www.w3.org/Graphics/SVG/1.1/DTD/svg11.dtd">
<!-- Generated by graphviz version 2.50.0 (0)
 -->
<!-- Pages: 1 -->
<svg width="1100pt" height="358pt"
 viewBox="14.40 14.40 1086.00 343.50" xmlns="http://www.w3.org/2000/svg" xmlns:xlink="http://www.w3.org/1999/xlink">
<g id="graph0" class="graph" transform="scale(1 1) rotate(0) translate(43.2 314.7)">
<polygon fill="white" stroke="transparent" points="-28.8,28.8 -28.8,-300.3 1042.8,-300.3 1042.8,28.8 -28.8,28.8"/>
<text text-anchor="middle" x="507" y="-254.7" font-family="Arial Bold" font-size="16.00" fill="darkblue">Báo cáo cấp Khoa</text>
<text text-anchor="middle" x="507" y="-236.7" font-family="Arial Bold" font-size="16.00" fill="darkblue">(K)</text>
<!-- toChuc -->
<g id="node1" class="node">
<title>toChuc</title>
<path fill="lightcoral" stroke="darkred" d="M903,-167.5C903,-167.5 1002,-167.5 1002,-167.5 1008,-167.5 1014,-173.5 1014,-179.5 1014,-179.5 1014,-210.5 1014,-210.5 1014,-216.5 1008,-222.5 1002,-222.5 1002,-222.5 903,-222.5 903,-222.5 897,-222.5 891,-216.5 891,-210.5 891,-210.5 891,-179.5 891,-179.5 891,-173.5 897,-167.5 903,-167.5"/>
<text text-anchor="middle" x="952.5" y="-209.1" font-family="Arial" font-size="8.00">toChuc</text>
<polyline fill="none" stroke="darkred" points="891,-199.5 1014,-199.5 "/>
<text text-anchor="start" x="898" y="-186.1" font-family="Arial" font-size="8.00">🔑 idToChuc : INTEGER</text>
<text text-anchor="start" x="898" y="-177.1" font-family="Arial" font-size="8.00">capToChuc</text>
</g>
<!-- donVi -->
<g id="node2" class="node">
<title>donVi</title>
<path fill="lightcoral" stroke="darkred" d="M698,-163C698,-163 797,-163 797,-163 803,-163 809,-169 809,-175 809,-175 809,-215 809,-215 809,-221 803,-227 797,-227 797,-227 698,-227 698,-227 692,-227 686,-221 686,-215 686,-215 686,-175 686,-175 686,-169 692,-163 698,-163"/>
<text text-anchor="middle" x="747.5" y="-213.6" font-family="Arial" font-size="8.00">donVi</text>
<polyline fill="none" stroke="darkred" points="686,-204 809,-204 "/>
<text text-anchor="start" x="693" y="-190.6" font-family="Arial" font-size="8.00">🔑 idDonVi : INTEGER</text>
<text text-anchor="start" x="693" y="-181.6" font-family="Arial" font-size="8.00">capDonVi</text>
<text text-anchor="start" x="693" y="-172.6" font-family="Arial" font-size="8.00">🔗 idToChuc : INTEGER</text>
</g>
<!-- donVi&#45;&gt;toChuc -->
<g id="edge1" class="edge">
<title>donVi&#45;&gt;toChuc</title>
<path fill="none" stroke="darkblue" d="M809.13,-195C832.23,-195 858.71,-195 882.53,-195"/>
<polygon fill="darkblue" stroke="darkblue" points="882.83,-195 890.83,-198.6 886.83,-195 890.83,-195 890.83,-195 890.83,-195 886.83,-195 890.83,-191.4 882.83,-195 882.83,-195"/>
<text text-anchor="middle" x="850" y="-197.2" font-family="Times,serif" font-size="6.00" fill="darkblue"> &#160;idToChuc &#160;</text>
</g>
<!-- nguoiBaoCao -->
<g id="node3" class="node">
<title>nguoiBaoCao</title>
<path fill="lightcoral" stroke="darkred" d="M471,-104C471,-104 596,-104 596,-104 602,-104 608,-110 608,-116 608,-116 608,-174 608,-174 608,-180 602,-186 596,-186 596,-186 471,-186 471,-186 465,-186 459,-180 459,-174 459,-174 459,-116 459,-116 459,-110 465,-104 471,-104"/>
<text text-anchor="middle" x="533.5" y="-172.6" font-family="Arial" font-size="8.00">nguoiBaoCao</text>
<polyline fill="none" stroke="darkred" points="459,-163 608,-163 "/>
<text text-anchor="start" x="466" y="-149.6" font-family="Arial" font-size="8.00">🔑 idNguoiBaoCao : INTEGER</text>
<text text-anchor="start" x="466" y="-140.6" font-family="Arial" font-size="8.00">hoVaTen</text>
<text text-anchor="start" x="466" y="-131.6" font-family="Arial" font-size="8.00">chucVu</text>
<text text-anchor="start" x="466" y="-122.6" font-family="Arial" font-size="8.00">emailTruong</text>
<text text-anchor="start" x="466" y="-113.6" font-family="Arial" font-size="8.00">🔗 idDonVi : INTEGER</text>
</g>
<!-- nguoiBaoCao&#45;&gt;donVi -->
<g id="edge2" class="edge">
<title>nguoiBaoCao&#45;&gt;donVi</title>
<path fill="none" stroke="darkblue" d="M608.05,-162.35C630.63,-167.67 655.39,-173.51 677.64,-178.76"/>
<polygon fill="darkblue" stroke="darkblue" points="677.93,-178.83 684.89,-184.17 681.83,-179.75 685.72,-180.66 685.72,-180.66 685.72,-180.66 681.83,-179.75 686.54,-177.16 677.93,-178.83 677.93,-178.83"/>
<text text-anchor="middle" x="647" y="-177.2" font-family="Times,serif" font-size="6.00" fill="darkblue"> &#160;idDonVi &#160;</text>
</g>
<!-- giaiDoanBaoCao -->
<g id="node4" class="node">
<title>giaiDoanBaoCao</title>
<path fill="lightcoral" stroke="darkred" d="M480,-10C480,-10 587,-10 587,-10 593,-10 599,-16 599,-22 599,-22 599,-62 599,-62 599,-68 593,-74 587,-74 587,-74 480,-74 480,-74 474,-74 468,-68 468,-62 468,-62 468,-22 468,-22 468,-16 474,-10 480,-10"/>
<text text-anchor="middle" x="533.5" y="-60.6" font-family="Arial" font-size="8.00">giaiDoanBaoCao</text>
<polyline fill="none" stroke="darkred" points="468,-51 599,-51 "/>
<text text-anchor="start" x="475" y="-37.6" font-family="Arial" font-size="8.00">🔑 idGiaiDoan : INTEGER</text>
<text text-anchor="start" x="475" y="-28.6" font-family="Arial" font-size="8.00">thoiDiemBatDau</text>
<text text-anchor="start" x="475" y="-19.6" font-family="Arial" font-size="8.00">thoiDiemKetThuc</text>
</g>
<!-- bcK -->
<g id="node5" class="node">
<title>bcK</title>
<path fill="lightblue" stroke="darkblue" d="M263,-86C263,-86 331,-86 331,-86 337,-86 343,-92 343,-98 343,-98 343,-192 343,-192 343,-198 337,-204 331,-204 331,-204 263,-204 263,-204 257,-204 251,-198 251,-192 251,-192 251,-98 251,-98 251,-92 257,-86 263,-86"/>
<text text-anchor="middle" x="297" y="-190.6" font-family="Arial" font-size="8.00">bcK</text>
<polyline fill="none" stroke="darkblue" points="251,-181 343,-181 "/>
<text text-anchor="start" x="258" y="-167.6" font-family="Arial" font-size="8.00">soLuongGvch</text>
<text text-anchor="start" x="258" y="-158.6" font-family="Arial" font-size="8.00">soLuongGvtg</text>
<text text-anchor="start" x="258" y="-149.6" font-family="Arial" font-size="8.00">soLuongNld</text>
<text text-anchor="start" x="258" y="-140.6" font-family="Arial" font-size="8.00">tongSoBmk</text>
<text text-anchor="start" x="258" y="-131.6" font-family="Arial" font-size="8.00">tongSoMhk</text>
<text text-anchor="start" x="258" y="-122.6" font-family="Arial" font-size="8.00">fileDmmh</text>
<text text-anchor="start" x="258" y="-113.6" font-family="Arial" font-size="8.00">soCtdtCanCaiTien</text>
<text text-anchor="start" x="258" y="-104.6" font-family="Arial" font-size="8.00">soCtdtXayDungMoi</text>
<text text-anchor="start" x="258" y="-95.6" font-family="Arial" font-size="8.00">...</text>
</g>
<!-- bcK&#45;&gt;donVi -->
<g id="edge4" class="edge">
<title>bcK&#45;&gt;donVi</title>
<path fill="none" stroke="darkblue" d="M343.07,-165.25C374.78,-178.34 418.59,-194.17 459,-201 533.05,-213.51 619.34,-209.25 677.92,-203.6"/>
<polygon fill="darkblue" stroke="darkblue" points="678.04,-203.59 686.36,-206.38 682.02,-203.2 686,-202.8 686,-202.8 686,-202.8 682.02,-203.2 685.64,-199.22 678.04,-203.59 678.04,-203.59"/>
<text text-anchor="middle" x="533.5" y="-211.2" font-family="Times,serif" font-size="6.00" fill="darkblue"> &#160;idDonVi &#160;</text>
</g>
<!-- bcK&#45;&gt;nguoiBaoCao -->
<g id="edge5" class="edge">
<title>bcK&#45;&gt;nguoiBaoCao</title>
<path fill="none" stroke="darkblue" d="M343.21,-145C373.65,-145 414.67,-145 450.73,-145"/>
<polygon fill="darkblue" stroke="darkblue" points="450.83,-145 458.83,-148.6 454.83,-145 458.83,-145 458.83,-145 458.83,-145 454.83,-145 458.83,-141.4 450.83,-145 450.83,-145"/>
<text text-anchor="middle" x="408" y="-147.2" font-family="Times,serif" font-size="6.00" fill="darkblue"> &#160;idNguoiBaoCao &#160;</text>
</g>
<!-- bcK&#45;&gt;giaiDoanBaoCao -->
<g id="edge3" class="edge">
<title>bcK&#45;&gt;giaiDoanBaoCao</title>
<path fill="none" stroke="darkblue" d="M343.21,-125.14C376.4,-110.56 422.17,-90.46 460.38,-73.68"/>
<polygon fill="darkblue" stroke="darkblue" points="460.59,-73.58 469.37,-73.66 464.26,-71.98 467.92,-70.37 467.92,-70.37 467.92,-70.37 464.26,-71.98 466.47,-67.07 460.59,-73.58 460.59,-73.58"/>
<text text-anchor="middle" x="408" y="-111.2" font-family="Times,serif" font-size="6.00" fill="darkblue"> &#160;idGiaiDoan &#160;</text>
</g>
<!-- danhMucNganh -->
<g id="node6" class="node">
<title>danhMucNganh</title>
<path fill="lightgray" stroke="black" d="M249,-0.5C249,-0.5 345,-0.5 345,-0.5 351,-0.5 357,-6.5 357,-12.5 357,-12.5 357,-43.5 357,-43.5 357,-49.5 351,-55.5 345,-55.5 345,-55.5 249,-55.5 249,-55.5 243,-55.5 237,-49.5 237,-43.5 237,-43.5 237,-12.5 237,-12.5 237,-6.5 243,-0.5 249,-0.5"/>
<text text-anchor="middle" x="297" y="-42.1" font-family="Arial" font-size="8.00">danhMucNganh</text>
<polyline fill="none" stroke="black" points="237,-32.5 357,-32.5 "/>
<text text-anchor="start" x="244" y="-19.1" font-family="Arial" font-size="8.00">🔑 idNganh : INTEGER</text>
<text text-anchor="start" x="244" y="-10.1" font-family="Arial" font-size="8.00">tenNganh</text>
</g>
<!-- fDanhMucNganh -->
<g id="node7" class="node">
<title>fDanhMucNganh</title>
<path fill="lightgray" stroke="black" d="M12,-20.5C12,-20.5 141,-20.5 141,-20.5 147,-20.5 153,-26.5 153,-32.5 153,-32.5 153,-63.5 153,-63.5 153,-69.5 147,-75.5 141,-75.5 141,-75.5 12,-75.5 12,-75.5 6,-75.5 0,-69.5 0,-63.5 0,-63.5 0,-32.5 0,-32.5 0,-26.5 6,-20.5 12,-20.5"/>
<text text-anchor="middle" x="76.5" y="-62.1" font-family="Arial" font-size="8.00">fDanhMucNganh</text>
<polyline fill="none" stroke="black" points="0,-52.5 153,-52.5 "/>
<text text-anchor="start" x="7" y="-39.1" font-family="Arial" font-size="8.00">🔗 🔑 idBaoCao : INTEGER</text>
<text text-anchor="start" x="7" y="-30.1" font-family="Arial" font-size="8.00">🔗 🔑 idNganh : INTEGER</text>
</g>
<!-- fDanhMucNganh&#45;&gt;bcK -->
<g id="edge7" class="edge">
<title>fDanhMucNganh&#45;&gt;bcK</title>
<path fill="none" stroke="darkblue" d="M139.53,-75.54C172.35,-90.11 212.21,-107.8 243.49,-121.69"/>
<polygon fill="darkblue" stroke="darkblue" points="243.53,-121.71 249.38,-128.24 247.18,-123.33 250.84,-124.95 250.84,-124.95 250.84,-124.95 247.18,-123.33 252.3,-121.66 243.53,-121.71 243.53,-121.71"/>
<text text-anchor="middle" x="195" y="-111.2" font-family="Times,serif" font-size="6.00" fill="darkblue"> &#160;idBaoCao &#160;</text>
</g>
<!-- fDanhMucNganh&#45;&gt;danhMucNganh -->
<g id="edge6" class="edge">
<title>fDanhMucNganh&#45;&gt;danhMucNganh</title>
<path fill="none" stroke="darkblue" d="M153,-41.09C177.6,-38.84 204.74,-36.35 228.7,-34.16"/>
<polygon fill="darkblue" stroke="darkblue" points="228.73,-34.16 237.02,-37.01 232.71,-33.79 236.7,-33.43 236.7,-33.43 236.7,-33.43 232.71,-33.79 236.37,-29.84 228.73,-34.16 228.73,-34.16"/>
<text text-anchor="middle" x="195" y="-41.2" font-family="Times,serif" font-size="6.00" fill="darkblue"> &#160;idNganh &#160;</text>
</g>
</g>
</svg>
