<?xml version="1.0" encoding="UTF-8" standalone="no"?>
<!DOCTYPE svg PUBLIC "-//W3C//DTD SVG 1.1//EN"
 "http://www.w3.org/Graphics/SVG/1.1/DTD/svg11.dtd">
<!-- Generated by graphviz version 2.50.0 (0)
 -->
<!-- Pages: 1 -->
<svg width="1141pt" height="505pt"
 viewBox="14.40 14.40 1127.00 491.00" xmlns="http://www.w3.org/2000/svg" xmlns:xlink="http://www.w3.org/1999/xlink">
<g id="graph0" class="graph" transform="scale(1 1) rotate(0) translate(43.2 462.2)">
<polygon fill="white" stroke="transparent" points="-28.8,28.8 -28.8,-447.8 1083.8,-447.8 1083.8,28.8 -28.8,28.8"/>
<text text-anchor="middle" x="527.5" y="-402.2" font-family="Arial Bold" font-size="16.00" fill="darkblue">Phòng Cơ Sở Dữ Liệu và Công Nghệ Thông Tin</text>
<text text-anchor="middle" x="527.5" y="-384.2" font-family="Arial Bold" font-size="16.00" fill="darkblue">(PCSDLCNTT)</text>
<!-- toChuc -->
<g id="node1" class="node">
<title>toChuc</title>
<path fill="lightcoral" stroke="darkred" d="M944,-148.5C944,-148.5 1043,-148.5 1043,-148.5 1049,-148.5 1055,-154.5 1055,-160.5 1055,-160.5 1055,-191.5 1055,-191.5 1055,-197.5 1049,-203.5 1043,-203.5 1043,-203.5 944,-203.5 944,-203.5 938,-203.5 932,-197.5 932,-191.5 932,-191.5 932,-160.5 932,-160.5 932,-154.5 938,-148.5 944,-148.5"/>
<text text-anchor="middle" x="993.5" y="-190.1" font-family="Arial" font-size="8.00">toChuc</text>
<polyline fill="none" stroke="darkred" points="932,-180.5 1055,-180.5 "/>
<text text-anchor="start" x="939" y="-167.1" font-family="Arial" font-size="8.00">🔑 idToChuc : INTEGER</text>
<text text-anchor="start" x="939" y="-158.1" font-family="Arial" font-size="8.00">capToChuc</text>
</g>
<!-- donVi -->
<g id="node2" class="node">
<title>donVi</title>
<path fill="lightcoral" stroke="darkred" d="M739,-144C739,-144 838,-144 838,-144 844,-144 850,-150 850,-156 850,-156 850,-196 850,-196 850,-202 844,-208 838,-208 838,-208 739,-208 739,-208 733,-208 727,-202 727,-196 727,-196 727,-156 727,-156 727,-150 733,-144 739,-144"/>
<text text-anchor="middle" x="788.5" y="-194.6" font-family="Arial" font-size="8.00">donVi</text>
<polyline fill="none" stroke="darkred" points="727,-185 850,-185 "/>
<text text-anchor="start" x="734" y="-171.6" font-family="Arial" font-size="8.00">🔑 idDonVi : INTEGER</text>
<text text-anchor="start" x="734" y="-162.6" font-family="Arial" font-size="8.00">capDonVi</text>
<text text-anchor="start" x="734" y="-153.6" font-family="Arial" font-size="8.00">🔗 idToChuc : INTEGER</text>
</g>
<!-- donVi&#45;&gt;toChuc -->
<g id="edge1" class="edge">
<title>donVi&#45;&gt;toChuc</title>
<path fill="none" stroke="darkblue" d="M850.13,-176C873.23,-176 899.71,-176 923.53,-176"/>
<polygon fill="darkblue" stroke="darkblue" points="923.83,-176 931.83,-179.6 927.83,-176 931.83,-176 931.83,-176 931.83,-176 927.83,-176 931.83,-172.4 923.83,-176 923.83,-176"/>
<text text-anchor="middle" x="891" y="-178.2" font-family="Times,serif" font-size="6.00" fill="darkblue"> &#160;idToChuc &#160;</text>
</g>
<!-- nguoiBaoCao -->
<g id="node3" class="node">
<title>nguoiBaoCao</title>
<path fill="lightcoral" stroke="darkred" d="M512,-182C512,-182 637,-182 637,-182 643,-182 649,-188 649,-194 649,-194 649,-252 649,-252 649,-258 643,-264 637,-264 637,-264 512,-264 512,-264 506,-264 500,-258 500,-252 500,-252 500,-194 500,-194 500,-188 506,-182 512,-182"/>
<text text-anchor="middle" x="574.5" y="-250.6" font-family="Arial" font-size="8.00">nguoiBaoCao</text>
<polyline fill="none" stroke="darkred" points="500,-241 649,-241 "/>
<text text-anchor="start" x="507" y="-227.6" font-family="Arial" font-size="8.00">🔑 idNguoiBaoCao : INTEGER</text>
<text text-anchor="start" x="507" y="-218.6" font-family="Arial" font-size="8.00">hoVaTen</text>
<text text-anchor="start" x="507" y="-209.6" font-family="Arial" font-size="8.00">chucVu</text>
<text text-anchor="start" x="507" y="-200.6" font-family="Arial" font-size="8.00">emailTruong</text>
<text text-anchor="start" x="507" y="-191.6" font-family="Arial" font-size="8.00">🔗 idDonVi : INTEGER</text>
</g>
<!-- nguoiBaoCao&#45;&gt;donVi -->
<g id="edge2" class="edge">
<title>nguoiBaoCao&#45;&gt;donVi</title>
<path fill="none" stroke="darkblue" d="M649.05,-206.69C671.63,-201.69 696.39,-196.2 718.64,-191.27"/>
<polygon fill="darkblue" stroke="darkblue" points="718.91,-191.21 727.5,-192.99 722.81,-190.34 726.72,-189.48 726.72,-189.48 726.72,-189.48 722.81,-190.34 725.94,-185.96 718.91,-191.21 718.91,-191.21"/>
<text text-anchor="middle" x="688" y="-202.2" font-family="Times,serif" font-size="6.00" fill="darkblue"> &#160;idDonVi &#160;</text>
</g>
<!-- giaiDoanBaoCao -->
<g id="node4" class="node">
<title>giaiDoanBaoCao</title>
<path fill="lightcoral" stroke="darkred" d="M521,-22C521,-22 628,-22 628,-22 634,-22 640,-28 640,-34 640,-34 640,-74 640,-74 640,-80 634,-86 628,-86 628,-86 521,-86 521,-86 515,-86 509,-80 509,-74 509,-74 509,-34 509,-34 509,-28 515,-22 521,-22"/>
<text text-anchor="middle" x="574.5" y="-72.6" font-family="Arial" font-size="8.00">giaiDoanBaoCao</text>
<polyline fill="none" stroke="darkred" points="509,-63 640,-63 "/>
<text text-anchor="start" x="516" y="-49.6" font-family="Arial" font-size="8.00">🔑 idGiaiDoan : INTEGER</text>
<text text-anchor="start" x="516" y="-40.6" font-family="Arial" font-size="8.00">thoiDiemBatDau</text>
<text text-anchor="start" x="516" y="-31.6" font-family="Arial" font-size="8.00">thoiDiemKetThuc</text>
</g>
<!-- bcPCsdlCntt -->
<g id="node5" class="node">
<title>bcPCsdlCntt</title>
<path fill="lightblue" stroke="darkblue" d="M264,-86C264,-86 386,-86 386,-86 392,-86 398,-92 398,-98 398,-98 398,-192 398,-192 398,-198 392,-204 386,-204 386,-204 264,-204 264,-204 258,-204 252,-198 252,-192 252,-192 252,-98 252,-98 252,-92 258,-86 264,-86"/>
<text text-anchor="middle" x="325" y="-190.6" font-family="Arial" font-size="8.00">bcPCsdlCntt</text>
<polyline fill="none" stroke="darkblue" points="252,-181 398,-181 "/>
<text text-anchor="start" x="259" y="-167.6" font-family="Arial" font-size="8.00">soLuongMcvlTaiTruong</text>
<text text-anchor="start" x="259" y="-158.6" font-family="Arial" font-size="8.00">soLuongMcaTaiTruong</text>
<text text-anchor="start" x="259" y="-149.6" font-family="Arial" font-size="8.00">soLuongMccThue</text>
<text text-anchor="start" x="259" y="-140.6" font-family="Arial" font-size="8.00">soLuongDtLeasedLine</text>
<text text-anchor="start" x="259" y="-131.6" font-family="Arial" font-size="8.00">dungLuongDtInternetTrongNuoc</text>
<text text-anchor="start" x="259" y="-122.6" font-family="Arial" font-size="8.00">dungLuongDtInternetQuocTe</text>
<text text-anchor="start" x="259" y="-113.6" font-family="Arial" font-size="8.00">soLuongSwitchTang</text>
<text text-anchor="start" x="259" y="-104.6" font-family="Arial" font-size="8.00">soLuongThietBiWifi</text>
<text text-anchor="start" x="259" y="-95.6" font-family="Arial" font-size="8.00">...</text>
</g>
<!-- bcPCsdlCntt&#45;&gt;donVi -->
<g id="edge5" class="edge">
<title>bcPCsdlCntt&#45;&gt;donVi</title>
<path fill="none" stroke="darkblue" d="M398.25,-146.94C463.77,-149.03 562.97,-153.04 649,-160 671.78,-161.84 696.59,-164.5 718.84,-167.13"/>
<polygon fill="darkblue" stroke="darkblue" points="718.97,-167.14 726.49,-171.66 722.94,-167.61 726.91,-168.09 726.91,-168.09 726.91,-168.09 722.94,-167.61 727.34,-164.51 718.97,-167.14 718.97,-167.14"/>
<text text-anchor="middle" x="574.5" y="-162.2" font-family="Times,serif" font-size="6.00" fill="darkblue"> &#160;idDonVi &#160;</text>
</g>
<!-- bcPCsdlCntt&#45;&gt;nguoiBaoCao -->
<g id="edge3" class="edge">
<title>bcPCsdlCntt&#45;&gt;nguoiBaoCao</title>
<path fill="none" stroke="darkblue" d="M398.25,-167.77C427.59,-177.02 461.63,-187.74 491.86,-197.27"/>
<polygon fill="darkblue" stroke="darkblue" points="492.24,-197.39 498.79,-203.23 496.06,-198.59 499.87,-199.8 499.87,-199.8 499.87,-199.8 496.06,-198.59 500.95,-196.36 492.24,-197.39 492.24,-197.39"/>
<text text-anchor="middle" x="449" y="-192.2" font-family="Times,serif" font-size="6.00" fill="darkblue"> &#160;idNguoiBaoCao &#160;</text>
</g>
<!-- bcPCsdlCntt&#45;&gt;giaiDoanBaoCao -->
<g id="edge4" class="edge">
<title>bcPCsdlCntt&#45;&gt;giaiDoanBaoCao</title>
<path fill="none" stroke="darkblue" d="M398.25,-118.43C430.62,-106.54 468.7,-92.53 501.08,-80.63"/>
<polygon fill="darkblue" stroke="darkblue" points="501.24,-80.57 509.99,-81.19 505,-79.19 508.75,-77.81 508.75,-77.81 508.75,-77.81 505,-79.19 507.51,-74.43 501.24,-80.57 501.24,-80.57"/>
<text text-anchor="middle" x="449" y="-112.2" font-family="Times,serif" font-size="6.00" fill="darkblue"> &#160;idGiaiDoan &#160;</text>
</g>
<!-- thongTinHtCsdl -->
<g id="node6" class="node">
<title>thongTinHtCsdl</title>
<path fill="lightgreen" stroke="darkgreen" d="M277,-234.5C277,-234.5 373,-234.5 373,-234.5 379,-234.5 385,-240.5 385,-246.5 385,-246.5 385,-277.5 385,-277.5 385,-283.5 379,-289.5 373,-289.5 373,-289.5 277,-289.5 277,-289.5 271,-289.5 265,-283.5 265,-277.5 265,-277.5 265,-246.5 265,-246.5 265,-240.5 271,-234.5 277,-234.5"/>
<text text-anchor="middle" x="325" y="-276.1" font-family="Arial" font-size="8.00">thongTinHtCsdl</text>
<polyline fill="none" stroke="darkgreen" points="265,-266.5 385,-266.5 "/>
<text text-anchor="start" x="272" y="-253.1" font-family="Arial" font-size="8.00">🔑 idHtCsdl : INTEGER</text>
<text text-anchor="start" x="272" y="-244.1" font-family="Arial" font-size="8.00">tenHtCsdl</text>
</g>
<!-- thongKeHtCsdl -->
<g id="node7" class="node">
<title>thongKeHtCsdl</title>
<path fill="lightyellow" stroke="darkorange" d="M16.5,-172C16.5,-172 145.5,-172 145.5,-172 151.5,-172 157.5,-178 157.5,-184 157.5,-184 157.5,-224 157.5,-224 157.5,-230 151.5,-236 145.5,-236 145.5,-236 16.5,-236 16.5,-236 10.5,-236 4.5,-230 4.5,-224 4.5,-224 4.5,-184 4.5,-184 4.5,-178 10.5,-172 16.5,-172"/>
<text text-anchor="middle" x="81" y="-222.6" font-family="Arial" font-size="8.00">thongKeHtCsdl</text>
<polyline fill="none" stroke="darkorange" points="4.5,-213 157.5,-213 "/>
<text text-anchor="start" x="11.5" y="-199.6" font-family="Arial" font-size="8.00">🔗 🔑 idBaoCao : INTEGER</text>
<text text-anchor="start" x="11.5" y="-190.6" font-family="Arial" font-size="8.00">🔗 🔑 idHtCsdl : INTEGER</text>
<text text-anchor="start" x="11.5" y="-181.6" font-family="Arial" font-size="8.00">soLuong</text>
</g>
<!-- thongKeHtCsdl&#45;&gt;bcPCsdlCntt -->
<g id="edge7" class="edge">
<title>thongKeHtCsdl&#45;&gt;bcPCsdlCntt</title>
<path fill="none" stroke="darkblue" d="M157.57,-185.57C184.97,-178.9 215.99,-171.33 243.77,-164.56"/>
<polygon fill="darkblue" stroke="darkblue" points="244.12,-164.48 252.74,-166.08 248,-163.53 251.89,-162.58 251.89,-162.58 251.89,-162.58 248,-163.53 251.04,-159.08 244.12,-164.48 244.12,-164.48"/>
<text text-anchor="middle" x="207" y="-180.2" font-family="Times,serif" font-size="6.00" fill="darkblue"> &#160;idBaoCao &#160;</text>
</g>
<!-- thongKeHtCsdl&#45;&gt;thongTinHtCsdl -->
<g id="edge6" class="edge">
<title>thongKeHtCsdl&#45;&gt;thongTinHtCsdl</title>
<path fill="none" stroke="darkblue" d="M157.57,-222.11C189.27,-229.71 225.84,-238.47 256.61,-245.85"/>
<polygon fill="darkblue" stroke="darkblue" points="256.93,-245.93 263.87,-251.29 260.82,-246.86 264.71,-247.79 264.71,-247.79 264.71,-247.79 260.82,-246.86 265.55,-244.29 256.93,-245.93 256.93,-245.93"/>
<text text-anchor="middle" x="207" y="-240.2" font-family="Times,serif" font-size="6.00" fill="darkblue"> &#160;idHtCsdl &#160;</text>
</g>
<!-- thongTinTuongLua -->
<g id="node8" class="node">
<title>thongTinTuongLua</title>
<path fill="lightgreen" stroke="darkgreen" d="M270.5,-319.5C270.5,-319.5 379.5,-319.5 379.5,-319.5 385.5,-319.5 391.5,-325.5 391.5,-331.5 391.5,-331.5 391.5,-362.5 391.5,-362.5 391.5,-368.5 385.5,-374.5 379.5,-374.5 379.5,-374.5 270.5,-374.5 270.5,-374.5 264.5,-374.5 258.5,-368.5 258.5,-362.5 258.5,-362.5 258.5,-331.5 258.5,-331.5 258.5,-325.5 264.5,-319.5 270.5,-319.5"/>
<text text-anchor="middle" x="325" y="-361.1" font-family="Arial" font-size="8.00">thongTinTuongLua</text>
<polyline fill="none" stroke="darkgreen" points="258.5,-351.5 391.5,-351.5 "/>
<text text-anchor="start" x="265.5" y="-338.1" font-family="Arial" font-size="8.00">🔑 idTuongLua : INTEGER</text>
<text text-anchor="start" x="265.5" y="-329.1" font-family="Arial" font-size="8.00">tenTuongLua</text>
</g>
<!-- thongKeTuongLua -->
<g id="node9" class="node">
<title>thongKeTuongLua</title>
<path fill="lightyellow" stroke="darkorange" d="M12,-293C12,-293 150,-293 150,-293 156,-293 162,-299 162,-305 162,-305 162,-345 162,-345 162,-351 156,-357 150,-357 150,-357 12,-357 12,-357 6,-357 0,-351 0,-345 0,-345 0,-305 0,-305 0,-299 6,-293 12,-293"/>
<text text-anchor="middle" x="81" y="-343.6" font-family="Arial" font-size="8.00">thongKeTuongLua</text>
<polyline fill="none" stroke="darkorange" points="0,-334 162,-334 "/>
<text text-anchor="start" x="7" y="-320.6" font-family="Arial" font-size="8.00">🔗 🔑 idBaoCao : INTEGER</text>
<text text-anchor="start" x="7" y="-311.6" font-family="Arial" font-size="8.00">🔗 🔑 idTuongLua : INTEGER</text>
<text text-anchor="start" x="7" y="-302.6" font-family="Arial" font-size="8.00">soLuong</text>
</g>
<!-- thongKeTuongLua&#45;&gt;bcPCsdlCntt -->
<g id="edge8" class="edge">
<title>thongKeTuongLua&#45;&gt;bcPCsdlCntt</title>
<path fill="none" stroke="darkblue" d="M162.24,-294.56C185.62,-283.37 210.18,-269.15 230,-252 243.05,-240.71 241.1,-233.38 252,-220 254.5,-216.93 257.11,-213.83 259.78,-210.73"/>
<polygon fill="darkblue" stroke="darkblue" points="260.07,-210.4 268.05,-206.76 262.7,-207.39 265.34,-204.39 265.34,-204.39 265.34,-204.39 262.7,-207.39 262.63,-202.01 260.07,-210.4 260.07,-210.4"/>
<text text-anchor="middle" x="207" y="-284.2" font-family="Times,serif" font-size="6.00" fill="darkblue"> &#160;idBaoCao &#160;</text>
</g>
<!-- thongKeTuongLua&#45;&gt;thongTinTuongLua -->
<g id="edge9" class="edge">
<title>thongKeTuongLua&#45;&gt;thongTinTuongLua</title>
<path fill="none" stroke="darkblue" d="M162.25,-332.3C190.67,-334.88 222.5,-337.77 250.35,-340.3"/>
<polygon fill="darkblue" stroke="darkblue" points="250.5,-340.32 258.14,-344.63 254.49,-340.68 258.47,-341.04 258.47,-341.04 258.47,-341.04 254.49,-340.68 258.8,-337.46 250.5,-340.32 250.5,-340.32"/>
<text text-anchor="middle" x="207" y="-339.2" font-family="Times,serif" font-size="6.00" fill="darkblue"> &#160;idTuongLua &#160;</text>
</g>
<!-- thongTinPmdv -->
<g id="node10" class="node">
<title>thongTinPmdv</title>
<path fill="lightgreen" stroke="darkgreen" d="M279.5,-0.5C279.5,-0.5 370.5,-0.5 370.5,-0.5 376.5,-0.5 382.5,-6.5 382.5,-12.5 382.5,-12.5 382.5,-43.5 382.5,-43.5 382.5,-49.5 376.5,-55.5 370.5,-55.5 370.5,-55.5 279.5,-55.5 279.5,-55.5 273.5,-55.5 267.5,-49.5 267.5,-43.5 267.5,-43.5 267.5,-12.5 267.5,-12.5 267.5,-6.5 273.5,-0.5 279.5,-0.5"/>
<text text-anchor="middle" x="325" y="-42.1" font-family="Arial" font-size="8.00">thongTinPmdv</text>
<polyline fill="none" stroke="darkgreen" points="267.5,-32.5 382.5,-32.5 "/>
<text text-anchor="start" x="274.5" y="-19.1" font-family="Arial" font-size="8.00">🔑 idPmdv : INTEGER</text>
<text text-anchor="start" x="274.5" y="-10.1" font-family="Arial" font-size="8.00">tenPmdv</text>
</g>
<!-- thongKePmdv -->
<g id="node11" class="node">
<title>thongKePmdv</title>
<path fill="lightyellow" stroke="darkorange" d="M16.5,-67C16.5,-67 145.5,-67 145.5,-67 151.5,-67 157.5,-73 157.5,-79 157.5,-79 157.5,-119 157.5,-119 157.5,-125 151.5,-131 145.5,-131 145.5,-131 16.5,-131 16.5,-131 10.5,-131 4.5,-125 4.5,-119 4.5,-119 4.5,-79 4.5,-79 4.5,-73 10.5,-67 16.5,-67"/>
<text text-anchor="middle" x="81" y="-117.6" font-family="Arial" font-size="8.00">thongKePmdv</text>
<polyline fill="none" stroke="darkorange" points="4.5,-108 157.5,-108 "/>
<text text-anchor="start" x="11.5" y="-94.6" font-family="Arial" font-size="8.00">🔗 🔑 idBaoCao : INTEGER</text>
<text text-anchor="start" x="11.5" y="-85.6" font-family="Arial" font-size="8.00">🔗 🔑 idPmdv : INTEGER</text>
<text text-anchor="start" x="11.5" y="-76.6" font-family="Arial" font-size="8.00">soLuong</text>
</g>
<!-- thongKePmdv&#45;&gt;bcPCsdlCntt -->
<g id="edge10" class="edge">
<title>thongKePmdv&#45;&gt;bcPCsdlCntt</title>
<path fill="none" stroke="darkblue" d="M157.57,-113.37C184.97,-118.57 215.99,-124.47 243.77,-129.75"/>
<polygon fill="darkblue" stroke="darkblue" points="244.03,-129.8 251.22,-134.83 247.96,-130.55 251.89,-131.29 251.89,-131.29 251.89,-131.29 247.96,-130.55 252.56,-127.76 244.03,-129.8 244.03,-129.8"/>
<text text-anchor="middle" x="207" y="-128.2" font-family="Times,serif" font-size="6.00" fill="darkblue"> &#160;idBaoCao &#160;</text>
</g>
<!-- thongKePmdv&#45;&gt;thongTinPmdv -->
<g id="edge11" class="edge">
<title>thongKePmdv&#45;&gt;thongTinPmdv</title>
<path fill="none" stroke="darkblue" d="M157.57,-76.83C190.3,-67.22 228.22,-56.1 259.59,-46.9"/>
<polygon fill="darkblue" stroke="darkblue" points="259.74,-46.85 268.43,-48.06 263.58,-45.73 267.41,-44.6 267.41,-44.6 267.41,-44.6 263.58,-45.73 266.4,-41.15 259.74,-46.85 259.74,-46.85"/>
<text text-anchor="middle" x="207" y="-70.2" font-family="Times,serif" font-size="6.00" fill="darkblue"> &#160;idPmdv &#160;</text>
</g>
</g>
</svg>
