<?xml version="1.0" encoding="UTF-8" standalone="no"?>
<!DOCTYPE svg PUBLIC "-//W3C//DTD SVG 1.1//EN"
 "http://www.w3.org/Graphics/SVG/1.1/DTD/svg11.dtd">
<!-- Generated by graphviz version 2.50.0 (0)
 -->
<!-- Pages: 1 -->
<svg width="1129pt" height="366pt"
 viewBox="14.40 14.40 1115.00 352.00" xmlns="http://www.w3.org/2000/svg" xmlns:xlink="http://www.w3.org/1999/xlink">
<g id="graph0" class="graph" transform="scale(1 1) rotate(0) translate(43.2 323.2)">
<polygon fill="white" stroke="transparent" points="-28.8,28.8 -28.8,-308.8 1071.8,-308.8 1071.8,28.8 -28.8,28.8"/>
<text text-anchor="middle" x="521.5" y="-263.2" font-family="Arial Bold" font-size="16.00" fill="darkblue">Phòng Cơ Sở Vật Chất</text>
<text text-anchor="middle" x="521.5" y="-245.2" font-family="Arial Bold" font-size="16.00" fill="darkblue">(PCSVC)</text>
<!-- toChuc -->
<g id="node1" class="node">
<title>toChuc</title>
<path fill="lightcoral" stroke="darkred" d="M932,-176C932,-176 1031,-176 1031,-176 1037,-176 1043,-182 1043,-188 1043,-188 1043,-219 1043,-219 1043,-225 1037,-231 1031,-231 1031,-231 932,-231 932,-231 926,-231 920,-225 920,-219 920,-219 920,-188 920,-188 920,-182 926,-176 932,-176"/>
<text text-anchor="middle" x="981.5" y="-217.6" font-family="Arial" font-size="8.00">toChuc</text>
<polyline fill="none" stroke="darkred" points="920,-208 1043,-208 "/>
<text text-anchor="start" x="927" y="-194.6" font-family="Arial" font-size="8.00">🔑 idToChuc : INTEGER</text>
<text text-anchor="start" x="927" y="-185.6" font-family="Arial" font-size="8.00">capToChuc</text>
</g>
<!-- donVi -->
<g id="node2" class="node">
<title>donVi</title>
<path fill="lightcoral" stroke="darkred" d="M727,-171.5C727,-171.5 826,-171.5 826,-171.5 832,-171.5 838,-177.5 838,-183.5 838,-183.5 838,-223.5 838,-223.5 838,-229.5 832,-235.5 826,-235.5 826,-235.5 727,-235.5 727,-235.5 721,-235.5 715,-229.5 715,-223.5 715,-223.5 715,-183.5 715,-183.5 715,-177.5 721,-171.5 727,-171.5"/>
<text text-anchor="middle" x="776.5" y="-222.1" font-family="Arial" font-size="8.00">donVi</text>
<polyline fill="none" stroke="darkred" points="715,-212.5 838,-212.5 "/>
<text text-anchor="start" x="722" y="-199.1" font-family="Arial" font-size="8.00">🔑 idDonVi : INTEGER</text>
<text text-anchor="start" x="722" y="-190.1" font-family="Arial" font-size="8.00">capDonVi</text>
<text text-anchor="start" x="722" y="-181.1" font-family="Arial" font-size="8.00">🔗 idToChuc : INTEGER</text>
</g>
<!-- donVi&#45;&gt;toChuc -->
<g id="edge1" class="edge">
<title>donVi&#45;&gt;toChuc</title>
<path fill="none" stroke="darkblue" d="M838.13,-203.5C861.23,-203.5 887.71,-203.5 911.53,-203.5"/>
<polygon fill="darkblue" stroke="darkblue" points="911.83,-203.5 919.83,-207.1 915.83,-203.5 919.83,-203.5 919.83,-203.5 919.83,-203.5 915.83,-203.5 919.83,-199.9 911.83,-203.5 911.83,-203.5"/>
<text text-anchor="middle" x="879" y="-205.7" font-family="Times,serif" font-size="6.00" fill="darkblue"> &#160;idToChuc &#160;</text>
</g>
<!-- nguoiBaoCao -->
<g id="node3" class="node">
<title>nguoiBaoCao</title>
<path fill="lightcoral" stroke="darkred" d="M500,-112.5C500,-112.5 625,-112.5 625,-112.5 631,-112.5 637,-118.5 637,-124.5 637,-124.5 637,-182.5 637,-182.5 637,-188.5 631,-194.5 625,-194.5 625,-194.5 500,-194.5 500,-194.5 494,-194.5 488,-188.5 488,-182.5 488,-182.5 488,-124.5 488,-124.5 488,-118.5 494,-112.5 500,-112.5"/>
<text text-anchor="middle" x="562.5" y="-181.1" font-family="Arial" font-size="8.00">nguoiBaoCao</text>
<polyline fill="none" stroke="darkred" points="488,-171.5 637,-171.5 "/>
<text text-anchor="start" x="495" y="-158.1" font-family="Arial" font-size="8.00">🔑 idNguoiBaoCao : INTEGER</text>
<text text-anchor="start" x="495" y="-149.1" font-family="Arial" font-size="8.00">hoVaTen</text>
<text text-anchor="start" x="495" y="-140.1" font-family="Arial" font-size="8.00">chucVu</text>
<text text-anchor="start" x="495" y="-131.1" font-family="Arial" font-size="8.00">emailTruong</text>
<text text-anchor="start" x="495" y="-122.1" font-family="Arial" font-size="8.00">🔗 idDonVi : INTEGER</text>
</g>
<!-- nguoiBaoCao&#45;&gt;donVi -->
<g id="edge2" class="edge">
<title>nguoiBaoCao&#45;&gt;donVi</title>
<path fill="none" stroke="darkblue" d="M637.05,-170.85C659.63,-176.17 684.39,-182.01 706.64,-187.26"/>
<polygon fill="darkblue" stroke="darkblue" points="706.93,-187.33 713.89,-192.67 710.83,-188.25 714.72,-189.16 714.72,-189.16 714.72,-189.16 710.83,-188.25 715.54,-185.66 706.93,-187.33 706.93,-187.33"/>
<text text-anchor="middle" x="676" y="-185.7" font-family="Times,serif" font-size="6.00" fill="darkblue"> &#160;idDonVi &#160;</text>
</g>
<!-- giaiDoanBaoCao -->
<g id="node4" class="node">
<title>giaiDoanBaoCao</title>
<path fill="lightcoral" stroke="darkred" d="M509,-18.5C509,-18.5 616,-18.5 616,-18.5 622,-18.5 628,-24.5 628,-30.5 628,-30.5 628,-70.5 628,-70.5 628,-76.5 622,-82.5 616,-82.5 616,-82.5 509,-82.5 509,-82.5 503,-82.5 497,-76.5 497,-70.5 497,-70.5 497,-30.5 497,-30.5 497,-24.5 503,-18.5 509,-18.5"/>
<text text-anchor="middle" x="562.5" y="-69.1" font-family="Arial" font-size="8.00">giaiDoanBaoCao</text>
<polyline fill="none" stroke="darkred" points="497,-59.5 628,-59.5 "/>
<text text-anchor="start" x="504" y="-46.1" font-family="Arial" font-size="8.00">🔑 idGiaiDoan : INTEGER</text>
<text text-anchor="start" x="504" y="-37.1" font-family="Arial" font-size="8.00">thoiDiemBatDau</text>
<text text-anchor="start" x="504" y="-28.1" font-family="Arial" font-size="8.00">thoiDiemKetThuc</text>
</g>
<!-- bcPCsvc -->
<g id="node5" class="node">
<title>bcPCsvc</title>
<path fill="lightblue" stroke="darkblue" d="M249,-94.5C249,-94.5 374,-94.5 374,-94.5 380,-94.5 386,-100.5 386,-106.5 386,-106.5 386,-200.5 386,-200.5 386,-206.5 380,-212.5 374,-212.5 374,-212.5 249,-212.5 249,-212.5 243,-212.5 237,-206.5 237,-200.5 237,-200.5 237,-106.5 237,-106.5 237,-100.5 243,-94.5 249,-94.5"/>
<text text-anchor="middle" x="311.5" y="-199.1" font-family="Arial" font-size="8.00">bcPCsvc</text>
<polyline fill="none" stroke="darkblue" points="237,-189.5 386,-189.5 "/>
<text text-anchor="start" x="244" y="-176.1" font-family="Arial" font-size="8.00">soLuongDatDai</text>
<text text-anchor="start" x="244" y="-167.1" font-family="Arial" font-size="8.00">soLuongCongTrinh</text>
<text text-anchor="start" x="244" y="-158.1" font-family="Arial" font-size="8.00">soLuongHthtkt</text>
<text text-anchor="start" x="244" y="-149.1" font-family="Arial" font-size="8.00">soLuongCxcq</text>
<text text-anchor="start" x="244" y="-140.1" font-family="Arial" font-size="8.00">🔑 idBaoCao : INTEGER</text>
<text text-anchor="start" x="244" y="-131.1" font-family="Arial" font-size="8.00">timestamp</text>
<text text-anchor="start" x="244" y="-122.1" font-family="Arial" font-size="8.00">🔗 idNguoiBaoCao : INTEGER</text>
<text text-anchor="start" x="244" y="-113.1" font-family="Arial" font-size="8.00">🔗 idDonVi : INTEGER</text>
<text text-anchor="start" x="244" y="-104.1" font-family="Arial" font-size="8.00">...</text>
</g>
<!-- bcPCsvc&#45;&gt;donVi -->
<g id="edge3" class="edge">
<title>bcPCsvc&#45;&gt;donVi</title>
<path fill="none" stroke="darkblue" d="M386.43,-182.68C417.3,-193.39 453.87,-204.19 488,-209.5 553.43,-219.69 570.79,-210.93 637,-209.5 659.72,-209.01 684.51,-208.06 706.77,-207.07"/>
<polygon fill="darkblue" stroke="darkblue" points="706.85,-207.06 715.01,-210.29 710.85,-206.88 714.84,-206.7 714.84,-206.7 714.84,-206.7 710.85,-206.88 714.68,-203.1 706.85,-207.06 706.85,-207.06"/>
<text text-anchor="middle" x="562.5" y="-216.7" font-family="Times,serif" font-size="6.00" fill="darkblue"> &#160;idDonVi &#160;</text>
</g>
<!-- bcPCsvc&#45;&gt;nguoiBaoCao -->
<g id="edge5" class="edge">
<title>bcPCsvc&#45;&gt;nguoiBaoCao</title>
<path fill="none" stroke="darkblue" d="M386.2,-153.5C415.69,-153.5 449.76,-153.5 479.99,-153.5"/>
<polygon fill="darkblue" stroke="darkblue" points="479.99,-153.5 487.99,-157.1 483.99,-153.5 487.99,-153.5 487.99,-153.5 487.99,-153.5 483.99,-153.5 487.99,-149.9 479.99,-153.5 479.99,-153.5"/>
<text text-anchor="middle" x="437" y="-155.7" font-family="Times,serif" font-size="6.00" fill="darkblue"> &#160;idNguoiBaoCao &#160;</text>
</g>
<!-- bcPCsvc&#45;&gt;giaiDoanBaoCao -->
<g id="edge4" class="edge">
<title>bcPCsvc&#45;&gt;giaiDoanBaoCao</title>
<path fill="none" stroke="darkblue" d="M386.2,-123.01C418.72,-109.56 456.84,-93.79 489.2,-80.41"/>
<polygon fill="darkblue" stroke="darkblue" points="489.47,-80.29 498.24,-80.56 493.17,-78.76 496.87,-77.24 496.87,-77.24 496.87,-77.24 493.17,-78.76 495.49,-73.91 489.47,-80.29 489.47,-80.29"/>
<text text-anchor="middle" x="437" y="-113.7" font-family="Times,serif" font-size="6.00" fill="darkblue"> &#160;idGiaiDoan &#160;</text>
</g>
<!-- thongTinMmtb -->
<g id="node6" class="node">
<title>thongTinMmtb</title>
<path fill="lightgreen" stroke="darkgreen" d="M265.5,-0.5C265.5,-0.5 357.5,-0.5 357.5,-0.5 363.5,-0.5 369.5,-6.5 369.5,-12.5 369.5,-12.5 369.5,-52.5 369.5,-52.5 369.5,-58.5 363.5,-64.5 357.5,-64.5 357.5,-64.5 265.5,-64.5 265.5,-64.5 259.5,-64.5 253.5,-58.5 253.5,-52.5 253.5,-52.5 253.5,-12.5 253.5,-12.5 253.5,-6.5 259.5,-0.5 265.5,-0.5"/>
<text text-anchor="middle" x="311.5" y="-51.1" font-family="Arial" font-size="8.00">thongTinMmtb</text>
<polyline fill="none" stroke="darkgreen" points="253.5,-41.5 369.5,-41.5 "/>
<text text-anchor="start" x="260.5" y="-28.1" font-family="Arial" font-size="8.00">🔑 idMmtb : INTEGER</text>
<text text-anchor="start" x="260.5" y="-19.1" font-family="Arial" font-size="8.00">loaiMmtb</text>
<text text-anchor="start" x="260.5" y="-10.1" font-family="Arial" font-size="8.00">tenMmtb</text>
</g>
<!-- thongKeMuaSamMmtb -->
<g id="node7" class="node">
<title>thongKeMuaSamMmtb</title>
<path fill="lightyellow" stroke="darkorange" d="M12,-16C12,-16 141,-16 141,-16 147,-16 153,-22 153,-28 153,-28 153,-77 153,-77 153,-83 147,-89 141,-89 141,-89 12,-89 12,-89 6,-89 0,-83 0,-77 0,-77 0,-28 0,-28 0,-22 6,-16 12,-16"/>
<text text-anchor="middle" x="76.5" y="-75.6" font-family="Arial" font-size="8.00">thongKeMuaSamMmtb</text>
<polyline fill="none" stroke="darkorange" points="0,-66 153,-66 "/>
<text text-anchor="start" x="7" y="-52.6" font-family="Arial" font-size="8.00">🔗 🔑 idBaoCao : INTEGER</text>
<text text-anchor="start" x="7" y="-43.6" font-family="Arial" font-size="8.00">🔗 🔑 idMmtb : INTEGER</text>
<text text-anchor="start" x="7" y="-34.6" font-family="Arial" font-size="8.00">soLuong</text>
<text text-anchor="start" x="7" y="-25.6" font-family="Arial" font-size="8.00">tongChiPhi</text>
</g>
<!-- thongKeMuaSamMmtb&#45;&gt;bcPCsvc -->
<g id="edge6" class="edge">
<title>thongKeMuaSamMmtb&#45;&gt;bcPCsvc</title>
<path fill="none" stroke="darkblue" d="M153.15,-85.29C177.47,-95.84 204.52,-107.56 229.23,-118.27"/>
<polygon fill="darkblue" stroke="darkblue" points="229.48,-118.38 235.39,-124.86 233.15,-119.97 236.82,-121.56 236.82,-121.56 236.82,-121.56 233.15,-119.97 238.25,-118.26 229.48,-118.38 229.48,-118.38"/>
<text text-anchor="middle" x="195" y="-114.7" font-family="Times,serif" font-size="6.00" fill="darkblue"> &#160;idBaoCao &#160;</text>
</g>
<!-- thongKeMuaSamMmtb&#45;&gt;thongTinMmtb -->
<g id="edge7" class="edge">
<title>thongKeMuaSamMmtb&#45;&gt;thongTinMmtb</title>
<path fill="none" stroke="darkblue" d="M153.15,-46.01C182.78,-43.46 216.45,-40.57 245.01,-38.12"/>
<polygon fill="darkblue" stroke="darkblue" points="245.35,-38.09 253.62,-41 249.33,-37.75 253.32,-37.41 253.32,-37.41 253.32,-37.41 249.33,-37.75 253.01,-33.82 245.35,-38.09 245.35,-38.09"/>
<text text-anchor="middle" x="195" y="-46.7" font-family="Times,serif" font-size="6.00" fill="darkblue"> &#160;idMmtb &#160;</text>
</g>
</g>
</svg>
