<?xml version="1.0" encoding="UTF-8" standalone="no"?>
<!DOCTYPE svg PUBLIC "-//W3C//DTD SVG 1.1//EN"
 "http://www.w3.org/Graphics/SVG/1.1/DTD/svg11.dtd">
<!-- Generated by graphviz version 2.50.0 (0)
 -->
<!-- Pages: 1 -->
<svg width="869pt" height="348pt"
 viewBox="14.40 14.40 855.00 334.00" xmlns="http://www.w3.org/2000/svg" xmlns:xlink="http://www.w3.org/1999/xlink">
<g id="graph0" class="graph" transform="scale(1 1) rotate(0) translate(43.2 305.2)">
<polygon fill="white" stroke="transparent" points="-28.8,28.8 -28.8,-290.8 811.8,-290.8 811.8,28.8 -28.8,28.8"/>
<text text-anchor="middle" x="391.5" y="-245.2" font-family="Arial Bold" font-size="16.00" fill="darkblue">Phòng Công Tác Sinh Viên</text>
<text text-anchor="middle" x="391.5" y="-227.2" font-family="Arial Bold" font-size="16.00" fill="darkblue">(PCTSV)</text>
<!-- toChuc -->
<g id="node1" class="node">
<title>toChuc</title>
<path fill="lightcoral" stroke="darkred" d="M672,-158C672,-158 771,-158 771,-158 777,-158 783,-164 783,-170 783,-170 783,-201 783,-201 783,-207 777,-213 771,-213 771,-213 672,-213 672,-213 666,-213 660,-207 660,-201 660,-201 660,-170 660,-170 660,-164 666,-158 672,-158"/>
<text text-anchor="middle" x="721.5" y="-199.6" font-family="Arial" font-size="8.00">toChuc</text>
<polyline fill="none" stroke="darkred" points="660,-190 783,-190 "/>
<text text-anchor="start" x="667" y="-176.6" font-family="Arial" font-size="8.00">🔑 idToChuc : INTEGER</text>
<text text-anchor="start" x="667" y="-167.6" font-family="Arial" font-size="8.00">capToChuc</text>
</g>
<!-- donVi -->
<g id="node2" class="node">
<title>donVi</title>
<path fill="lightcoral" stroke="darkred" d="M467,-153.5C467,-153.5 566,-153.5 566,-153.5 572,-153.5 578,-159.5 578,-165.5 578,-165.5 578,-205.5 578,-205.5 578,-211.5 572,-217.5 566,-217.5 566,-217.5 467,-217.5 467,-217.5 461,-217.5 455,-211.5 455,-205.5 455,-205.5 455,-165.5 455,-165.5 455,-159.5 461,-153.5 467,-153.5"/>
<text text-anchor="middle" x="516.5" y="-204.1" font-family="Arial" font-size="8.00">donVi</text>
<polyline fill="none" stroke="darkred" points="455,-194.5 578,-194.5 "/>
<text text-anchor="start" x="462" y="-181.1" font-family="Arial" font-size="8.00">🔑 idDonVi : INTEGER</text>
<text text-anchor="start" x="462" y="-172.1" font-family="Arial" font-size="8.00">capDonVi</text>
<text text-anchor="start" x="462" y="-163.1" font-family="Arial" font-size="8.00">🔗 idToChuc : INTEGER</text>
</g>
<!-- donVi&#45;&gt;toChuc -->
<g id="edge1" class="edge">
<title>donVi&#45;&gt;toChuc</title>
<path fill="none" stroke="darkblue" d="M578.13,-185.5C601.23,-185.5 627.71,-185.5 651.53,-185.5"/>
<polygon fill="darkblue" stroke="darkblue" points="651.83,-185.5 659.83,-189.1 655.83,-185.5 659.83,-185.5 659.83,-185.5 659.83,-185.5 655.83,-185.5 659.83,-181.9 651.83,-185.5 651.83,-185.5"/>
<text text-anchor="middle" x="619" y="-187.7" font-family="Times,serif" font-size="6.00" fill="darkblue"> &#160;idToChuc &#160;</text>
</g>
<!-- nguoiBaoCao -->
<g id="node3" class="node">
<title>nguoiBaoCao</title>
<path fill="lightcoral" stroke="darkred" d="M240,-94.5C240,-94.5 365,-94.5 365,-94.5 371,-94.5 377,-100.5 377,-106.5 377,-106.5 377,-164.5 377,-164.5 377,-170.5 371,-176.5 365,-176.5 365,-176.5 240,-176.5 240,-176.5 234,-176.5 228,-170.5 228,-164.5 228,-164.5 228,-106.5 228,-106.5 228,-100.5 234,-94.5 240,-94.5"/>
<text text-anchor="middle" x="302.5" y="-163.1" font-family="Arial" font-size="8.00">nguoiBaoCao</text>
<polyline fill="none" stroke="darkred" points="228,-153.5 377,-153.5 "/>
<text text-anchor="start" x="235" y="-140.1" font-family="Arial" font-size="8.00">🔑 idNguoiBaoCao : INTEGER</text>
<text text-anchor="start" x="235" y="-131.1" font-family="Arial" font-size="8.00">hoVaTen</text>
<text text-anchor="start" x="235" y="-122.1" font-family="Arial" font-size="8.00">chucVu</text>
<text text-anchor="start" x="235" y="-113.1" font-family="Arial" font-size="8.00">emailTruong</text>
<text text-anchor="start" x="235" y="-104.1" font-family="Arial" font-size="8.00">🔗 idDonVi : INTEGER</text>
</g>
<!-- nguoiBaoCao&#45;&gt;donVi -->
<g id="edge2" class="edge">
<title>nguoiBaoCao&#45;&gt;donVi</title>
<path fill="none" stroke="darkblue" d="M377.05,-152.85C399.63,-158.17 424.39,-164.01 446.64,-169.26"/>
<polygon fill="darkblue" stroke="darkblue" points="446.93,-169.33 453.89,-174.67 450.83,-170.25 454.72,-171.16 454.72,-171.16 454.72,-171.16 450.83,-170.25 455.54,-167.66 446.93,-169.33 446.93,-169.33"/>
<text text-anchor="middle" x="416" y="-166.7" font-family="Times,serif" font-size="6.00" fill="darkblue"> &#160;idDonVi &#160;</text>
</g>
<!-- giaiDoanBaoCao -->
<g id="node4" class="node">
<title>giaiDoanBaoCao</title>
<path fill="lightcoral" stroke="darkred" d="M249,-0.5C249,-0.5 356,-0.5 356,-0.5 362,-0.5 368,-6.5 368,-12.5 368,-12.5 368,-52.5 368,-52.5 368,-58.5 362,-64.5 356,-64.5 356,-64.5 249,-64.5 249,-64.5 243,-64.5 237,-58.5 237,-52.5 237,-52.5 237,-12.5 237,-12.5 237,-6.5 243,-0.5 249,-0.5"/>
<text text-anchor="middle" x="302.5" y="-51.1" font-family="Arial" font-size="8.00">giaiDoanBaoCao</text>
<polyline fill="none" stroke="darkred" points="237,-41.5 368,-41.5 "/>
<text text-anchor="start" x="244" y="-28.1" font-family="Arial" font-size="8.00">🔑 idGiaiDoan : INTEGER</text>
<text text-anchor="start" x="244" y="-19.1" font-family="Arial" font-size="8.00">thoiDiemBatDau</text>
<text text-anchor="start" x="244" y="-10.1" font-family="Arial" font-size="8.00">thoiDiemKetThuc</text>
</g>
<!-- bcPCtsv -->
<g id="node5" class="node">
<title>bcPCtsv</title>
<path fill="lightblue" stroke="darkblue" d="M12,-76.5C12,-76.5 114,-76.5 114,-76.5 120,-76.5 126,-82.5 126,-88.5 126,-88.5 126,-182.5 126,-182.5 126,-188.5 120,-194.5 114,-194.5 114,-194.5 12,-194.5 12,-194.5 6,-194.5 0,-188.5 0,-182.5 0,-182.5 0,-88.5 0,-88.5 0,-82.5 6,-76.5 12,-76.5"/>
<text text-anchor="middle" x="63" y="-181.1" font-family="Arial" font-size="8.00">bcPCtsv</text>
<polyline fill="none" stroke="darkblue" points="0,-171.5 126,-171.5 "/>
<text text-anchor="start" x="7" y="-158.1" font-family="Arial" font-size="8.00">soLuongGtxncnChoSvTdDh</text>
<text text-anchor="start" x="7" y="-149.1" font-family="Arial" font-size="8.00">soLuongGtKhacChoSvTdDh</text>
<text text-anchor="start" x="7" y="-140.1" font-family="Arial" font-size="8.00">soLuongSvdkt</text>
<text text-anchor="start" x="7" y="-131.1" font-family="Arial" font-size="8.00">soLuongSvbkl</text>
<text text-anchor="start" x="7" y="-122.1" font-family="Arial" font-size="8.00">soLuongSvdchb</text>
<text text-anchor="start" x="7" y="-113.1" font-family="Arial" font-size="8.00">soLuongSvdmghp</text>
<text text-anchor="start" x="7" y="-104.1" font-family="Arial" font-size="8.00">soLuongSvdhtcpht</text>
<text text-anchor="start" x="7" y="-95.1" font-family="Arial" font-size="8.00">soLuongSvdtcxh</text>
<text text-anchor="start" x="7" y="-86.1" font-family="Arial" font-size="8.00">...</text>
</g>
<!-- bcPCtsv&#45;&gt;donVi -->
<g id="edge3" class="edge">
<title>bcPCtsv&#45;&gt;donVi</title>
<path fill="none" stroke="darkblue" d="M126.22,-162.15C156.35,-173.65 193.42,-185.76 228,-191.5 301.97,-203.78 388.1,-199.59 446.66,-194.02"/>
<polygon fill="darkblue" stroke="darkblue" points="446.78,-194.01 455.09,-196.81 450.76,-193.62 454.74,-193.23 454.74,-193.23 454.74,-193.23 450.76,-193.62 454.39,-189.65 446.78,-194.01 446.78,-194.01"/>
<text text-anchor="middle" x="302.5" y="-200.7" font-family="Times,serif" font-size="6.00" fill="darkblue"> &#160;idDonVi &#160;</text>
</g>
<!-- bcPCtsv&#45;&gt;nguoiBaoCao -->
<g id="edge4" class="edge">
<title>bcPCtsv&#45;&gt;nguoiBaoCao</title>
<path fill="none" stroke="darkblue" d="M126.09,-135.5C154.73,-135.5 189.11,-135.5 219.82,-135.5"/>
<polygon fill="darkblue" stroke="darkblue" points="219.96,-135.5 227.96,-139.1 223.96,-135.5 227.96,-135.5 227.96,-135.5 227.96,-135.5 223.96,-135.5 227.96,-131.9 219.96,-135.5 219.96,-135.5"/>
<text text-anchor="middle" x="177" y="-137.7" font-family="Times,serif" font-size="6.00" fill="darkblue"> &#160;idNguoiBaoCao &#160;</text>
</g>
<!-- bcPCtsv&#45;&gt;giaiDoanBaoCao -->
<g id="edge5" class="edge">
<title>bcPCtsv&#45;&gt;giaiDoanBaoCao</title>
<path fill="none" stroke="darkblue" d="M126.09,-108.57C157.78,-94.83 196.5,-78.04 229.49,-63.73"/>
<polygon fill="darkblue" stroke="darkblue" points="229.53,-63.71 238.3,-63.83 233.2,-62.12 236.87,-60.53 236.87,-60.53 236.87,-60.53 233.2,-62.12 235.44,-57.23 229.53,-63.71 229.53,-63.71"/>
<text text-anchor="middle" x="177" y="-98.7" font-family="Times,serif" font-size="6.00" fill="darkblue"> &#160;idGiaiDoan &#160;</text>
</g>
</g>
</svg>
