<?xml version="1.0" encoding="UTF-8" standalone="no"?>
<!DOCTYPE svg PUBLIC "-//W3C//DTD SVG 1.1//EN"
 "http://www.w3.org/Graphics/SVG/1.1/DTD/svg11.dtd">
<!-- Generated by graphviz version 2.50.0 (0)
 -->
<!-- Pages: 1 -->
<svg width="845pt" height="348pt"
 viewBox="14.40 14.40 831.00 334.00" xmlns="http://www.w3.org/2000/svg" xmlns:xlink="http://www.w3.org/1999/xlink">
<g id="graph0" class="graph" transform="scale(1 1) rotate(0) translate(43.2 305.2)">
<polygon fill="white" stroke="transparent" points="-28.8,28.8 -28.8,-290.8 787.8,-290.8 787.8,28.8 -28.8,28.8"/>
<text text-anchor="middle" x="379.5" y="-245.2" font-family="Arial Bold" font-size="16.00" fill="darkblue">BCPDBCLKT</text>
<text text-anchor="middle" x="379.5" y="-227.2" font-family="Arial Bold" font-size="16.00" fill="darkblue">(PDBCLKT)</text>
<!-- toChuc -->
<g id="node1" class="node">
<title>toChuc</title>
<path fill="lightcoral" stroke="darkred" d="M648,-158C648,-158 747,-158 747,-158 753,-158 759,-164 759,-170 759,-170 759,-201 759,-201 759,-207 753,-213 747,-213 747,-213 648,-213 648,-213 642,-213 636,-207 636,-201 636,-201 636,-170 636,-170 636,-164 642,-158 648,-158"/>
<text text-anchor="middle" x="697.5" y="-199.6" font-family="Arial" font-size="8.00">toChuc</text>
<polyline fill="none" stroke="darkred" points="636,-190 759,-190 "/>
<text text-anchor="start" x="643" y="-176.6" font-family="Arial" font-size="8.00">🔑 idToChuc : INTEGER</text>
<text text-anchor="start" x="643" y="-167.6" font-family="Arial" font-size="8.00">capToChuc</text>
</g>
<!-- donVi -->
<g id="node2" class="node">
<title>donVi</title>
<path fill="lightcoral" stroke="darkred" d="M443,-153.5C443,-153.5 542,-153.5 542,-153.5 548,-153.5 554,-159.5 554,-165.5 554,-165.5 554,-205.5 554,-205.5 554,-211.5 548,-217.5 542,-217.5 542,-217.5 443,-217.5 443,-217.5 437,-217.5 431,-211.5 431,-205.5 431,-205.5 431,-165.5 431,-165.5 431,-159.5 437,-153.5 443,-153.5"/>
<text text-anchor="middle" x="492.5" y="-204.1" font-family="Arial" font-size="8.00">donVi</text>
<polyline fill="none" stroke="darkred" points="431,-194.5 554,-194.5 "/>
<text text-anchor="start" x="438" y="-181.1" font-family="Arial" font-size="8.00">🔑 idDonVi : INTEGER</text>
<text text-anchor="start" x="438" y="-172.1" font-family="Arial" font-size="8.00">capDonVi</text>
<text text-anchor="start" x="438" y="-163.1" font-family="Arial" font-size="8.00">🔗 idToChuc : INTEGER</text>
</g>
<!-- donVi&#45;&gt;toChuc -->
<g id="edge1" class="edge">
<title>donVi&#45;&gt;toChuc</title>
<path fill="none" stroke="darkblue" d="M554.13,-185.5C577.23,-185.5 603.71,-185.5 627.53,-185.5"/>
<polygon fill="darkblue" stroke="darkblue" points="627.83,-185.5 635.83,-189.1 631.83,-185.5 635.83,-185.5 635.83,-185.5 635.83,-185.5 631.83,-185.5 635.83,-181.9 627.83,-185.5 627.83,-185.5"/>
<text text-anchor="middle" x="595" y="-187.7" font-family="Times,serif" font-size="6.00" fill="darkblue"> &#160;idToChuc &#160;</text>
</g>
<!-- nguoiBaoCao -->
<g id="node3" class="node">
<title>nguoiBaoCao</title>
<path fill="lightcoral" stroke="darkred" d="M216,-94.5C216,-94.5 341,-94.5 341,-94.5 347,-94.5 353,-100.5 353,-106.5 353,-106.5 353,-164.5 353,-164.5 353,-170.5 347,-176.5 341,-176.5 341,-176.5 216,-176.5 216,-176.5 210,-176.5 204,-170.5 204,-164.5 204,-164.5 204,-106.5 204,-106.5 204,-100.5 210,-94.5 216,-94.5"/>
<text text-anchor="middle" x="278.5" y="-163.1" font-family="Arial" font-size="8.00">nguoiBaoCao</text>
<polyline fill="none" stroke="darkred" points="204,-153.5 353,-153.5 "/>
<text text-anchor="start" x="211" y="-140.1" font-family="Arial" font-size="8.00">🔑 idNguoiBaoCao : INTEGER</text>
<text text-anchor="start" x="211" y="-131.1" font-family="Arial" font-size="8.00">hoVaTen</text>
<text text-anchor="start" x="211" y="-122.1" font-family="Arial" font-size="8.00">chucVu</text>
<text text-anchor="start" x="211" y="-113.1" font-family="Arial" font-size="8.00">emailTruong</text>
<text text-anchor="start" x="211" y="-104.1" font-family="Arial" font-size="8.00">🔗 idDonVi : INTEGER</text>
</g>
<!-- nguoiBaoCao&#45;&gt;donVi -->
<g id="edge2" class="edge">
<title>nguoiBaoCao&#45;&gt;donVi</title>
<path fill="none" stroke="darkblue" d="M353.05,-152.85C375.63,-158.17 400.39,-164.01 422.64,-169.26"/>
<polygon fill="darkblue" stroke="darkblue" points="422.93,-169.33 429.89,-174.67 426.83,-170.25 430.72,-171.16 430.72,-171.16 430.72,-171.16 426.83,-170.25 431.54,-167.66 422.93,-169.33 422.93,-169.33"/>
<text text-anchor="middle" x="392" y="-166.7" font-family="Times,serif" font-size="6.00" fill="darkblue"> &#160;idDonVi &#160;</text>
</g>
<!-- giaiDoanBaoCao -->
<g id="node4" class="node">
<title>giaiDoanBaoCao</title>
<path fill="lightcoral" stroke="darkred" d="M225,-0.5C225,-0.5 332,-0.5 332,-0.5 338,-0.5 344,-6.5 344,-12.5 344,-12.5 344,-52.5 344,-52.5 344,-58.5 338,-64.5 332,-64.5 332,-64.5 225,-64.5 225,-64.5 219,-64.5 213,-58.5 213,-52.5 213,-52.5 213,-12.5 213,-12.5 213,-6.5 219,-0.5 225,-0.5"/>
<text text-anchor="middle" x="278.5" y="-51.1" font-family="Arial" font-size="8.00">giaiDoanBaoCao</text>
<polyline fill="none" stroke="darkred" points="213,-41.5 344,-41.5 "/>
<text text-anchor="start" x="220" y="-28.1" font-family="Arial" font-size="8.00">🔑 idGiaiDoan : INTEGER</text>
<text text-anchor="start" x="220" y="-19.1" font-family="Arial" font-size="8.00">thoiDiemBatDau</text>
<text text-anchor="start" x="220" y="-10.1" font-family="Arial" font-size="8.00">thoiDiemKetThuc</text>
</g>
<!-- bcPDbclKt -->
<g id="node5" class="node">
<title>bcPDbclKt</title>
<path fill="lightblue" stroke="darkblue" d="M12,-76.5C12,-76.5 90,-76.5 90,-76.5 96,-76.5 102,-82.5 102,-88.5 102,-88.5 102,-182.5 102,-182.5 102,-188.5 96,-194.5 90,-194.5 90,-194.5 12,-194.5 12,-194.5 6,-194.5 0,-188.5 0,-182.5 0,-182.5 0,-88.5 0,-88.5 0,-82.5 6,-76.5 12,-76.5"/>
<text text-anchor="middle" x="51" y="-181.1" font-family="Arial" font-size="8.00">bcPDbclKt</text>
<polyline fill="none" stroke="darkblue" points="0,-171.5 102,-171.5 "/>
<text text-anchor="start" x="7" y="-158.1" font-family="Arial" font-size="8.00">soLuongKhdbcldth</text>
<text text-anchor="start" x="7" y="-149.1" font-family="Arial" font-size="8.00">soLuongKhdbcldrsdc</text>
<text text-anchor="start" x="7" y="-140.1" font-family="Arial" font-size="8.00">soLuongKhdbcldtk</text>
<text text-anchor="start" x="7" y="-131.1" font-family="Arial" font-size="8.00">soLuongKhksDv</text>
<text text-anchor="start" x="7" y="-122.1" font-family="Arial" font-size="8.00">soLuongKhctCsgd</text>
<text text-anchor="start" x="7" y="-113.1" font-family="Arial" font-size="8.00">soLuongKhctCtdt</text>
<text text-anchor="start" x="7" y="-104.1" font-family="Arial" font-size="8.00">soLuongHtvbDbcldcn</text>
<text text-anchor="start" x="7" y="-95.1" font-family="Arial" font-size="8.00">soLuongHtThGvm</text>
<text text-anchor="start" x="7" y="-86.1" font-family="Arial" font-size="8.00">...</text>
</g>
<!-- bcPDbclKt&#45;&gt;donVi -->
<g id="edge3" class="edge">
<title>bcPDbclKt&#45;&gt;donVi</title>
<path fill="none" stroke="darkblue" d="M102.11,-159.05C131.16,-171.4 168.84,-185.23 204,-191.5 277.93,-204.69 364.24,-200.3 422.86,-194.45"/>
<polygon fill="darkblue" stroke="darkblue" points="422.99,-194.43 431.31,-197.19 426.97,-194.02 430.94,-193.61 430.94,-193.61 430.94,-193.61 426.97,-194.02 430.58,-190.03 422.99,-194.43 422.99,-194.43"/>
<text text-anchor="middle" x="278.5" y="-201.7" font-family="Times,serif" font-size="6.00" fill="darkblue"> &#160;idDonVi &#160;</text>
</g>
<!-- bcPDbclKt&#45;&gt;nguoiBaoCao -->
<g id="edge5" class="edge">
<title>bcPDbclKt&#45;&gt;nguoiBaoCao</title>
<path fill="none" stroke="darkblue" d="M102.05,-135.5C129.44,-135.5 164.08,-135.5 195.33,-135.5"/>
<polygon fill="darkblue" stroke="darkblue" points="195.61,-135.5 203.61,-139.1 199.61,-135.5 203.61,-135.5 203.61,-135.5 203.61,-135.5 199.61,-135.5 203.61,-131.9 195.61,-135.5 195.61,-135.5"/>
<text text-anchor="middle" x="153" y="-137.7" font-family="Times,serif" font-size="6.00" fill="darkblue"> &#160;idNguoiBaoCao &#160;</text>
</g>
<!-- bcPDbclKt&#45;&gt;giaiDoanBaoCao -->
<g id="edge4" class="edge">
<title>bcPDbclKt&#45;&gt;giaiDoanBaoCao</title>
<path fill="none" stroke="darkblue" d="M102.05,-112.64C132.32,-98.81 171.45,-80.94 205.07,-65.59"/>
<polygon fill="darkblue" stroke="darkblue" points="205.32,-65.47 214.09,-65.42 208.95,-63.81 212.59,-62.15 212.59,-62.15 212.59,-62.15 208.95,-63.81 211.1,-58.87 205.32,-65.47 205.32,-65.47"/>
<text text-anchor="middle" x="153" y="-104.7" font-family="Times,serif" font-size="6.00" fill="darkblue"> &#160;idGiaiDoan &#160;</text>
</g>
</g>
</svg>
