<?xml version="1.0" encoding="UTF-8" standalone="no"?>
<!DOCTYPE svg PUBLIC "-//W3C//DTD SVG 1.1//EN"
 "http://www.w3.org/Graphics/SVG/1.1/DTD/svg11.dtd">
<!-- Generated by graphviz version 2.50.0 (0)
 -->
<!-- Pages: 1 -->
<svg width="845pt" height="341pt"
 viewBox="14.40 14.40 831.00 327.00" xmlns="http://www.w3.org/2000/svg" xmlns:xlink="http://www.w3.org/1999/xlink">
<g id="graph0" class="graph" transform="scale(1 1) rotate(0) translate(43.2 298.2)">
<polygon fill="white" stroke="transparent" points="-28.8,28.8 -28.8,-283.8 787.8,-283.8 787.8,28.8 -28.8,28.8"/>
<text text-anchor="middle" x="379.5" y="-238.2" font-family="Arial Bold" font-size="16.00" fill="darkblue">Phòng Đảm Bảo Chất Lượng và Khảo Thí</text>
<text text-anchor="middle" x="379.5" y="-220.2" font-family="Arial Bold" font-size="16.00" fill="darkblue">(PDLKT)</text>
<!-- toChuc -->
<g id="node1" class="node">
<title>toChuc</title>
<path fill="lightcoral" stroke="darkred" d="M648,-151C648,-151 747,-151 747,-151 753,-151 759,-157 759,-163 759,-163 759,-194 759,-194 759,-200 753,-206 747,-206 747,-206 648,-206 648,-206 642,-206 636,-200 636,-194 636,-194 636,-163 636,-163 636,-157 642,-151 648,-151"/>
<text text-anchor="middle" x="697.5" y="-192.6" font-family="Arial" font-size="8.00">toChuc</text>
<polyline fill="none" stroke="darkred" points="636,-183 759,-183 "/>
<text text-anchor="start" x="643" y="-169.6" font-family="Arial" font-size="8.00">🔑 idToChuc : INTEGER</text>
<text text-anchor="start" x="643" y="-160.6" font-family="Arial" font-size="8.00">capToChuc</text>
</g>
<!-- donVi -->
<g id="node2" class="node">
<title>donVi</title>
<path fill="lightcoral" stroke="darkred" d="M443,-146.5C443,-146.5 542,-146.5 542,-146.5 548,-146.5 554,-152.5 554,-158.5 554,-158.5 554,-198.5 554,-198.5 554,-204.5 548,-210.5 542,-210.5 542,-210.5 443,-210.5 443,-210.5 437,-210.5 431,-204.5 431,-198.5 431,-198.5 431,-158.5 431,-158.5 431,-152.5 437,-146.5 443,-146.5"/>
<text text-anchor="middle" x="492.5" y="-197.1" font-family="Arial" font-size="8.00">donVi</text>
<polyline fill="none" stroke="darkred" points="431,-187.5 554,-187.5 "/>
<text text-anchor="start" x="438" y="-174.1" font-family="Arial" font-size="8.00">🔑 idDonVi : INTEGER</text>
<text text-anchor="start" x="438" y="-165.1" font-family="Arial" font-size="8.00">capDonVi</text>
<text text-anchor="start" x="438" y="-156.1" font-family="Arial" font-size="8.00">🔗 idToChuc : INTEGER</text>
</g>
<!-- donVi&#45;&gt;toChuc -->
<g id="edge1" class="edge">
<title>donVi&#45;&gt;toChuc</title>
<path fill="none" stroke="darkblue" d="M554.13,-178.5C577.23,-178.5 603.71,-178.5 627.53,-178.5"/>
<polygon fill="darkblue" stroke="darkblue" points="627.83,-178.5 635.83,-182.1 631.83,-178.5 635.83,-178.5 635.83,-178.5 635.83,-178.5 631.83,-178.5 635.83,-174.9 627.83,-178.5 627.83,-178.5"/>
<text text-anchor="middle" x="595" y="-180.7" font-family="Times,serif" font-size="6.00" fill="darkblue"> &#160;idToChuc &#160;</text>
</g>
<!-- nguoiBaoCao -->
<g id="node3" class="node">
<title>nguoiBaoCao</title>
<path fill="lightcoral" stroke="darkred" d="M216,-95C216,-95 341,-95 341,-95 347,-95 353,-101 353,-107 353,-107 353,-156 353,-156 353,-162 347,-168 341,-168 341,-168 216,-168 216,-168 210,-168 204,-162 204,-156 204,-156 204,-107 204,-107 204,-101 210,-95 216,-95"/>
<text text-anchor="middle" x="278.5" y="-154.6" font-family="Arial" font-size="8.00">nguoiBaoCao</text>
<polyline fill="none" stroke="darkred" points="204,-145 353,-145 "/>
<text text-anchor="start" x="211" y="-131.6" font-family="Arial" font-size="8.00">🔑 idNguoiBaoCao : INTEGER</text>
<text text-anchor="start" x="211" y="-122.6" font-family="Arial" font-size="8.00">hoVaTen</text>
<text text-anchor="start" x="211" y="-113.6" font-family="Arial" font-size="8.00">emailTruong</text>
<text text-anchor="start" x="211" y="-104.6" font-family="Arial" font-size="8.00">🔗 idDonVi : INTEGER</text>
</g>
<!-- nguoiBaoCao&#45;&gt;donVi -->
<g id="edge2" class="edge">
<title>nguoiBaoCao&#45;&gt;donVi</title>
<path fill="none" stroke="darkblue" d="M353.05,-147.81C375.63,-152.81 400.39,-158.3 422.64,-163.23"/>
<polygon fill="darkblue" stroke="darkblue" points="422.91,-163.29 429.94,-168.54 426.81,-164.16 430.72,-165.02 430.72,-165.02 430.72,-165.02 426.81,-164.16 431.5,-161.51 422.91,-163.29 422.91,-163.29"/>
<text text-anchor="middle" x="392" y="-160.7" font-family="Times,serif" font-size="6.00" fill="darkblue"> &#160;idDonVi &#160;</text>
</g>
<!-- giaiDoanBaoCao -->
<g id="node4" class="node">
<title>giaiDoanBaoCao</title>
<path fill="lightcoral" stroke="darkred" d="M225,-0.5C225,-0.5 332,-0.5 332,-0.5 338,-0.5 344,-6.5 344,-12.5 344,-12.5 344,-52.5 344,-52.5 344,-58.5 338,-64.5 332,-64.5 332,-64.5 225,-64.5 225,-64.5 219,-64.5 213,-58.5 213,-52.5 213,-52.5 213,-12.5 213,-12.5 213,-6.5 219,-0.5 225,-0.5"/>
<text text-anchor="middle" x="278.5" y="-51.1" font-family="Arial" font-size="8.00">giaiDoanBaoCao</text>
<polyline fill="none" stroke="darkred" points="213,-41.5 344,-41.5 "/>
<text text-anchor="start" x="220" y="-28.1" font-family="Arial" font-size="8.00">🔑 idGiaiDoan : INTEGER</text>
<text text-anchor="start" x="220" y="-19.1" font-family="Arial" font-size="8.00">thoiDiemBatDau</text>
<text text-anchor="start" x="220" y="-10.1" font-family="Arial" font-size="8.00">thoiDiemKetThuc</text>
</g>
<!-- bcPDbclKt -->
<g id="node5" class="node">
<title>bcPDbclKt</title>
<path fill="lightblue" stroke="darkblue" d="M12,-72.5C12,-72.5 90,-72.5 90,-72.5 96,-72.5 102,-78.5 102,-84.5 102,-84.5 102,-178.5 102,-178.5 102,-184.5 96,-190.5 90,-190.5 90,-190.5 12,-190.5 12,-190.5 6,-190.5 0,-184.5 0,-178.5 0,-178.5 0,-84.5 0,-84.5 0,-78.5 6,-72.5 12,-72.5"/>
<text text-anchor="middle" x="51" y="-177.1" font-family="Arial" font-size="8.00">bcPDbclKt</text>
<polyline fill="none" stroke="darkblue" points="0,-167.5 102,-167.5 "/>
<text text-anchor="start" x="7" y="-154.1" font-family="Arial" font-size="8.00">soLuongKhdbcldth</text>
<text text-anchor="start" x="7" y="-145.1" font-family="Arial" font-size="8.00">soLuongKhdbcldrsdc</text>
<text text-anchor="start" x="7" y="-136.1" font-family="Arial" font-size="8.00">soLuongKhdbcldtk</text>
<text text-anchor="start" x="7" y="-127.1" font-family="Arial" font-size="8.00">soLuongKhksDv</text>
<text text-anchor="start" x="7" y="-118.1" font-family="Arial" font-size="8.00">soLuongKhctCsgd</text>
<text text-anchor="start" x="7" y="-109.1" font-family="Arial" font-size="8.00">soLuongKhctCtdt</text>
<text text-anchor="start" x="7" y="-100.1" font-family="Arial" font-size="8.00">soLuongHtvbDbcldcn</text>
<text text-anchor="start" x="7" y="-91.1" font-family="Arial" font-size="8.00">soLuongHtThGvm</text>
<text text-anchor="start" x="7" y="-82.1" font-family="Arial" font-size="8.00">...</text>
</g>
<!-- bcPDbclKt&#45;&gt;donVi -->
<g id="edge4" class="edge">
<title>bcPDbclKt&#45;&gt;donVi</title>
<path fill="none" stroke="darkblue" d="M102.27,-153.38C131.38,-164.85 169.06,-177.69 204,-183.5 277.96,-195.8 364.09,-191.95 422.66,-186.66"/>
<polygon fill="darkblue" stroke="darkblue" points="422.77,-186.65 431.07,-189.49 426.75,-186.28 430.73,-185.91 430.73,-185.91 430.73,-185.91 426.75,-186.28 430.4,-182.32 422.77,-186.65 422.77,-186.65"/>
<text text-anchor="middle" x="278.5" y="-193.7" font-family="Times,serif" font-size="6.00" fill="darkblue"> &#160;idDonVi &#160;</text>
</g>
<!-- bcPDbclKt&#45;&gt;nguoiBaoCao -->
<g id="edge3" class="edge">
<title>bcPDbclKt&#45;&gt;nguoiBaoCao</title>
<path fill="none" stroke="darkblue" d="M102.05,-131.5C129.44,-131.5 164.08,-131.5 195.33,-131.5"/>
<polygon fill="darkblue" stroke="darkblue" points="195.61,-131.5 203.61,-135.1 199.61,-131.5 203.61,-131.5 203.61,-131.5 203.61,-131.5 199.61,-131.5 203.61,-127.9 195.61,-131.5 195.61,-131.5"/>
<text text-anchor="middle" x="153" y="-133.7" font-family="Times,serif" font-size="6.00" fill="darkblue"> &#160;idNguoiBaoCao &#160;</text>
</g>
<!-- bcPDbclKt&#45;&gt;giaiDoanBaoCao -->
<g id="edge5" class="edge">
<title>bcPDbclKt&#45;&gt;giaiDoanBaoCao</title>
<path fill="none" stroke="darkblue" d="M102.05,-109.53C132.32,-96.24 171.45,-79.06 205.07,-64.3"/>
<polygon fill="darkblue" stroke="darkblue" points="205.27,-64.21 214.04,-64.29 208.93,-62.6 212.59,-61 212.59,-61 212.59,-61 208.93,-62.6 211.15,-57.7 205.27,-64.21 205.27,-64.21"/>
<text text-anchor="middle" x="153" y="-101.7" font-family="Times,serif" font-size="6.00" fill="darkblue"> &#160;idGiaiDoan &#160;</text>
</g>
</g>
</svg>
