<?xml version="1.0" encoding="UTF-8" standalone="no"?>
<!DOCTYPE svg PUBLIC "-//W3C//DTD SVG 1.1//EN"
 "http://www.w3.org/Graphics/SVG/1.1/DTD/svg11.dtd">
<!-- Generated by graphviz version 2.50.0 (0)
 -->
<!-- Pages: 1 -->
<svg width="840pt" height="348pt"
 viewBox="14.40 14.40 826.00 334.00" xmlns="http://www.w3.org/2000/svg" xmlns:xlink="http://www.w3.org/1999/xlink">
<g id="graph0" class="graph" transform="scale(1 1) rotate(0) translate(43.2 305.2)">
<polygon fill="white" stroke="transparent" points="-28.8,28.8 -28.8,-290.8 782.8,-290.8 782.8,28.8 -28.8,28.8"/>
<text text-anchor="middle" x="377" y="-245.2" font-family="Arial Bold" font-size="16.00" fill="darkblue">Phòng Hành Chính &#45; Tổng Hợp</text>
<text text-anchor="middle" x="377" y="-227.2" font-family="Arial Bold" font-size="16.00" fill="darkblue">(PHCTH)</text>
<!-- toChuc -->
<g id="node1" class="node">
<title>toChuc</title>
<path fill="lightcoral" stroke="darkred" d="M643,-158C643,-158 742,-158 742,-158 748,-158 754,-164 754,-170 754,-170 754,-201 754,-201 754,-207 748,-213 742,-213 742,-213 643,-213 643,-213 637,-213 631,-207 631,-201 631,-201 631,-170 631,-170 631,-164 637,-158 643,-158"/>
<text text-anchor="middle" x="692.5" y="-199.6" font-family="Arial" font-size="8.00">toChuc</text>
<polyline fill="none" stroke="darkred" points="631,-190 754,-190 "/>
<text text-anchor="start" x="638" y="-176.6" font-family="Arial" font-size="8.00">🔑 idToChuc : INTEGER</text>
<text text-anchor="start" x="638" y="-167.6" font-family="Arial" font-size="8.00">capToChuc</text>
</g>
<!-- donVi -->
<g id="node2" class="node">
<title>donVi</title>
<path fill="lightcoral" stroke="darkred" d="M438,-153.5C438,-153.5 537,-153.5 537,-153.5 543,-153.5 549,-159.5 549,-165.5 549,-165.5 549,-205.5 549,-205.5 549,-211.5 543,-217.5 537,-217.5 537,-217.5 438,-217.5 438,-217.5 432,-217.5 426,-211.5 426,-205.5 426,-205.5 426,-165.5 426,-165.5 426,-159.5 432,-153.5 438,-153.5"/>
<text text-anchor="middle" x="487.5" y="-204.1" font-family="Arial" font-size="8.00">donVi</text>
<polyline fill="none" stroke="darkred" points="426,-194.5 549,-194.5 "/>
<text text-anchor="start" x="433" y="-181.1" font-family="Arial" font-size="8.00">🔑 idDonVi : INTEGER</text>
<text text-anchor="start" x="433" y="-172.1" font-family="Arial" font-size="8.00">capDonVi</text>
<text text-anchor="start" x="433" y="-163.1" font-family="Arial" font-size="8.00">🔗 idToChuc : INTEGER</text>
</g>
<!-- donVi&#45;&gt;toChuc -->
<g id="edge1" class="edge">
<title>donVi&#45;&gt;toChuc</title>
<path fill="none" stroke="darkblue" d="M549.13,-185.5C572.23,-185.5 598.71,-185.5 622.53,-185.5"/>
<polygon fill="darkblue" stroke="darkblue" points="622.83,-185.5 630.83,-189.1 626.83,-185.5 630.83,-185.5 630.83,-185.5 630.83,-185.5 626.83,-185.5 630.83,-181.9 622.83,-185.5 622.83,-185.5"/>
<text text-anchor="middle" x="590" y="-187.7" font-family="Times,serif" font-size="6.00" fill="darkblue"> &#160;idToChuc &#160;</text>
</g>
<!-- nguoiBaoCao -->
<g id="node3" class="node">
<title>nguoiBaoCao</title>
<path fill="lightcoral" stroke="darkred" d="M211,-94.5C211,-94.5 336,-94.5 336,-94.5 342,-94.5 348,-100.5 348,-106.5 348,-106.5 348,-164.5 348,-164.5 348,-170.5 342,-176.5 336,-176.5 336,-176.5 211,-176.5 211,-176.5 205,-176.5 199,-170.5 199,-164.5 199,-164.5 199,-106.5 199,-106.5 199,-100.5 205,-94.5 211,-94.5"/>
<text text-anchor="middle" x="273.5" y="-163.1" font-family="Arial" font-size="8.00">nguoiBaoCao</text>
<polyline fill="none" stroke="darkred" points="199,-153.5 348,-153.5 "/>
<text text-anchor="start" x="206" y="-140.1" font-family="Arial" font-size="8.00">🔑 idNguoiBaoCao : INTEGER</text>
<text text-anchor="start" x="206" y="-131.1" font-family="Arial" font-size="8.00">hoVaTen</text>
<text text-anchor="start" x="206" y="-122.1" font-family="Arial" font-size="8.00">chucVu</text>
<text text-anchor="start" x="206" y="-113.1" font-family="Arial" font-size="8.00">emailTruong</text>
<text text-anchor="start" x="206" y="-104.1" font-family="Arial" font-size="8.00">🔗 idDonVi : INTEGER</text>
</g>
<!-- nguoiBaoCao&#45;&gt;donVi -->
<g id="edge2" class="edge">
<title>nguoiBaoCao&#45;&gt;donVi</title>
<path fill="none" stroke="darkblue" d="M348.05,-152.85C370.63,-158.17 395.39,-164.01 417.64,-169.26"/>
<polygon fill="darkblue" stroke="darkblue" points="417.93,-169.33 424.89,-174.67 421.83,-170.25 425.72,-171.16 425.72,-171.16 425.72,-171.16 421.83,-170.25 426.54,-167.66 417.93,-169.33 417.93,-169.33"/>
<text text-anchor="middle" x="387" y="-166.7" font-family="Times,serif" font-size="6.00" fill="darkblue"> &#160;idDonVi &#160;</text>
</g>
<!-- giaiDoanBaoCao -->
<g id="node4" class="node">
<title>giaiDoanBaoCao</title>
<path fill="lightcoral" stroke="darkred" d="M220,-0.5C220,-0.5 327,-0.5 327,-0.5 333,-0.5 339,-6.5 339,-12.5 339,-12.5 339,-52.5 339,-52.5 339,-58.5 333,-64.5 327,-64.5 327,-64.5 220,-64.5 220,-64.5 214,-64.5 208,-58.5 208,-52.5 208,-52.5 208,-12.5 208,-12.5 208,-6.5 214,-0.5 220,-0.5"/>
<text text-anchor="middle" x="273.5" y="-51.1" font-family="Arial" font-size="8.00">giaiDoanBaoCao</text>
<polyline fill="none" stroke="darkred" points="208,-41.5 339,-41.5 "/>
<text text-anchor="start" x="215" y="-28.1" font-family="Arial" font-size="8.00">🔑 idGiaiDoan : INTEGER</text>
<text text-anchor="start" x="215" y="-19.1" font-family="Arial" font-size="8.00">thoiDiemBatDau</text>
<text text-anchor="start" x="215" y="-10.1" font-family="Arial" font-size="8.00">thoiDiemKetThuc</text>
</g>
<!-- bcPHcTh -->
<g id="node5" class="node">
<title>bcPHcTh</title>
<path fill="lightblue" stroke="darkblue" d="M12,-76.5C12,-76.5 85,-76.5 85,-76.5 91,-76.5 97,-82.5 97,-88.5 97,-88.5 97,-182.5 97,-182.5 97,-188.5 91,-194.5 85,-194.5 85,-194.5 12,-194.5 12,-194.5 6,-194.5 0,-188.5 0,-182.5 0,-182.5 0,-88.5 0,-88.5 0,-82.5 6,-76.5 12,-76.5"/>
<text text-anchor="middle" x="48.5" y="-181.1" font-family="Arial" font-size="8.00">bcPHcTh</text>
<polyline fill="none" stroke="darkblue" points="0,-171.5 97,-171.5 "/>
<text text-anchor="start" x="7" y="-158.1" font-family="Arial" font-size="8.00">soLuongVanBanDen</text>
<text text-anchor="start" x="7" y="-149.1" font-family="Arial" font-size="8.00">soLuongVanBanDi</text>
<text text-anchor="start" x="7" y="-140.1" font-family="Arial" font-size="8.00">soLuongVanBanMat</text>
<text text-anchor="start" x="7" y="-131.1" font-family="Arial" font-size="8.00">soLuongCtsyVbgtct</text>
<text text-anchor="start" x="7" y="-122.1" font-family="Arial" font-size="8.00">soLuongCapPhatVb</text>
<text text-anchor="start" x="7" y="-113.1" font-family="Arial" font-size="8.00">soLuongCapPhatCc</text>
<text text-anchor="start" x="7" y="-104.1" font-family="Arial" font-size="8.00">soLuongBcCthtqtdk</text>
<text text-anchor="start" x="7" y="-95.1" font-family="Arial" font-size="8.00">soLuongBcCthtqtdx</text>
<text text-anchor="start" x="7" y="-86.1" font-family="Arial" font-size="8.00">...</text>
</g>
<!-- bcPHcTh&#45;&gt;donVi -->
<g id="edge3" class="edge">
<title>bcPHcTh&#45;&gt;donVi</title>
<path fill="none" stroke="darkblue" d="M97.07,-158.32C125.84,-170.85 163.68,-185.1 199,-191.5 272.9,-204.89 359.21,-200.47 417.84,-194.55"/>
<polygon fill="darkblue" stroke="darkblue" points="417.97,-194.54 426.3,-197.29 421.95,-194.12 425.93,-193.71 425.93,-193.71 425.93,-193.71 421.95,-194.12 425.55,-190.13 417.97,-194.54 417.97,-194.54"/>
<text text-anchor="middle" x="273.5" y="-201.7" font-family="Times,serif" font-size="6.00" fill="darkblue"> &#160;idDonVi &#160;</text>
</g>
<!-- bcPHcTh&#45;&gt;nguoiBaoCao -->
<g id="edge5" class="edge">
<title>bcPHcTh&#45;&gt;nguoiBaoCao</title>
<path fill="none" stroke="darkblue" d="M97.07,-135.5C124.19,-135.5 158.94,-135.5 190.34,-135.5"/>
<polygon fill="darkblue" stroke="darkblue" points="190.68,-135.5 198.68,-139.1 194.68,-135.5 198.68,-135.5 198.68,-135.5 198.68,-135.5 194.68,-135.5 198.68,-131.9 190.68,-135.5 190.68,-135.5"/>
<text text-anchor="middle" x="148" y="-137.7" font-family="Times,serif" font-size="6.00" fill="darkblue"> &#160;idNguoiBaoCao &#160;</text>
</g>
<!-- bcPHcTh&#45;&gt;giaiDoanBaoCao -->
<g id="edge4" class="edge">
<title>bcPHcTh&#45;&gt;giaiDoanBaoCao</title>
<path fill="none" stroke="darkblue" d="M97.07,-113.53C127.03,-99.69 166.31,-81.55 200.1,-65.94"/>
<polygon fill="darkblue" stroke="darkblue" points="200.4,-65.8 209.17,-65.71 204.03,-64.12 207.66,-62.45 207.66,-62.45 207.66,-62.45 204.03,-64.12 206.15,-59.18 200.4,-65.8 200.4,-65.8"/>
<text text-anchor="middle" x="148" y="-104.7" font-family="Times,serif" font-size="6.00" fill="darkblue"> &#160;idGiaiDoan &#160;</text>
</g>
</g>
</svg>
