<?xml version="1.0" encoding="UTF-8" standalone="no"?>
<!DOCTYPE svg PUBLIC "-//W3C//DTD SVG 1.1//EN"
 "http://www.w3.org/Graphics/SVG/1.1/DTD/svg11.dtd">
<!-- Generated by graphviz version 2.50.0 (0)
 -->
<!-- Pages: 1 -->
<svg width="872pt" height="348pt"
 viewBox="14.40 14.40 858.00 334.00" xmlns="http://www.w3.org/2000/svg" xmlns:xlink="http://www.w3.org/1999/xlink">
<g id="graph0" class="graph" transform="scale(1 1) rotate(0) translate(43.2 305.2)">
<polygon fill="white" stroke="transparent" points="-28.8,28.8 -28.8,-290.8 814.8,-290.8 814.8,28.8 -28.8,28.8"/>
<text text-anchor="middle" x="393" y="-245.2" font-family="Arial Bold" font-size="16.00" fill="darkblue">Phòng Khoa Học Công Nghệ và Hợp Tác Phát Triển</text>
<text text-anchor="middle" x="393" y="-227.2" font-family="Arial Bold" font-size="16.00" fill="darkblue">(PKHCNHTPT)</text>
<!-- toChuc -->
<g id="node1" class="node">
<title>toChuc</title>
<path fill="lightcoral" stroke="darkred" d="M675,-158C675,-158 774,-158 774,-158 780,-158 786,-164 786,-170 786,-170 786,-201 786,-201 786,-207 780,-213 774,-213 774,-213 675,-213 675,-213 669,-213 663,-207 663,-201 663,-201 663,-170 663,-170 663,-164 669,-158 675,-158"/>
<text text-anchor="middle" x="724.5" y="-199.6" font-family="Arial" font-size="8.00">toChuc</text>
<polyline fill="none" stroke="darkred" points="663,-190 786,-190 "/>
<text text-anchor="start" x="670" y="-176.6" font-family="Arial" font-size="8.00">🔑 idToChuc : INTEGER</text>
<text text-anchor="start" x="670" y="-167.6" font-family="Arial" font-size="8.00">capToChuc</text>
</g>
<!-- donVi -->
<g id="node2" class="node">
<title>donVi</title>
<path fill="lightcoral" stroke="darkred" d="M470,-153.5C470,-153.5 569,-153.5 569,-153.5 575,-153.5 581,-159.5 581,-165.5 581,-165.5 581,-205.5 581,-205.5 581,-211.5 575,-217.5 569,-217.5 569,-217.5 470,-217.5 470,-217.5 464,-217.5 458,-211.5 458,-205.5 458,-205.5 458,-165.5 458,-165.5 458,-159.5 464,-153.5 470,-153.5"/>
<text text-anchor="middle" x="519.5" y="-204.1" font-family="Arial" font-size="8.00">donVi</text>
<polyline fill="none" stroke="darkred" points="458,-194.5 581,-194.5 "/>
<text text-anchor="start" x="465" y="-181.1" font-family="Arial" font-size="8.00">🔑 idDonVi : INTEGER</text>
<text text-anchor="start" x="465" y="-172.1" font-family="Arial" font-size="8.00">capDonVi</text>
<text text-anchor="start" x="465" y="-163.1" font-family="Arial" font-size="8.00">🔗 idToChuc : INTEGER</text>
</g>
<!-- donVi&#45;&gt;toChuc -->
<g id="edge1" class="edge">
<title>donVi&#45;&gt;toChuc</title>
<path fill="none" stroke="darkblue" d="M581.13,-185.5C604.23,-185.5 630.71,-185.5 654.53,-185.5"/>
<polygon fill="darkblue" stroke="darkblue" points="654.83,-185.5 662.83,-189.1 658.83,-185.5 662.83,-185.5 662.83,-185.5 662.83,-185.5 658.83,-185.5 662.83,-181.9 654.83,-185.5 654.83,-185.5"/>
<text text-anchor="middle" x="622" y="-187.7" font-family="Times,serif" font-size="6.00" fill="darkblue"> &#160;idToChuc &#160;</text>
</g>
<!-- nguoiBaoCao -->
<g id="node3" class="node">
<title>nguoiBaoCao</title>
<path fill="lightcoral" stroke="darkred" d="M243,-94.5C243,-94.5 368,-94.5 368,-94.5 374,-94.5 380,-100.5 380,-106.5 380,-106.5 380,-164.5 380,-164.5 380,-170.5 374,-176.5 368,-176.5 368,-176.5 243,-176.5 243,-176.5 237,-176.5 231,-170.5 231,-164.5 231,-164.5 231,-106.5 231,-106.5 231,-100.5 237,-94.5 243,-94.5"/>
<text text-anchor="middle" x="305.5" y="-163.1" font-family="Arial" font-size="8.00">nguoiBaoCao</text>
<polyline fill="none" stroke="darkred" points="231,-153.5 380,-153.5 "/>
<text text-anchor="start" x="238" y="-140.1" font-family="Arial" font-size="8.00">🔑 idNguoiBaoCao : INTEGER</text>
<text text-anchor="start" x="238" y="-131.1" font-family="Arial" font-size="8.00">hoVaTen</text>
<text text-anchor="start" x="238" y="-122.1" font-family="Arial" font-size="8.00">chucVu</text>
<text text-anchor="start" x="238" y="-113.1" font-family="Arial" font-size="8.00">emailTruong</text>
<text text-anchor="start" x="238" y="-104.1" font-family="Arial" font-size="8.00">🔗 idDonVi : INTEGER</text>
</g>
<!-- nguoiBaoCao&#45;&gt;donVi -->
<g id="edge2" class="edge">
<title>nguoiBaoCao&#45;&gt;donVi</title>
<path fill="none" stroke="darkblue" d="M380.05,-152.85C402.63,-158.17 427.39,-164.01 449.64,-169.26"/>
<polygon fill="darkblue" stroke="darkblue" points="449.93,-169.33 456.89,-174.67 453.83,-170.25 457.72,-171.16 457.72,-171.16 457.72,-171.16 453.83,-170.25 458.54,-167.66 449.93,-169.33 449.93,-169.33"/>
<text text-anchor="middle" x="419" y="-166.7" font-family="Times,serif" font-size="6.00" fill="darkblue"> &#160;idDonVi &#160;</text>
</g>
<!-- giaiDoanBaoCao -->
<g id="node4" class="node">
<title>giaiDoanBaoCao</title>
<path fill="lightcoral" stroke="darkred" d="M252,-0.5C252,-0.5 359,-0.5 359,-0.5 365,-0.5 371,-6.5 371,-12.5 371,-12.5 371,-52.5 371,-52.5 371,-58.5 365,-64.5 359,-64.5 359,-64.5 252,-64.5 252,-64.5 246,-64.5 240,-58.5 240,-52.5 240,-52.5 240,-12.5 240,-12.5 240,-6.5 246,-0.5 252,-0.5"/>
<text text-anchor="middle" x="305.5" y="-51.1" font-family="Arial" font-size="8.00">giaiDoanBaoCao</text>
<polyline fill="none" stroke="darkred" points="240,-41.5 371,-41.5 "/>
<text text-anchor="start" x="247" y="-28.1" font-family="Arial" font-size="8.00">🔑 idGiaiDoan : INTEGER</text>
<text text-anchor="start" x="247" y="-19.1" font-family="Arial" font-size="8.00">thoiDiemBatDau</text>
<text text-anchor="start" x="247" y="-10.1" font-family="Arial" font-size="8.00">thoiDiemKetThuc</text>
</g>
<!-- bcPKhcnHtpt -->
<g id="node5" class="node">
<title>bcPKhcnHtpt</title>
<path fill="lightblue" stroke="darkblue" d="M12,-76.5C12,-76.5 117,-76.5 117,-76.5 123,-76.5 129,-82.5 129,-88.5 129,-88.5 129,-182.5 129,-182.5 129,-188.5 123,-194.5 117,-194.5 117,-194.5 12,-194.5 12,-194.5 6,-194.5 0,-188.5 0,-182.5 0,-182.5 0,-88.5 0,-88.5 0,-82.5 6,-76.5 12,-76.5"/>
<text text-anchor="middle" x="64.5" y="-181.1" font-family="Arial" font-size="8.00">bcPKhcnHtpt</text>
<polyline fill="none" stroke="darkblue" points="0,-171.5 129,-171.5 "/>
<text text-anchor="start" x="7" y="-158.1" font-family="Arial" font-size="8.00">soLuongDtnckhccTruong</text>
<text text-anchor="start" x="7" y="-149.1" font-family="Arial" font-size="8.00">soLuongDtnckhccVcNld</text>
<text text-anchor="start" x="7" y="-140.1" font-family="Arial" font-size="8.00">soLuongChuyenGiaoKqnckh</text>
<text text-anchor="start" x="7" y="-131.1" font-family="Arial" font-size="8.00">soLieuHdxtCbqt</text>
<text text-anchor="start" x="7" y="-122.1" font-family="Arial" font-size="8.00">soLuongHtHnkhcttl</text>
<text text-anchor="start" x="7" y="-113.1" font-family="Arial" font-size="8.00">soLuongDahtqtVeNckhvdt</text>
<text text-anchor="start" x="7" y="-104.1" font-family="Arial" font-size="8.00">thongKeDoanRa</text>
<text text-anchor="start" x="7" y="-95.1" font-family="Arial" font-size="8.00">thongKeDoanVao</text>
<text text-anchor="start" x="7" y="-86.1" font-family="Arial" font-size="8.00">...</text>
</g>
<!-- bcPKhcnHtpt&#45;&gt;donVi -->
<g id="edge3" class="edge">
<title>bcPKhcnHtpt&#45;&gt;donVi</title>
<path fill="none" stroke="darkblue" d="M129.09,-162.45C159.37,-173.86 196.43,-185.81 231,-191.5 304.98,-203.68 391.11,-199.5 449.67,-193.97"/>
<polygon fill="darkblue" stroke="darkblue" points="449.78,-193.96 458.09,-196.76 453.76,-193.57 457.74,-193.18 457.74,-193.18 457.74,-193.18 453.76,-193.57 457.4,-189.6 449.78,-193.96 449.78,-193.96"/>
<text text-anchor="middle" x="305.5" y="-200.7" font-family="Times,serif" font-size="6.00" fill="darkblue"> &#160;idDonVi &#160;</text>
</g>
<!-- bcPKhcnHtpt&#45;&gt;nguoiBaoCao -->
<g id="edge5" class="edge">
<title>bcPKhcnHtpt&#45;&gt;nguoiBaoCao</title>
<path fill="none" stroke="darkblue" d="M129.23,-135.5C157.92,-135.5 192.14,-135.5 222.69,-135.5"/>
<polygon fill="darkblue" stroke="darkblue" points="222.79,-135.5 230.79,-139.1 226.79,-135.5 230.79,-135.5 230.79,-135.5 230.79,-135.5 226.79,-135.5 230.79,-131.9 222.79,-135.5 222.79,-135.5"/>
<text text-anchor="middle" x="180" y="-137.7" font-family="Times,serif" font-size="6.00" fill="darkblue"> &#160;idNguoiBaoCao &#160;</text>
</g>
<!-- bcPKhcnHtpt&#45;&gt;giaiDoanBaoCao -->
<g id="edge4" class="edge">
<title>bcPKhcnHtpt&#45;&gt;giaiDoanBaoCao</title>
<path fill="none" stroke="darkblue" d="M129.23,-108.03C160.99,-94.35 199.51,-77.75 232.35,-63.59"/>
<polygon fill="darkblue" stroke="darkblue" points="232.35,-63.59 241.12,-63.73 236.02,-62.01 239.7,-60.43 239.7,-60.43 239.7,-60.43 236.02,-62.01 238.27,-57.12 232.35,-63.59 232.35,-63.59"/>
<text text-anchor="middle" x="180" y="-98.7" font-family="Times,serif" font-size="6.00" fill="darkblue"> &#160;idGiaiDoan &#160;</text>
</g>
</g>
</svg>
