<?xml version="1.0" encoding="UTF-8" standalone="no"?>
<!DOCTYPE svg PUBLIC "-//W3C//DTD SVG 1.1//EN"
 "http://www.w3.org/Graphics/SVG/1.1/DTD/svg11.dtd">
<!-- Generated by graphviz version 2.50.0 (0)
 -->
<!-- Pages: 1 -->
<svg width="815pt" height="348pt"
 viewBox="14.40 14.40 801.00 334.00" xmlns="http://www.w3.org/2000/svg" xmlns:xlink="http://www.w3.org/1999/xlink">
<g id="graph0" class="graph" transform="scale(1 1) rotate(0) translate(43.2 305.2)">
<polygon fill="white" stroke="transparent" points="-28.8,28.8 -28.8,-290.8 757.8,-290.8 757.8,28.8 -28.8,28.8"/>
<text text-anchor="middle" x="364.5" y="-245.2" font-family="Arial Bold" font-size="16.00" fill="darkblue">Phòng Tổ Chức Nhân Sự</text>
<text text-anchor="middle" x="364.5" y="-227.2" font-family="Arial Bold" font-size="16.00" fill="darkblue">(PTCNS)</text>
<!-- toChuc -->
<g id="node1" class="node">
<title>toChuc</title>
<path fill="lightcoral" stroke="darkred" d="M618,-158C618,-158 717,-158 717,-158 723,-158 729,-164 729,-170 729,-170 729,-201 729,-201 729,-207 723,-213 717,-213 717,-213 618,-213 618,-213 612,-213 606,-207 606,-201 606,-201 606,-170 606,-170 606,-164 612,-158 618,-158"/>
<text text-anchor="middle" x="667.5" y="-199.6" font-family="Arial" font-size="8.00">toChuc</text>
<polyline fill="none" stroke="darkred" points="606,-190 729,-190 "/>
<text text-anchor="start" x="613" y="-176.6" font-family="Arial" font-size="8.00">🔑 idToChuc : INTEGER</text>
<text text-anchor="start" x="613" y="-167.6" font-family="Arial" font-size="8.00">capToChuc</text>
</g>
<!-- donVi -->
<g id="node2" class="node">
<title>donVi</title>
<path fill="lightcoral" stroke="darkred" d="M413,-153.5C413,-153.5 512,-153.5 512,-153.5 518,-153.5 524,-159.5 524,-165.5 524,-165.5 524,-205.5 524,-205.5 524,-211.5 518,-217.5 512,-217.5 512,-217.5 413,-217.5 413,-217.5 407,-217.5 401,-211.5 401,-205.5 401,-205.5 401,-165.5 401,-165.5 401,-159.5 407,-153.5 413,-153.5"/>
<text text-anchor="middle" x="462.5" y="-204.1" font-family="Arial" font-size="8.00">donVi</text>
<polyline fill="none" stroke="darkred" points="401,-194.5 524,-194.5 "/>
<text text-anchor="start" x="408" y="-181.1" font-family="Arial" font-size="8.00">🔑 idDonVi : INTEGER</text>
<text text-anchor="start" x="408" y="-172.1" font-family="Arial" font-size="8.00">capDonVi</text>
<text text-anchor="start" x="408" y="-163.1" font-family="Arial" font-size="8.00">🔗 idToChuc : INTEGER</text>
</g>
<!-- donVi&#45;&gt;toChuc -->
<g id="edge1" class="edge">
<title>donVi&#45;&gt;toChuc</title>
<path fill="none" stroke="darkblue" d="M524.13,-185.5C547.23,-185.5 573.71,-185.5 597.53,-185.5"/>
<polygon fill="darkblue" stroke="darkblue" points="597.83,-185.5 605.83,-189.1 601.83,-185.5 605.83,-185.5 605.83,-185.5 605.83,-185.5 601.83,-185.5 605.83,-181.9 597.83,-185.5 597.83,-185.5"/>
<text text-anchor="middle" x="565" y="-187.7" font-family="Times,serif" font-size="6.00" fill="darkblue"> &#160;idToChuc &#160;</text>
</g>
<!-- nguoiBaoCao -->
<g id="node3" class="node">
<title>nguoiBaoCao</title>
<path fill="lightcoral" stroke="darkred" d="M186,-94.5C186,-94.5 311,-94.5 311,-94.5 317,-94.5 323,-100.5 323,-106.5 323,-106.5 323,-164.5 323,-164.5 323,-170.5 317,-176.5 311,-176.5 311,-176.5 186,-176.5 186,-176.5 180,-176.5 174,-170.5 174,-164.5 174,-164.5 174,-106.5 174,-106.5 174,-100.5 180,-94.5 186,-94.5"/>
<text text-anchor="middle" x="248.5" y="-163.1" font-family="Arial" font-size="8.00">nguoiBaoCao</text>
<polyline fill="none" stroke="darkred" points="174,-153.5 323,-153.5 "/>
<text text-anchor="start" x="181" y="-140.1" font-family="Arial" font-size="8.00">🔑 idNguoiBaoCao : INTEGER</text>
<text text-anchor="start" x="181" y="-131.1" font-family="Arial" font-size="8.00">hoVaTen</text>
<text text-anchor="start" x="181" y="-122.1" font-family="Arial" font-size="8.00">chucVu</text>
<text text-anchor="start" x="181" y="-113.1" font-family="Arial" font-size="8.00">emailTruong</text>
<text text-anchor="start" x="181" y="-104.1" font-family="Arial" font-size="8.00">🔗 idDonVi : INTEGER</text>
</g>
<!-- nguoiBaoCao&#45;&gt;donVi -->
<g id="edge2" class="edge">
<title>nguoiBaoCao&#45;&gt;donVi</title>
<path fill="none" stroke="darkblue" d="M323.05,-152.85C345.63,-158.17 370.39,-164.01 392.64,-169.26"/>
<polygon fill="darkblue" stroke="darkblue" points="392.93,-169.33 399.89,-174.67 396.83,-170.25 400.72,-171.16 400.72,-171.16 400.72,-171.16 396.83,-170.25 401.54,-167.66 392.93,-169.33 392.93,-169.33"/>
<text text-anchor="middle" x="362" y="-166.7" font-family="Times,serif" font-size="6.00" fill="darkblue"> &#160;idDonVi &#160;</text>
</g>
<!-- giaiDoanBaoCao -->
<g id="node4" class="node">
<title>giaiDoanBaoCao</title>
<path fill="lightcoral" stroke="darkred" d="M195,-0.5C195,-0.5 302,-0.5 302,-0.5 308,-0.5 314,-6.5 314,-12.5 314,-12.5 314,-52.5 314,-52.5 314,-58.5 308,-64.5 302,-64.5 302,-64.5 195,-64.5 195,-64.5 189,-64.5 183,-58.5 183,-52.5 183,-52.5 183,-12.5 183,-12.5 183,-6.5 189,-0.5 195,-0.5"/>
<text text-anchor="middle" x="248.5" y="-51.1" font-family="Arial" font-size="8.00">giaiDoanBaoCao</text>
<polyline fill="none" stroke="darkred" points="183,-41.5 314,-41.5 "/>
<text text-anchor="start" x="190" y="-28.1" font-family="Arial" font-size="8.00">🔑 idGiaiDoan : INTEGER</text>
<text text-anchor="start" x="190" y="-19.1" font-family="Arial" font-size="8.00">thoiDiemBatDau</text>
<text text-anchor="start" x="190" y="-10.1" font-family="Arial" font-size="8.00">thoiDiemKetThuc</text>
</g>
<!-- bcPTcns -->
<g id="node5" class="node">
<title>bcPTcns</title>
<path fill="lightblue" stroke="darkblue" d="M12,-76.5C12,-76.5 60,-76.5 60,-76.5 66,-76.5 72,-82.5 72,-88.5 72,-88.5 72,-182.5 72,-182.5 72,-188.5 66,-194.5 60,-194.5 60,-194.5 12,-194.5 12,-194.5 6,-194.5 0,-188.5 0,-182.5 0,-182.5 0,-88.5 0,-88.5 0,-82.5 6,-76.5 12,-76.5"/>
<text text-anchor="middle" x="36" y="-181.1" font-family="Arial" font-size="8.00">bcPTcns</text>
<polyline fill="none" stroke="darkblue" points="0,-171.5 72,-171.5 "/>
<text text-anchor="start" x="7" y="-158.1" font-family="Arial" font-size="8.00">soLuongHdm</text>
<text text-anchor="start" x="7" y="-149.1" font-family="Arial" font-size="8.00">soLuonghdtl</text>
<text text-anchor="start" x="7" y="-140.1" font-family="Arial" font-size="8.00">soLuongTtCtv</text>
<text text-anchor="start" x="7" y="-131.1" font-family="Arial" font-size="8.00">tongSoVc</text>
<text text-anchor="start" x="7" y="-122.1" font-family="Arial" font-size="8.00">tongSoVcNam</text>
<text text-anchor="start" x="7" y="-113.1" font-family="Arial" font-size="8.00">tongSoVcNu</text>
<text text-anchor="start" x="7" y="-104.1" font-family="Arial" font-size="8.00">tongSoCtv</text>
<text text-anchor="start" x="7" y="-95.1" font-family="Arial" font-size="8.00">tongSoHhGs</text>
<text text-anchor="start" x="7" y="-86.1" font-family="Arial" font-size="8.00">...</text>
</g>
<!-- bcPTcns&#45;&gt;donVi -->
<g id="edge5" class="edge">
<title>bcPTcns&#45;&gt;donVi</title>
<path fill="none" stroke="darkblue" d="M72.16,-154.32C99.15,-167.66 137.82,-184.39 174,-191.5 247.69,-205.98 334.04,-201.37 392.74,-195.11"/>
<polygon fill="darkblue" stroke="darkblue" points="392.88,-195.09 401.23,-197.79 396.86,-194.65 400.83,-194.21 400.83,-194.21 400.83,-194.21 396.86,-194.65 400.44,-190.64 392.88,-195.09 392.88,-195.09"/>
<text text-anchor="middle" x="248.5" y="-202.7" font-family="Times,serif" font-size="6.00" fill="darkblue"> &#160;idDonVi &#160;</text>
</g>
<!-- bcPTcns&#45;&gt;nguoiBaoCao -->
<g id="edge3" class="edge">
<title>bcPTcns&#45;&gt;nguoiBaoCao</title>
<path fill="none" stroke="darkblue" d="M72.23,-135.5C97.7,-135.5 133.17,-135.5 165.54,-135.5"/>
<polygon fill="darkblue" stroke="darkblue" points="165.7,-135.5 173.7,-139.1 169.7,-135.5 173.7,-135.5 173.7,-135.5 173.7,-135.5 169.7,-135.5 173.7,-131.9 165.7,-135.5 165.7,-135.5"/>
<text text-anchor="middle" x="123" y="-137.7" font-family="Times,serif" font-size="6.00" fill="darkblue"> &#160;idNguoiBaoCao &#160;</text>
</g>
<!-- bcPTcns&#45;&gt;giaiDoanBaoCao -->
<g id="edge4" class="edge">
<title>bcPTcns&#45;&gt;giaiDoanBaoCao</title>
<path fill="none" stroke="darkblue" d="M72.23,-118.26C100.31,-104.52 140.57,-84.82 175.42,-67.77"/>
<polygon fill="darkblue" stroke="darkblue" points="175.58,-67.69 184.35,-67.41 179.17,-65.93 182.76,-64.18 182.76,-64.18 182.76,-64.18 179.17,-65.93 181.18,-60.94 175.58,-67.69 175.58,-67.69"/>
<text text-anchor="middle" x="123" y="-107.7" font-family="Times,serif" font-size="6.00" fill="darkblue"> &#160;idGiaiDoan &#160;</text>
</g>
</g>
</svg>
