<?xml version="1.0" encoding="UTF-8" standalone="no"?>
<!DOCTYPE svg PUBLIC "-//W3C//DTD SVG 1.1//EN"
 "http://www.w3.org/Graphics/SVG/1.1/DTD/svg11.dtd">
<!-- Generated by graphviz version 2.50.0 (0)
 -->
<!-- Pages: 1 -->
<svg width="878pt" height="348pt"
 viewBox="14.40 14.40 864.00 334.00" xmlns="http://www.w3.org/2000/svg" xmlns:xlink="http://www.w3.org/1999/xlink">
<g id="graph0" class="graph" transform="scale(1 1) rotate(0) translate(43.2 305.2)">
<polygon fill="white" stroke="transparent" points="-28.8,28.8 -28.8,-290.8 820.8,-290.8 820.8,28.8 -28.8,28.8"/>
<text text-anchor="middle" x="396" y="-245.2" font-family="Arial Bold" font-size="16.00" fill="darkblue">Phòng Thanh Tra &#45; Pháp Chế</text>
<text text-anchor="middle" x="396" y="-227.2" font-family="Arial Bold" font-size="16.00" fill="darkblue">(PTTPC)</text>
<!-- toChuc -->
<g id="node1" class="node">
<title>toChuc</title>
<path fill="lightcoral" stroke="darkred" d="M681,-158C681,-158 780,-158 780,-158 786,-158 792,-164 792,-170 792,-170 792,-201 792,-201 792,-207 786,-213 780,-213 780,-213 681,-213 681,-213 675,-213 669,-207 669,-201 669,-201 669,-170 669,-170 669,-164 675,-158 681,-158"/>
<text text-anchor="middle" x="730.5" y="-199.6" font-family="Arial" font-size="8.00">toChuc</text>
<polyline fill="none" stroke="darkred" points="669,-190 792,-190 "/>
<text text-anchor="start" x="676" y="-176.6" font-family="Arial" font-size="8.00">🔑 idToChuc : INTEGER</text>
<text text-anchor="start" x="676" y="-167.6" font-family="Arial" font-size="8.00">capToChuc</text>
</g>
<!-- donVi -->
<g id="node2" class="node">
<title>donVi</title>
<path fill="lightcoral" stroke="darkred" d="M476,-153.5C476,-153.5 575,-153.5 575,-153.5 581,-153.5 587,-159.5 587,-165.5 587,-165.5 587,-205.5 587,-205.5 587,-211.5 581,-217.5 575,-217.5 575,-217.5 476,-217.5 476,-217.5 470,-217.5 464,-211.5 464,-205.5 464,-205.5 464,-165.5 464,-165.5 464,-159.5 470,-153.5 476,-153.5"/>
<text text-anchor="middle" x="525.5" y="-204.1" font-family="Arial" font-size="8.00">donVi</text>
<polyline fill="none" stroke="darkred" points="464,-194.5 587,-194.5 "/>
<text text-anchor="start" x="471" y="-181.1" font-family="Arial" font-size="8.00">🔑 idDonVi : INTEGER</text>
<text text-anchor="start" x="471" y="-172.1" font-family="Arial" font-size="8.00">capDonVi</text>
<text text-anchor="start" x="471" y="-163.1" font-family="Arial" font-size="8.00">🔗 idToChuc : INTEGER</text>
</g>
<!-- donVi&#45;&gt;toChuc -->
<g id="edge1" class="edge">
<title>donVi&#45;&gt;toChuc</title>
<path fill="none" stroke="darkblue" d="M587.13,-185.5C610.23,-185.5 636.71,-185.5 660.53,-185.5"/>
<polygon fill="darkblue" stroke="darkblue" points="660.83,-185.5 668.83,-189.1 664.83,-185.5 668.83,-185.5 668.83,-185.5 668.83,-185.5 664.83,-185.5 668.83,-181.9 660.83,-185.5 660.83,-185.5"/>
<text text-anchor="middle" x="628" y="-187.7" font-family="Times,serif" font-size="6.00" fill="darkblue"> &#160;idToChuc &#160;</text>
</g>
<!-- nguoiBaoCao -->
<g id="node3" class="node">
<title>nguoiBaoCao</title>
<path fill="lightcoral" stroke="darkred" d="M249,-94.5C249,-94.5 374,-94.5 374,-94.5 380,-94.5 386,-100.5 386,-106.5 386,-106.5 386,-164.5 386,-164.5 386,-170.5 380,-176.5 374,-176.5 374,-176.5 249,-176.5 249,-176.5 243,-176.5 237,-170.5 237,-164.5 237,-164.5 237,-106.5 237,-106.5 237,-100.5 243,-94.5 249,-94.5"/>
<text text-anchor="middle" x="311.5" y="-163.1" font-family="Arial" font-size="8.00">nguoiBaoCao</text>
<polyline fill="none" stroke="darkred" points="237,-153.5 386,-153.5 "/>
<text text-anchor="start" x="244" y="-140.1" font-family="Arial" font-size="8.00">🔑 idNguoiBaoCao : INTEGER</text>
<text text-anchor="start" x="244" y="-131.1" font-family="Arial" font-size="8.00">hoVaTen</text>
<text text-anchor="start" x="244" y="-122.1" font-family="Arial" font-size="8.00">chucVu</text>
<text text-anchor="start" x="244" y="-113.1" font-family="Arial" font-size="8.00">emailTruong</text>
<text text-anchor="start" x="244" y="-104.1" font-family="Arial" font-size="8.00">🔗 idDonVi : INTEGER</text>
</g>
<!-- nguoiBaoCao&#45;&gt;donVi -->
<g id="edge2" class="edge">
<title>nguoiBaoCao&#45;&gt;donVi</title>
<path fill="none" stroke="darkblue" d="M386.05,-152.85C408.63,-158.17 433.39,-164.01 455.64,-169.26"/>
<polygon fill="darkblue" stroke="darkblue" points="455.93,-169.33 462.89,-174.67 459.83,-170.25 463.72,-171.16 463.72,-171.16 463.72,-171.16 459.83,-170.25 464.54,-167.66 455.93,-169.33 455.93,-169.33"/>
<text text-anchor="middle" x="425" y="-166.7" font-family="Times,serif" font-size="6.00" fill="darkblue"> &#160;idDonVi &#160;</text>
</g>
<!-- giaiDoanBaoCao -->
<g id="node4" class="node">
<title>giaiDoanBaoCao</title>
<path fill="lightcoral" stroke="darkred" d="M258,-0.5C258,-0.5 365,-0.5 365,-0.5 371,-0.5 377,-6.5 377,-12.5 377,-12.5 377,-52.5 377,-52.5 377,-58.5 371,-64.5 365,-64.5 365,-64.5 258,-64.5 258,-64.5 252,-64.5 246,-58.5 246,-52.5 246,-52.5 246,-12.5 246,-12.5 246,-6.5 252,-0.5 258,-0.5"/>
<text text-anchor="middle" x="311.5" y="-51.1" font-family="Arial" font-size="8.00">giaiDoanBaoCao</text>
<polyline fill="none" stroke="darkred" points="246,-41.5 377,-41.5 "/>
<text text-anchor="start" x="253" y="-28.1" font-family="Arial" font-size="8.00">🔑 idGiaiDoan : INTEGER</text>
<text text-anchor="start" x="253" y="-19.1" font-family="Arial" font-size="8.00">thoiDiemBatDau</text>
<text text-anchor="start" x="253" y="-10.1" font-family="Arial" font-size="8.00">thoiDiemKetThuc</text>
</g>
<!-- bcPTtPc -->
<g id="node5" class="node">
<title>bcPTtPc</title>
<path fill="lightblue" stroke="darkblue" d="M12,-76.5C12,-76.5 123,-76.5 123,-76.5 129,-76.5 135,-82.5 135,-88.5 135,-88.5 135,-182.5 135,-182.5 135,-188.5 129,-194.5 123,-194.5 123,-194.5 12,-194.5 12,-194.5 6,-194.5 0,-188.5 0,-182.5 0,-182.5 0,-88.5 0,-88.5 0,-82.5 6,-76.5 12,-76.5"/>
<text text-anchor="middle" x="67.5" y="-181.1" font-family="Arial" font-size="8.00">bcPTtPc</text>
<polyline fill="none" stroke="darkblue" points="0,-171.5 135,-171.5 "/>
<text text-anchor="start" x="7" y="-158.1" font-family="Arial" font-size="8.00">soLuongCtkhTtpcDinhKy</text>
<text text-anchor="start" x="7" y="-149.1" font-family="Arial" font-size="8.00">soLuongCtkhTtpcDotXuat</text>
<text text-anchor="start" x="7" y="-140.1" font-family="Arial" font-size="8.00">soLuongCttcCtkhTtpcDinhKy</text>
<text text-anchor="start" x="7" y="-131.1" font-family="Arial" font-size="8.00">soLuongCttcCtkhTtpcDotXuat</text>
<text text-anchor="start" x="7" y="-122.1" font-family="Arial" font-size="8.00">soLuongCttcd</text>
<text text-anchor="start" x="7" y="-113.1" font-family="Arial" font-size="8.00">soLuongCtgqkntc</text>
<text text-anchor="start" x="7" y="-104.1" font-family="Arial" font-size="8.00">soLuongCtpctn</text>
<text text-anchor="start" x="7" y="-95.1" font-family="Arial" font-size="8.00">soLuongVxmVb</text>
<text text-anchor="start" x="7" y="-86.1" font-family="Arial" font-size="8.00">...</text>
</g>
<!-- bcPTtPc&#45;&gt;donVi -->
<g id="edge5" class="edge">
<title>bcPTtPc&#45;&gt;donVi</title>
<path fill="none" stroke="darkblue" d="M135.3,-163.19C165.75,-174.37 202.61,-185.94 237,-191.5 311.02,-203.48 397.14,-199.34 455.69,-193.87"/>
<polygon fill="darkblue" stroke="darkblue" points="455.8,-193.86 464.11,-196.67 459.78,-193.47 463.76,-193.09 463.76,-193.09 463.76,-193.09 459.78,-193.47 463.41,-189.5 455.8,-193.86 455.8,-193.86"/>
<text text-anchor="middle" x="311.5" y="-200.7" font-family="Times,serif" font-size="6.00" fill="darkblue"> &#160;idDonVi &#160;</text>
</g>
<!-- bcPTtPc&#45;&gt;nguoiBaoCao -->
<g id="edge4" class="edge">
<title>bcPTtPc&#45;&gt;nguoiBaoCao</title>
<path fill="none" stroke="darkblue" d="M135.27,-135.5C164.16,-135.5 198.26,-135.5 228.66,-135.5"/>
<polygon fill="darkblue" stroke="darkblue" points="228.72,-135.5 236.72,-139.1 232.72,-135.5 236.72,-135.5 236.72,-135.5 236.72,-135.5 232.72,-135.5 236.72,-131.9 228.72,-135.5 228.72,-135.5"/>
<text text-anchor="middle" x="186" y="-137.7" font-family="Times,serif" font-size="6.00" fill="darkblue"> &#160;idNguoiBaoCao &#160;</text>
</g>
<!-- bcPTtPc&#45;&gt;giaiDoanBaoCao -->
<g id="edge3" class="edge">
<title>bcPTtPc&#45;&gt;giaiDoanBaoCao</title>
<path fill="none" stroke="darkblue" d="M135.27,-107.08C167.13,-93.52 205.32,-77.27 237.9,-63.4"/>
<polygon fill="darkblue" stroke="darkblue" points="238.26,-63.25 247.03,-63.43 241.94,-61.68 245.62,-60.11 245.62,-60.11 245.62,-60.11 241.94,-61.68 244.21,-56.8 238.26,-63.25 238.26,-63.25"/>
<text text-anchor="middle" x="186" y="-98.7" font-family="Times,serif" font-size="6.00" fill="darkblue"> &#160;idGiaiDoan &#160;</text>
</g>
</g>
</svg>
