<?xml version="1.0" encoding="UTF-8" standalone="no"?>
<!DOCTYPE svg PUBLIC "-//W3C//DTD SVG 1.1//EN"
 "http://www.w3.org/Graphics/SVG/1.1/DTD/svg11.dtd">
<!-- Generated by graphviz version 2.50.0 (0)
 -->
<!-- Pages: 1 -->
<svg width="804pt" height="348pt"
 viewBox="14.40 14.40 790.00 334.00" xmlns="http://www.w3.org/2000/svg" xmlns:xlink="http://www.w3.org/1999/xlink">
<g id="graph0" class="graph" transform="scale(1 1) rotate(0) translate(43.2 305.2)">
<polygon fill="white" stroke="transparent" points="-28.8,28.8 -28.8,-290.8 746.8,-290.8 746.8,28.8 -28.8,28.8"/>
<text text-anchor="middle" x="359" y="-245.2" font-family="Arial Bold" font-size="16.00" fill="darkblue">Trung Tâm Học Liệu</text>
<text text-anchor="middle" x="359" y="-227.2" font-family="Arial Bold" font-size="16.00" fill="darkblue">(TTTHL)</text>
<!-- toChuc -->
<g id="node1" class="node">
<title>toChuc</title>
<path fill="lightcoral" stroke="darkred" d="M607,-158C607,-158 706,-158 706,-158 712,-158 718,-164 718,-170 718,-170 718,-201 718,-201 718,-207 712,-213 706,-213 706,-213 607,-213 607,-213 601,-213 595,-207 595,-201 595,-201 595,-170 595,-170 595,-164 601,-158 607,-158"/>
<text text-anchor="middle" x="656.5" y="-199.6" font-family="Arial" font-size="8.00">toChuc</text>
<polyline fill="none" stroke="darkred" points="595,-190 718,-190 "/>
<text text-anchor="start" x="602" y="-176.6" font-family="Arial" font-size="8.00">🔑 idToChuc : INTEGER</text>
<text text-anchor="start" x="602" y="-167.6" font-family="Arial" font-size="8.00">capToChuc</text>
</g>
<!-- donVi -->
<g id="node2" class="node">
<title>donVi</title>
<path fill="lightcoral" stroke="darkred" d="M402,-153.5C402,-153.5 501,-153.5 501,-153.5 507,-153.5 513,-159.5 513,-165.5 513,-165.5 513,-205.5 513,-205.5 513,-211.5 507,-217.5 501,-217.5 501,-217.5 402,-217.5 402,-217.5 396,-217.5 390,-211.5 390,-205.5 390,-205.5 390,-165.5 390,-165.5 390,-159.5 396,-153.5 402,-153.5"/>
<text text-anchor="middle" x="451.5" y="-204.1" font-family="Arial" font-size="8.00">donVi</text>
<polyline fill="none" stroke="darkred" points="390,-194.5 513,-194.5 "/>
<text text-anchor="start" x="397" y="-181.1" font-family="Arial" font-size="8.00">🔑 idDonVi : INTEGER</text>
<text text-anchor="start" x="397" y="-172.1" font-family="Arial" font-size="8.00">capDonVi</text>
<text text-anchor="start" x="397" y="-163.1" font-family="Arial" font-size="8.00">🔗 idToChuc : INTEGER</text>
</g>
<!-- donVi&#45;&gt;toChuc -->
<g id="edge1" class="edge">
<title>donVi&#45;&gt;toChuc</title>
<path fill="none" stroke="darkblue" d="M513.13,-185.5C536.23,-185.5 562.71,-185.5 586.53,-185.5"/>
<polygon fill="darkblue" stroke="darkblue" points="586.83,-185.5 594.83,-189.1 590.83,-185.5 594.83,-185.5 594.83,-185.5 594.83,-185.5 590.83,-185.5 594.83,-181.9 586.83,-185.5 586.83,-185.5"/>
<text text-anchor="middle" x="554" y="-187.7" font-family="Times,serif" font-size="6.00" fill="darkblue"> &#160;idToChuc &#160;</text>
</g>
<!-- nguoiBaoCao -->
<g id="node3" class="node">
<title>nguoiBaoCao</title>
<path fill="lightcoral" stroke="darkred" d="M175,-94.5C175,-94.5 300,-94.5 300,-94.5 306,-94.5 312,-100.5 312,-106.5 312,-106.5 312,-164.5 312,-164.5 312,-170.5 306,-176.5 300,-176.5 300,-176.5 175,-176.5 175,-176.5 169,-176.5 163,-170.5 163,-164.5 163,-164.5 163,-106.5 163,-106.5 163,-100.5 169,-94.5 175,-94.5"/>
<text text-anchor="middle" x="237.5" y="-163.1" font-family="Arial" font-size="8.00">nguoiBaoCao</text>
<polyline fill="none" stroke="darkred" points="163,-153.5 312,-153.5 "/>
<text text-anchor="start" x="170" y="-140.1" font-family="Arial" font-size="8.00">🔑 idNguoiBaoCao : INTEGER</text>
<text text-anchor="start" x="170" y="-131.1" font-family="Arial" font-size="8.00">hoVaTen</text>
<text text-anchor="start" x="170" y="-122.1" font-family="Arial" font-size="8.00">chucVu</text>
<text text-anchor="start" x="170" y="-113.1" font-family="Arial" font-size="8.00">emailTruong</text>
<text text-anchor="start" x="170" y="-104.1" font-family="Arial" font-size="8.00">🔗 idDonVi : INTEGER</text>
</g>
<!-- nguoiBaoCao&#45;&gt;donVi -->
<g id="edge2" class="edge">
<title>nguoiBaoCao&#45;&gt;donVi</title>
<path fill="none" stroke="darkblue" d="M312.05,-152.85C334.63,-158.17 359.39,-164.01 381.64,-169.26"/>
<polygon fill="darkblue" stroke="darkblue" points="381.93,-169.33 388.89,-174.67 385.83,-170.25 389.72,-171.16 389.72,-171.16 389.72,-171.16 385.83,-170.25 390.54,-167.66 381.93,-169.33 381.93,-169.33"/>
<text text-anchor="middle" x="351" y="-166.7" font-family="Times,serif" font-size="6.00" fill="darkblue"> &#160;idDonVi &#160;</text>
</g>
<!-- giaiDoanBaoCao -->
<g id="node4" class="node">
<title>giaiDoanBaoCao</title>
<path fill="lightcoral" stroke="darkred" d="M184,-0.5C184,-0.5 291,-0.5 291,-0.5 297,-0.5 303,-6.5 303,-12.5 303,-12.5 303,-52.5 303,-52.5 303,-58.5 297,-64.5 291,-64.5 291,-64.5 184,-64.5 184,-64.5 178,-64.5 172,-58.5 172,-52.5 172,-52.5 172,-12.5 172,-12.5 172,-6.5 178,-0.5 184,-0.5"/>
<text text-anchor="middle" x="237.5" y="-51.1" font-family="Arial" font-size="8.00">giaiDoanBaoCao</text>
<polyline fill="none" stroke="darkred" points="172,-41.5 303,-41.5 "/>
<text text-anchor="start" x="179" y="-28.1" font-family="Arial" font-size="8.00">🔑 idGiaiDoan : INTEGER</text>
<text text-anchor="start" x="179" y="-19.1" font-family="Arial" font-size="8.00">thoiDiemBatDau</text>
<text text-anchor="start" x="179" y="-10.1" font-family="Arial" font-size="8.00">thoiDiemKetThuc</text>
</g>
<!-- bcTthl -->
<g id="node5" class="node">
<title>bcTthl</title>
<path fill="lightblue" stroke="darkblue" d="M12,-76.5C12,-76.5 49,-76.5 49,-76.5 55,-76.5 61,-82.5 61,-88.5 61,-88.5 61,-182.5 61,-182.5 61,-188.5 55,-194.5 49,-194.5 49,-194.5 12,-194.5 12,-194.5 6,-194.5 0,-188.5 0,-182.5 0,-182.5 0,-88.5 0,-88.5 0,-82.5 6,-76.5 12,-76.5"/>
<text text-anchor="middle" x="30.5" y="-181.1" font-family="Arial" font-size="8.00">bcTthl</text>
<polyline fill="none" stroke="darkblue" points="0,-171.5 61,-171.5 "/>
<text text-anchor="start" x="7" y="-158.1" font-family="Arial" font-size="8.00">soTeGt</text>
<text text-anchor="start" x="7" y="-149.1" font-family="Arial" font-size="8.00">soCuonGt</text>
<text text-anchor="start" x="7" y="-140.1" font-family="Arial" font-size="8.00">soTenTbg</text>
<text text-anchor="start" x="7" y="-131.1" font-family="Arial" font-size="8.00">soCuonTbg</text>
<text text-anchor="start" x="7" y="-122.1" font-family="Arial" font-size="8.00">soTenSth</text>
<text text-anchor="start" x="7" y="-113.1" font-family="Arial" font-size="8.00">soCuonSth</text>
<text text-anchor="start" x="7" y="-104.1" font-family="Arial" font-size="8.00">soTenSck</text>
<text text-anchor="start" x="7" y="-95.1" font-family="Arial" font-size="8.00">soCuonSck</text>
<text text-anchor="start" x="7" y="-86.1" font-family="Arial" font-size="8.00">...</text>
</g>
<!-- bcTthl&#45;&gt;donVi -->
<g id="edge3" class="edge">
<title>bcTthl&#45;&gt;donVi</title>
<path fill="none" stroke="darkblue" d="M61.19,-152.25C87.13,-165.87 126.29,-184.01 163,-191.5 236.58,-206.52 322.96,-201.81 381.68,-195.38"/>
<polygon fill="darkblue" stroke="darkblue" points="381.83,-195.36 390.19,-198.04 385.81,-194.91 389.78,-194.46 389.78,-194.46 389.78,-194.46 385.81,-194.91 389.38,-190.89 381.83,-195.36 381.83,-195.36"/>
<text text-anchor="middle" x="237.5" y="-202.7" font-family="Times,serif" font-size="6.00" fill="darkblue"> &#160;idDonVi &#160;</text>
</g>
<!-- bcTthl&#45;&gt;nguoiBaoCao -->
<g id="edge5" class="edge">
<title>bcTthl&#45;&gt;nguoiBaoCao</title>
<path fill="none" stroke="darkblue" d="M61.31,-135.5C85.78,-135.5 121.63,-135.5 154.53,-135.5"/>
<polygon fill="darkblue" stroke="darkblue" points="154.83,-135.5 162.83,-139.1 158.83,-135.5 162.83,-135.5 162.83,-135.5 162.83,-135.5 158.83,-135.5 162.83,-131.9 154.83,-135.5 154.83,-135.5"/>
<text text-anchor="middle" x="112" y="-137.7" font-family="Times,serif" font-size="6.00" fill="darkblue"> &#160;idNguoiBaoCao &#160;</text>
</g>
<!-- bcTthl&#45;&gt;giaiDoanBaoCao -->
<g id="edge4" class="edge">
<title>bcTthl&#45;&gt;giaiDoanBaoCao</title>
<path fill="none" stroke="darkblue" d="M61.31,-120.52C88.47,-106.88 129.66,-86.18 165.28,-68.28"/>
<polygon fill="darkblue" stroke="darkblue" points="165.64,-68.1 174.41,-67.73 169.22,-66.3 172.79,-64.51 172.79,-64.51 172.79,-64.51 169.22,-66.3 171.18,-61.29 165.64,-68.1 165.64,-68.1"/>
<text text-anchor="middle" x="112" y="-110.7" font-family="Times,serif" font-size="6.00" fill="darkblue"> &#160;idGiaiDoan &#160;</text>
</g>
</g>
</svg>
