<?xml version="1.0" encoding="UTF-8" standalone="no"?>
<!DOCTYPE svg PUBLIC "-//W3C//DTD SVG 1.1//EN"
 "http://www.w3.org/Graphics/SVG/1.1/DTD/svg11.dtd">
<!-- Generated by graphviz version 2.50.0 (0)
 -->
<!-- Pages: 1 -->
<svg width="868pt" height="348pt"
 viewBox="14.40 14.40 854.00 334.00" xmlns="http://www.w3.org/2000/svg" xmlns:xlink="http://www.w3.org/1999/xlink">
<g id="graph0" class="graph" transform="scale(1 1) rotate(0) translate(43.2 305.2)">
<polygon fill="white" stroke="transparent" points="-28.8,28.8 -28.8,-290.8 810.8,-290.8 810.8,28.8 -28.8,28.8"/>
<text text-anchor="middle" x="391" y="-245.2" font-family="Arial Bold" font-size="16.00" fill="darkblue">Trung Tâm Tư Vấn Pháp Luật và Phục Vụ Cộng Đồng</text>
<text text-anchor="middle" x="391" y="-227.2" font-family="Arial Bold" font-size="16.00" fill="darkblue">(TTTVPLPVCD)</text>
<!-- toChuc -->
<g id="node1" class="node">
<title>toChuc</title>
<path fill="lightcoral" stroke="darkred" d="M671,-158C671,-158 770,-158 770,-158 776,-158 782,-164 782,-170 782,-170 782,-201 782,-201 782,-207 776,-213 770,-213 770,-213 671,-213 671,-213 665,-213 659,-207 659,-201 659,-201 659,-170 659,-170 659,-164 665,-158 671,-158"/>
<text text-anchor="middle" x="720.5" y="-199.6" font-family="Arial" font-size="8.00">toChuc</text>
<polyline fill="none" stroke="darkred" points="659,-190 782,-190 "/>
<text text-anchor="start" x="666" y="-176.6" font-family="Arial" font-size="8.00">🔑 idToChuc : INTEGER</text>
<text text-anchor="start" x="666" y="-167.6" font-family="Arial" font-size="8.00">capToChuc</text>
</g>
<!-- donVi -->
<g id="node2" class="node">
<title>donVi</title>
<path fill="lightcoral" stroke="darkred" d="M466,-153.5C466,-153.5 565,-153.5 565,-153.5 571,-153.5 577,-159.5 577,-165.5 577,-165.5 577,-205.5 577,-205.5 577,-211.5 571,-217.5 565,-217.5 565,-217.5 466,-217.5 466,-217.5 460,-217.5 454,-211.5 454,-205.5 454,-205.5 454,-165.5 454,-165.5 454,-159.5 460,-153.5 466,-153.5"/>
<text text-anchor="middle" x="515.5" y="-204.1" font-family="Arial" font-size="8.00">donVi</text>
<polyline fill="none" stroke="darkred" points="454,-194.5 577,-194.5 "/>
<text text-anchor="start" x="461" y="-181.1" font-family="Arial" font-size="8.00">🔑 idDonVi : INTEGER</text>
<text text-anchor="start" x="461" y="-172.1" font-family="Arial" font-size="8.00">capDonVi</text>
<text text-anchor="start" x="461" y="-163.1" font-family="Arial" font-size="8.00">🔗 idToChuc : INTEGER</text>
</g>
<!-- donVi&#45;&gt;toChuc -->
<g id="edge1" class="edge">
<title>donVi&#45;&gt;toChuc</title>
<path fill="none" stroke="darkblue" d="M577.13,-185.5C600.23,-185.5 626.71,-185.5 650.53,-185.5"/>
<polygon fill="darkblue" stroke="darkblue" points="650.83,-185.5 658.83,-189.1 654.83,-185.5 658.83,-185.5 658.83,-185.5 658.83,-185.5 654.83,-185.5 658.83,-181.9 650.83,-185.5 650.83,-185.5"/>
<text text-anchor="middle" x="618" y="-187.7" font-family="Times,serif" font-size="6.00" fill="darkblue"> &#160;idToChuc &#160;</text>
</g>
<!-- nguoiBaoCao -->
<g id="node3" class="node">
<title>nguoiBaoCao</title>
<path fill="lightcoral" stroke="darkred" d="M239,-94.5C239,-94.5 364,-94.5 364,-94.5 370,-94.5 376,-100.5 376,-106.5 376,-106.5 376,-164.5 376,-164.5 376,-170.5 370,-176.5 364,-176.5 364,-176.5 239,-176.5 239,-176.5 233,-176.5 227,-170.5 227,-164.5 227,-164.5 227,-106.5 227,-106.5 227,-100.5 233,-94.5 239,-94.5"/>
<text text-anchor="middle" x="301.5" y="-163.1" font-family="Arial" font-size="8.00">nguoiBaoCao</text>
<polyline fill="none" stroke="darkred" points="227,-153.5 376,-153.5 "/>
<text text-anchor="start" x="234" y="-140.1" font-family="Arial" font-size="8.00">🔑 idNguoiBaoCao : INTEGER</text>
<text text-anchor="start" x="234" y="-131.1" font-family="Arial" font-size="8.00">hoVaTen</text>
<text text-anchor="start" x="234" y="-122.1" font-family="Arial" font-size="8.00">chucVu</text>
<text text-anchor="start" x="234" y="-113.1" font-family="Arial" font-size="8.00">emailTruong</text>
<text text-anchor="start" x="234" y="-104.1" font-family="Arial" font-size="8.00">🔗 idDonVi : INTEGER</text>
</g>
<!-- nguoiBaoCao&#45;&gt;donVi -->
<g id="edge2" class="edge">
<title>nguoiBaoCao&#45;&gt;donVi</title>
<path fill="none" stroke="darkblue" d="M376.05,-152.85C398.63,-158.17 423.39,-164.01 445.64,-169.26"/>
<polygon fill="darkblue" stroke="darkblue" points="445.93,-169.33 452.89,-174.67 449.83,-170.25 453.72,-171.16 453.72,-171.16 453.72,-171.16 449.83,-170.25 454.54,-167.66 445.93,-169.33 445.93,-169.33"/>
<text text-anchor="middle" x="415" y="-166.7" font-family="Times,serif" font-size="6.00" fill="darkblue"> &#160;idDonVi &#160;</text>
</g>
<!-- giaiDoanBaoCao -->
<g id="node4" class="node">
<title>giaiDoanBaoCao</title>
<path fill="lightcoral" stroke="darkred" d="M248,-0.5C248,-0.5 355,-0.5 355,-0.5 361,-0.5 367,-6.5 367,-12.5 367,-12.5 367,-52.5 367,-52.5 367,-58.5 361,-64.5 355,-64.5 355,-64.5 248,-64.5 248,-64.5 242,-64.5 236,-58.5 236,-52.5 236,-52.5 236,-12.5 236,-12.5 236,-6.5 242,-0.5 248,-0.5"/>
<text text-anchor="middle" x="301.5" y="-51.1" font-family="Arial" font-size="8.00">giaiDoanBaoCao</text>
<polyline fill="none" stroke="darkred" points="236,-41.5 367,-41.5 "/>
<text text-anchor="start" x="243" y="-28.1" font-family="Arial" font-size="8.00">🔑 idGiaiDoan : INTEGER</text>
<text text-anchor="start" x="243" y="-19.1" font-family="Arial" font-size="8.00">thoiDiemBatDau</text>
<text text-anchor="start" x="243" y="-10.1" font-family="Arial" font-size="8.00">thoiDiemKetThuc</text>
</g>
<!-- bcTtTvplPvcd -->
<g id="node5" class="node">
<title>bcTtTvplPvcd</title>
<path fill="lightblue" stroke="darkblue" d="M12,-76.5C12,-76.5 113,-76.5 113,-76.5 119,-76.5 125,-82.5 125,-88.5 125,-88.5 125,-182.5 125,-182.5 125,-188.5 119,-194.5 113,-194.5 113,-194.5 12,-194.5 12,-194.5 6,-194.5 0,-188.5 0,-182.5 0,-182.5 0,-88.5 0,-88.5 0,-82.5 6,-76.5 12,-76.5"/>
<text text-anchor="middle" x="62.5" y="-181.1" font-family="Arial" font-size="8.00">bcTtTvplPvcd</text>
<polyline fill="none" stroke="darkblue" points="0,-171.5 125,-171.5 "/>
<text text-anchor="start" x="7" y="-158.1" font-family="Arial" font-size="8.00">soLuongDvtvCn</text>
<text text-anchor="start" x="7" y="-149.1" font-family="Arial" font-size="8.00">soLuongDvtvTc</text>
<text text-anchor="start" x="7" y="-140.1" font-family="Arial" font-size="8.00">soLuongHtpl</text>
<text text-anchor="start" x="7" y="-131.1" font-family="Arial" font-size="8.00">soLuongHdttpbpl</text>
<text text-anchor="start" x="7" y="-122.1" font-family="Arial" font-size="8.00">soLuongLienKettn</text>
<text text-anchor="start" x="7" y="-113.1" font-family="Arial" font-size="8.00">soLuongLienKetnn</text>
<text text-anchor="start" x="7" y="-104.1" font-family="Arial" font-size="8.00">🔑 idBaoCao : INTEGER</text>
<text text-anchor="start" x="7" y="-95.1" font-family="Arial" font-size="8.00">timestamp</text>
<text text-anchor="start" x="7" y="-86.1" font-family="Arial" font-size="8.00">...</text>
</g>
<!-- bcTtTvplPvcd&#45;&gt;donVi -->
<g id="edge4" class="edge">
<title>bcTtTvplPvcd&#45;&gt;donVi</title>
<path fill="none" stroke="darkblue" d="M125.14,-162C155.24,-173.54 192.37,-185.73 227,-191.5 300.96,-203.81 387.09,-199.62 445.66,-194.04"/>
<polygon fill="darkblue" stroke="darkblue" points="445.77,-194.03 454.09,-196.83 449.75,-193.64 453.73,-193.25 453.73,-193.25 453.73,-193.25 449.75,-193.64 453.38,-189.66 445.77,-194.03 445.77,-194.03"/>
<text text-anchor="middle" x="301.5" y="-200.7" font-family="Times,serif" font-size="6.00" fill="darkblue"> &#160;idDonVi &#160;</text>
</g>
<!-- bcTtTvplPvcd&#45;&gt;nguoiBaoCao -->
<g id="edge3" class="edge">
<title>bcTtTvplPvcd&#45;&gt;nguoiBaoCao</title>
<path fill="none" stroke="darkblue" d="M125.15,-135.5C153.73,-135.5 188.09,-135.5 218.79,-135.5"/>
<polygon fill="darkblue" stroke="darkblue" points="218.93,-135.5 226.93,-139.1 222.93,-135.5 226.93,-135.5 226.93,-135.5 226.93,-135.5 222.93,-135.5 226.93,-131.9 218.93,-135.5 218.93,-135.5"/>
<text text-anchor="middle" x="176" y="-137.7" font-family="Times,serif" font-size="6.00" fill="darkblue"> &#160;idNguoiBaoCao &#160;</text>
</g>
<!-- bcTtTvplPvcd&#45;&gt;giaiDoanBaoCao -->
<g id="edge5" class="edge">
<title>bcTtTvplPvcd&#45;&gt;giaiDoanBaoCao</title>
<path fill="none" stroke="darkblue" d="M125.15,-108.71C156.77,-94.96 195.47,-78.14 228.46,-63.81"/>
<polygon fill="darkblue" stroke="darkblue" points="228.51,-63.79 237.28,-63.9 232.18,-62.19 235.85,-60.6 235.85,-60.6 235.85,-60.6 232.18,-62.19 234.41,-57.3 228.51,-63.79 228.51,-63.79"/>
<text text-anchor="middle" x="176" y="-98.7" font-family="Times,serif" font-size="6.00" fill="darkblue"> &#160;idGiaiDoan &#160;</text>
</g>
</g>
</svg>
