<?xml version="1.0" encoding="UTF-8" standalone="no"?>
<!DOCTYPE svg PUBLIC "-//W3C//DTD SVG 1.1//EN"
 "http://www.w3.org/Graphics/SVG/1.1/DTD/svg11.dtd">
<!-- Generated by graphviz version 2.50.0 (0)
 -->
<!-- Pages: 1 -->
<svg width="892pt" height="348pt"
 viewBox="14.40 14.40 878.00 334.00" xmlns="http://www.w3.org/2000/svg" xmlns:xlink="http://www.w3.org/1999/xlink">
<g id="graph0" class="graph" transform="scale(1 1) rotate(0) translate(43.2 305.2)">
<polygon fill="white" stroke="transparent" points="-28.8,28.8 -28.8,-290.8 834.8,-290.8 834.8,28.8 -28.8,28.8"/>
<text text-anchor="middle" x="403" y="-245.2" font-family="Arial Bold" font-size="16.00" fill="darkblue">Thư Viện</text>
<text text-anchor="middle" x="403" y="-227.2" font-family="Arial Bold" font-size="16.00" fill="darkblue">(TV)</text>
<!-- toChuc -->
<g id="node1" class="node">
<title>toChuc</title>
<path fill="lightcoral" stroke="darkred" d="M695,-158C695,-158 794,-158 794,-158 800,-158 806,-164 806,-170 806,-170 806,-201 806,-201 806,-207 800,-213 794,-213 794,-213 695,-213 695,-213 689,-213 683,-207 683,-201 683,-201 683,-170 683,-170 683,-164 689,-158 695,-158"/>
<text text-anchor="middle" x="744.5" y="-199.6" font-family="Arial" font-size="8.00">toChuc</text>
<polyline fill="none" stroke="darkred" points="683,-190 806,-190 "/>
<text text-anchor="start" x="690" y="-176.6" font-family="Arial" font-size="8.00">🔑 idToChuc : INTEGER</text>
<text text-anchor="start" x="690" y="-167.6" font-family="Arial" font-size="8.00">capToChuc</text>
</g>
<!-- donVi -->
<g id="node2" class="node">
<title>donVi</title>
<path fill="lightcoral" stroke="darkred" d="M490,-153.5C490,-153.5 589,-153.5 589,-153.5 595,-153.5 601,-159.5 601,-165.5 601,-165.5 601,-205.5 601,-205.5 601,-211.5 595,-217.5 589,-217.5 589,-217.5 490,-217.5 490,-217.5 484,-217.5 478,-211.5 478,-205.5 478,-205.5 478,-165.5 478,-165.5 478,-159.5 484,-153.5 490,-153.5"/>
<text text-anchor="middle" x="539.5" y="-204.1" font-family="Arial" font-size="8.00">donVi</text>
<polyline fill="none" stroke="darkred" points="478,-194.5 601,-194.5 "/>
<text text-anchor="start" x="485" y="-181.1" font-family="Arial" font-size="8.00">🔑 idDonVi : INTEGER</text>
<text text-anchor="start" x="485" y="-172.1" font-family="Arial" font-size="8.00">capDonVi</text>
<text text-anchor="start" x="485" y="-163.1" font-family="Arial" font-size="8.00">🔗 idToChuc : INTEGER</text>
</g>
<!-- donVi&#45;&gt;toChuc -->
<g id="edge1" class="edge">
<title>donVi&#45;&gt;toChuc</title>
<path fill="none" stroke="darkblue" d="M601.13,-185.5C624.23,-185.5 650.71,-185.5 674.53,-185.5"/>
<polygon fill="darkblue" stroke="darkblue" points="674.83,-185.5 682.83,-189.1 678.83,-185.5 682.83,-185.5 682.83,-185.5 682.83,-185.5 678.83,-185.5 682.83,-181.9 674.83,-185.5 674.83,-185.5"/>
<text text-anchor="middle" x="642" y="-187.7" font-family="Times,serif" font-size="6.00" fill="darkblue"> &#160;idToChuc &#160;</text>
</g>
<!-- nguoiBaoCao -->
<g id="node3" class="node">
<title>nguoiBaoCao</title>
<path fill="lightcoral" stroke="darkred" d="M263,-94.5C263,-94.5 388,-94.5 388,-94.5 394,-94.5 400,-100.5 400,-106.5 400,-106.5 400,-164.5 400,-164.5 400,-170.5 394,-176.5 388,-176.5 388,-176.5 263,-176.5 263,-176.5 257,-176.5 251,-170.5 251,-164.5 251,-164.5 251,-106.5 251,-106.5 251,-100.5 257,-94.5 263,-94.5"/>
<text text-anchor="middle" x="325.5" y="-163.1" font-family="Arial" font-size="8.00">nguoiBaoCao</text>
<polyline fill="none" stroke="darkred" points="251,-153.5 400,-153.5 "/>
<text text-anchor="start" x="258" y="-140.1" font-family="Arial" font-size="8.00">🔑 idNguoiBaoCao : INTEGER</text>
<text text-anchor="start" x="258" y="-131.1" font-family="Arial" font-size="8.00">hoVaTen</text>
<text text-anchor="start" x="258" y="-122.1" font-family="Arial" font-size="8.00">chucVu</text>
<text text-anchor="start" x="258" y="-113.1" font-family="Arial" font-size="8.00">emailTruong</text>
<text text-anchor="start" x="258" y="-104.1" font-family="Arial" font-size="8.00">🔗 idDonVi : INTEGER</text>
</g>
<!-- nguoiBaoCao&#45;&gt;donVi -->
<g id="edge2" class="edge">
<title>nguoiBaoCao&#45;&gt;donVi</title>
<path fill="none" stroke="darkblue" d="M400.05,-152.85C422.63,-158.17 447.39,-164.01 469.64,-169.26"/>
<polygon fill="darkblue" stroke="darkblue" points="469.93,-169.33 476.89,-174.67 473.83,-170.25 477.72,-171.16 477.72,-171.16 477.72,-171.16 473.83,-170.25 478.54,-167.66 469.93,-169.33 469.93,-169.33"/>
<text text-anchor="middle" x="439" y="-166.7" font-family="Times,serif" font-size="6.00" fill="darkblue"> &#160;idDonVi &#160;</text>
</g>
<!-- giaiDoanBaoCao -->
<g id="node4" class="node">
<title>giaiDoanBaoCao</title>
<path fill="lightcoral" stroke="darkred" d="M272,-0.5C272,-0.5 379,-0.5 379,-0.5 385,-0.5 391,-6.5 391,-12.5 391,-12.5 391,-52.5 391,-52.5 391,-58.5 385,-64.5 379,-64.5 379,-64.5 272,-64.5 272,-64.5 266,-64.5 260,-58.5 260,-52.5 260,-52.5 260,-12.5 260,-12.5 260,-6.5 266,-0.5 272,-0.5"/>
<text text-anchor="middle" x="325.5" y="-51.1" font-family="Arial" font-size="8.00">giaiDoanBaoCao</text>
<polyline fill="none" stroke="darkred" points="260,-41.5 391,-41.5 "/>
<text text-anchor="start" x="267" y="-28.1" font-family="Arial" font-size="8.00">🔑 idGiaiDoan : INTEGER</text>
<text text-anchor="start" x="267" y="-19.1" font-family="Arial" font-size="8.00">thoiDiemBatDau</text>
<text text-anchor="start" x="267" y="-10.1" font-family="Arial" font-size="8.00">thoiDiemKetThuc</text>
</g>
<!-- bcTv -->
<g id="node5" class="node">
<title>bcTv</title>
<path fill="lightblue" stroke="darkblue" d="M12,-76.5C12,-76.5 137,-76.5 137,-76.5 143,-76.5 149,-82.5 149,-88.5 149,-88.5 149,-182.5 149,-182.5 149,-188.5 143,-194.5 137,-194.5 137,-194.5 12,-194.5 12,-194.5 6,-194.5 0,-188.5 0,-182.5 0,-182.5 0,-88.5 0,-88.5 0,-82.5 6,-76.5 12,-76.5"/>
<text text-anchor="middle" x="74.5" y="-181.1" font-family="Arial" font-size="8.00">bcTv</text>
<polyline fill="none" stroke="darkblue" points="0,-171.5 149,-171.5 "/>
<text text-anchor="start" x="7" y="-158.1" font-family="Arial" font-size="8.00">soLuongDtnckhdnt</text>
<text text-anchor="start" x="7" y="-149.1" font-family="Arial" font-size="8.00">soLuongNdtntc</text>
<text text-anchor="start" x="7" y="-140.1" font-family="Arial" font-size="8.00">soLuongNgtntx</text>
<text text-anchor="start" x="7" y="-131.1" font-family="Arial" font-size="8.00">🔑 idBaoCao : INTEGER</text>
<text text-anchor="start" x="7" y="-122.1" font-family="Arial" font-size="8.00">timestamp</text>
<text text-anchor="start" x="7" y="-113.1" font-family="Arial" font-size="8.00">🔗 idNguoiBaoCao : INTEGER</text>
<text text-anchor="start" x="7" y="-104.1" font-family="Arial" font-size="8.00">🔗 idDonVi : INTEGER</text>
<text text-anchor="start" x="7" y="-95.1" font-family="Arial" font-size="8.00">🔗 idGiaiDoan : INTEGER</text>
<text text-anchor="start" x="7" y="-86.1" font-family="Arial" font-size="8.00">...</text>
</g>
<!-- bcTv&#45;&gt;donVi -->
<g id="edge4" class="edge">
<title>bcTv&#45;&gt;donVi</title>
<path fill="none" stroke="darkblue" d="M149.43,-164.68C180.3,-175.39 216.87,-186.19 251,-191.5 316.43,-201.69 333.79,-192.93 400,-191.5 422.72,-191.01 447.51,-190.06 469.77,-189.07"/>
<polygon fill="darkblue" stroke="darkblue" points="469.85,-189.06 478.01,-192.29 473.85,-188.88 477.84,-188.7 477.84,-188.7 477.84,-188.7 473.85,-188.88 477.68,-185.1 469.85,-189.06 469.85,-189.06"/>
<text text-anchor="middle" x="325.5" y="-197.7" font-family="Times,serif" font-size="6.00" fill="darkblue"> &#160;idDonVi &#160;</text>
</g>
<!-- bcTv&#45;&gt;nguoiBaoCao -->
<g id="edge3" class="edge">
<title>bcTv&#45;&gt;nguoiBaoCao</title>
<path fill="none" stroke="darkblue" d="M149.2,-135.5C178.69,-135.5 212.76,-135.5 242.99,-135.5"/>
<polygon fill="darkblue" stroke="darkblue" points="242.99,-135.5 250.99,-139.1 246.99,-135.5 250.99,-135.5 250.99,-135.5 250.99,-135.5 246.99,-135.5 250.99,-131.9 242.99,-135.5 242.99,-135.5"/>
<text text-anchor="middle" x="200" y="-137.7" font-family="Times,serif" font-size="6.00" fill="darkblue"> &#160;idNguoiBaoCao &#160;</text>
</g>
<!-- bcTv&#45;&gt;giaiDoanBaoCao -->
<g id="edge5" class="edge">
<title>bcTv&#45;&gt;giaiDoanBaoCao</title>
<path fill="none" stroke="darkblue" d="M149.2,-105.01C181.72,-91.56 219.84,-75.79 252.2,-62.41"/>
<polygon fill="darkblue" stroke="darkblue" points="252.47,-62.29 261.24,-62.56 256.17,-60.76 259.87,-59.24 259.87,-59.24 259.87,-59.24 256.17,-60.76 258.49,-55.91 252.47,-62.29 252.47,-62.29"/>
<text text-anchor="middle" x="200" y="-95.7" font-family="Times,serif" font-size="6.00" fill="darkblue"> &#160;idGiaiDoan &#160;</text>
</g>
</g>
</svg>
