<?xml version="1.0" encoding="UTF-8" standalone="no"?>
<!DOCTYPE svg PUBLIC "-//W3C//DTD SVG 1.1//EN"
 "http://www.w3.org/Graphics/SVG/1.1/DTD/svg11.dtd">
<!-- Generated by graphviz version 13.1.2 (0)
 -->
<!-- Pages: 1 -->
<svg width="931pt" height="373pt"
 viewBox="14.00 14.00 916.00 359.00" xmlns="http://www.w3.org/2000/svg" xmlns:xlink="http://www.w3.org/1999/xlink">
<g id="graph0" class="graph" transform="scale(1 1) rotate(0) translate(43.2 329.88)">
<polygon fill="white" stroke="none" points="-28.8,28.8 -28.8,-315.48 873.05,-315.48 873.05,28.8 -28.8,28.8"/>
<text xml:space="preserve" text-anchor="middle" x="422.13" y="-267.48" font-family="Arial Bold" font-size="16.00" fill="darkblue">Tất Cả Các Khoa</text>
<text xml:space="preserve" text-anchor="middle" x="422.13" y="-248.73" font-family="Arial Bold" font-size="16.00" fill="darkblue">(K)</text>
<!-- toChuc -->
<g id="node1" class="node">
<title>toChuc</title>
<path fill="lightcoral" stroke="darkred" d="M755.6,-175.5C755.6,-175.5 832.25,-175.5 832.25,-175.5 838.25,-175.5 844.25,-181.5 844.25,-187.5 844.25,-187.5 844.25,-223.05 844.25,-223.05 844.25,-229.05 838.25,-235.05 832.25,-235.05 832.25,-235.05 755.6,-235.05 755.6,-235.05 749.6,-235.05 743.6,-229.05 743.6,-223.05 743.6,-223.05 743.6,-187.5 743.6,-187.5 743.6,-181.5 749.6,-175.5 755.6,-175.5"/>
<text xml:space="preserve" text-anchor="middle" x="793.93" y="-220.25" font-family="Arial" font-size="8.00">toChuc</text>
<polyline fill="none" stroke="darkred" points="743.6,-210.9 844.25,-210.9"/>
<text xml:space="preserve" text-anchor="start" x="750.8" y="-196.1" font-family="Arial" font-size="8.00">🔑 idToChuc : INTEGER</text>
<text xml:space="preserve" text-anchor="start" x="750.8" y="-184.85" font-family="Arial" font-size="8.00">capToChuc</text>
</g>
<!-- donVi -->
<g id="node2" class="node">
<title>donVi</title>
<path fill="lightcoral" stroke="darkred" d="M580.95,-169.88C580.95,-169.88 657.6,-169.88 657.6,-169.88 663.6,-169.88 669.6,-175.88 669.6,-181.88 669.6,-181.88 669.6,-228.68 669.6,-228.68 669.6,-234.68 663.6,-240.68 657.6,-240.68 657.6,-240.68 580.95,-240.68 580.95,-240.68 574.95,-240.68 568.95,-234.68 568.95,-228.68 568.95,-228.68 568.95,-181.88 568.95,-181.88 568.95,-175.88 574.95,-169.88 580.95,-169.88"/>
<text xml:space="preserve" text-anchor="middle" x="619.28" y="-225.88" font-family="Arial" font-size="8.00">donVi</text>
<polyline fill="none" stroke="darkred" points="568.95,-216.53 669.6,-216.53"/>
<text xml:space="preserve" text-anchor="start" x="576.15" y="-201.73" font-family="Arial" font-size="8.00">🔑 idDonVi : INTEGER</text>
<text xml:space="preserve" text-anchor="start" x="576.15" y="-190.48" font-family="Arial" font-size="8.00">capDonVi</text>
<text xml:space="preserve" text-anchor="start" x="576.15" y="-180.73" font-family="Arial" font-size="8.00">🔗 idToChuc : INTEGER</text>
</g>
<!-- donVi&#45;&gt;toChuc -->
<g id="edge1" class="edge">
<title>donVi&#45;&gt;toChuc</title>
<path fill="none" stroke="darkblue" d="M669.75,-205.28C690.07,-205.28 713.74,-205.28 734.88,-205.28"/>
<polygon fill="darkblue" stroke="darkblue" points="734.81,-205.28 742.81,-208.88 739.14,-205.28 742.48,-205.28 742.48,-205.28 742.48,-205.28 739.14,-205.28 742.81,-201.68 734.81,-205.28"/>
<text xml:space="preserve" text-anchor="middle" x="706.6" y="-207.08" font-family="Times,serif" font-size="6.00" fill="darkblue"> &#160;idToChuc &#160;</text>
</g>
<!-- nguoiBaoCao -->
<g id="node3" class="node">
<title>nguoiBaoCao</title>
<path fill="lightcoral" stroke="darkred" d="M386.05,-108.12C386.05,-108.12 485.95,-108.12 485.95,-108.12 491.95,-108.12 497.95,-114.12 497.95,-120.12 497.95,-120.12 497.95,-186.43 497.95,-186.43 497.95,-192.43 491.95,-198.43 485.95,-198.43 485.95,-198.43 386.05,-198.43 386.05,-198.43 380.05,-198.43 374.05,-192.43 374.05,-186.43 374.05,-186.43 374.05,-120.12 374.05,-120.12 374.05,-114.12 380.05,-108.12 386.05,-108.12"/>
<text xml:space="preserve" text-anchor="middle" x="436" y="-183.63" font-family="Arial" font-size="8.00">nguoiBaoCao</text>
<polyline fill="none" stroke="darkred" points="374.05,-174.28 497.95,-174.28"/>
<text xml:space="preserve" text-anchor="start" x="381.25" y="-159.48" font-family="Arial" font-size="8.00">🔑 idNguoiBaoCao : INTEGER</text>
<text xml:space="preserve" text-anchor="start" x="381.25" y="-148.23" font-family="Arial" font-size="8.00">hoVaTen</text>
<text xml:space="preserve" text-anchor="start" x="381.25" y="-138.48" font-family="Arial" font-size="8.00">chucVu</text>
<text xml:space="preserve" text-anchor="start" x="381.25" y="-128.73" font-family="Arial" font-size="8.00">emailTruong</text>
<text xml:space="preserve" text-anchor="start" x="381.25" y="-118.98" font-family="Arial" font-size="8.00">🔗 idDonVi : INTEGER</text>
</g>
<!-- nguoiBaoCao&#45;&gt;donVi -->
<g id="edge2" class="edge">
<title>nguoiBaoCao&#45;&gt;donVi</title>
<path fill="none" stroke="darkblue" d="M498.37,-170.88C518.5,-176.65 540.79,-183.05 560.64,-188.74"/>
<polygon fill="darkblue" stroke="darkblue" points="560.68,-188.75 567.37,-194.42 564.84,-189.95 568.05,-190.87 568.05,-190.87 568.05,-190.87 564.84,-189.95 569.36,-187.5 560.68,-188.75"/>
<text xml:space="preserve" text-anchor="middle" x="533.45" y="-185.73" font-family="Times,serif" font-size="6.00" fill="darkblue"> &#160;idDonVi &#160;</text>
</g>
<!-- giaiDoanBaoCao -->
<g id="node4" class="node">
<title>giaiDoanBaoCao</title>
<path fill="lightcoral" stroke="darkred" d="M394.68,-8.63C394.68,-8.63 477.33,-8.63 477.33,-8.63 483.33,-8.63 489.33,-14.63 489.33,-20.63 489.33,-20.63 489.33,-65.93 489.33,-65.93 489.33,-71.93 483.33,-77.93 477.33,-77.93 477.33,-77.93 394.68,-77.93 394.68,-77.93 388.68,-77.93 382.68,-71.93 382.68,-65.93 382.68,-65.93 382.68,-20.62 382.68,-20.62 382.68,-14.62 388.68,-8.63 394.68,-8.63"/>
<text xml:space="preserve" text-anchor="middle" x="436" y="-63.13" font-family="Arial" font-size="8.00">giaiDoanBaoCao</text>
<polyline fill="none" stroke="darkred" points="382.68,-53.78 489.33,-53.78"/>
<text xml:space="preserve" text-anchor="start" x="389.88" y="-38.98" font-family="Arial" font-size="8.00">🔑 idGiaiDoan : INTEGER</text>
<text xml:space="preserve" text-anchor="start" x="389.88" y="-27.73" font-family="Arial" font-size="8.00">thoiDiemBatDau</text>
<text xml:space="preserve" text-anchor="start" x="389.88" y="-17.98" font-family="Arial" font-size="8.00">thoiDiemKetThuc</text>
</g>
<!-- bcK -->
<g id="node5" class="node">
<title>bcK</title>
<path fill="lightblue" stroke="darkblue" d="M206.53,-90.12C206.53,-90.12 265.93,-90.12 265.93,-90.12 271.93,-90.12 277.93,-96.12 277.93,-102.12 277.93,-102.12 277.93,-204.43 277.93,-204.43 277.93,-210.43 271.93,-216.43 265.93,-216.43 265.93,-216.43 206.53,-216.43 206.53,-216.43 200.53,-216.43 194.53,-210.43 194.53,-204.43 194.53,-204.43 194.53,-102.12 194.53,-102.12 194.53,-96.12 200.53,-90.12 206.53,-90.12"/>
<text xml:space="preserve" text-anchor="middle" x="236.23" y="-201.63" font-family="Arial" font-size="8.00">bcK</text>
<polyline fill="none" stroke="darkblue" points="194.53,-192.28 277.93,-192.28"/>
<text xml:space="preserve" text-anchor="start" x="201.73" y="-177.48" font-family="Arial" font-size="8.00">soLuongGvch</text>
<text xml:space="preserve" text-anchor="start" x="201.73" y="-167.73" font-family="Arial" font-size="8.00">soLuongGvtg</text>
<text xml:space="preserve" text-anchor="start" x="201.73" y="-157.98" font-family="Arial" font-size="8.00">soLuongNld</text>
<text xml:space="preserve" text-anchor="start" x="201.73" y="-148.23" font-family="Arial" font-size="8.00">tongSoBmk</text>
<text xml:space="preserve" text-anchor="start" x="201.73" y="-138.48" font-family="Arial" font-size="8.00">tongSoMhk</text>
<text xml:space="preserve" text-anchor="start" x="201.73" y="-128.73" font-family="Arial" font-size="8.00">fileDmmh</text>
<text xml:space="preserve" text-anchor="start" x="201.73" y="-118.98" font-family="Arial" font-size="8.00">soCtdtCanCaiTien</text>
<text xml:space="preserve" text-anchor="start" x="201.73" y="-109.23" font-family="Arial" font-size="8.00">soCtdtXayDungMoi</text>
<text xml:space="preserve" text-anchor="start" x="201.73" y="-99.48" font-family="Arial" font-size="8.00">...</text>
</g>
<!-- bcK&#45;&gt;donVi -->
<g id="edge4" class="edge">
<title>bcK&#45;&gt;donVi</title>
<path fill="none" stroke="darkblue" d="M278.25,-176.62C304.67,-190.28 340.29,-206.2 374.05,-213.28 436.78,-226.43 510.54,-221.27 560.45,-214.83"/>
<polygon fill="darkblue" stroke="darkblue" points="560.3,-214.85 568.71,-217.36 564.59,-214.28 567.9,-213.83 567.9,-213.83 567.9,-213.83 564.59,-214.28 567.75,-210.22 560.3,-214.85"/>
<text xml:space="preserve" text-anchor="middle" x="436" y="-223.26" font-family="Times,serif" font-size="6.00" fill="darkblue"> &#160;idDonVi &#160;</text>
</g>
<!-- bcK&#45;&gt;nguoiBaoCao -->
<g id="edge5" class="edge">
<title>bcK&#45;&gt;nguoiBaoCao</title>
<path fill="none" stroke="darkblue" d="M278.2,-153.28C303.44,-153.28 336.44,-153.28 365.66,-153.28"/>
<polygon fill="darkblue" stroke="darkblue" points="365.45,-153.28 373.45,-156.88 369.79,-153.28 373.12,-153.28 373.12,-153.28 373.12,-153.28 369.79,-153.28 373.45,-149.68 365.45,-153.28"/>
<text xml:space="preserve" text-anchor="middle" x="329.55" y="-155.08" font-family="Times,serif" font-size="6.00" fill="darkblue"> &#160;idNguoiBaoCao &#160;</text>
</g>
<!-- bcK&#45;&gt;giaiDoanBaoCao -->
<g id="edge3" class="edge">
<title>bcK&#45;&gt;giaiDoanBaoCao</title>
<path fill="none" stroke="darkblue" d="M278.2,-130.48C306.29,-114.86 344,-93.89 375.39,-76.43"/>
<polygon fill="darkblue" stroke="darkblue" points="375.12,-76.58 383.86,-75.84 378.91,-74.47 381.82,-72.85 381.82,-72.85 381.82,-72.85 378.91,-74.47 380.36,-69.54 375.12,-76.58"/>
<text xml:space="preserve" text-anchor="middle" x="329.55" y="-113.16" font-family="Times,serif" font-size="6.00" fill="darkblue"> &#160;idGiaiDoan &#160;</text>
</g>
<!-- danhMucNganh -->
<g id="node6" class="node">
<title>danhMucNganh</title>
<path fill="lightgray" stroke="black" d="M199.4,-0.5C199.4,-0.5 273.05,-0.5 273.05,-0.5 279.05,-0.5 285.05,-6.5 285.05,-12.5 285.05,-12.5 285.05,-48.05 285.05,-48.05 285.05,-54.05 279.05,-60.05 273.05,-60.05 273.05,-60.05 199.4,-60.05 199.4,-60.05 193.4,-60.05 187.4,-54.05 187.4,-48.05 187.4,-48.05 187.4,-12.5 187.4,-12.5 187.4,-6.5 193.4,-0.5 199.4,-0.5"/>
<text xml:space="preserve" text-anchor="middle" x="236.23" y="-45.25" font-family="Arial" font-size="8.00">danhMucNganh</text>
<polyline fill="none" stroke="black" points="187.4,-35.9 285.05,-35.9"/>
<text xml:space="preserve" text-anchor="start" x="194.6" y="-21.1" font-family="Arial" font-size="8.00">🔑 idNganh : INTEGER</text>
<text xml:space="preserve" text-anchor="start" x="194.6" y="-9.85" font-family="Arial" font-size="8.00">tenNganh</text>
</g>
<!-- fDanhMucNganh -->
<g id="node7" class="node">
<title>fDanhMucNganh</title>
<path fill="lightgray" stroke="black" d="M12,-20.75C12,-20.75 101.4,-20.75 101.4,-20.75 107.4,-20.75 113.4,-26.75 113.4,-32.75 113.4,-32.75 113.4,-69.8 113.4,-69.8 113.4,-75.8 107.4,-81.8 101.4,-81.8 101.4,-81.8 12,-81.8 12,-81.8 6,-81.8 0,-75.8 0,-69.8 0,-69.8 0,-32.75 0,-32.75 0,-26.75 6,-20.75 12,-20.75"/>
<text xml:space="preserve" text-anchor="middle" x="56.7" y="-67" font-family="Arial" font-size="8.00">fDanhMucNganh</text>
<polyline fill="none" stroke="black" points="0,-57.65 113.4,-57.65"/>
<text xml:space="preserve" text-anchor="start" x="7.2" y="-42.85" font-family="Arial" font-size="8.00">🔗 🔑 idBaoCao : INTEGER</text>
<text xml:space="preserve" text-anchor="start" x="7.2" y="-31.6" font-family="Arial" font-size="8.00">🔗 🔑 idNganh : INTEGER</text>
</g>
<!-- fDanhMucNganh&#45;&gt;bcK -->
<g id="edge6" class="edge">
<title>fDanhMucNganh&#45;&gt;bcK</title>
<path fill="none" stroke="darkblue" d="M111.45,-82.16C135.49,-95.97 163.62,-112.13 186.98,-125.56"/>
<polygon fill="darkblue" stroke="darkblue" points="186.84,-125.48 191.98,-132.58 190.6,-127.64 193.49,-129.29 193.49,-129.29 193.49,-129.29 190.6,-127.64 195.57,-126.34 186.84,-125.48"/>
<text xml:space="preserve" text-anchor="middle" x="150.4" y="-113.21" font-family="Times,serif" font-size="6.00" fill="darkblue"> &#160;idBaoCao &#160;</text>
</g>
<!-- fDanhMucNganh&#45;&gt;danhMucNganh -->
<g id="edge7" class="edge">
<title>fDanhMucNganh&#45;&gt;danhMucNganh</title>
<path fill="none" stroke="darkblue" d="M113.87,-44.63C134.68,-42.17 158.25,-39.38 179.06,-36.92"/>
<polygon fill="darkblue" stroke="darkblue" points="178.91,-36.94 187.27,-39.57 183.21,-36.43 186.52,-36.04 186.52,-36.04 186.52,-36.04 183.21,-36.43 186.43,-32.42 178.91,-36.94"/>
<text xml:space="preserve" text-anchor="middle" x="150.4" y="-43.83" font-family="Times,serif" font-size="6.00" fill="darkblue"> &#160;idNganh &#160;</text>
</g>
</g>
</svg>
