<?xml version="1.0" encoding="UTF-8" standalone="no"?>
<!DOCTYPE svg PUBLIC "-//W3C//DTD SVG 1.1//EN"
 "http://www.w3.org/Graphics/SVG/1.1/DTD/svg11.dtd">
<!-- Generated by graphviz version 13.1.2 (0)
 -->
<!-- Pages: 1 -->
<svg width="976pt" height="528pt"
 viewBox="14.00 14.00 962.00 514.00" xmlns="http://www.w3.org/2000/svg" xmlns:xlink="http://www.w3.org/1999/xlink">
<g id="graph0" class="graph" transform="scale(1 1) rotate(0) translate(43.2 485.25)">
<polygon fill="white" stroke="none" points="-28.8,28.8 -28.8,-470.85 918.8,-470.85 918.8,28.8 -28.8,28.8"/>
<text xml:space="preserve" text-anchor="middle" x="445" y="-422.85" font-family="Arial Bold" font-size="16.00" fill="darkblue">Phòng Cơ Sở Dữ Liệu và Công Nghệ Thông Tin</text>
<text xml:space="preserve" text-anchor="middle" x="445" y="-404.1" font-family="Arial Bold" font-size="16.00" fill="darkblue">(PCSDLCNTT)</text>
<!-- toChuc -->
<g id="node1" class="node">
<title>toChuc</title>
<path fill="lightcoral" stroke="darkred" d="M801.35,-155.5C801.35,-155.5 878,-155.5 878,-155.5 884,-155.5 890,-161.5 890,-167.5 890,-167.5 890,-203.05 890,-203.05 890,-209.05 884,-215.05 878,-215.05 878,-215.05 801.35,-215.05 801.35,-215.05 795.35,-215.05 789.35,-209.05 789.35,-203.05 789.35,-203.05 789.35,-167.5 789.35,-167.5 789.35,-161.5 795.35,-155.5 801.35,-155.5"/>
<text xml:space="preserve" text-anchor="middle" x="839.68" y="-200.25" font-family="Arial" font-size="8.00">toChuc</text>
<polyline fill="none" stroke="darkred" points="789.35,-190.9 890,-190.9"/>
<text xml:space="preserve" text-anchor="start" x="796.55" y="-176.1" font-family="Arial" font-size="8.00">🔑 idToChuc : INTEGER</text>
<text xml:space="preserve" text-anchor="start" x="796.55" y="-164.85" font-family="Arial" font-size="8.00">capToChuc</text>
</g>
<!-- donVi -->
<g id="node2" class="node">
<title>donVi</title>
<path fill="lightcoral" stroke="darkred" d="M626.7,-149.88C626.7,-149.88 703.35,-149.88 703.35,-149.88 709.35,-149.88 715.35,-155.88 715.35,-161.88 715.35,-161.88 715.35,-208.68 715.35,-208.68 715.35,-214.68 709.35,-220.68 703.35,-220.68 703.35,-220.68 626.7,-220.68 626.7,-220.68 620.7,-220.68 614.7,-214.68 614.7,-208.68 614.7,-208.68 614.7,-161.88 614.7,-161.88 614.7,-155.88 620.7,-149.88 626.7,-149.88"/>
<text xml:space="preserve" text-anchor="middle" x="665.03" y="-205.88" font-family="Arial" font-size="8.00">donVi</text>
<polyline fill="none" stroke="darkred" points="614.7,-196.53 715.35,-196.53"/>
<text xml:space="preserve" text-anchor="start" x="621.9" y="-181.73" font-family="Arial" font-size="8.00">🔑 idDonVi : INTEGER</text>
<text xml:space="preserve" text-anchor="start" x="621.9" y="-170.48" font-family="Arial" font-size="8.00">capDonVi</text>
<text xml:space="preserve" text-anchor="start" x="621.9" y="-160.73" font-family="Arial" font-size="8.00">🔗 idToChuc : INTEGER</text>
</g>
<!-- donVi&#45;&gt;toChuc -->
<g id="edge1" class="edge">
<title>donVi&#45;&gt;toChuc</title>
<path fill="none" stroke="darkblue" d="M715.5,-185.28C735.82,-185.28 759.49,-185.28 780.63,-185.28"/>
<polygon fill="darkblue" stroke="darkblue" points="780.56,-185.28 788.56,-188.88 784.89,-185.28 788.23,-185.28 788.23,-185.28 788.23,-185.28 784.89,-185.28 788.56,-181.68 780.56,-185.28"/>
<text xml:space="preserve" text-anchor="middle" x="752.35" y="-187.08" font-family="Times,serif" font-size="6.00" fill="darkblue"> &#160;idToChuc &#160;</text>
</g>
<!-- nguoiBaoCao -->
<g id="node3" class="node">
<title>nguoiBaoCao</title>
<path fill="lightcoral" stroke="darkred" d="M431.8,-190.12C431.8,-190.12 531.7,-190.12 531.7,-190.12 537.7,-190.12 543.7,-196.12 543.7,-202.12 543.7,-202.12 543.7,-268.43 543.7,-268.43 543.7,-274.43 537.7,-280.43 531.7,-280.43 531.7,-280.43 431.8,-280.43 431.8,-280.43 425.8,-280.43 419.8,-274.43 419.8,-268.43 419.8,-268.43 419.8,-202.12 419.8,-202.12 419.8,-196.12 425.8,-190.12 431.8,-190.12"/>
<text xml:space="preserve" text-anchor="middle" x="481.75" y="-265.62" font-family="Arial" font-size="8.00">nguoiBaoCao</text>
<polyline fill="none" stroke="darkred" points="419.8,-256.28 543.7,-256.28"/>
<text xml:space="preserve" text-anchor="start" x="427" y="-241.48" font-family="Arial" font-size="8.00">🔑 idNguoiBaoCao : INTEGER</text>
<text xml:space="preserve" text-anchor="start" x="427" y="-230.23" font-family="Arial" font-size="8.00">hoVaTen</text>
<text xml:space="preserve" text-anchor="start" x="427" y="-220.48" font-family="Arial" font-size="8.00">chucVu</text>
<text xml:space="preserve" text-anchor="start" x="427" y="-210.73" font-family="Arial" font-size="8.00">emailTruong</text>
<text xml:space="preserve" text-anchor="start" x="427" y="-200.98" font-family="Arial" font-size="8.00">🔗 idDonVi : INTEGER</text>
</g>
<!-- nguoiBaoCao&#45;&gt;donVi -->
<g id="edge2" class="edge">
<title>nguoiBaoCao&#45;&gt;donVi</title>
<path fill="none" stroke="darkblue" d="M544.12,-218.35C564.25,-212.79 586.54,-206.65 606.39,-201.17"/>
<polygon fill="darkblue" stroke="darkblue" points="606.4,-201.17 615.07,-202.51 610.58,-200.02 613.79,-199.13 613.79,-199.13 613.79,-199.13 610.58,-200.02 613.16,-195.57 606.4,-201.17"/>
<text xml:space="preserve" text-anchor="middle" x="579.2" y="-213.57" font-family="Times,serif" font-size="6.00" fill="darkblue"> &#160;idDonVi &#160;</text>
</g>
<!-- giaiDoanBaoCao -->
<g id="node4" class="node">
<title>giaiDoanBaoCao</title>
<path fill="lightcoral" stroke="darkred" d="M440.43,-25.62C440.43,-25.62 523.08,-25.62 523.08,-25.62 529.08,-25.62 535.08,-31.62 535.08,-37.62 535.08,-37.62 535.08,-82.92 535.08,-82.92 535.08,-88.92 529.08,-94.92 523.08,-94.92 523.08,-94.92 440.43,-94.92 440.43,-94.92 434.43,-94.92 428.43,-88.92 428.43,-82.92 428.43,-82.92 428.43,-37.62 428.43,-37.62 428.43,-31.62 434.43,-25.62 440.43,-25.62"/>
<text xml:space="preserve" text-anchor="middle" x="481.75" y="-80.12" font-family="Arial" font-size="8.00">giaiDoanBaoCao</text>
<polyline fill="none" stroke="darkred" points="428.43,-70.78 535.08,-70.78"/>
<text xml:space="preserve" text-anchor="start" x="435.63" y="-55.98" font-family="Arial" font-size="8.00">🔑 idGiaiDoan : INTEGER</text>
<text xml:space="preserve" text-anchor="start" x="435.63" y="-44.73" font-family="Arial" font-size="8.00">thoiDiemBatDau</text>
<text xml:space="preserve" text-anchor="start" x="435.63" y="-34.98" font-family="Arial" font-size="8.00">thoiDiemKetThuc</text>
</g>
<!-- bcPCsdlCntt -->
<g id="node5" class="node">
<title>bcPCsdlCntt</title>
<path fill="lightblue" stroke="darkblue" d="M212.15,-90.12C212.15,-90.12 318.8,-90.12 318.8,-90.12 324.8,-90.12 330.8,-96.12 330.8,-102.12 330.8,-102.12 330.8,-204.43 330.8,-204.43 330.8,-210.43 324.8,-216.43 318.8,-216.43 318.8,-216.43 212.15,-216.43 212.15,-216.43 206.15,-216.43 200.15,-210.43 200.15,-204.43 200.15,-204.43 200.15,-102.12 200.15,-102.12 200.15,-96.12 206.15,-90.12 212.15,-90.12"/>
<text xml:space="preserve" text-anchor="middle" x="265.48" y="-201.63" font-family="Arial" font-size="8.00">bcPCsdlCntt</text>
<polyline fill="none" stroke="darkblue" points="200.15,-192.28 330.8,-192.28"/>
<text xml:space="preserve" text-anchor="start" x="207.35" y="-177.48" font-family="Arial" font-size="8.00">soLuongMcvlTaiTruong</text>
<text xml:space="preserve" text-anchor="start" x="207.35" y="-167.73" font-family="Arial" font-size="8.00">soLuongMcaTaiTruong</text>
<text xml:space="preserve" text-anchor="start" x="207.35" y="-157.98" font-family="Arial" font-size="8.00">soLuongMccThue</text>
<text xml:space="preserve" text-anchor="start" x="207.35" y="-148.23" font-family="Arial" font-size="8.00">soLuongDtLeasedLine</text>
<text xml:space="preserve" text-anchor="start" x="207.35" y="-138.48" font-family="Arial" font-size="8.00">dungLuongDtInternetTrongNuoc</text>
<text xml:space="preserve" text-anchor="start" x="207.35" y="-128.73" font-family="Arial" font-size="8.00">dungLuongDtInternetQuocTe</text>
<text xml:space="preserve" text-anchor="start" x="207.35" y="-118.98" font-family="Arial" font-size="8.00">soLuongSwitchTang</text>
<text xml:space="preserve" text-anchor="start" x="207.35" y="-109.23" font-family="Arial" font-size="8.00">soLuongThietBiWifi</text>
<text xml:space="preserve" text-anchor="start" x="207.35" y="-99.48" font-family="Arial" font-size="8.00">...</text>
</g>
<!-- bcPCsdlCntt&#45;&gt;donVi -->
<g id="edge4" class="edge">
<title>bcPCsdlCntt&#45;&gt;donVi</title>
<path fill="none" stroke="darkblue" d="M331.3,-154.98C387.56,-156.86 471.16,-160.62 543.7,-167.78 564.1,-169.79 586.34,-172.79 606.09,-175.75"/>
<polygon fill="darkblue" stroke="darkblue" points="606.15,-175.76 613.52,-180.52 610.44,-176.41 613.73,-176.91 613.73,-176.91 613.73,-176.91 610.44,-176.41 614.6,-173.4 606.15,-175.76"/>
<text xml:space="preserve" text-anchor="middle" x="481.75" y="-169.58" font-family="Times,serif" font-size="6.00" fill="darkblue"> &#160;idDonVi &#160;</text>
</g>
<!-- bcPCsdlCntt&#45;&gt;nguoiBaoCao -->
<g id="edge5" class="edge">
<title>bcPCsdlCntt&#45;&gt;nguoiBaoCao</title>
<path fill="none" stroke="darkblue" d="M331.06,-177.99C356.63,-187.77 386.06,-199.04 412.02,-208.97"/>
<polygon fill="darkblue" stroke="darkblue" points="411.82,-208.9 418.01,-215.12 415.87,-210.45 418.98,-211.64 418.98,-211.64 418.98,-211.64 415.87,-210.45 420.58,-208.39 411.82,-208.9"/>
<text xml:space="preserve" text-anchor="middle" x="375.3" y="-203.42" font-family="Times,serif" font-size="6.00" fill="darkblue"> &#160;idNguoiBaoCao &#160;</text>
</g>
<!-- bcPCsdlCntt&#45;&gt;giaiDoanBaoCao -->
<g id="edge3" class="edge">
<title>bcPCsdlCntt&#45;&gt;giaiDoanBaoCao</title>
<path fill="none" stroke="darkblue" d="M331.06,-125.25C359.44,-112.93 392.58,-98.54 420.46,-86.44"/>
<polygon fill="darkblue" stroke="darkblue" points="420.53,-86.41 429.3,-86.53 424.5,-84.69 427.56,-83.36 427.56,-83.36 427.56,-83.36 424.5,-84.69 426.43,-79.93 420.53,-86.41"/>
<text xml:space="preserve" text-anchor="middle" x="375.3" y="-116.9" font-family="Times,serif" font-size="6.00" fill="darkblue"> &#160;idGiaiDoan &#160;</text>
</g>
<!-- thongTinHtCsdl -->
<g id="node6" class="node">
<title>thongTinHtCsdl</title>
<path fill="lightgreen" stroke="darkgreen" d="M228.65,-246.5C228.65,-246.5 302.3,-246.5 302.3,-246.5 308.3,-246.5 314.3,-252.5 314.3,-258.5 314.3,-258.5 314.3,-294.05 314.3,-294.05 314.3,-300.05 308.3,-306.05 302.3,-306.05 302.3,-306.05 228.65,-306.05 228.65,-306.05 222.65,-306.05 216.65,-300.05 216.65,-294.05 216.65,-294.05 216.65,-258.5 216.65,-258.5 216.65,-252.5 222.65,-246.5 228.65,-246.5"/>
<text xml:space="preserve" text-anchor="middle" x="265.48" y="-291.25" font-family="Arial" font-size="8.00">thongTinHtCsdl</text>
<polyline fill="none" stroke="darkgreen" points="216.65,-281.9 314.3,-281.9"/>
<text xml:space="preserve" text-anchor="start" x="223.85" y="-267.1" font-family="Arial" font-size="8.00">🔑 idHtCsdl : INTEGER</text>
<text xml:space="preserve" text-anchor="start" x="223.85" y="-255.85" font-family="Arial" font-size="8.00">tenHtCsdl</text>
</g>
<!-- thongKeHtCsdl -->
<g id="node7" class="node">
<title>thongKeHtCsdl</title>
<path fill="lightyellow" stroke="darkorange" d="M15.38,-178.88C15.38,-178.88 104.78,-178.88 104.78,-178.88 110.78,-178.88 116.78,-184.88 116.78,-190.88 116.78,-190.88 116.78,-237.68 116.78,-237.68 116.78,-243.68 110.78,-249.68 104.78,-249.68 104.78,-249.68 15.38,-249.68 15.38,-249.68 9.38,-249.68 3.38,-243.68 3.38,-237.68 3.38,-237.68 3.38,-190.88 3.38,-190.88 3.38,-184.88 9.38,-178.88 15.38,-178.88"/>
<text xml:space="preserve" text-anchor="middle" x="60.08" y="-234.88" font-family="Arial" font-size="8.00">thongKeHtCsdl</text>
<polyline fill="none" stroke="darkorange" points="3.38,-225.53 116.78,-225.53"/>
<text xml:space="preserve" text-anchor="start" x="10.58" y="-210.73" font-family="Arial" font-size="8.00">🔗 🔑 idBaoCao : INTEGER</text>
<text xml:space="preserve" text-anchor="start" x="10.58" y="-199.48" font-family="Arial" font-size="8.00">🔗 🔑 idHtCsdl : INTEGER</text>
<text xml:space="preserve" text-anchor="start" x="10.58" y="-188.23" font-family="Arial" font-size="8.00">soLuong</text>
</g>
<!-- thongKeHtCsdl&#45;&gt;bcPCsdlCntt -->
<g id="edge6" class="edge">
<title>thongKeHtCsdl&#45;&gt;bcPCsdlCntt</title>
<path fill="none" stroke="darkblue" d="M117.19,-197.45C140.32,-190.51 167.42,-182.38 192.02,-175"/>
<polygon fill="darkblue" stroke="darkblue" points="191.93,-175.03 200.63,-176.18 196.08,-173.79 199.27,-172.83 199.27,-172.83 199.27,-172.83 196.08,-173.79 198.56,-169.28 191.93,-175.03"/>
<text xml:space="preserve" text-anchor="middle" x="160.15" y="-191.04" font-family="Times,serif" font-size="6.00" fill="darkblue"> &#160;idBaoCao &#160;</text>
</g>
<!-- thongKeHtCsdl&#45;&gt;thongTinHtCsdl -->
<g id="edge7" class="edge">
<title>thongKeHtCsdl&#45;&gt;thongTinHtCsdl</title>
<path fill="none" stroke="darkblue" d="M117.19,-231.38C145.68,-240.06 180.17,-250.58 208.62,-259.25"/>
<polygon fill="darkblue" stroke="darkblue" points="208.5,-259.21 215.1,-264.99 212.65,-260.48 215.83,-261.45 215.83,-261.45 215.83,-261.45 212.65,-260.48 217.2,-258.1 208.5,-259.21"/>
<text xml:space="preserve" text-anchor="middle" x="160.15" y="-250.79" font-family="Times,serif" font-size="6.00" fill="darkblue"> &#160;idHtCsdl &#160;</text>
</g>
<!-- thongTinTuongLua -->
<g id="node8" class="node">
<title>thongTinTuongLua</title>
<path fill="lightgreen" stroke="darkgreen" d="M222.65,-336.5C222.65,-336.5 308.3,-336.5 308.3,-336.5 314.3,-336.5 320.3,-342.5 320.3,-348.5 320.3,-348.5 320.3,-384.05 320.3,-384.05 320.3,-390.05 314.3,-396.05 308.3,-396.05 308.3,-396.05 222.65,-396.05 222.65,-396.05 216.65,-396.05 210.65,-390.05 210.65,-384.05 210.65,-384.05 210.65,-348.5 210.65,-348.5 210.65,-342.5 216.65,-336.5 222.65,-336.5"/>
<text xml:space="preserve" text-anchor="middle" x="265.48" y="-381.25" font-family="Arial" font-size="8.00">thongTinTuongLua</text>
<polyline fill="none" stroke="darkgreen" points="210.65,-371.9 320.3,-371.9"/>
<text xml:space="preserve" text-anchor="start" x="217.85" y="-357.1" font-family="Arial" font-size="8.00">🔑 idTuongLua : INTEGER</text>
<text xml:space="preserve" text-anchor="start" x="217.85" y="-345.85" font-family="Arial" font-size="8.00">tenTuongLua</text>
</g>
<!-- thongKeTuongLua -->
<g id="node9" class="node">
<title>thongKeTuongLua</title>
<path fill="lightyellow" stroke="darkorange" d="M12,-306.88C12,-306.88 108.15,-306.88 108.15,-306.88 114.15,-306.88 120.15,-312.88 120.15,-318.88 120.15,-318.88 120.15,-365.67 120.15,-365.67 120.15,-371.67 114.15,-377.67 108.15,-377.67 108.15,-377.67 12,-377.67 12,-377.67 6,-377.67 0,-371.67 0,-365.67 0,-365.67 0,-318.88 0,-318.88 0,-312.88 6,-306.88 12,-306.88"/>
<text xml:space="preserve" text-anchor="middle" x="60.08" y="-362.87" font-family="Arial" font-size="8.00">thongKeTuongLua</text>
<polyline fill="none" stroke="darkorange" points="0,-353.52 120.15,-353.52"/>
<text xml:space="preserve" text-anchor="start" x="7.2" y="-338.72" font-family="Arial" font-size="8.00">🔗 🔑 idBaoCao : INTEGER</text>
<text xml:space="preserve" text-anchor="start" x="7.2" y="-327.47" font-family="Arial" font-size="8.00">🔗 🔑 idTuongLua : INTEGER</text>
<text xml:space="preserve" text-anchor="start" x="7.2" y="-316.22" font-family="Arial" font-size="8.00">soLuong</text>
</g>
<!-- thongKeTuongLua&#45;&gt;bcPCsdlCntt -->
<g id="edge9" class="edge">
<title>thongKeTuongLua&#45;&gt;bcPCsdlCntt</title>
<path fill="none" stroke="darkblue" d="M120.61,-308.28C140.14,-295.58 161.17,-280.11 178.15,-263.27 190.41,-251.12 189.76,-245.06 200.15,-231.28 202.17,-228.59 204.25,-225.88 206.36,-223.15"/>
<polygon fill="darkblue" stroke="darkblue" points="206.22,-223.33 213.99,-219.24 208.89,-219.91 210.95,-217.29 210.95,-217.29 210.95,-217.29 208.89,-219.91 208.31,-214.81 206.22,-223.33"/>
<text xml:space="preserve" text-anchor="middle" x="160.15" y="-294.92" font-family="Times,serif" font-size="6.00" fill="darkblue"> &#160;idBaoCao &#160;</text>
</g>
<!-- thongKeTuongLua&#45;&gt;thongTinTuongLua -->
<g id="edge8" class="edge">
<title>thongKeTuongLua&#45;&gt;thongTinTuongLua</title>
<path fill="none" stroke="darkblue" d="M120.45,-349.28C146.06,-352.3 176.02,-355.84 201.97,-358.9"/>
<polygon fill="darkblue" stroke="darkblue" points="201.96,-358.9 209.48,-363.41 206.26,-359.41 209.57,-359.8 209.57,-359.8 209.57,-359.8 206.26,-359.41 210.33,-356.26 201.96,-358.9"/>
<text xml:space="preserve" text-anchor="middle" x="160.15" y="-357.51" font-family="Times,serif" font-size="6.00" fill="darkblue"> &#160;idTuongLua &#160;</text>
</g>
<!-- thongTinPmdv -->
<g id="node10" class="node">
<title>thongTinPmdv</title>
<path fill="lightgreen" stroke="darkgreen" d="M230.53,-0.5C230.53,-0.5 300.43,-0.5 300.43,-0.5 306.43,-0.5 312.43,-6.5 312.43,-12.5 312.43,-12.5 312.43,-48.05 312.43,-48.05 312.43,-54.05 306.43,-60.05 300.43,-60.05 300.43,-60.05 230.53,-60.05 230.53,-60.05 224.53,-60.05 218.53,-54.05 218.53,-48.05 218.53,-48.05 218.53,-12.5 218.53,-12.5 218.53,-6.5 224.53,-0.5 230.53,-0.5"/>
<text xml:space="preserve" text-anchor="middle" x="265.48" y="-45.25" font-family="Arial" font-size="8.00">thongTinPmdv</text>
<polyline fill="none" stroke="darkgreen" points="218.53,-35.9 312.43,-35.9"/>
<text xml:space="preserve" text-anchor="start" x="225.73" y="-21.1" font-family="Arial" font-size="8.00">🔑 idPmdv : INTEGER</text>
<text xml:space="preserve" text-anchor="start" x="225.73" y="-9.85" font-family="Arial" font-size="8.00">tenPmdv</text>
</g>
<!-- thongKePmdv -->
<g id="node11" class="node">
<title>thongKePmdv</title>
<path fill="lightyellow" stroke="darkorange" d="M15.38,-66.88C15.38,-66.88 104.78,-66.88 104.78,-66.88 110.78,-66.88 116.78,-72.88 116.78,-78.88 116.78,-78.88 116.78,-125.68 116.78,-125.68 116.78,-131.68 110.78,-137.68 104.78,-137.68 104.78,-137.68 15.38,-137.68 15.38,-137.68 9.38,-137.68 3.38,-131.68 3.38,-125.68 3.38,-125.68 3.38,-78.88 3.38,-78.88 3.38,-72.88 9.38,-66.88 15.38,-66.88"/>
<text xml:space="preserve" text-anchor="middle" x="60.08" y="-122.88" font-family="Arial" font-size="8.00">thongKePmdv</text>
<polyline fill="none" stroke="darkorange" points="3.38,-113.53 116.78,-113.53"/>
<text xml:space="preserve" text-anchor="start" x="10.58" y="-98.73" font-family="Arial" font-size="8.00">🔗 🔑 idBaoCao : INTEGER</text>
<text xml:space="preserve" text-anchor="start" x="10.58" y="-87.48" font-family="Arial" font-size="8.00">🔗 🔑 idPmdv : INTEGER</text>
<text xml:space="preserve" text-anchor="start" x="10.58" y="-76.23" font-family="Arial" font-size="8.00">soLuong</text>
</g>
<!-- thongKePmdv&#45;&gt;bcPCsdlCntt -->
<g id="edge10" class="edge">
<title>thongKePmdv&#45;&gt;bcPCsdlCntt</title>
<path fill="none" stroke="darkblue" d="M117.19,-116.35C140.32,-122.15 167.42,-128.94 192.02,-135.11"/>
<polygon fill="darkblue" stroke="darkblue" points="191.83,-135.06 198.71,-140.5 196.04,-136.11 199.27,-136.92 199.27,-136.92 199.27,-136.92 196.04,-136.11 200.47,-133.51 191.83,-135.06"/>
<text xml:space="preserve" text-anchor="middle" x="160.15" y="-132.63" font-family="Times,serif" font-size="6.00" fill="darkblue"> &#160;idBaoCao &#160;</text>
</g>
<!-- thongKePmdv&#45;&gt;thongTinPmdv -->
<g id="edge11" class="edge">
<title>thongKePmdv&#45;&gt;thongTinPmdv</title>
<path fill="none" stroke="darkblue" d="M117.19,-82.41C146.21,-72.14 181.48,-59.65 210.22,-49.48"/>
<polygon fill="darkblue" stroke="darkblue" points="210.29,-49.46 219.03,-50.18 214.38,-48.01 217.52,-46.9 217.52,-46.9 217.52,-46.9 214.38,-48.01 216.63,-43.39 210.29,-49.46"/>
<text xml:space="preserve" text-anchor="middle" x="160.15" y="-74.52" font-family="Times,serif" font-size="6.00" fill="darkblue"> &#160;idPmdv &#160;</text>
</g>
</g>
</svg>
