<?xml version="1.0" encoding="UTF-8" standalone="no"?>
<!DOCTYPE svg PUBLIC "-//W3C//DTD SVG 1.1//EN"
 "http://www.w3.org/Graphics/SVG/1.1/DTD/svg11.dtd">
<!-- Generated by graphviz version 13.1.2 (0)
 -->
<!-- Pages: 1 -->
<svg width="957pt" height="385pt"
 viewBox="14.00 14.00 943.00 371.00" xmlns="http://www.w3.org/2000/svg" xmlns:xlink="http://www.w3.org/1999/xlink">
<g id="graph0" class="graph" transform="scale(1 1) rotate(0) translate(43.2 341.75)">
<polygon fill="white" stroke="none" points="-28.8,28.8 -28.8,-327.35 899.3,-327.35 899.3,28.8 -28.8,28.8"/>
<text xml:space="preserve" text-anchor="middle" x="435.25" y="-279.35" font-family="Arial Bold" font-size="16.00" fill="darkblue">Phòng Cơ Sở Vật Chất</text>
<text xml:space="preserve" text-anchor="middle" x="435.25" y="-260.6" font-family="Arial Bold" font-size="16.00" fill="darkblue">(PCSVC)</text>
<!-- toChuc -->
<g id="node1" class="node">
<title>toChuc</title>
<path fill="lightcoral" stroke="darkred" d="M781.85,-187.38C781.85,-187.38 858.5,-187.38 858.5,-187.38 864.5,-187.38 870.5,-193.38 870.5,-199.38 870.5,-199.38 870.5,-234.93 870.5,-234.93 870.5,-240.93 864.5,-246.93 858.5,-246.93 858.5,-246.93 781.85,-246.93 781.85,-246.93 775.85,-246.93 769.85,-240.93 769.85,-234.93 769.85,-234.93 769.85,-199.38 769.85,-199.38 769.85,-193.38 775.85,-187.38 781.85,-187.38"/>
<text xml:space="preserve" text-anchor="middle" x="820.18" y="-232.12" font-family="Arial" font-size="8.00">toChuc</text>
<polyline fill="none" stroke="darkred" points="769.85,-222.78 870.5,-222.78"/>
<text xml:space="preserve" text-anchor="start" x="777.05" y="-207.98" font-family="Arial" font-size="8.00">🔑 idToChuc : INTEGER</text>
<text xml:space="preserve" text-anchor="start" x="777.05" y="-196.73" font-family="Arial" font-size="8.00">capToChuc</text>
</g>
<!-- donVi -->
<g id="node2" class="node">
<title>donVi</title>
<path fill="lightcoral" stroke="darkred" d="M607.2,-181.75C607.2,-181.75 683.85,-181.75 683.85,-181.75 689.85,-181.75 695.85,-187.75 695.85,-193.75 695.85,-193.75 695.85,-240.55 695.85,-240.55 695.85,-246.55 689.85,-252.55 683.85,-252.55 683.85,-252.55 607.2,-252.55 607.2,-252.55 601.2,-252.55 595.2,-246.55 595.2,-240.55 595.2,-240.55 595.2,-193.75 595.2,-193.75 595.2,-187.75 601.2,-181.75 607.2,-181.75"/>
<text xml:space="preserve" text-anchor="middle" x="645.53" y="-237.75" font-family="Arial" font-size="8.00">donVi</text>
<polyline fill="none" stroke="darkred" points="595.2,-228.4 695.85,-228.4"/>
<text xml:space="preserve" text-anchor="start" x="602.4" y="-213.6" font-family="Arial" font-size="8.00">🔑 idDonVi : INTEGER</text>
<text xml:space="preserve" text-anchor="start" x="602.4" y="-202.35" font-family="Arial" font-size="8.00">capDonVi</text>
<text xml:space="preserve" text-anchor="start" x="602.4" y="-192.6" font-family="Arial" font-size="8.00">🔗 idToChuc : INTEGER</text>
</g>
<!-- donVi&#45;&gt;toChuc -->
<g id="edge1" class="edge">
<title>donVi&#45;&gt;toChuc</title>
<path fill="none" stroke="darkblue" d="M696,-217.15C716.32,-217.15 739.99,-217.15 761.13,-217.15"/>
<polygon fill="darkblue" stroke="darkblue" points="761.06,-217.15 769.06,-220.75 765.39,-217.15 768.73,-217.15 768.73,-217.15 768.73,-217.15 765.39,-217.15 769.06,-213.55 761.06,-217.15"/>
<text xml:space="preserve" text-anchor="middle" x="732.85" y="-218.95" font-family="Times,serif" font-size="6.00" fill="darkblue"> &#160;idToChuc &#160;</text>
</g>
<!-- nguoiBaoCao -->
<g id="node3" class="node">
<title>nguoiBaoCao</title>
<path fill="lightcoral" stroke="darkred" d="M412.3,-120C412.3,-120 512.2,-120 512.2,-120 518.2,-120 524.2,-126 524.2,-132 524.2,-132 524.2,-198.3 524.2,-198.3 524.2,-204.3 518.2,-210.3 512.2,-210.3 512.2,-210.3 412.3,-210.3 412.3,-210.3 406.3,-210.3 400.3,-204.3 400.3,-198.3 400.3,-198.3 400.3,-132 400.3,-132 400.3,-126 406.3,-120 412.3,-120"/>
<text xml:space="preserve" text-anchor="middle" x="462.25" y="-195.5" font-family="Arial" font-size="8.00">nguoiBaoCao</text>
<polyline fill="none" stroke="darkred" points="400.3,-186.15 524.2,-186.15"/>
<text xml:space="preserve" text-anchor="start" x="407.5" y="-171.35" font-family="Arial" font-size="8.00">🔑 idNguoiBaoCao : INTEGER</text>
<text xml:space="preserve" text-anchor="start" x="407.5" y="-160.1" font-family="Arial" font-size="8.00">hoVaTen</text>
<text xml:space="preserve" text-anchor="start" x="407.5" y="-150.35" font-family="Arial" font-size="8.00">chucVu</text>
<text xml:space="preserve" text-anchor="start" x="407.5" y="-140.6" font-family="Arial" font-size="8.00">emailTruong</text>
<text xml:space="preserve" text-anchor="start" x="407.5" y="-130.85" font-family="Arial" font-size="8.00">🔗 idDonVi : INTEGER</text>
</g>
<!-- nguoiBaoCao&#45;&gt;donVi -->
<g id="edge2" class="edge">
<title>nguoiBaoCao&#45;&gt;donVi</title>
<path fill="none" stroke="darkblue" d="M524.62,-182.75C544.75,-188.53 567.04,-194.92 586.89,-200.62"/>
<polygon fill="darkblue" stroke="darkblue" points="586.93,-200.63 593.62,-206.29 591.09,-201.82 594.3,-202.74 594.3,-202.74 594.3,-202.74 591.09,-201.82 595.61,-199.37 586.93,-200.63"/>
<text xml:space="preserve" text-anchor="middle" x="559.7" y="-197.61" font-family="Times,serif" font-size="6.00" fill="darkblue"> &#160;idDonVi &#160;</text>
</g>
<!-- giaiDoanBaoCao -->
<g id="node4" class="node">
<title>giaiDoanBaoCao</title>
<path fill="lightcoral" stroke="darkred" d="M420.93,-20.5C420.93,-20.5 503.58,-20.5 503.58,-20.5 509.58,-20.5 515.58,-26.5 515.58,-32.5 515.58,-32.5 515.58,-77.8 515.58,-77.8 515.58,-83.8 509.58,-89.8 503.58,-89.8 503.58,-89.8 420.93,-89.8 420.93,-89.8 414.93,-89.8 408.93,-83.8 408.93,-77.8 408.93,-77.8 408.93,-32.5 408.93,-32.5 408.93,-26.5 414.93,-20.5 420.93,-20.5"/>
<text xml:space="preserve" text-anchor="middle" x="462.25" y="-75" font-family="Arial" font-size="8.00">giaiDoanBaoCao</text>
<polyline fill="none" stroke="darkred" points="408.93,-65.65 515.58,-65.65"/>
<text xml:space="preserve" text-anchor="start" x="416.13" y="-50.85" font-family="Arial" font-size="8.00">🔑 idGiaiDoan : INTEGER</text>
<text xml:space="preserve" text-anchor="start" x="416.13" y="-39.6" font-family="Arial" font-size="8.00">thoiDiemBatDau</text>
<text xml:space="preserve" text-anchor="start" x="416.13" y="-29.85" font-family="Arial" font-size="8.00">thoiDiemKetThuc</text>
</g>
<!-- bcPCsvc -->
<g id="node5" class="node">
<title>bcPCsvc</title>
<path fill="lightblue" stroke="darkblue" d="M199.4,-99.75C199.4,-99.75 299.3,-99.75 299.3,-99.75 305.3,-99.75 311.3,-105.75 311.3,-111.75 311.3,-111.75 311.3,-218.55 311.3,-218.55 311.3,-224.55 305.3,-230.55 299.3,-230.55 299.3,-230.55 199.4,-230.55 199.4,-230.55 193.4,-230.55 187.4,-224.55 187.4,-218.55 187.4,-218.55 187.4,-111.75 187.4,-111.75 187.4,-105.75 193.4,-99.75 199.4,-99.75"/>
<text xml:space="preserve" text-anchor="middle" x="249.35" y="-215.75" font-family="Arial" font-size="8.00">bcPCsvc</text>
<polyline fill="none" stroke="darkblue" points="187.4,-206.4 311.3,-206.4"/>
<text xml:space="preserve" text-anchor="start" x="194.6" y="-191.6" font-family="Arial" font-size="8.00">soLuongDatDai</text>
<text xml:space="preserve" text-anchor="start" x="194.6" y="-181.85" font-family="Arial" font-size="8.00">soLuongCongTrinh</text>
<text xml:space="preserve" text-anchor="start" x="194.6" y="-172.1" font-family="Arial" font-size="8.00">soLuongHthtkt</text>
<text xml:space="preserve" text-anchor="start" x="194.6" y="-162.35" font-family="Arial" font-size="8.00">soLuongCxcq</text>
<text xml:space="preserve" text-anchor="start" x="194.6" y="-152.6" font-family="Arial" font-size="8.00">🔑 idBaoCao : INTEGER</text>
<text xml:space="preserve" text-anchor="start" x="194.6" y="-141.35" font-family="Arial" font-size="8.00">timestamp</text>
<text xml:space="preserve" text-anchor="start" x="194.6" y="-131.6" font-family="Arial" font-size="8.00">🔗 idNguoiBaoCao : INTEGER</text>
<text xml:space="preserve" text-anchor="start" x="194.6" y="-120.35" font-family="Arial" font-size="8.00">🔗 idDonVi : INTEGER</text>
<text xml:space="preserve" text-anchor="start" x="194.6" y="-109.1" font-family="Arial" font-size="8.00">...</text>
</g>
<!-- bcPCsvc&#45;&gt;donVi -->
<g id="edge5" class="edge">
<title>bcPCsvc&#45;&gt;donVi</title>
<path fill="none" stroke="darkblue" d="M311.48,-195.74C338.07,-207.42 370.01,-219.32 400.3,-225.15 463.24,-237.27 536.96,-232.3 586.81,-226.19"/>
<polygon fill="darkblue" stroke="darkblue" points="586.63,-226.21 595.02,-228.77 590.93,-225.66 594.24,-225.24 594.24,-225.24 594.24,-225.24 590.93,-225.66 594.12,-221.63 586.63,-226.21"/>
<text xml:space="preserve" text-anchor="middle" x="462.25" y="-234.39" font-family="Times,serif" font-size="6.00" fill="darkblue"> &#160;idDonVi &#160;</text>
</g>
<!-- bcPCsvc&#45;&gt;nguoiBaoCao -->
<g id="edge4" class="edge">
<title>bcPCsvc&#45;&gt;nguoiBaoCao</title>
<path fill="none" stroke="darkblue" d="M311.63,-165.15C336.66,-165.15 365.73,-165.15 391.55,-165.15"/>
<polygon fill="darkblue" stroke="darkblue" points="391.48,-165.15 399.48,-168.75 395.81,-165.15 399.14,-165.15 399.14,-165.15 399.14,-165.15 395.81,-165.15 399.48,-161.55 391.48,-165.15"/>
<text xml:space="preserve" text-anchor="middle" x="355.8" y="-166.95" font-family="Times,serif" font-size="6.00" fill="darkblue"> &#160;idNguoiBaoCao &#160;</text>
</g>
<!-- bcPCsvc&#45;&gt;giaiDoanBaoCao -->
<g id="edge3" class="edge">
<title>bcPCsvc&#45;&gt;giaiDoanBaoCao</title>
<path fill="none" stroke="darkblue" d="M311.63,-133.19C339.88,-118.45 373.29,-101.03 401.36,-86.39"/>
<polygon fill="darkblue" stroke="darkblue" points="401.36,-86.39 410.12,-85.88 405.2,-84.38 408.16,-82.84 408.16,-82.84 408.16,-82.84 405.2,-84.38 406.79,-79.5 401.36,-86.39"/>
<text xml:space="preserve" text-anchor="middle" x="355.8" y="-121.8" font-family="Times,serif" font-size="6.00" fill="darkblue"> &#160;idGiaiDoan &#160;</text>
</g>
<!-- thongTinMmtb -->
<g id="node6" class="node">
<title>thongTinMmtb</title>
<path fill="lightgreen" stroke="darkgreen" d="M214.4,-0.5C214.4,-0.5 284.3,-0.5 284.3,-0.5 290.3,-0.5 296.3,-6.5 296.3,-12.5 296.3,-12.5 296.3,-57.8 296.3,-57.8 296.3,-63.8 290.3,-69.8 284.3,-69.8 284.3,-69.8 214.4,-69.8 214.4,-69.8 208.4,-69.8 202.4,-63.8 202.4,-57.8 202.4,-57.8 202.4,-12.5 202.4,-12.5 202.4,-6.5 208.4,-0.5 214.4,-0.5"/>
<text xml:space="preserve" text-anchor="middle" x="249.35" y="-55" font-family="Arial" font-size="8.00">thongTinMmtb</text>
<polyline fill="none" stroke="darkgreen" points="202.4,-45.65 296.3,-45.65"/>
<text xml:space="preserve" text-anchor="start" x="209.6" y="-30.85" font-family="Arial" font-size="8.00">🔑 idMmtb : INTEGER</text>
<text xml:space="preserve" text-anchor="start" x="209.6" y="-19.6" font-family="Arial" font-size="8.00">loaiMmtb</text>
<text xml:space="preserve" text-anchor="start" x="209.6" y="-9.85" font-family="Arial" font-size="8.00">tenMmtb</text>
</g>
<!-- thongKeMuaSamMmtb -->
<g id="node7" class="node">
<title>thongKeMuaSamMmtb</title>
<path fill="lightyellow" stroke="darkorange" d="M12,-15.88C12,-15.88 101.4,-15.88 101.4,-15.88 107.4,-15.88 113.4,-21.88 113.4,-27.88 113.4,-27.88 113.4,-84.43 113.4,-84.43 113.4,-90.43 107.4,-96.43 101.4,-96.43 101.4,-96.43 12,-96.43 12,-96.43 6,-96.43 0,-90.43 0,-84.43 0,-84.43 0,-27.87 0,-27.87 0,-21.88 6,-15.88 12,-15.88"/>
<text xml:space="preserve" text-anchor="middle" x="56.7" y="-81.63" font-family="Arial" font-size="8.00">thongKeMuaSamMmtb</text>
<polyline fill="none" stroke="darkorange" points="0,-72.28 113.4,-72.28"/>
<text xml:space="preserve" text-anchor="start" x="7.2" y="-57.48" font-family="Arial" font-size="8.00">🔗 🔑 idBaoCao : INTEGER</text>
<text xml:space="preserve" text-anchor="start" x="7.2" y="-46.23" font-family="Arial" font-size="8.00">🔗 🔑 idMmtb : INTEGER</text>
<text xml:space="preserve" text-anchor="start" x="7.2" y="-34.98" font-family="Arial" font-size="8.00">soLuong</text>
<text xml:space="preserve" text-anchor="start" x="7.2" y="-25.23" font-family="Arial" font-size="8.00">tongChiPhi</text>
</g>
<!-- thongKeMuaSamMmtb&#45;&gt;bcPCsvc -->
<g id="edge6" class="edge">
<title>thongKeMuaSamMmtb&#45;&gt;bcPCsvc</title>
<path fill="none" stroke="darkblue" d="M113.87,-88.26C134.49,-100.06 158.08,-113.54 179.68,-125.89"/>
<polygon fill="darkblue" stroke="darkblue" points="179.68,-125.89 184.84,-132.99 183.45,-128.04 186.34,-129.7 186.34,-129.7 186.34,-129.7 183.45,-128.04 188.42,-126.74 179.68,-125.89"/>
<text xml:space="preserve" text-anchor="middle" x="150.4" y="-118.98" font-family="Times,serif" font-size="6.00" fill="darkblue"> &#160;idBaoCao &#160;</text>
</g>
<!-- thongKeMuaSamMmtb&#45;&gt;thongTinMmtb -->
<g id="edge7" class="edge">
<title>thongKeMuaSamMmtb&#45;&gt;thongTinMmtb</title>
<path fill="none" stroke="darkblue" d="M113.87,-49.96C139.13,-47.18 168.84,-43.91 193.89,-41.15"/>
<polygon fill="darkblue" stroke="darkblue" points="193.91,-41.15 202.26,-43.85 198.22,-40.67 201.53,-40.31 201.53,-40.31 201.53,-40.31 198.22,-40.67 201.47,-36.69 193.91,-41.15"/>
<text xml:space="preserve" text-anchor="middle" x="150.4" y="-49.33" font-family="Times,serif" font-size="6.00" fill="darkblue"> &#160;idMmtb &#160;</text>
</g>
</g>
</svg>
