<?xml version="1.0" encoding="UTF-8" standalone="no"?>
<!DOCTYPE svg PUBLIC "-//W3C//DTD SVG 1.1//EN"
 "http://www.w3.org/Graphics/SVG/1.1/DTD/svg11.dtd">
<!-- Generated by graphviz version 13.1.2 (0)
 -->
<!-- Pages: 1 -->
<svg width="761pt" height="365pt"
 viewBox="14.00 14.00 747.00 351.00" xmlns="http://www.w3.org/2000/svg" xmlns:xlink="http://www.w3.org/1999/xlink">
<g id="graph0" class="graph" transform="scale(1 1) rotate(0) translate(43.2 321.75)">
<polygon fill="white" stroke="none" points="-28.8,28.8 -28.8,-307.35 703.65,-307.35 703.65,28.8 -28.8,28.8"/>
<text xml:space="preserve" text-anchor="middle" x="337.43" y="-259.35" font-family="Arial Bold" font-size="16.00" fill="darkblue">Phòng Công Tác Sinh Viên</text>
<text xml:space="preserve" text-anchor="middle" x="337.43" y="-240.6" font-family="Arial Bold" font-size="16.00" fill="darkblue">(PCTSV)</text>
<!-- toChuc -->
<g id="node1" class="node">
<title>toChuc</title>
<path fill="lightcoral" stroke="darkred" d="M586.2,-167.38C586.2,-167.38 662.85,-167.38 662.85,-167.38 668.85,-167.38 674.85,-173.38 674.85,-179.38 674.85,-179.38 674.85,-214.93 674.85,-214.93 674.85,-220.93 668.85,-226.93 662.85,-226.93 662.85,-226.93 586.2,-226.93 586.2,-226.93 580.2,-226.93 574.2,-220.93 574.2,-214.93 574.2,-214.93 574.2,-179.38 574.2,-179.38 574.2,-173.38 580.2,-167.38 586.2,-167.38"/>
<text xml:space="preserve" text-anchor="middle" x="624.53" y="-212.12" font-family="Arial" font-size="8.00">toChuc</text>
<polyline fill="none" stroke="darkred" points="574.2,-202.78 674.85,-202.78"/>
<text xml:space="preserve" text-anchor="start" x="581.4" y="-187.98" font-family="Arial" font-size="8.00">🔑 idToChuc : INTEGER</text>
<text xml:space="preserve" text-anchor="start" x="581.4" y="-176.73" font-family="Arial" font-size="8.00">capToChuc</text>
</g>
<!-- donVi -->
<g id="node2" class="node">
<title>donVi</title>
<path fill="lightcoral" stroke="darkred" d="M411.55,-161.75C411.55,-161.75 488.2,-161.75 488.2,-161.75 494.2,-161.75 500.2,-167.75 500.2,-173.75 500.2,-173.75 500.2,-220.55 500.2,-220.55 500.2,-226.55 494.2,-232.55 488.2,-232.55 488.2,-232.55 411.55,-232.55 411.55,-232.55 405.55,-232.55 399.55,-226.55 399.55,-220.55 399.55,-220.55 399.55,-173.75 399.55,-173.75 399.55,-167.75 405.55,-161.75 411.55,-161.75"/>
<text xml:space="preserve" text-anchor="middle" x="449.88" y="-217.75" font-family="Arial" font-size="8.00">donVi</text>
<polyline fill="none" stroke="darkred" points="399.55,-208.4 500.2,-208.4"/>
<text xml:space="preserve" text-anchor="start" x="406.75" y="-193.6" font-family="Arial" font-size="8.00">🔑 idDonVi : INTEGER</text>
<text xml:space="preserve" text-anchor="start" x="406.75" y="-182.35" font-family="Arial" font-size="8.00">capDonVi</text>
<text xml:space="preserve" text-anchor="start" x="406.75" y="-172.6" font-family="Arial" font-size="8.00">🔗 idToChuc : INTEGER</text>
</g>
<!-- donVi&#45;&gt;toChuc -->
<g id="edge1" class="edge">
<title>donVi&#45;&gt;toChuc</title>
<path fill="none" stroke="darkblue" d="M500.35,-197.15C520.67,-197.15 544.34,-197.15 565.48,-197.15"/>
<polygon fill="darkblue" stroke="darkblue" points="565.41,-197.15 573.41,-200.75 569.74,-197.15 573.08,-197.15 573.08,-197.15 573.08,-197.15 569.74,-197.15 573.41,-193.55 565.41,-197.15"/>
<text xml:space="preserve" text-anchor="middle" x="537.2" y="-198.95" font-family="Times,serif" font-size="6.00" fill="darkblue"> &#160;idToChuc &#160;</text>
</g>
<!-- nguoiBaoCao -->
<g id="node3" class="node">
<title>nguoiBaoCao</title>
<path fill="lightcoral" stroke="darkred" d="M216.65,-100C216.65,-100 316.55,-100 316.55,-100 322.55,-100 328.55,-106 328.55,-112 328.55,-112 328.55,-178.3 328.55,-178.3 328.55,-184.3 322.55,-190.3 316.55,-190.3 316.55,-190.3 216.65,-190.3 216.65,-190.3 210.65,-190.3 204.65,-184.3 204.65,-178.3 204.65,-178.3 204.65,-112 204.65,-112 204.65,-106 210.65,-100 216.65,-100"/>
<text xml:space="preserve" text-anchor="middle" x="266.6" y="-175.5" font-family="Arial" font-size="8.00">nguoiBaoCao</text>
<polyline fill="none" stroke="darkred" points="204.65,-166.15 328.55,-166.15"/>
<text xml:space="preserve" text-anchor="start" x="211.85" y="-151.35" font-family="Arial" font-size="8.00">🔑 idNguoiBaoCao : INTEGER</text>
<text xml:space="preserve" text-anchor="start" x="211.85" y="-140.1" font-family="Arial" font-size="8.00">hoVaTen</text>
<text xml:space="preserve" text-anchor="start" x="211.85" y="-130.35" font-family="Arial" font-size="8.00">chucVu</text>
<text xml:space="preserve" text-anchor="start" x="211.85" y="-120.6" font-family="Arial" font-size="8.00">emailTruong</text>
<text xml:space="preserve" text-anchor="start" x="211.85" y="-110.85" font-family="Arial" font-size="8.00">🔗 idDonVi : INTEGER</text>
</g>
<!-- nguoiBaoCao&#45;&gt;donVi -->
<g id="edge2" class="edge">
<title>nguoiBaoCao&#45;&gt;donVi</title>
<path fill="none" stroke="darkblue" d="M328.97,-162.75C349.1,-168.53 371.39,-174.92 391.24,-180.62"/>
<polygon fill="darkblue" stroke="darkblue" points="391.28,-180.63 397.97,-186.29 395.44,-181.82 398.65,-182.74 398.65,-182.74 398.65,-182.74 395.44,-181.82 399.96,-179.37 391.28,-180.63"/>
<text xml:space="preserve" text-anchor="middle" x="364.05" y="-177.61" font-family="Times,serif" font-size="6.00" fill="darkblue"> &#160;idDonVi &#160;</text>
</g>
<!-- giaiDoanBaoCao -->
<g id="node4" class="node">
<title>giaiDoanBaoCao</title>
<path fill="lightcoral" stroke="darkred" d="M225.28,-0.5C225.28,-0.5 307.93,-0.5 307.93,-0.5 313.93,-0.5 319.93,-6.5 319.93,-12.5 319.93,-12.5 319.93,-57.8 319.93,-57.8 319.93,-63.8 313.93,-69.8 307.93,-69.8 307.93,-69.8 225.28,-69.8 225.28,-69.8 219.28,-69.8 213.28,-63.8 213.28,-57.8 213.28,-57.8 213.28,-12.5 213.28,-12.5 213.28,-6.5 219.28,-0.5 225.28,-0.5"/>
<text xml:space="preserve" text-anchor="middle" x="266.6" y="-55" font-family="Arial" font-size="8.00">giaiDoanBaoCao</text>
<polyline fill="none" stroke="darkred" points="213.28,-45.65 319.93,-45.65"/>
<text xml:space="preserve" text-anchor="start" x="220.48" y="-30.85" font-family="Arial" font-size="8.00">🔑 idGiaiDoan : INTEGER</text>
<text xml:space="preserve" text-anchor="start" x="220.48" y="-19.6" font-family="Arial" font-size="8.00">thoiDiemBatDau</text>
<text xml:space="preserve" text-anchor="start" x="220.48" y="-9.85" font-family="Arial" font-size="8.00">thoiDiemKetThuc</text>
</g>
<!-- bcPCtsv -->
<g id="node5" class="node">
<title>bcPCtsv</title>
<path fill="lightblue" stroke="darkblue" d="M12,-82C12,-82 103.65,-82 103.65,-82 109.65,-82 115.65,-88 115.65,-94 115.65,-94 115.65,-196.3 115.65,-196.3 115.65,-202.3 109.65,-208.3 103.65,-208.3 103.65,-208.3 12,-208.3 12,-208.3 6,-208.3 0,-202.3 0,-196.3 0,-196.3 0,-94 0,-94 0,-88 6,-82 12,-82"/>
<text xml:space="preserve" text-anchor="middle" x="57.83" y="-193.5" font-family="Arial" font-size="8.00">bcPCtsv</text>
<polyline fill="none" stroke="darkblue" points="0,-184.15 115.65,-184.15"/>
<text xml:space="preserve" text-anchor="start" x="7.2" y="-169.35" font-family="Arial" font-size="8.00">soLuongGtxncnChoSvTdDh</text>
<text xml:space="preserve" text-anchor="start" x="7.2" y="-159.6" font-family="Arial" font-size="8.00">soLuongGtKhacChoSvTdDh</text>
<text xml:space="preserve" text-anchor="start" x="7.2" y="-149.85" font-family="Arial" font-size="8.00">soLuongSvdkt</text>
<text xml:space="preserve" text-anchor="start" x="7.2" y="-140.1" font-family="Arial" font-size="8.00">soLuongSvbkl</text>
<text xml:space="preserve" text-anchor="start" x="7.2" y="-130.35" font-family="Arial" font-size="8.00">soLuongSvdchb</text>
<text xml:space="preserve" text-anchor="start" x="7.2" y="-120.6" font-family="Arial" font-size="8.00">soLuongSvdmghp</text>
<text xml:space="preserve" text-anchor="start" x="7.2" y="-110.85" font-family="Arial" font-size="8.00">soLuongSvdhtcpht</text>
<text xml:space="preserve" text-anchor="start" x="7.2" y="-101.1" font-family="Arial" font-size="8.00">soLuongSvdtcxh</text>
<text xml:space="preserve" text-anchor="start" x="7.2" y="-91.35" font-family="Arial" font-size="8.00">...</text>
</g>
<!-- bcPCtsv&#45;&gt;donVi -->
<g id="edge4" class="edge">
<title>bcPCtsv&#45;&gt;donVi</title>
<path fill="none" stroke="darkblue" d="M116.09,-174.78C142.33,-186.76 174.3,-199.15 204.65,-205.15 267.53,-217.58 341.26,-212.55 391.13,-206.34"/>
<polygon fill="darkblue" stroke="darkblue" points="390.96,-206.36 399.35,-208.91 395.26,-205.81 398.56,-205.38 398.56,-205.38 398.56,-205.38 395.26,-205.81 398.43,-201.77 390.96,-206.36"/>
<text xml:space="preserve" text-anchor="middle" x="266.6" y="-214.61" font-family="Times,serif" font-size="6.00" fill="darkblue"> &#160;idDonVi &#160;</text>
</g>
<!-- bcPCtsv&#45;&gt;nguoiBaoCao -->
<g id="edge3" class="edge">
<title>bcPCtsv&#45;&gt;nguoiBaoCao</title>
<path fill="none" stroke="darkblue" d="M116.15,-145.15C140.85,-145.15 169.95,-145.15 195.88,-145.15"/>
<polygon fill="darkblue" stroke="darkblue" points="195.85,-145.15 203.85,-148.75 200.18,-145.15 203.51,-145.15 203.51,-145.15 203.51,-145.15 200.18,-145.15 203.85,-141.55 195.85,-145.15"/>
<text xml:space="preserve" text-anchor="middle" x="160.15" y="-146.95" font-family="Times,serif" font-size="6.00" fill="darkblue"> &#160;idNguoiBaoCao &#160;</text>
</g>
<!-- bcPCtsv&#45;&gt;giaiDoanBaoCao -->
<g id="edge5" class="edge">
<title>bcPCtsv&#45;&gt;giaiDoanBaoCao</title>
<path fill="none" stroke="darkblue" d="M116.15,-114.65C144.02,-99.83 177.5,-82.02 205.7,-67.02"/>
<polygon fill="darkblue" stroke="darkblue" points="205.77,-66.98 214.52,-66.4 209.59,-64.94 212.53,-63.38 212.53,-63.38 212.53,-63.38 209.59,-64.94 211.14,-60.04 205.77,-66.98"/>
<text xml:space="preserve" text-anchor="middle" x="160.15" y="-101.8" font-family="Times,serif" font-size="6.00" fill="darkblue"> &#160;idGiaiDoan &#160;</text>
</g>
</g>
</svg>
