<?xml version="1.0" encoding="UTF-8" standalone="no"?>
<!DOCTYPE svg PUBLIC "-//W3C//DTD SVG 1.1//EN"
 "http://www.w3.org/Graphics/SVG/1.1/DTD/svg11.dtd">
<!-- Generated by graphviz version 13.1.2 (0)
 -->
<!-- Pages: 1 -->
<svg width="736pt" height="365pt"
 viewBox="14.00 14.00 721.00 351.00" xmlns="http://www.w3.org/2000/svg" xmlns:xlink="http://www.w3.org/1999/xlink">
<g id="graph0" class="graph" transform="scale(1 1) rotate(0) translate(43.2 321.75)">
<polygon fill="white" stroke="none" points="-28.8,28.8 -28.8,-307.35 678.15,-307.35 678.15,28.8 -28.8,28.8"/>
<text xml:space="preserve" text-anchor="middle" x="324.68" y="-259.35" font-family="Arial Bold" font-size="16.00" fill="darkblue">Phòng Đảm Bảo Chất Lượng và Khảo Thí</text>
<text xml:space="preserve" text-anchor="middle" x="324.68" y="-240.6" font-family="Arial Bold" font-size="16.00" fill="darkblue">(PDBCLKT)</text>
<!-- toChuc -->
<g id="node1" class="node">
<title>toChuc</title>
<path fill="lightcoral" stroke="darkred" d="M560.7,-167.38C560.7,-167.38 637.35,-167.38 637.35,-167.38 643.35,-167.38 649.35,-173.38 649.35,-179.38 649.35,-179.38 649.35,-214.93 649.35,-214.93 649.35,-220.93 643.35,-226.93 637.35,-226.93 637.35,-226.93 560.7,-226.93 560.7,-226.93 554.7,-226.93 548.7,-220.93 548.7,-214.93 548.7,-214.93 548.7,-179.38 548.7,-179.38 548.7,-173.38 554.7,-167.38 560.7,-167.38"/>
<text xml:space="preserve" text-anchor="middle" x="599.03" y="-212.12" font-family="Arial" font-size="8.00">toChuc</text>
<polyline fill="none" stroke="darkred" points="548.7,-202.78 649.35,-202.78"/>
<text xml:space="preserve" text-anchor="start" x="555.9" y="-187.98" font-family="Arial" font-size="8.00">🔑 idToChuc : INTEGER</text>
<text xml:space="preserve" text-anchor="start" x="555.9" y="-176.73" font-family="Arial" font-size="8.00">capToChuc</text>
</g>
<!-- donVi -->
<g id="node2" class="node">
<title>donVi</title>
<path fill="lightcoral" stroke="darkred" d="M386.05,-161.75C386.05,-161.75 462.7,-161.75 462.7,-161.75 468.7,-161.75 474.7,-167.75 474.7,-173.75 474.7,-173.75 474.7,-220.55 474.7,-220.55 474.7,-226.55 468.7,-232.55 462.7,-232.55 462.7,-232.55 386.05,-232.55 386.05,-232.55 380.05,-232.55 374.05,-226.55 374.05,-220.55 374.05,-220.55 374.05,-173.75 374.05,-173.75 374.05,-167.75 380.05,-161.75 386.05,-161.75"/>
<text xml:space="preserve" text-anchor="middle" x="424.38" y="-217.75" font-family="Arial" font-size="8.00">donVi</text>
<polyline fill="none" stroke="darkred" points="374.05,-208.4 474.7,-208.4"/>
<text xml:space="preserve" text-anchor="start" x="381.25" y="-193.6" font-family="Arial" font-size="8.00">🔑 idDonVi : INTEGER</text>
<text xml:space="preserve" text-anchor="start" x="381.25" y="-182.35" font-family="Arial" font-size="8.00">capDonVi</text>
<text xml:space="preserve" text-anchor="start" x="381.25" y="-172.6" font-family="Arial" font-size="8.00">🔗 idToChuc : INTEGER</text>
</g>
<!-- donVi&#45;&gt;toChuc -->
<g id="edge1" class="edge">
<title>donVi&#45;&gt;toChuc</title>
<path fill="none" stroke="darkblue" d="M474.85,-197.15C495.17,-197.15 518.84,-197.15 539.98,-197.15"/>
<polygon fill="darkblue" stroke="darkblue" points="539.91,-197.15 547.91,-200.75 544.24,-197.15 547.58,-197.15 547.58,-197.15 547.58,-197.15 544.24,-197.15 547.91,-193.55 539.91,-197.15"/>
<text xml:space="preserve" text-anchor="middle" x="511.7" y="-198.95" font-family="Times,serif" font-size="6.00" fill="darkblue"> &#160;idToChuc &#160;</text>
</g>
<!-- nguoiBaoCao -->
<g id="node3" class="node">
<title>nguoiBaoCao</title>
<path fill="lightcoral" stroke="darkred" d="M191.15,-100C191.15,-100 291.05,-100 291.05,-100 297.05,-100 303.05,-106 303.05,-112 303.05,-112 303.05,-178.3 303.05,-178.3 303.05,-184.3 297.05,-190.3 291.05,-190.3 291.05,-190.3 191.15,-190.3 191.15,-190.3 185.15,-190.3 179.15,-184.3 179.15,-178.3 179.15,-178.3 179.15,-112 179.15,-112 179.15,-106 185.15,-100 191.15,-100"/>
<text xml:space="preserve" text-anchor="middle" x="241.1" y="-175.5" font-family="Arial" font-size="8.00">nguoiBaoCao</text>
<polyline fill="none" stroke="darkred" points="179.15,-166.15 303.05,-166.15"/>
<text xml:space="preserve" text-anchor="start" x="186.35" y="-151.35" font-family="Arial" font-size="8.00">🔑 idNguoiBaoCao : INTEGER</text>
<text xml:space="preserve" text-anchor="start" x="186.35" y="-140.1" font-family="Arial" font-size="8.00">hoVaTen</text>
<text xml:space="preserve" text-anchor="start" x="186.35" y="-130.35" font-family="Arial" font-size="8.00">chucVu</text>
<text xml:space="preserve" text-anchor="start" x="186.35" y="-120.6" font-family="Arial" font-size="8.00">emailTruong</text>
<text xml:space="preserve" text-anchor="start" x="186.35" y="-110.85" font-family="Arial" font-size="8.00">🔗 idDonVi : INTEGER</text>
</g>
<!-- nguoiBaoCao&#45;&gt;donVi -->
<g id="edge2" class="edge">
<title>nguoiBaoCao&#45;&gt;donVi</title>
<path fill="none" stroke="darkblue" d="M303.47,-162.75C323.6,-168.53 345.89,-174.92 365.74,-180.62"/>
<polygon fill="darkblue" stroke="darkblue" points="365.78,-180.63 372.47,-186.29 369.94,-181.82 373.15,-182.74 373.15,-182.74 373.15,-182.74 369.94,-181.82 374.46,-179.37 365.78,-180.63"/>
<text xml:space="preserve" text-anchor="middle" x="338.55" y="-177.61" font-family="Times,serif" font-size="6.00" fill="darkblue"> &#160;idDonVi &#160;</text>
</g>
<!-- giaiDoanBaoCao -->
<g id="node4" class="node">
<title>giaiDoanBaoCao</title>
<path fill="lightcoral" stroke="darkred" d="M199.78,-0.5C199.78,-0.5 282.43,-0.5 282.43,-0.5 288.43,-0.5 294.43,-6.5 294.43,-12.5 294.43,-12.5 294.43,-57.8 294.43,-57.8 294.43,-63.8 288.43,-69.8 282.43,-69.8 282.43,-69.8 199.78,-69.8 199.78,-69.8 193.78,-69.8 187.78,-63.8 187.78,-57.8 187.78,-57.8 187.78,-12.5 187.78,-12.5 187.78,-6.5 193.78,-0.5 199.78,-0.5"/>
<text xml:space="preserve" text-anchor="middle" x="241.1" y="-55" font-family="Arial" font-size="8.00">giaiDoanBaoCao</text>
<polyline fill="none" stroke="darkred" points="187.78,-45.65 294.43,-45.65"/>
<text xml:space="preserve" text-anchor="start" x="194.98" y="-30.85" font-family="Arial" font-size="8.00">🔑 idGiaiDoan : INTEGER</text>
<text xml:space="preserve" text-anchor="start" x="194.98" y="-19.6" font-family="Arial" font-size="8.00">thoiDiemBatDau</text>
<text xml:space="preserve" text-anchor="start" x="194.98" y="-9.85" font-family="Arial" font-size="8.00">thoiDiemKetThuc</text>
</g>
<!-- bcPDbclKt -->
<g id="node5" class="node">
<title>bcPDbclKt</title>
<path fill="lightblue" stroke="darkblue" d="M12,-82C12,-82 78.15,-82 78.15,-82 84.15,-82 90.15,-88 90.15,-94 90.15,-94 90.15,-196.3 90.15,-196.3 90.15,-202.3 84.15,-208.3 78.15,-208.3 78.15,-208.3 12,-208.3 12,-208.3 6,-208.3 0,-202.3 0,-196.3 0,-196.3 0,-94 0,-94 0,-88 6,-82 12,-82"/>
<text xml:space="preserve" text-anchor="middle" x="45.08" y="-193.5" font-family="Arial" font-size="8.00">bcPDbclKt</text>
<polyline fill="none" stroke="darkblue" points="0,-184.15 90.15,-184.15"/>
<text xml:space="preserve" text-anchor="start" x="7.2" y="-169.35" font-family="Arial" font-size="8.00">soLuongKhdbcldth</text>
<text xml:space="preserve" text-anchor="start" x="7.2" y="-159.6" font-family="Arial" font-size="8.00">soLuongKhdbcldrsdc</text>
<text xml:space="preserve" text-anchor="start" x="7.2" y="-149.85" font-family="Arial" font-size="8.00">soLuongKhdbcldtk</text>
<text xml:space="preserve" text-anchor="start" x="7.2" y="-140.1" font-family="Arial" font-size="8.00">soLuongKhksDv</text>
<text xml:space="preserve" text-anchor="start" x="7.2" y="-130.35" font-family="Arial" font-size="8.00">soLuongKhctCsgd</text>
<text xml:space="preserve" text-anchor="start" x="7.2" y="-120.6" font-family="Arial" font-size="8.00">soLuongKhctCtdt</text>
<text xml:space="preserve" text-anchor="start" x="7.2" y="-110.85" font-family="Arial" font-size="8.00">soLuongHtvbDbcldcn</text>
<text xml:space="preserve" text-anchor="start" x="7.2" y="-101.1" font-family="Arial" font-size="8.00">soLuongHtThGvm</text>
<text xml:space="preserve" text-anchor="start" x="7.2" y="-91.35" font-family="Arial" font-size="8.00">...</text>
</g>
<!-- bcPDbclKt&#45;&gt;donVi -->
<g id="edge3" class="edge">
<title>bcPDbclKt&#45;&gt;donVi</title>
<path fill="none" stroke="darkblue" d="M90.62,-170.97C115.73,-184.03 148.18,-198.49 179.15,-205.15 241.81,-218.62 315.58,-213.41 365.52,-206.87"/>
<polygon fill="darkblue" stroke="darkblue" points="365.37,-206.89 373.78,-209.38 369.67,-206.3 372.97,-205.86 372.97,-205.86 372.97,-205.86 369.67,-206.3 372.81,-202.24 365.37,-206.89"/>
<text xml:space="preserve" text-anchor="middle" x="241.1" y="-215.37" font-family="Times,serif" font-size="6.00" fill="darkblue"> &#160;idDonVi &#160;</text>
</g>
<!-- bcPDbclKt&#45;&gt;nguoiBaoCao -->
<g id="edge4" class="edge">
<title>bcPDbclKt&#45;&gt;nguoiBaoCao</title>
<path fill="none" stroke="darkblue" d="M90.59,-145.15C114.31,-145.15 144.03,-145.15 170.71,-145.15"/>
<polygon fill="darkblue" stroke="darkblue" points="170.55,-145.15 178.55,-148.75 174.89,-145.15 178.22,-145.15 178.22,-145.15 178.22,-145.15 174.89,-145.15 178.55,-141.55 170.55,-145.15"/>
<text xml:space="preserve" text-anchor="middle" x="134.65" y="-146.95" font-family="Times,serif" font-size="6.00" fill="darkblue"> &#160;idNguoiBaoCao &#160;</text>
</g>
<!-- bcPDbclKt&#45;&gt;giaiDoanBaoCao -->
<g id="edge5" class="edge">
<title>bcPDbclKt&#45;&gt;giaiDoanBaoCao</title>
<path fill="none" stroke="darkblue" d="M90.59,-119.91C117.2,-104.83 151.35,-85.47 180.29,-69.06"/>
<polygon fill="darkblue" stroke="darkblue" points="180.28,-69.06 189.02,-68.25 184.05,-66.93 186.95,-65.28 186.95,-65.28 186.95,-65.28 184.05,-66.93 185.47,-61.99 180.28,-69.06"/>
<text xml:space="preserve" text-anchor="middle" x="134.65" y="-108.23" font-family="Times,serif" font-size="6.00" fill="darkblue"> &#160;idGiaiDoan &#160;</text>
</g>
</g>
</svg>
