<?xml version="1.0" encoding="UTF-8" standalone="no"?>
<!DOCTYPE svg PUBLIC "-//W3C//DTD SVG 1.1//EN"
 "http://www.w3.org/Graphics/SVG/1.1/DTD/svg11.dtd">
<!-- Generated by graphviz version 13.1.2 (0)
 -->
<!-- Pages: 1 -->
<svg width="734pt" height="365pt"
 viewBox="14.00 14.00 719.00 351.00" xmlns="http://www.w3.org/2000/svg" xmlns:xlink="http://www.w3.org/1999/xlink">
<g id="graph0" class="graph" transform="scale(1 1) rotate(0) translate(43.2 321.75)">
<polygon fill="white" stroke="none" points="-28.8,28.8 -28.8,-307.35 675.9,-307.35 675.9,28.8 -28.8,28.8"/>
<text xml:space="preserve" text-anchor="middle" x="323.55" y="-259.35" font-family="Arial Bold" font-size="16.00" fill="darkblue">Phòng Hành Chính &#45; Tổng Hợp</text>
<text xml:space="preserve" text-anchor="middle" x="323.55" y="-240.6" font-family="Arial Bold" font-size="16.00" fill="darkblue">(PHCTH)</text>
<!-- toChuc -->
<g id="node1" class="node">
<title>toChuc</title>
<path fill="lightcoral" stroke="darkred" d="M558.45,-167.38C558.45,-167.38 635.1,-167.38 635.1,-167.38 641.1,-167.38 647.1,-173.38 647.1,-179.38 647.1,-179.38 647.1,-214.93 647.1,-214.93 647.1,-220.93 641.1,-226.93 635.1,-226.93 635.1,-226.93 558.45,-226.93 558.45,-226.93 552.45,-226.93 546.45,-220.93 546.45,-214.93 546.45,-214.93 546.45,-179.38 546.45,-179.38 546.45,-173.38 552.45,-167.38 558.45,-167.38"/>
<text xml:space="preserve" text-anchor="middle" x="596.78" y="-212.12" font-family="Arial" font-size="8.00">toChuc</text>
<polyline fill="none" stroke="darkred" points="546.45,-202.78 647.1,-202.78"/>
<text xml:space="preserve" text-anchor="start" x="553.65" y="-187.98" font-family="Arial" font-size="8.00">🔑 idToChuc : INTEGER</text>
<text xml:space="preserve" text-anchor="start" x="553.65" y="-176.73" font-family="Arial" font-size="8.00">capToChuc</text>
</g>
<!-- donVi -->
<g id="node2" class="node">
<title>donVi</title>
<path fill="lightcoral" stroke="darkred" d="M383.8,-161.75C383.8,-161.75 460.45,-161.75 460.45,-161.75 466.45,-161.75 472.45,-167.75 472.45,-173.75 472.45,-173.75 472.45,-220.55 472.45,-220.55 472.45,-226.55 466.45,-232.55 460.45,-232.55 460.45,-232.55 383.8,-232.55 383.8,-232.55 377.8,-232.55 371.8,-226.55 371.8,-220.55 371.8,-220.55 371.8,-173.75 371.8,-173.75 371.8,-167.75 377.8,-161.75 383.8,-161.75"/>
<text xml:space="preserve" text-anchor="middle" x="422.13" y="-217.75" font-family="Arial" font-size="8.00">donVi</text>
<polyline fill="none" stroke="darkred" points="371.8,-208.4 472.45,-208.4"/>
<text xml:space="preserve" text-anchor="start" x="379" y="-193.6" font-family="Arial" font-size="8.00">🔑 idDonVi : INTEGER</text>
<text xml:space="preserve" text-anchor="start" x="379" y="-182.35" font-family="Arial" font-size="8.00">capDonVi</text>
<text xml:space="preserve" text-anchor="start" x="379" y="-172.6" font-family="Arial" font-size="8.00">🔗 idToChuc : INTEGER</text>
</g>
<!-- donVi&#45;&gt;toChuc -->
<g id="edge1" class="edge">
<title>donVi&#45;&gt;toChuc</title>
<path fill="none" stroke="darkblue" d="M472.6,-197.15C492.92,-197.15 516.59,-197.15 537.73,-197.15"/>
<polygon fill="darkblue" stroke="darkblue" points="537.66,-197.15 545.66,-200.75 541.99,-197.15 545.33,-197.15 545.33,-197.15 545.33,-197.15 541.99,-197.15 545.66,-193.55 537.66,-197.15"/>
<text xml:space="preserve" text-anchor="middle" x="509.45" y="-198.95" font-family="Times,serif" font-size="6.00" fill="darkblue"> &#160;idToChuc &#160;</text>
</g>
<!-- nguoiBaoCao -->
<g id="node3" class="node">
<title>nguoiBaoCao</title>
<path fill="lightcoral" stroke="darkred" d="M188.9,-100C188.9,-100 288.8,-100 288.8,-100 294.8,-100 300.8,-106 300.8,-112 300.8,-112 300.8,-178.3 300.8,-178.3 300.8,-184.3 294.8,-190.3 288.8,-190.3 288.8,-190.3 188.9,-190.3 188.9,-190.3 182.9,-190.3 176.9,-184.3 176.9,-178.3 176.9,-178.3 176.9,-112 176.9,-112 176.9,-106 182.9,-100 188.9,-100"/>
<text xml:space="preserve" text-anchor="middle" x="238.85" y="-175.5" font-family="Arial" font-size="8.00">nguoiBaoCao</text>
<polyline fill="none" stroke="darkred" points="176.9,-166.15 300.8,-166.15"/>
<text xml:space="preserve" text-anchor="start" x="184.1" y="-151.35" font-family="Arial" font-size="8.00">🔑 idNguoiBaoCao : INTEGER</text>
<text xml:space="preserve" text-anchor="start" x="184.1" y="-140.1" font-family="Arial" font-size="8.00">hoVaTen</text>
<text xml:space="preserve" text-anchor="start" x="184.1" y="-130.35" font-family="Arial" font-size="8.00">chucVu</text>
<text xml:space="preserve" text-anchor="start" x="184.1" y="-120.6" font-family="Arial" font-size="8.00">emailTruong</text>
<text xml:space="preserve" text-anchor="start" x="184.1" y="-110.85" font-family="Arial" font-size="8.00">🔗 idDonVi : INTEGER</text>
</g>
<!-- nguoiBaoCao&#45;&gt;donVi -->
<g id="edge2" class="edge">
<title>nguoiBaoCao&#45;&gt;donVi</title>
<path fill="none" stroke="darkblue" d="M301.22,-162.75C321.35,-168.53 343.64,-174.92 363.49,-180.62"/>
<polygon fill="darkblue" stroke="darkblue" points="363.53,-180.63 370.22,-186.29 367.69,-181.82 370.9,-182.74 370.9,-182.74 370.9,-182.74 367.69,-181.82 372.21,-179.37 363.53,-180.63"/>
<text xml:space="preserve" text-anchor="middle" x="336.3" y="-177.61" font-family="Times,serif" font-size="6.00" fill="darkblue"> &#160;idDonVi &#160;</text>
</g>
<!-- giaiDoanBaoCao -->
<g id="node4" class="node">
<title>giaiDoanBaoCao</title>
<path fill="lightcoral" stroke="darkred" d="M197.53,-0.5C197.53,-0.5 280.18,-0.5 280.18,-0.5 286.18,-0.5 292.18,-6.5 292.18,-12.5 292.18,-12.5 292.18,-57.8 292.18,-57.8 292.18,-63.8 286.18,-69.8 280.18,-69.8 280.18,-69.8 197.53,-69.8 197.53,-69.8 191.53,-69.8 185.53,-63.8 185.53,-57.8 185.53,-57.8 185.53,-12.5 185.53,-12.5 185.53,-6.5 191.53,-0.5 197.53,-0.5"/>
<text xml:space="preserve" text-anchor="middle" x="238.85" y="-55" font-family="Arial" font-size="8.00">giaiDoanBaoCao</text>
<polyline fill="none" stroke="darkred" points="185.53,-45.65 292.18,-45.65"/>
<text xml:space="preserve" text-anchor="start" x="192.73" y="-30.85" font-family="Arial" font-size="8.00">🔑 idGiaiDoan : INTEGER</text>
<text xml:space="preserve" text-anchor="start" x="192.73" y="-19.6" font-family="Arial" font-size="8.00">thoiDiemBatDau</text>
<text xml:space="preserve" text-anchor="start" x="192.73" y="-9.85" font-family="Arial" font-size="8.00">thoiDiemKetThuc</text>
</g>
<!-- bcPHcTh -->
<g id="node5" class="node">
<title>bcPHcTh</title>
<path fill="lightblue" stroke="darkblue" d="M12,-82C12,-82 75.9,-82 75.9,-82 81.9,-82 87.9,-88 87.9,-94 87.9,-94 87.9,-196.3 87.9,-196.3 87.9,-202.3 81.9,-208.3 75.9,-208.3 75.9,-208.3 12,-208.3 12,-208.3 6,-208.3 0,-202.3 0,-196.3 0,-196.3 0,-94 0,-94 0,-88 6,-82 12,-82"/>
<text xml:space="preserve" text-anchor="middle" x="43.95" y="-193.5" font-family="Arial" font-size="8.00">bcPHcTh</text>
<polyline fill="none" stroke="darkblue" points="0,-184.15 87.9,-184.15"/>
<text xml:space="preserve" text-anchor="start" x="7.2" y="-169.35" font-family="Arial" font-size="8.00">soLuongVanBanDen</text>
<text xml:space="preserve" text-anchor="start" x="7.2" y="-159.6" font-family="Arial" font-size="8.00">soLuongVanBanDi</text>
<text xml:space="preserve" text-anchor="start" x="7.2" y="-149.85" font-family="Arial" font-size="8.00">soLuongVanBanMat</text>
<text xml:space="preserve" text-anchor="start" x="7.2" y="-140.1" font-family="Arial" font-size="8.00">soLuongCtsyVbgtct</text>
<text xml:space="preserve" text-anchor="start" x="7.2" y="-130.35" font-family="Arial" font-size="8.00">soLuongCapPhatVb</text>
<text xml:space="preserve" text-anchor="start" x="7.2" y="-120.6" font-family="Arial" font-size="8.00">soLuongCapPhatCc</text>
<text xml:space="preserve" text-anchor="start" x="7.2" y="-110.85" font-family="Arial" font-size="8.00">soLuongBcCthtqtdk</text>
<text xml:space="preserve" text-anchor="start" x="7.2" y="-101.1" font-family="Arial" font-size="8.00">soLuongBcCthtqtdx</text>
<text xml:space="preserve" text-anchor="start" x="7.2" y="-91.35" font-family="Arial" font-size="8.00">...</text>
</g>
<!-- bcPHcTh&#45;&gt;donVi -->
<g id="edge5" class="edge">
<title>bcPHcTh&#45;&gt;donVi</title>
<path fill="none" stroke="darkblue" d="M88.2,-170.5C113.2,-183.68 145.79,-198.41 176.9,-205.15 239.54,-218.72 313.31,-213.49 363.26,-206.92"/>
<polygon fill="darkblue" stroke="darkblue" points="363.11,-206.94 371.52,-209.42 367.41,-206.35 370.71,-205.9 370.71,-205.9 370.71,-205.9 367.41,-206.35 370.55,-202.29 363.11,-206.94"/>
<text xml:space="preserve" text-anchor="middle" x="238.85" y="-215.44" font-family="Times,serif" font-size="6.00" fill="darkblue"> &#160;idDonVi &#160;</text>
</g>
<!-- bcPHcTh&#45;&gt;nguoiBaoCao -->
<g id="edge4" class="edge">
<title>bcPHcTh&#45;&gt;nguoiBaoCao</title>
<path fill="none" stroke="darkblue" d="M88.24,-145.15C111.8,-145.15 141.5,-145.15 168.23,-145.15"/>
<polygon fill="darkblue" stroke="darkblue" points="168.08,-145.15 176.08,-148.75 172.42,-145.15 175.75,-145.15 175.75,-145.15 175.75,-145.15 172.42,-145.15 176.08,-141.55 168.08,-145.15"/>
<text xml:space="preserve" text-anchor="middle" x="132.4" y="-146.95" font-family="Times,serif" font-size="6.00" fill="darkblue"> &#160;idNguoiBaoCao &#160;</text>
</g>
<!-- bcPHcTh&#45;&gt;giaiDoanBaoCao -->
<g id="edge3" class="edge">
<title>bcPHcTh&#45;&gt;giaiDoanBaoCao</title>
<path fill="none" stroke="darkblue" d="M88.24,-120.46C114.66,-105.4 148.82,-85.92 177.83,-69.38"/>
<polygon fill="darkblue" stroke="darkblue" points="177.84,-69.37 186.57,-68.53 181.61,-67.22 184.5,-65.57 184.5,-65.57 184.5,-65.57 181.61,-67.22 183.01,-62.28 177.84,-69.37"/>
<text xml:space="preserve" text-anchor="middle" x="132.4" y="-108.23" font-family="Times,serif" font-size="6.00" fill="darkblue"> &#160;idGiaiDoan &#160;</text>
</g>
</g>
</svg>
