<?xml version="1.0" encoding="UTF-8" standalone="no"?>
<!DOCTYPE svg PUBLIC "-//W3C//DTD SVG 1.1//EN"
 "http://www.w3.org/Graphics/SVG/1.1/DTD/svg11.dtd">
<!-- Generated by graphviz version 13.1.2 (0)
 -->
<!-- Pages: 1 -->
<svg width="712pt" height="365pt"
 viewBox="14.00 14.00 697.00 351.00" xmlns="http://www.w3.org/2000/svg" xmlns:xlink="http://www.w3.org/1999/xlink">
<g id="graph0" class="graph" transform="scale(1 1) rotate(0) translate(43.2 321.75)">
<polygon fill="white" stroke="none" points="-28.8,28.8 -28.8,-307.35 654.15,-307.35 654.15,28.8 -28.8,28.8"/>
<text xml:space="preserve" text-anchor="middle" x="312.68" y="-259.35" font-family="Arial Bold" font-size="16.00" fill="darkblue">Phòng Tổ Chức Nhân Sự</text>
<text xml:space="preserve" text-anchor="middle" x="312.68" y="-240.6" font-family="Arial Bold" font-size="16.00" fill="darkblue">(PTCNS)</text>
<!-- toChuc -->
<g id="node1" class="node">
<title>toChuc</title>
<path fill="lightcoral" stroke="darkred" d="M536.7,-167.38C536.7,-167.38 613.35,-167.38 613.35,-167.38 619.35,-167.38 625.35,-173.38 625.35,-179.38 625.35,-179.38 625.35,-214.93 625.35,-214.93 625.35,-220.93 619.35,-226.93 613.35,-226.93 613.35,-226.93 536.7,-226.93 536.7,-226.93 530.7,-226.93 524.7,-220.93 524.7,-214.93 524.7,-214.93 524.7,-179.38 524.7,-179.38 524.7,-173.38 530.7,-167.38 536.7,-167.38"/>
<text xml:space="preserve" text-anchor="middle" x="575.03" y="-212.12" font-family="Arial" font-size="8.00">toChuc</text>
<polyline fill="none" stroke="darkred" points="524.7,-202.78 625.35,-202.78"/>
<text xml:space="preserve" text-anchor="start" x="531.9" y="-187.98" font-family="Arial" font-size="8.00">🔑 idToChuc : INTEGER</text>
<text xml:space="preserve" text-anchor="start" x="531.9" y="-176.73" font-family="Arial" font-size="8.00">capToChuc</text>
</g>
<!-- donVi -->
<g id="node2" class="node">
<title>donVi</title>
<path fill="lightcoral" stroke="darkred" d="M362.05,-161.75C362.05,-161.75 438.7,-161.75 438.7,-161.75 444.7,-161.75 450.7,-167.75 450.7,-173.75 450.7,-173.75 450.7,-220.55 450.7,-220.55 450.7,-226.55 444.7,-232.55 438.7,-232.55 438.7,-232.55 362.05,-232.55 362.05,-232.55 356.05,-232.55 350.05,-226.55 350.05,-220.55 350.05,-220.55 350.05,-173.75 350.05,-173.75 350.05,-167.75 356.05,-161.75 362.05,-161.75"/>
<text xml:space="preserve" text-anchor="middle" x="400.38" y="-217.75" font-family="Arial" font-size="8.00">donVi</text>
<polyline fill="none" stroke="darkred" points="350.05,-208.4 450.7,-208.4"/>
<text xml:space="preserve" text-anchor="start" x="357.25" y="-193.6" font-family="Arial" font-size="8.00">🔑 idDonVi : INTEGER</text>
<text xml:space="preserve" text-anchor="start" x="357.25" y="-182.35" font-family="Arial" font-size="8.00">capDonVi</text>
<text xml:space="preserve" text-anchor="start" x="357.25" y="-172.6" font-family="Arial" font-size="8.00">🔗 idToChuc : INTEGER</text>
</g>
<!-- donVi&#45;&gt;toChuc -->
<g id="edge1" class="edge">
<title>donVi&#45;&gt;toChuc</title>
<path fill="none" stroke="darkblue" d="M450.85,-197.15C471.17,-197.15 494.84,-197.15 515.98,-197.15"/>
<polygon fill="darkblue" stroke="darkblue" points="515.91,-197.15 523.91,-200.75 520.24,-197.15 523.58,-197.15 523.58,-197.15 523.58,-197.15 520.24,-197.15 523.91,-193.55 515.91,-197.15"/>
<text xml:space="preserve" text-anchor="middle" x="487.7" y="-198.95" font-family="Times,serif" font-size="6.00" fill="darkblue"> &#160;idToChuc &#160;</text>
</g>
<!-- nguoiBaoCao -->
<g id="node3" class="node">
<title>nguoiBaoCao</title>
<path fill="lightcoral" stroke="darkred" d="M167.15,-100C167.15,-100 267.05,-100 267.05,-100 273.05,-100 279.05,-106 279.05,-112 279.05,-112 279.05,-178.3 279.05,-178.3 279.05,-184.3 273.05,-190.3 267.05,-190.3 267.05,-190.3 167.15,-190.3 167.15,-190.3 161.15,-190.3 155.15,-184.3 155.15,-178.3 155.15,-178.3 155.15,-112 155.15,-112 155.15,-106 161.15,-100 167.15,-100"/>
<text xml:space="preserve" text-anchor="middle" x="217.1" y="-175.5" font-family="Arial" font-size="8.00">nguoiBaoCao</text>
<polyline fill="none" stroke="darkred" points="155.15,-166.15 279.05,-166.15"/>
<text xml:space="preserve" text-anchor="start" x="162.35" y="-151.35" font-family="Arial" font-size="8.00">🔑 idNguoiBaoCao : INTEGER</text>
<text xml:space="preserve" text-anchor="start" x="162.35" y="-140.1" font-family="Arial" font-size="8.00">hoVaTen</text>
<text xml:space="preserve" text-anchor="start" x="162.35" y="-130.35" font-family="Arial" font-size="8.00">chucVu</text>
<text xml:space="preserve" text-anchor="start" x="162.35" y="-120.6" font-family="Arial" font-size="8.00">emailTruong</text>
<text xml:space="preserve" text-anchor="start" x="162.35" y="-110.85" font-family="Arial" font-size="8.00">🔗 idDonVi : INTEGER</text>
</g>
<!-- nguoiBaoCao&#45;&gt;donVi -->
<g id="edge2" class="edge">
<title>nguoiBaoCao&#45;&gt;donVi</title>
<path fill="none" stroke="darkblue" d="M279.47,-162.75C299.6,-168.53 321.89,-174.92 341.74,-180.62"/>
<polygon fill="darkblue" stroke="darkblue" points="341.78,-180.63 348.47,-186.29 345.94,-181.82 349.15,-182.74 349.15,-182.74 349.15,-182.74 345.94,-181.82 350.46,-179.37 341.78,-180.63"/>
<text xml:space="preserve" text-anchor="middle" x="314.55" y="-177.61" font-family="Times,serif" font-size="6.00" fill="darkblue"> &#160;idDonVi &#160;</text>
</g>
<!-- giaiDoanBaoCao -->
<g id="node4" class="node">
<title>giaiDoanBaoCao</title>
<path fill="lightcoral" stroke="darkred" d="M175.78,-0.5C175.78,-0.5 258.43,-0.5 258.43,-0.5 264.43,-0.5 270.43,-6.5 270.43,-12.5 270.43,-12.5 270.43,-57.8 270.43,-57.8 270.43,-63.8 264.43,-69.8 258.43,-69.8 258.43,-69.8 175.78,-69.8 175.78,-69.8 169.78,-69.8 163.78,-63.8 163.78,-57.8 163.78,-57.8 163.78,-12.5 163.78,-12.5 163.78,-6.5 169.78,-0.5 175.78,-0.5"/>
<text xml:space="preserve" text-anchor="middle" x="217.1" y="-55" font-family="Arial" font-size="8.00">giaiDoanBaoCao</text>
<polyline fill="none" stroke="darkred" points="163.78,-45.65 270.43,-45.65"/>
<text xml:space="preserve" text-anchor="start" x="170.98" y="-30.85" font-family="Arial" font-size="8.00">🔑 idGiaiDoan : INTEGER</text>
<text xml:space="preserve" text-anchor="start" x="170.98" y="-19.6" font-family="Arial" font-size="8.00">thoiDiemBatDau</text>
<text xml:space="preserve" text-anchor="start" x="170.98" y="-9.85" font-family="Arial" font-size="8.00">thoiDiemKetThuc</text>
</g>
<!-- bcPTcns -->
<g id="node5" class="node">
<title>bcPTcns</title>
<path fill="lightblue" stroke="darkblue" d="M12,-82C12,-82 54.15,-82 54.15,-82 60.15,-82 66.15,-88 66.15,-94 66.15,-94 66.15,-196.3 66.15,-196.3 66.15,-202.3 60.15,-208.3 54.15,-208.3 54.15,-208.3 12,-208.3 12,-208.3 6,-208.3 0,-202.3 0,-196.3 0,-196.3 0,-94 0,-94 0,-88 6,-82 12,-82"/>
<text xml:space="preserve" text-anchor="middle" x="33.08" y="-193.5" font-family="Arial" font-size="8.00">bcPTcns</text>
<polyline fill="none" stroke="darkblue" points="0,-184.15 66.15,-184.15"/>
<text xml:space="preserve" text-anchor="start" x="7.2" y="-169.35" font-family="Arial" font-size="8.00">soLuongHdm</text>
<text xml:space="preserve" text-anchor="start" x="7.2" y="-159.6" font-family="Arial" font-size="8.00">soLuonghdtl</text>
<text xml:space="preserve" text-anchor="start" x="7.2" y="-149.85" font-family="Arial" font-size="8.00">soLuongTtCtv</text>
<text xml:space="preserve" text-anchor="start" x="7.2" y="-140.1" font-family="Arial" font-size="8.00">tongSoVc</text>
<text xml:space="preserve" text-anchor="start" x="7.2" y="-130.35" font-family="Arial" font-size="8.00">tongSoVcNam</text>
<text xml:space="preserve" text-anchor="start" x="7.2" y="-120.6" font-family="Arial" font-size="8.00">tongSoVcNu</text>
<text xml:space="preserve" text-anchor="start" x="7.2" y="-110.85" font-family="Arial" font-size="8.00">tongSoCtv</text>
<text xml:space="preserve" text-anchor="start" x="7.2" y="-101.1" font-family="Arial" font-size="8.00">tongSoHhGs</text>
<text xml:space="preserve" text-anchor="start" x="7.2" y="-91.35" font-family="Arial" font-size="8.00">...</text>
</g>
<!-- bcPTcns&#45;&gt;donVi -->
<g id="edge3" class="edge">
<title>bcPTcns&#45;&gt;donVi</title>
<path fill="none" stroke="darkblue" d="M66.43,-166.33C89.96,-180.42 123.17,-197.66 155.15,-205.15 217.75,-219.81 291.83,-214.31 341.86,-207.38"/>
<polygon fill="darkblue" stroke="darkblue" points="341.73,-207.4 350.16,-209.82 346.02,-206.78 349.32,-206.31 349.32,-206.31 349.32,-206.31 346.02,-206.78 349.14,-202.69 341.73,-207.4"/>
<text xml:space="preserve" text-anchor="middle" x="217.1" y="-216.21" font-family="Times,serif" font-size="6.00" fill="darkblue"> &#160;idDonVi &#160;</text>
</g>
<!-- bcPTcns&#45;&gt;nguoiBaoCao -->
<g id="edge5" class="edge">
<title>bcPTcns&#45;&gt;nguoiBaoCao</title>
<path fill="none" stroke="darkblue" d="M66.62,-145.15C88.77,-145.15 118.93,-145.15 146.36,-145.15"/>
<polygon fill="darkblue" stroke="darkblue" points="146.44,-145.15 154.44,-148.75 150.77,-145.15 154.1,-145.15 154.1,-145.15 154.1,-145.15 150.77,-145.15 154.44,-141.55 146.44,-145.15"/>
<text xml:space="preserve" text-anchor="middle" x="110.65" y="-146.95" font-family="Times,serif" font-size="6.00" fill="darkblue"> &#160;idNguoiBaoCao &#160;</text>
</g>
<!-- bcPTcns&#45;&gt;giaiDoanBaoCao -->
<g id="edge4" class="edge">
<title>bcPTcns&#45;&gt;giaiDoanBaoCao</title>
<path fill="none" stroke="darkblue" d="M66.62,-125.48C91.52,-110.44 126.54,-89.27 156.43,-71.21"/>
<polygon fill="darkblue" stroke="darkblue" points="156.37,-71.24 165.08,-70.19 160.08,-69 162.93,-67.28 162.93,-67.28 162.93,-67.28 160.08,-69 161.36,-64.03 156.37,-71.24"/>
<text xml:space="preserve" text-anchor="middle" x="110.65" y="-111.37" font-family="Times,serif" font-size="6.00" fill="darkblue"> &#160;idGiaiDoan &#160;</text>
</g>
</g>
</svg>
