<?xml version="1.0" encoding="UTF-8" standalone="no"?>
<!DOCTYPE svg PUBLIC "-//W3C//DTD SVG 1.1//EN"
 "http://www.w3.org/Graphics/SVG/1.1/DTD/svg11.dtd">
<!-- Generated by graphviz version 13.1.2 (0)
 -->
<!-- Pages: 1 -->
<svg width="767pt" height="365pt"
 viewBox="14.00 14.00 752.00 351.00" xmlns="http://www.w3.org/2000/svg" xmlns:xlink="http://www.w3.org/1999/xlink">
<g id="graph0" class="graph" transform="scale(1 1) rotate(0) translate(43.2 321.75)">
<polygon fill="white" stroke="none" points="-28.8,28.8 -28.8,-307.35 708.9,-307.35 708.9,28.8 -28.8,28.8"/>
<text xml:space="preserve" text-anchor="middle" x="340.05" y="-259.35" font-family="Arial Bold" font-size="16.00" fill="darkblue">Phòng Thanh Tra &#45; Pháp Chế</text>
<text xml:space="preserve" text-anchor="middle" x="340.05" y="-240.6" font-family="Arial Bold" font-size="16.00" fill="darkblue">(PTTPC)</text>
<!-- toChuc -->
<g id="node1" class="node">
<title>toChuc</title>
<path fill="lightcoral" stroke="darkred" d="M591.45,-167.38C591.45,-167.38 668.1,-167.38 668.1,-167.38 674.1,-167.38 680.1,-173.38 680.1,-179.38 680.1,-179.38 680.1,-214.93 680.1,-214.93 680.1,-220.93 674.1,-226.93 668.1,-226.93 668.1,-226.93 591.45,-226.93 591.45,-226.93 585.45,-226.93 579.45,-220.93 579.45,-214.93 579.45,-214.93 579.45,-179.38 579.45,-179.38 579.45,-173.38 585.45,-167.38 591.45,-167.38"/>
<text xml:space="preserve" text-anchor="middle" x="629.78" y="-212.12" font-family="Arial" font-size="8.00">toChuc</text>
<polyline fill="none" stroke="darkred" points="579.45,-202.78 680.1,-202.78"/>
<text xml:space="preserve" text-anchor="start" x="586.65" y="-187.98" font-family="Arial" font-size="8.00">🔑 idToChuc : INTEGER</text>
<text xml:space="preserve" text-anchor="start" x="586.65" y="-176.73" font-family="Arial" font-size="8.00">capToChuc</text>
</g>
<!-- donVi -->
<g id="node2" class="node">
<title>donVi</title>
<path fill="lightcoral" stroke="darkred" d="M416.8,-161.75C416.8,-161.75 493.45,-161.75 493.45,-161.75 499.45,-161.75 505.45,-167.75 505.45,-173.75 505.45,-173.75 505.45,-220.55 505.45,-220.55 505.45,-226.55 499.45,-232.55 493.45,-232.55 493.45,-232.55 416.8,-232.55 416.8,-232.55 410.8,-232.55 404.8,-226.55 404.8,-220.55 404.8,-220.55 404.8,-173.75 404.8,-173.75 404.8,-167.75 410.8,-161.75 416.8,-161.75"/>
<text xml:space="preserve" text-anchor="middle" x="455.13" y="-217.75" font-family="Arial" font-size="8.00">donVi</text>
<polyline fill="none" stroke="darkred" points="404.8,-208.4 505.45,-208.4"/>
<text xml:space="preserve" text-anchor="start" x="412" y="-193.6" font-family="Arial" font-size="8.00">🔑 idDonVi : INTEGER</text>
<text xml:space="preserve" text-anchor="start" x="412" y="-182.35" font-family="Arial" font-size="8.00">capDonVi</text>
<text xml:space="preserve" text-anchor="start" x="412" y="-172.6" font-family="Arial" font-size="8.00">🔗 idToChuc : INTEGER</text>
</g>
<!-- donVi&#45;&gt;toChuc -->
<g id="edge1" class="edge">
<title>donVi&#45;&gt;toChuc</title>
<path fill="none" stroke="darkblue" d="M505.6,-197.15C525.92,-197.15 549.59,-197.15 570.73,-197.15"/>
<polygon fill="darkblue" stroke="darkblue" points="570.66,-197.15 578.66,-200.75 574.99,-197.15 578.33,-197.15 578.33,-197.15 578.33,-197.15 574.99,-197.15 578.66,-193.55 570.66,-197.15"/>
<text xml:space="preserve" text-anchor="middle" x="542.45" y="-198.95" font-family="Times,serif" font-size="6.00" fill="darkblue"> &#160;idToChuc &#160;</text>
</g>
<!-- nguoiBaoCao -->
<g id="node3" class="node">
<title>nguoiBaoCao</title>
<path fill="lightcoral" stroke="darkred" d="M221.9,-100C221.9,-100 321.8,-100 321.8,-100 327.8,-100 333.8,-106 333.8,-112 333.8,-112 333.8,-178.3 333.8,-178.3 333.8,-184.3 327.8,-190.3 321.8,-190.3 321.8,-190.3 221.9,-190.3 221.9,-190.3 215.9,-190.3 209.9,-184.3 209.9,-178.3 209.9,-178.3 209.9,-112 209.9,-112 209.9,-106 215.9,-100 221.9,-100"/>
<text xml:space="preserve" text-anchor="middle" x="271.85" y="-175.5" font-family="Arial" font-size="8.00">nguoiBaoCao</text>
<polyline fill="none" stroke="darkred" points="209.9,-166.15 333.8,-166.15"/>
<text xml:space="preserve" text-anchor="start" x="217.1" y="-151.35" font-family="Arial" font-size="8.00">🔑 idNguoiBaoCao : INTEGER</text>
<text xml:space="preserve" text-anchor="start" x="217.1" y="-140.1" font-family="Arial" font-size="8.00">hoVaTen</text>
<text xml:space="preserve" text-anchor="start" x="217.1" y="-130.35" font-family="Arial" font-size="8.00">chucVu</text>
<text xml:space="preserve" text-anchor="start" x="217.1" y="-120.6" font-family="Arial" font-size="8.00">emailTruong</text>
<text xml:space="preserve" text-anchor="start" x="217.1" y="-110.85" font-family="Arial" font-size="8.00">🔗 idDonVi : INTEGER</text>
</g>
<!-- nguoiBaoCao&#45;&gt;donVi -->
<g id="edge2" class="edge">
<title>nguoiBaoCao&#45;&gt;donVi</title>
<path fill="none" stroke="darkblue" d="M334.22,-162.75C354.35,-168.53 376.64,-174.92 396.49,-180.62"/>
<polygon fill="darkblue" stroke="darkblue" points="396.53,-180.63 403.22,-186.29 400.69,-181.82 403.9,-182.74 403.9,-182.74 403.9,-182.74 400.69,-181.82 405.21,-179.37 396.53,-180.63"/>
<text xml:space="preserve" text-anchor="middle" x="369.3" y="-177.61" font-family="Times,serif" font-size="6.00" fill="darkblue"> &#160;idDonVi &#160;</text>
</g>
<!-- giaiDoanBaoCao -->
<g id="node4" class="node">
<title>giaiDoanBaoCao</title>
<path fill="lightcoral" stroke="darkred" d="M230.53,-0.5C230.53,-0.5 313.18,-0.5 313.18,-0.5 319.18,-0.5 325.18,-6.5 325.18,-12.5 325.18,-12.5 325.18,-57.8 325.18,-57.8 325.18,-63.8 319.18,-69.8 313.18,-69.8 313.18,-69.8 230.53,-69.8 230.53,-69.8 224.53,-69.8 218.53,-63.8 218.53,-57.8 218.53,-57.8 218.53,-12.5 218.53,-12.5 218.53,-6.5 224.53,-0.5 230.53,-0.5"/>
<text xml:space="preserve" text-anchor="middle" x="271.85" y="-55" font-family="Arial" font-size="8.00">giaiDoanBaoCao</text>
<polyline fill="none" stroke="darkred" points="218.53,-45.65 325.18,-45.65"/>
<text xml:space="preserve" text-anchor="start" x="225.73" y="-30.85" font-family="Arial" font-size="8.00">🔑 idGiaiDoan : INTEGER</text>
<text xml:space="preserve" text-anchor="start" x="225.73" y="-19.6" font-family="Arial" font-size="8.00">thoiDiemBatDau</text>
<text xml:space="preserve" text-anchor="start" x="225.73" y="-9.85" font-family="Arial" font-size="8.00">thoiDiemKetThuc</text>
</g>
<!-- bcPTtPc -->
<g id="node5" class="node">
<title>bcPTtPc</title>
<path fill="lightblue" stroke="darkblue" d="M12,-82C12,-82 108.9,-82 108.9,-82 114.9,-82 120.9,-88 120.9,-94 120.9,-94 120.9,-196.3 120.9,-196.3 120.9,-202.3 114.9,-208.3 108.9,-208.3 108.9,-208.3 12,-208.3 12,-208.3 6,-208.3 0,-202.3 0,-196.3 0,-196.3 0,-94 0,-94 0,-88 6,-82 12,-82"/>
<text xml:space="preserve" text-anchor="middle" x="60.45" y="-193.5" font-family="Arial" font-size="8.00">bcPTtPc</text>
<polyline fill="none" stroke="darkblue" points="0,-184.15 120.9,-184.15"/>
<text xml:space="preserve" text-anchor="start" x="7.2" y="-169.35" font-family="Arial" font-size="8.00">soLuongCtkhTtpcDinhKy</text>
<text xml:space="preserve" text-anchor="start" x="7.2" y="-159.6" font-family="Arial" font-size="8.00">soLuongCtkhTtpcDotXuat</text>
<text xml:space="preserve" text-anchor="start" x="7.2" y="-149.85" font-family="Arial" font-size="8.00">soLuongCttcCtkhTtpcDinhKy</text>
<text xml:space="preserve" text-anchor="start" x="7.2" y="-140.1" font-family="Arial" font-size="8.00">soLuongCttcCtkhTtpcDotXuat</text>
<text xml:space="preserve" text-anchor="start" x="7.2" y="-130.35" font-family="Arial" font-size="8.00">soLuongCttcd</text>
<text xml:space="preserve" text-anchor="start" x="7.2" y="-120.6" font-family="Arial" font-size="8.00">soLuongCtgqkntc</text>
<text xml:space="preserve" text-anchor="start" x="7.2" y="-110.85" font-family="Arial" font-size="8.00">soLuongCtpctn</text>
<text xml:space="preserve" text-anchor="start" x="7.2" y="-101.1" font-family="Arial" font-size="8.00">soLuongVxmVb</text>
<text xml:space="preserve" text-anchor="start" x="7.2" y="-91.35" font-family="Arial" font-size="8.00">...</text>
</g>
<!-- bcPTtPc&#45;&gt;donVi -->
<g id="edge4" class="edge">
<title>bcPTtPc&#45;&gt;donVi</title>
<path fill="none" stroke="darkblue" d="M121.22,-175.42C147.68,-187.2 179.61,-199.26 209.9,-205.15 272.82,-217.38 346.54,-212.39 396.39,-206.24"/>
<polygon fill="darkblue" stroke="darkblue" points="396.23,-206.27 404.62,-208.82 400.53,-205.72 403.83,-205.29 403.83,-205.29 403.83,-205.29 400.53,-205.72 403.7,-201.68 396.23,-206.27"/>
<text xml:space="preserve" text-anchor="middle" x="271.85" y="-214.46" font-family="Times,serif" font-size="6.00" fill="darkblue"> &#160;idDonVi &#160;</text>
</g>
<!-- bcPTtPc&#45;&gt;nguoiBaoCao -->
<g id="edge5" class="edge">
<title>bcPTtPc&#45;&gt;nguoiBaoCao</title>
<path fill="none" stroke="darkblue" d="M121.18,-145.15C146.15,-145.15 175.35,-145.15 201.29,-145.15"/>
<polygon fill="darkblue" stroke="darkblue" points="201.25,-145.15 209.26,-148.75 205.59,-145.15 208.92,-145.15 208.92,-145.15 208.92,-145.15 205.59,-145.15 209.25,-141.55 201.25,-145.15"/>
<text xml:space="preserve" text-anchor="middle" x="165.4" y="-146.95" font-family="Times,serif" font-size="6.00" fill="darkblue"> &#160;idNguoiBaoCao &#160;</text>
</g>
<!-- bcPTtPc&#45;&gt;giaiDoanBaoCao -->
<g id="edge3" class="edge">
<title>bcPTtPc&#45;&gt;giaiDoanBaoCao</title>
<path fill="none" stroke="darkblue" d="M121.18,-113.78C149.25,-99.03 182.65,-81.48 210.77,-66.71"/>
<polygon fill="darkblue" stroke="darkblue" points="210.8,-66.7 219.55,-66.16 214.63,-64.68 217.58,-63.13 217.58,-63.13 217.58,-63.13 214.63,-64.68 216.21,-59.79 210.8,-66.7"/>
<text xml:space="preserve" text-anchor="middle" x="165.4" y="-101.8" font-family="Times,serif" font-size="6.00" fill="darkblue"> &#160;idGiaiDoan &#160;</text>
</g>
</g>
</svg>
