<?xml version="1.0" encoding="UTF-8" standalone="no"?>
<!DOCTYPE svg PUBLIC "-//W3C//DTD SVG 1.1//EN"
 "http://www.w3.org/Graphics/SVG/1.1/DTD/svg11.dtd">
<!-- Generated by graphviz version 13.1.2 (0)
 -->
<!-- Pages: 1 -->
<svg width="702pt" height="365pt"
 viewBox="14.00 14.00 688.00 351.00" xmlns="http://www.w3.org/2000/svg" xmlns:xlink="http://www.w3.org/1999/xlink">
<g id="graph0" class="graph" transform="scale(1 1) rotate(0) translate(43.2 321.75)">
<polygon fill="white" stroke="none" points="-28.8,28.8 -28.8,-307.35 644.4,-307.35 644.4,28.8 -28.8,28.8"/>
<text xml:space="preserve" text-anchor="middle" x="307.8" y="-259.35" font-family="Arial Bold" font-size="16.00" fill="darkblue">Trung Tâm Học Liệu</text>
<text xml:space="preserve" text-anchor="middle" x="307.8" y="-240.6" font-family="Arial Bold" font-size="16.00" fill="darkblue">(TTTHL)</text>
<!-- toChuc -->
<g id="node1" class="node">
<title>toChuc</title>
<path fill="lightcoral" stroke="darkred" d="M526.95,-167.38C526.95,-167.38 603.6,-167.38 603.6,-167.38 609.6,-167.38 615.6,-173.38 615.6,-179.38 615.6,-179.38 615.6,-214.93 615.6,-214.93 615.6,-220.93 609.6,-226.93 603.6,-226.93 603.6,-226.93 526.95,-226.93 526.95,-226.93 520.95,-226.93 514.95,-220.93 514.95,-214.93 514.95,-214.93 514.95,-179.38 514.95,-179.38 514.95,-173.38 520.95,-167.38 526.95,-167.38"/>
<text xml:space="preserve" text-anchor="middle" x="565.28" y="-212.12" font-family="Arial" font-size="8.00">toChuc</text>
<polyline fill="none" stroke="darkred" points="514.95,-202.78 615.6,-202.78"/>
<text xml:space="preserve" text-anchor="start" x="522.15" y="-187.98" font-family="Arial" font-size="8.00">🔑 idToChuc : INTEGER</text>
<text xml:space="preserve" text-anchor="start" x="522.15" y="-176.73" font-family="Arial" font-size="8.00">capToChuc</text>
</g>
<!-- donVi -->
<g id="node2" class="node">
<title>donVi</title>
<path fill="lightcoral" stroke="darkred" d="M352.3,-161.75C352.3,-161.75 428.95,-161.75 428.95,-161.75 434.95,-161.75 440.95,-167.75 440.95,-173.75 440.95,-173.75 440.95,-220.55 440.95,-220.55 440.95,-226.55 434.95,-232.55 428.95,-232.55 428.95,-232.55 352.3,-232.55 352.3,-232.55 346.3,-232.55 340.3,-226.55 340.3,-220.55 340.3,-220.55 340.3,-173.75 340.3,-173.75 340.3,-167.75 346.3,-161.75 352.3,-161.75"/>
<text xml:space="preserve" text-anchor="middle" x="390.63" y="-217.75" font-family="Arial" font-size="8.00">donVi</text>
<polyline fill="none" stroke="darkred" points="340.3,-208.4 440.95,-208.4"/>
<text xml:space="preserve" text-anchor="start" x="347.5" y="-193.6" font-family="Arial" font-size="8.00">🔑 idDonVi : INTEGER</text>
<text xml:space="preserve" text-anchor="start" x="347.5" y="-182.35" font-family="Arial" font-size="8.00">capDonVi</text>
<text xml:space="preserve" text-anchor="start" x="347.5" y="-172.6" font-family="Arial" font-size="8.00">🔗 idToChuc : INTEGER</text>
</g>
<!-- donVi&#45;&gt;toChuc -->
<g id="edge1" class="edge">
<title>donVi&#45;&gt;toChuc</title>
<path fill="none" stroke="darkblue" d="M441.1,-197.15C461.42,-197.15 485.09,-197.15 506.23,-197.15"/>
<polygon fill="darkblue" stroke="darkblue" points="506.16,-197.15 514.16,-200.75 510.49,-197.15 513.83,-197.15 513.83,-197.15 513.83,-197.15 510.49,-197.15 514.16,-193.55 506.16,-197.15"/>
<text xml:space="preserve" text-anchor="middle" x="477.95" y="-198.95" font-family="Times,serif" font-size="6.00" fill="darkblue"> &#160;idToChuc &#160;</text>
</g>
<!-- nguoiBaoCao -->
<g id="node3" class="node">
<title>nguoiBaoCao</title>
<path fill="lightcoral" stroke="darkred" d="M157.4,-100C157.4,-100 257.3,-100 257.3,-100 263.3,-100 269.3,-106 269.3,-112 269.3,-112 269.3,-178.3 269.3,-178.3 269.3,-184.3 263.3,-190.3 257.3,-190.3 257.3,-190.3 157.4,-190.3 157.4,-190.3 151.4,-190.3 145.4,-184.3 145.4,-178.3 145.4,-178.3 145.4,-112 145.4,-112 145.4,-106 151.4,-100 157.4,-100"/>
<text xml:space="preserve" text-anchor="middle" x="207.35" y="-175.5" font-family="Arial" font-size="8.00">nguoiBaoCao</text>
<polyline fill="none" stroke="darkred" points="145.4,-166.15 269.3,-166.15"/>
<text xml:space="preserve" text-anchor="start" x="152.6" y="-151.35" font-family="Arial" font-size="8.00">🔑 idNguoiBaoCao : INTEGER</text>
<text xml:space="preserve" text-anchor="start" x="152.6" y="-140.1" font-family="Arial" font-size="8.00">hoVaTen</text>
<text xml:space="preserve" text-anchor="start" x="152.6" y="-130.35" font-family="Arial" font-size="8.00">chucVu</text>
<text xml:space="preserve" text-anchor="start" x="152.6" y="-120.6" font-family="Arial" font-size="8.00">emailTruong</text>
<text xml:space="preserve" text-anchor="start" x="152.6" y="-110.85" font-family="Arial" font-size="8.00">🔗 idDonVi : INTEGER</text>
</g>
<!-- nguoiBaoCao&#45;&gt;donVi -->
<g id="edge2" class="edge">
<title>nguoiBaoCao&#45;&gt;donVi</title>
<path fill="none" stroke="darkblue" d="M269.72,-162.75C289.85,-168.53 312.14,-174.92 331.99,-180.62"/>
<polygon fill="darkblue" stroke="darkblue" points="332.03,-180.63 338.72,-186.29 336.19,-181.82 339.4,-182.74 339.4,-182.74 339.4,-182.74 336.19,-181.82 340.71,-179.37 332.03,-180.63"/>
<text xml:space="preserve" text-anchor="middle" x="304.8" y="-177.61" font-family="Times,serif" font-size="6.00" fill="darkblue"> &#160;idDonVi &#160;</text>
</g>
<!-- giaiDoanBaoCao -->
<g id="node4" class="node">
<title>giaiDoanBaoCao</title>
<path fill="lightcoral" stroke="darkred" d="M166.03,-0.5C166.03,-0.5 248.68,-0.5 248.68,-0.5 254.68,-0.5 260.68,-6.5 260.68,-12.5 260.68,-12.5 260.68,-57.8 260.68,-57.8 260.68,-63.8 254.68,-69.8 248.68,-69.8 248.68,-69.8 166.03,-69.8 166.03,-69.8 160.03,-69.8 154.03,-63.8 154.03,-57.8 154.03,-57.8 154.03,-12.5 154.03,-12.5 154.03,-6.5 160.03,-0.5 166.03,-0.5"/>
<text xml:space="preserve" text-anchor="middle" x="207.35" y="-55" font-family="Arial" font-size="8.00">giaiDoanBaoCao</text>
<polyline fill="none" stroke="darkred" points="154.03,-45.65 260.68,-45.65"/>
<text xml:space="preserve" text-anchor="start" x="161.23" y="-30.85" font-family="Arial" font-size="8.00">🔑 idGiaiDoan : INTEGER</text>
<text xml:space="preserve" text-anchor="start" x="161.23" y="-19.6" font-family="Arial" font-size="8.00">thoiDiemBatDau</text>
<text xml:space="preserve" text-anchor="start" x="161.23" y="-9.85" font-family="Arial" font-size="8.00">thoiDiemKetThuc</text>
</g>
<!-- bcTthl -->
<g id="node5" class="node">
<title>bcTthl</title>
<path fill="lightblue" stroke="darkblue" d="M12,-82C12,-82 44.4,-82 44.4,-82 50.4,-82 56.4,-88 56.4,-94 56.4,-94 56.4,-196.3 56.4,-196.3 56.4,-202.3 50.4,-208.3 44.4,-208.3 44.4,-208.3 12,-208.3 12,-208.3 6,-208.3 0,-202.3 0,-196.3 0,-196.3 0,-94 0,-94 0,-88 6,-82 12,-82"/>
<text xml:space="preserve" text-anchor="middle" x="28.2" y="-193.5" font-family="Arial" font-size="8.00">bcTthl</text>
<polyline fill="none" stroke="darkblue" points="0,-184.15 56.4,-184.15"/>
<text xml:space="preserve" text-anchor="start" x="7.2" y="-169.35" font-family="Arial" font-size="8.00">soTeGt</text>
<text xml:space="preserve" text-anchor="start" x="7.2" y="-159.6" font-family="Arial" font-size="8.00">soCuonGt</text>
<text xml:space="preserve" text-anchor="start" x="7.2" y="-149.85" font-family="Arial" font-size="8.00">soTenTbg</text>
<text xml:space="preserve" text-anchor="start" x="7.2" y="-140.1" font-family="Arial" font-size="8.00">soCuonTbg</text>
<text xml:space="preserve" text-anchor="start" x="7.2" y="-130.35" font-family="Arial" font-size="8.00">soTenSth</text>
<text xml:space="preserve" text-anchor="start" x="7.2" y="-120.6" font-family="Arial" font-size="8.00">soCuonSth</text>
<text xml:space="preserve" text-anchor="start" x="7.2" y="-110.85" font-family="Arial" font-size="8.00">soTenSck</text>
<text xml:space="preserve" text-anchor="start" x="7.2" y="-101.1" font-family="Arial" font-size="8.00">soCuonSck</text>
<text xml:space="preserve" text-anchor="start" x="7.2" y="-91.35" font-family="Arial" font-size="8.00">...</text>
</g>
<!-- bcTthl&#45;&gt;donVi -->
<g id="edge3" class="edge">
<title>bcTthl&#45;&gt;donVi</title>
<path fill="none" stroke="darkblue" d="M56.82,-164.23C79.47,-178.66 112.97,-197.27 145.4,-205.15 207.88,-220.33 281.98,-214.73 332.05,-207.64"/>
<polygon fill="darkblue" stroke="darkblue" points="331.93,-207.65 340.37,-210.05 336.22,-207.02 339.51,-206.54 339.51,-206.54 339.51,-206.54 336.22,-207.02 339.32,-202.93 331.93,-207.65"/>
<text xml:space="preserve" text-anchor="middle" x="207.35" y="-216.59" font-family="Times,serif" font-size="6.00" fill="darkblue"> &#160;idDonVi &#160;</text>
</g>
<!-- bcTthl&#45;&gt;nguoiBaoCao -->
<g id="edge5" class="edge">
<title>bcTthl&#45;&gt;nguoiBaoCao</title>
<path fill="none" stroke="darkblue" d="M56.88,-145.15C78.31,-145.15 108.97,-145.15 136.94,-145.15"/>
<polygon fill="darkblue" stroke="darkblue" points="136.8,-145.15 144.8,-148.75 141.14,-145.15 144.47,-145.15 144.47,-145.15 144.47,-145.15 141.14,-145.15 144.8,-141.55 136.8,-145.15"/>
<text xml:space="preserve" text-anchor="middle" x="100.9" y="-146.95" font-family="Times,serif" font-size="6.00" fill="darkblue"> &#160;idNguoiBaoCao &#160;</text>
</g>
<!-- bcTthl&#45;&gt;giaiDoanBaoCao -->
<g id="edge4" class="edge">
<title>bcTthl&#45;&gt;giaiDoanBaoCao</title>
<path fill="none" stroke="darkblue" d="M56.88,-127.96C80.85,-113.08 116.36,-91.03 146.76,-72.15"/>
<polygon fill="darkblue" stroke="darkblue" points="146.48,-72.33 155.17,-71.17 150.16,-70.04 152.99,-68.28 152.99,-68.28 152.99,-68.28 150.16,-70.04 151.38,-65.05 146.48,-72.33"/>
<text xml:space="preserve" text-anchor="middle" x="100.9" y="-114.45" font-family="Times,serif" font-size="6.00" fill="darkblue"> &#160;idGiaiDoan &#160;</text>
</g>
</g>
</svg>
