<?xml version="1.0" encoding="UTF-8" standalone="no"?>
<!DOCTYPE svg PUBLIC "-//W3C//DTD SVG 1.1//EN"
 "http://www.w3.org/Graphics/SVG/1.1/DTD/svg11.dtd">
<!-- Generated by graphviz version 13.1.2 (0)
 -->
<!-- Pages: 1 -->
<svg width="749pt" height="365pt"
 viewBox="14.00 14.00 734.00 351.00" xmlns="http://www.w3.org/2000/svg" xmlns:xlink="http://www.w3.org/1999/xlink">
<g id="graph0" class="graph" transform="scale(1 1) rotate(0) translate(43.2 321.75)">
<polygon fill="white" stroke="none" points="-28.8,28.8 -28.8,-307.35 690.9,-307.35 690.9,28.8 -28.8,28.8"/>
<text xml:space="preserve" text-anchor="middle" x="331.05" y="-259.35" font-family="Arial Bold" font-size="16.00" fill="darkblue">Trung Tâm Tư Vấn Pháp Luật và Phục Vụ Cộng Đồng</text>
<text xml:space="preserve" text-anchor="middle" x="331.05" y="-240.6" font-family="Arial Bold" font-size="16.00" fill="darkblue">(TTTVPLPVCD)</text>
<!-- toChuc -->
<g id="node1" class="node">
<title>toChuc</title>
<path fill="lightcoral" stroke="darkred" d="M573.45,-167.38C573.45,-167.38 650.1,-167.38 650.1,-167.38 656.1,-167.38 662.1,-173.38 662.1,-179.38 662.1,-179.38 662.1,-214.93 662.1,-214.93 662.1,-220.93 656.1,-226.93 650.1,-226.93 650.1,-226.93 573.45,-226.93 573.45,-226.93 567.45,-226.93 561.45,-220.93 561.45,-214.93 561.45,-214.93 561.45,-179.38 561.45,-179.38 561.45,-173.38 567.45,-167.38 573.45,-167.38"/>
<text xml:space="preserve" text-anchor="middle" x="611.78" y="-212.12" font-family="Arial" font-size="8.00">toChuc</text>
<polyline fill="none" stroke="darkred" points="561.45,-202.78 662.1,-202.78"/>
<text xml:space="preserve" text-anchor="start" x="568.65" y="-187.98" font-family="Arial" font-size="8.00">🔑 idToChuc : INTEGER</text>
<text xml:space="preserve" text-anchor="start" x="568.65" y="-176.73" font-family="Arial" font-size="8.00">capToChuc</text>
</g>
<!-- donVi -->
<g id="node2" class="node">
<title>donVi</title>
<path fill="lightcoral" stroke="darkred" d="M398.8,-161.75C398.8,-161.75 475.45,-161.75 475.45,-161.75 481.45,-161.75 487.45,-167.75 487.45,-173.75 487.45,-173.75 487.45,-220.55 487.45,-220.55 487.45,-226.55 481.45,-232.55 475.45,-232.55 475.45,-232.55 398.8,-232.55 398.8,-232.55 392.8,-232.55 386.8,-226.55 386.8,-220.55 386.8,-220.55 386.8,-173.75 386.8,-173.75 386.8,-167.75 392.8,-161.75 398.8,-161.75"/>
<text xml:space="preserve" text-anchor="middle" x="437.13" y="-217.75" font-family="Arial" font-size="8.00">donVi</text>
<polyline fill="none" stroke="darkred" points="386.8,-208.4 487.45,-208.4"/>
<text xml:space="preserve" text-anchor="start" x="394" y="-193.6" font-family="Arial" font-size="8.00">🔑 idDonVi : INTEGER</text>
<text xml:space="preserve" text-anchor="start" x="394" y="-182.35" font-family="Arial" font-size="8.00">capDonVi</text>
<text xml:space="preserve" text-anchor="start" x="394" y="-172.6" font-family="Arial" font-size="8.00">🔗 idToChuc : INTEGER</text>
</g>
<!-- donVi&#45;&gt;toChuc -->
<g id="edge1" class="edge">
<title>donVi&#45;&gt;toChuc</title>
<path fill="none" stroke="darkblue" d="M487.6,-197.15C507.92,-197.15 531.59,-197.15 552.73,-197.15"/>
<polygon fill="darkblue" stroke="darkblue" points="552.66,-197.15 560.66,-200.75 556.99,-197.15 560.33,-197.15 560.33,-197.15 560.33,-197.15 556.99,-197.15 560.66,-193.55 552.66,-197.15"/>
<text xml:space="preserve" text-anchor="middle" x="524.45" y="-198.95" font-family="Times,serif" font-size="6.00" fill="darkblue"> &#160;idToChuc &#160;</text>
</g>
<!-- nguoiBaoCao -->
<g id="node3" class="node">
<title>nguoiBaoCao</title>
<path fill="lightcoral" stroke="darkred" d="M203.9,-100C203.9,-100 303.8,-100 303.8,-100 309.8,-100 315.8,-106 315.8,-112 315.8,-112 315.8,-178.3 315.8,-178.3 315.8,-184.3 309.8,-190.3 303.8,-190.3 303.8,-190.3 203.9,-190.3 203.9,-190.3 197.9,-190.3 191.9,-184.3 191.9,-178.3 191.9,-178.3 191.9,-112 191.9,-112 191.9,-106 197.9,-100 203.9,-100"/>
<text xml:space="preserve" text-anchor="middle" x="253.85" y="-175.5" font-family="Arial" font-size="8.00">nguoiBaoCao</text>
<polyline fill="none" stroke="darkred" points="191.9,-166.15 315.8,-166.15"/>
<text xml:space="preserve" text-anchor="start" x="199.1" y="-151.35" font-family="Arial" font-size="8.00">🔑 idNguoiBaoCao : INTEGER</text>
<text xml:space="preserve" text-anchor="start" x="199.1" y="-140.1" font-family="Arial" font-size="8.00">hoVaTen</text>
<text xml:space="preserve" text-anchor="start" x="199.1" y="-130.35" font-family="Arial" font-size="8.00">chucVu</text>
<text xml:space="preserve" text-anchor="start" x="199.1" y="-120.6" font-family="Arial" font-size="8.00">emailTruong</text>
<text xml:space="preserve" text-anchor="start" x="199.1" y="-110.85" font-family="Arial" font-size="8.00">🔗 idDonVi : INTEGER</text>
</g>
<!-- nguoiBaoCao&#45;&gt;donVi -->
<g id="edge2" class="edge">
<title>nguoiBaoCao&#45;&gt;donVi</title>
<path fill="none" stroke="darkblue" d="M316.22,-162.75C336.35,-168.53 358.64,-174.92 378.49,-180.62"/>
<polygon fill="darkblue" stroke="darkblue" points="378.53,-180.63 385.22,-186.29 382.69,-181.82 385.9,-182.74 385.9,-182.74 385.9,-182.74 382.69,-181.82 387.21,-179.37 378.53,-180.63"/>
<text xml:space="preserve" text-anchor="middle" x="351.3" y="-177.61" font-family="Times,serif" font-size="6.00" fill="darkblue"> &#160;idDonVi &#160;</text>
</g>
<!-- giaiDoanBaoCao -->
<g id="node4" class="node">
<title>giaiDoanBaoCao</title>
<path fill="lightcoral" stroke="darkred" d="M212.53,-0.5C212.53,-0.5 295.18,-0.5 295.18,-0.5 301.18,-0.5 307.18,-6.5 307.18,-12.5 307.18,-12.5 307.18,-57.8 307.18,-57.8 307.18,-63.8 301.18,-69.8 295.18,-69.8 295.18,-69.8 212.53,-69.8 212.53,-69.8 206.53,-69.8 200.53,-63.8 200.53,-57.8 200.53,-57.8 200.53,-12.5 200.53,-12.5 200.53,-6.5 206.53,-0.5 212.53,-0.5"/>
<text xml:space="preserve" text-anchor="middle" x="253.85" y="-55" font-family="Arial" font-size="8.00">giaiDoanBaoCao</text>
<polyline fill="none" stroke="darkred" points="200.53,-45.65 307.18,-45.65"/>
<text xml:space="preserve" text-anchor="start" x="207.73" y="-30.85" font-family="Arial" font-size="8.00">🔑 idGiaiDoan : INTEGER</text>
<text xml:space="preserve" text-anchor="start" x="207.73" y="-19.6" font-family="Arial" font-size="8.00">thoiDiemBatDau</text>
<text xml:space="preserve" text-anchor="start" x="207.73" y="-9.85" font-family="Arial" font-size="8.00">thoiDiemKetThuc</text>
</g>
<!-- bcTtTvplPvcd -->
<g id="node5" class="node">
<title>bcTtTvplPvcd</title>
<path fill="lightblue" stroke="darkblue" d="M12,-81.25C12,-81.25 90.9,-81.25 90.9,-81.25 96.9,-81.25 102.9,-87.25 102.9,-93.25 102.9,-93.25 102.9,-197.05 102.9,-197.05 102.9,-203.05 96.9,-209.05 90.9,-209.05 90.9,-209.05 12,-209.05 12,-209.05 6,-209.05 0,-203.05 0,-197.05 0,-197.05 0,-93.25 0,-93.25 0,-87.25 6,-81.25 12,-81.25"/>
<text xml:space="preserve" text-anchor="middle" x="51.45" y="-194.25" font-family="Arial" font-size="8.00">bcTtTvplPvcd</text>
<polyline fill="none" stroke="darkblue" points="0,-184.9 102.9,-184.9"/>
<text xml:space="preserve" text-anchor="start" x="7.2" y="-170.1" font-family="Arial" font-size="8.00">soLuongDvtvCn</text>
<text xml:space="preserve" text-anchor="start" x="7.2" y="-160.35" font-family="Arial" font-size="8.00">soLuongDvtvTc</text>
<text xml:space="preserve" text-anchor="start" x="7.2" y="-150.6" font-family="Arial" font-size="8.00">soLuongHtpl</text>
<text xml:space="preserve" text-anchor="start" x="7.2" y="-140.85" font-family="Arial" font-size="8.00">soLuongHdttpbpl</text>
<text xml:space="preserve" text-anchor="start" x="7.2" y="-131.1" font-family="Arial" font-size="8.00">soLuongLienKettn</text>
<text xml:space="preserve" text-anchor="start" x="7.2" y="-121.35" font-family="Arial" font-size="8.00">soLuongLienKetnn</text>
<text xml:space="preserve" text-anchor="start" x="7.2" y="-111.6" font-family="Arial" font-size="8.00">🔑 idBaoCao : INTEGER</text>
<text xml:space="preserve" text-anchor="start" x="7.2" y="-100.35" font-family="Arial" font-size="8.00">timestamp</text>
<text xml:space="preserve" text-anchor="start" x="7.2" y="-90.6" font-family="Arial" font-size="8.00">...</text>
</g>
<!-- bcTtTvplPvcd&#45;&gt;donVi -->
<g id="edge5" class="edge">
<title>bcTtTvplPvcd&#45;&gt;donVi</title>
<path fill="none" stroke="darkblue" d="M103.12,-172.87C128.89,-185.41 161.18,-198.82 191.9,-205.15 254.68,-218.08 328.42,-212.96 378.32,-206.6"/>
<polygon fill="darkblue" stroke="darkblue" points="378.17,-206.62 386.57,-209.14 382.46,-206.05 385.77,-205.61 385.77,-205.61 385.77,-205.61 382.46,-206.05 385.63,-202 378.17,-206.62"/>
<text xml:space="preserve" text-anchor="middle" x="253.85" y="-214.97" font-family="Times,serif" font-size="6.00" fill="darkblue"> &#160;idDonVi &#160;</text>
</g>
<!-- bcTtTvplPvcd&#45;&gt;nguoiBaoCao -->
<g id="edge4" class="edge">
<title>bcTtTvplPvcd&#45;&gt;nguoiBaoCao</title>
<path fill="none" stroke="darkblue" d="M103.28,-145.15C127.55,-145.15 156.98,-145.15 183.29,-145.15"/>
<polygon fill="darkblue" stroke="darkblue" points="183.38,-145.15 191.38,-148.75 187.72,-145.15 191.05,-145.15 191.05,-145.15 191.05,-145.15 187.72,-145.15 191.38,-141.55 183.38,-145.15"/>
<text xml:space="preserve" text-anchor="middle" x="147.4" y="-146.95" font-family="Times,serif" font-size="6.00" fill="darkblue"> &#160;idNguoiBaoCao &#160;</text>
</g>
<!-- bcTtTvplPvcd&#45;&gt;giaiDoanBaoCao -->
<g id="edge3" class="edge">
<title>bcTtTvplPvcd&#45;&gt;giaiDoanBaoCao</title>
<path fill="none" stroke="darkblue" d="M103.28,-117.25C130.64,-102.23 164.56,-83.61 193.17,-67.91"/>
<polygon fill="darkblue" stroke="darkblue" points="193.02,-67.99 201.77,-67.3 196.82,-65.9 199.74,-64.3 199.74,-64.3 199.74,-64.3 196.82,-65.9 198.3,-60.98 193.02,-67.99"/>
<text xml:space="preserve" text-anchor="middle" x="147.4" y="-105.04" font-family="Times,serif" font-size="6.00" fill="darkblue"> &#160;idGiaiDoan &#160;</text>
</g>
</g>
</svg>
