<?xml version="1.0" encoding="UTF-8" standalone="no"?>
<!DOCTYPE svg PUBLIC "-//W3C//DTD SVG 1.1//EN"
 "http://www.w3.org/Graphics/SVG/1.1/DTD/svg11.dtd">
<!-- Generated by graphviz version 13.1.2 (0)
 -->
<!-- Pages: 1 -->
<svg width="758pt" height="365pt"
 viewBox="14.00 14.00 743.00 351.00" xmlns="http://www.w3.org/2000/svg" xmlns:xlink="http://www.w3.org/1999/xlink">
<g id="graph0" class="graph" transform="scale(1 1) rotate(0) translate(43.2 321.75)">
<polygon fill="white" stroke="none" points="-28.8,28.8 -28.8,-307.35 699.9,-307.35 699.9,28.8 -28.8,28.8"/>
<text xml:space="preserve" text-anchor="middle" x="335.55" y="-259.35" font-family="Arial Bold" font-size="16.00" fill="darkblue">Viện Đào Tạo và Bồi Dưỡng</text>
<text xml:space="preserve" text-anchor="middle" x="335.55" y="-240.6" font-family="Arial Bold" font-size="16.00" fill="darkblue">(VDTBD)</text>
<!-- toChuc -->
<g id="node1" class="node">
<title>toChuc</title>
<path fill="lightcoral" stroke="darkred" d="M582.45,-167.38C582.45,-167.38 659.1,-167.38 659.1,-167.38 665.1,-167.38 671.1,-173.38 671.1,-179.38 671.1,-179.38 671.1,-214.93 671.1,-214.93 671.1,-220.93 665.1,-226.93 659.1,-226.93 659.1,-226.93 582.45,-226.93 582.45,-226.93 576.45,-226.93 570.45,-220.93 570.45,-214.93 570.45,-214.93 570.45,-179.38 570.45,-179.38 570.45,-173.38 576.45,-167.38 582.45,-167.38"/>
<text xml:space="preserve" text-anchor="middle" x="620.78" y="-212.12" font-family="Arial" font-size="8.00">toChuc</text>
<polyline fill="none" stroke="darkred" points="570.45,-202.78 671.1,-202.78"/>
<text xml:space="preserve" text-anchor="start" x="577.65" y="-187.98" font-family="Arial" font-size="8.00">🔑 idToChuc : INTEGER</text>
<text xml:space="preserve" text-anchor="start" x="577.65" y="-176.73" font-family="Arial" font-size="8.00">capToChuc</text>
</g>
<!-- donVi -->
<g id="node2" class="node">
<title>donVi</title>
<path fill="lightcoral" stroke="darkred" d="M407.8,-161.75C407.8,-161.75 484.45,-161.75 484.45,-161.75 490.45,-161.75 496.45,-167.75 496.45,-173.75 496.45,-173.75 496.45,-220.55 496.45,-220.55 496.45,-226.55 490.45,-232.55 484.45,-232.55 484.45,-232.55 407.8,-232.55 407.8,-232.55 401.8,-232.55 395.8,-226.55 395.8,-220.55 395.8,-220.55 395.8,-173.75 395.8,-173.75 395.8,-167.75 401.8,-161.75 407.8,-161.75"/>
<text xml:space="preserve" text-anchor="middle" x="446.13" y="-217.75" font-family="Arial" font-size="8.00">donVi</text>
<polyline fill="none" stroke="darkred" points="395.8,-208.4 496.45,-208.4"/>
<text xml:space="preserve" text-anchor="start" x="403" y="-193.6" font-family="Arial" font-size="8.00">🔑 idDonVi : INTEGER</text>
<text xml:space="preserve" text-anchor="start" x="403" y="-182.35" font-family="Arial" font-size="8.00">capDonVi</text>
<text xml:space="preserve" text-anchor="start" x="403" y="-172.6" font-family="Arial" font-size="8.00">🔗 idToChuc : INTEGER</text>
</g>
<!-- donVi&#45;&gt;toChuc -->
<g id="edge1" class="edge">
<title>donVi&#45;&gt;toChuc</title>
<path fill="none" stroke="darkblue" d="M496.6,-197.15C516.92,-197.15 540.59,-197.15 561.73,-197.15"/>
<polygon fill="darkblue" stroke="darkblue" points="561.66,-197.15 569.66,-200.75 565.99,-197.15 569.33,-197.15 569.33,-197.15 569.33,-197.15 565.99,-197.15 569.66,-193.55 561.66,-197.15"/>
<text xml:space="preserve" text-anchor="middle" x="533.45" y="-198.95" font-family="Times,serif" font-size="6.00" fill="darkblue"> &#160;idToChuc &#160;</text>
</g>
<!-- nguoiBaoCao -->
<g id="node3" class="node">
<title>nguoiBaoCao</title>
<path fill="lightcoral" stroke="darkred" d="M212.9,-100C212.9,-100 312.8,-100 312.8,-100 318.8,-100 324.8,-106 324.8,-112 324.8,-112 324.8,-178.3 324.8,-178.3 324.8,-184.3 318.8,-190.3 312.8,-190.3 312.8,-190.3 212.9,-190.3 212.9,-190.3 206.9,-190.3 200.9,-184.3 200.9,-178.3 200.9,-178.3 200.9,-112 200.9,-112 200.9,-106 206.9,-100 212.9,-100"/>
<text xml:space="preserve" text-anchor="middle" x="262.85" y="-175.5" font-family="Arial" font-size="8.00">nguoiBaoCao</text>
<polyline fill="none" stroke="darkred" points="200.9,-166.15 324.8,-166.15"/>
<text xml:space="preserve" text-anchor="start" x="208.1" y="-151.35" font-family="Arial" font-size="8.00">🔑 idNguoiBaoCao : INTEGER</text>
<text xml:space="preserve" text-anchor="start" x="208.1" y="-140.1" font-family="Arial" font-size="8.00">hoVaTen</text>
<text xml:space="preserve" text-anchor="start" x="208.1" y="-130.35" font-family="Arial" font-size="8.00">chucVu</text>
<text xml:space="preserve" text-anchor="start" x="208.1" y="-120.6" font-family="Arial" font-size="8.00">emailTruong</text>
<text xml:space="preserve" text-anchor="start" x="208.1" y="-110.85" font-family="Arial" font-size="8.00">🔗 idDonVi : INTEGER</text>
</g>
<!-- nguoiBaoCao&#45;&gt;donVi -->
<g id="edge2" class="edge">
<title>nguoiBaoCao&#45;&gt;donVi</title>
<path fill="none" stroke="darkblue" d="M325.22,-162.75C345.35,-168.53 367.64,-174.92 387.49,-180.62"/>
<polygon fill="darkblue" stroke="darkblue" points="387.53,-180.63 394.22,-186.29 391.69,-181.82 394.9,-182.74 394.9,-182.74 394.9,-182.74 391.69,-181.82 396.21,-179.37 387.53,-180.63"/>
<text xml:space="preserve" text-anchor="middle" x="360.3" y="-177.61" font-family="Times,serif" font-size="6.00" fill="darkblue"> &#160;idDonVi &#160;</text>
</g>
<!-- giaiDoanBaoCao -->
<g id="node4" class="node">
<title>giaiDoanBaoCao</title>
<path fill="lightcoral" stroke="darkred" d="M221.53,-0.5C221.53,-0.5 304.18,-0.5 304.18,-0.5 310.18,-0.5 316.18,-6.5 316.18,-12.5 316.18,-12.5 316.18,-57.8 316.18,-57.8 316.18,-63.8 310.18,-69.8 304.18,-69.8 304.18,-69.8 221.53,-69.8 221.53,-69.8 215.53,-69.8 209.53,-63.8 209.53,-57.8 209.53,-57.8 209.53,-12.5 209.53,-12.5 209.53,-6.5 215.53,-0.5 221.53,-0.5"/>
<text xml:space="preserve" text-anchor="middle" x="262.85" y="-55" font-family="Arial" font-size="8.00">giaiDoanBaoCao</text>
<polyline fill="none" stroke="darkred" points="209.53,-45.65 316.18,-45.65"/>
<text xml:space="preserve" text-anchor="start" x="216.73" y="-30.85" font-family="Arial" font-size="8.00">🔑 idGiaiDoan : INTEGER</text>
<text xml:space="preserve" text-anchor="start" x="216.73" y="-19.6" font-family="Arial" font-size="8.00">thoiDiemBatDau</text>
<text xml:space="preserve" text-anchor="start" x="216.73" y="-9.85" font-family="Arial" font-size="8.00">thoiDiemKetThuc</text>
</g>
<!-- bcVDtbd -->
<g id="node5" class="node">
<title>bcVDtbd</title>
<path fill="lightblue" stroke="darkblue" d="M12,-82C12,-82 99.9,-82 99.9,-82 105.9,-82 111.9,-88 111.9,-94 111.9,-94 111.9,-196.3 111.9,-196.3 111.9,-202.3 105.9,-208.3 99.9,-208.3 99.9,-208.3 12,-208.3 12,-208.3 6,-208.3 0,-202.3 0,-196.3 0,-196.3 0,-94 0,-94 0,-88 6,-82 12,-82"/>
<text xml:space="preserve" text-anchor="middle" x="55.95" y="-193.5" font-family="Arial" font-size="8.00">bcVDtbd</text>
<polyline fill="none" stroke="darkblue" points="0,-184.15 111.9,-184.15"/>
<text xml:space="preserve" text-anchor="start" x="7.2" y="-169.35" font-family="Arial" font-size="8.00">soLuongKhnh</text>
<text xml:space="preserve" text-anchor="start" x="7.2" y="-159.6" font-family="Arial" font-size="8.00">soLuongNsddtbdHangNam</text>
<text xml:space="preserve" text-anchor="start" x="7.2" y="-149.85" font-family="Arial" font-size="8.00">soLuongCqDnTcddtbd</text>
<text xml:space="preserve" text-anchor="start" x="7.2" y="-140.1" font-family="Arial" font-size="8.00">soLuongCaNhanddtbd</text>
<text xml:space="preserve" text-anchor="start" x="7.2" y="-130.35" font-family="Arial" font-size="8.00">soLuongNhuCauddtbdNn</text>
<text xml:space="preserve" text-anchor="start" x="7.2" y="-120.6" font-family="Arial" font-size="8.00">soLuongNhuCauddtbdNnpl</text>
<text xml:space="preserve" text-anchor="start" x="7.2" y="-110.85" font-family="Arial" font-size="8.00">soLuongNhuCauddtbdTh</text>
<text xml:space="preserve" text-anchor="start" x="7.2" y="-101.1" font-family="Arial" font-size="8.00">soLuongCttcktnlNn</text>
<text xml:space="preserve" text-anchor="start" x="7.2" y="-91.35" font-family="Arial" font-size="8.00">...</text>
</g>
<!-- bcVDtbd&#45;&gt;donVi -->
<g id="edge3" class="edge">
<title>bcVDtbd&#45;&gt;donVi</title>
<path fill="none" stroke="darkblue" d="M112.07,-174.15C138.22,-186.31 170.37,-199.04 200.9,-205.15 263.75,-217.72 337.48,-212.67 387.36,-206.41"/>
<polygon fill="darkblue" stroke="darkblue" points="387.2,-206.44 395.6,-208.97 391.5,-205.88 394.8,-205.45 394.8,-205.45 394.8,-205.45 391.5,-205.88 394.67,-201.83 387.2,-206.44"/>
<text xml:space="preserve" text-anchor="middle" x="262.85" y="-214.71" font-family="Times,serif" font-size="6.00" fill="darkblue"> &#160;idDonVi &#160;</text>
</g>
<!-- bcVDtbd&#45;&gt;nguoiBaoCao -->
<g id="edge5" class="edge">
<title>bcVDtbd&#45;&gt;nguoiBaoCao</title>
<path fill="none" stroke="darkblue" d="M112.4,-145.15C137,-145.15 166.21,-145.15 192.25,-145.15"/>
<polygon fill="darkblue" stroke="darkblue" points="192.25,-145.15 200.25,-148.75 196.59,-145.15 199.92,-145.15 199.92,-145.15 199.92,-145.15 196.59,-145.15 200.25,-141.55 192.25,-145.15"/>
<text xml:space="preserve" text-anchor="middle" x="156.4" y="-146.95" font-family="Times,serif" font-size="6.00" fill="darkblue"> &#160;idNguoiBaoCao &#160;</text>
</g>
<!-- bcVDtbd&#45;&gt;giaiDoanBaoCao -->
<g id="edge4" class="edge">
<title>bcVDtbd&#45;&gt;giaiDoanBaoCao</title>
<path fill="none" stroke="darkblue" d="M112.4,-115.38C140.15,-100.48 173.78,-82.43 202.1,-67.23"/>
<polygon fill="darkblue" stroke="darkblue" points="201.84,-67.37 210.59,-66.76 205.66,-65.32 208.59,-63.74 208.59,-63.74 208.59,-63.74 205.66,-65.32 207.18,-60.41 201.84,-67.37"/>
<text xml:space="preserve" text-anchor="middle" x="156.4" y="-105.04" font-family="Times,serif" font-size="6.00" fill="darkblue"> &#160;idGiaiDoan &#160;</text>
</g>
</g>
</svg>
