<?xml version="1.0" encoding="UTF-8" standalone="no"?>
<!DOCTYPE svg PUBLIC "-//W3C//DTD SVG 1.1//EN"
 "http://www.w3.org/Graphics/SVG/1.1/DTD/svg11.dtd">
<!-- Generated by graphviz version 13.1.2 (0)
 -->
<!-- Pages: 1 -->
<svg width="767pt" height="365pt"
 viewBox="14.00 14.00 753.00 351.00" xmlns="http://www.w3.org/2000/svg" xmlns:xlink="http://www.w3.org/1999/xlink">
<g id="graph0" class="graph" transform="scale(1 1) rotate(0) translate(43.2 321.75)">
<polygon fill="white" stroke="none" points="-28.8,28.8 -28.8,-307.35 709.65,-307.35 709.65,28.8 -28.8,28.8"/>
<text xml:space="preserve" text-anchor="middle" x="340.43" y="-259.35" font-family="Arial Bold" font-size="16.00" fill="darkblue">Viện Đào Tạo Quốc Tế</text>
<text xml:space="preserve" text-anchor="middle" x="340.43" y="-240.6" font-family="Arial Bold" font-size="16.00" fill="darkblue">(VDTQT)</text>
<!-- toChuc -->
<g id="node1" class="node">
<title>toChuc</title>
<path fill="lightcoral" stroke="darkred" d="M592.2,-167.38C592.2,-167.38 668.85,-167.38 668.85,-167.38 674.85,-167.38 680.85,-173.38 680.85,-179.38 680.85,-179.38 680.85,-214.93 680.85,-214.93 680.85,-220.93 674.85,-226.93 668.85,-226.93 668.85,-226.93 592.2,-226.93 592.2,-226.93 586.2,-226.93 580.2,-220.93 580.2,-214.93 580.2,-214.93 580.2,-179.38 580.2,-179.38 580.2,-173.38 586.2,-167.38 592.2,-167.38"/>
<text xml:space="preserve" text-anchor="middle" x="630.53" y="-212.12" font-family="Arial" font-size="8.00">toChuc</text>
<polyline fill="none" stroke="darkred" points="580.2,-202.78 680.85,-202.78"/>
<text xml:space="preserve" text-anchor="start" x="587.4" y="-187.98" font-family="Arial" font-size="8.00">🔑 idToChuc : INTEGER</text>
<text xml:space="preserve" text-anchor="start" x="587.4" y="-176.73" font-family="Arial" font-size="8.00">capToChuc</text>
</g>
<!-- donVi -->
<g id="node2" class="node">
<title>donVi</title>
<path fill="lightcoral" stroke="darkred" d="M417.55,-161.75C417.55,-161.75 494.2,-161.75 494.2,-161.75 500.2,-161.75 506.2,-167.75 506.2,-173.75 506.2,-173.75 506.2,-220.55 506.2,-220.55 506.2,-226.55 500.2,-232.55 494.2,-232.55 494.2,-232.55 417.55,-232.55 417.55,-232.55 411.55,-232.55 405.55,-226.55 405.55,-220.55 405.55,-220.55 405.55,-173.75 405.55,-173.75 405.55,-167.75 411.55,-161.75 417.55,-161.75"/>
<text xml:space="preserve" text-anchor="middle" x="455.88" y="-217.75" font-family="Arial" font-size="8.00">donVi</text>
<polyline fill="none" stroke="darkred" points="405.55,-208.4 506.2,-208.4"/>
<text xml:space="preserve" text-anchor="start" x="412.75" y="-193.6" font-family="Arial" font-size="8.00">🔑 idDonVi : INTEGER</text>
<text xml:space="preserve" text-anchor="start" x="412.75" y="-182.35" font-family="Arial" font-size="8.00">capDonVi</text>
<text xml:space="preserve" text-anchor="start" x="412.75" y="-172.6" font-family="Arial" font-size="8.00">🔗 idToChuc : INTEGER</text>
</g>
<!-- donVi&#45;&gt;toChuc -->
<g id="edge1" class="edge">
<title>donVi&#45;&gt;toChuc</title>
<path fill="none" stroke="darkblue" d="M506.35,-197.15C526.67,-197.15 550.34,-197.15 571.48,-197.15"/>
<polygon fill="darkblue" stroke="darkblue" points="571.41,-197.15 579.41,-200.75 575.74,-197.15 579.08,-197.15 579.08,-197.15 579.08,-197.15 575.74,-197.15 579.41,-193.55 571.41,-197.15"/>
<text xml:space="preserve" text-anchor="middle" x="543.2" y="-198.95" font-family="Times,serif" font-size="6.00" fill="darkblue"> &#160;idToChuc &#160;</text>
</g>
<!-- nguoiBaoCao -->
<g id="node3" class="node">
<title>nguoiBaoCao</title>
<path fill="lightcoral" stroke="darkred" d="M222.65,-100C222.65,-100 322.55,-100 322.55,-100 328.55,-100 334.55,-106 334.55,-112 334.55,-112 334.55,-178.3 334.55,-178.3 334.55,-184.3 328.55,-190.3 322.55,-190.3 322.55,-190.3 222.65,-190.3 222.65,-190.3 216.65,-190.3 210.65,-184.3 210.65,-178.3 210.65,-178.3 210.65,-112 210.65,-112 210.65,-106 216.65,-100 222.65,-100"/>
<text xml:space="preserve" text-anchor="middle" x="272.6" y="-175.5" font-family="Arial" font-size="8.00">nguoiBaoCao</text>
<polyline fill="none" stroke="darkred" points="210.65,-166.15 334.55,-166.15"/>
<text xml:space="preserve" text-anchor="start" x="217.85" y="-151.35" font-family="Arial" font-size="8.00">🔑 idNguoiBaoCao : INTEGER</text>
<text xml:space="preserve" text-anchor="start" x="217.85" y="-140.1" font-family="Arial" font-size="8.00">hoVaTen</text>
<text xml:space="preserve" text-anchor="start" x="217.85" y="-130.35" font-family="Arial" font-size="8.00">chucVu</text>
<text xml:space="preserve" text-anchor="start" x="217.85" y="-120.6" font-family="Arial" font-size="8.00">emailTruong</text>
<text xml:space="preserve" text-anchor="start" x="217.85" y="-110.85" font-family="Arial" font-size="8.00">🔗 idDonVi : INTEGER</text>
</g>
<!-- nguoiBaoCao&#45;&gt;donVi -->
<g id="edge2" class="edge">
<title>nguoiBaoCao&#45;&gt;donVi</title>
<path fill="none" stroke="darkblue" d="M334.97,-162.75C355.1,-168.53 377.39,-174.92 397.24,-180.62"/>
<polygon fill="darkblue" stroke="darkblue" points="397.28,-180.63 403.97,-186.29 401.44,-181.82 404.65,-182.74 404.65,-182.74 404.65,-182.74 401.44,-181.82 405.96,-179.37 397.28,-180.63"/>
<text xml:space="preserve" text-anchor="middle" x="370.05" y="-177.61" font-family="Times,serif" font-size="6.00" fill="darkblue"> &#160;idDonVi &#160;</text>
</g>
<!-- giaiDoanBaoCao -->
<g id="node4" class="node">
<title>giaiDoanBaoCao</title>
<path fill="lightcoral" stroke="darkred" d="M231.28,-0.5C231.28,-0.5 313.93,-0.5 313.93,-0.5 319.93,-0.5 325.93,-6.5 325.93,-12.5 325.93,-12.5 325.93,-57.8 325.93,-57.8 325.93,-63.8 319.93,-69.8 313.93,-69.8 313.93,-69.8 231.28,-69.8 231.28,-69.8 225.28,-69.8 219.28,-63.8 219.28,-57.8 219.28,-57.8 219.28,-12.5 219.28,-12.5 219.28,-6.5 225.28,-0.5 231.28,-0.5"/>
<text xml:space="preserve" text-anchor="middle" x="272.6" y="-55" font-family="Arial" font-size="8.00">giaiDoanBaoCao</text>
<polyline fill="none" stroke="darkred" points="219.28,-45.65 325.93,-45.65"/>
<text xml:space="preserve" text-anchor="start" x="226.48" y="-30.85" font-family="Arial" font-size="8.00">🔑 idGiaiDoan : INTEGER</text>
<text xml:space="preserve" text-anchor="start" x="226.48" y="-19.6" font-family="Arial" font-size="8.00">thoiDiemBatDau</text>
<text xml:space="preserve" text-anchor="start" x="226.48" y="-9.85" font-family="Arial" font-size="8.00">thoiDiemKetThuc</text>
</g>
<!-- bcVDtqt -->
<g id="node5" class="node">
<title>bcVDtqt</title>
<path fill="lightblue" stroke="darkblue" d="M12,-81.25C12,-81.25 109.65,-81.25 109.65,-81.25 115.65,-81.25 121.65,-87.25 121.65,-93.25 121.65,-93.25 121.65,-197.05 121.65,-197.05 121.65,-203.05 115.65,-209.05 109.65,-209.05 109.65,-209.05 12,-209.05 12,-209.05 6,-209.05 0,-203.05 0,-197.05 0,-197.05 0,-93.25 0,-93.25 0,-87.25 6,-81.25 12,-81.25"/>
<text xml:space="preserve" text-anchor="middle" x="60.83" y="-194.25" font-family="Arial" font-size="8.00">bcVDtqt</text>
<polyline fill="none" stroke="darkblue" points="0,-184.9 121.65,-184.9"/>
<text xml:space="preserve" text-anchor="start" x="7.2" y="-170.1" font-family="Arial" font-size="8.00">soLuongSvClcTddhHtcq</text>
<text xml:space="preserve" text-anchor="start" x="7.2" y="-160.35" font-family="Arial" font-size="8.00">soLuongToChucCtnkClc</text>
<text xml:space="preserve" text-anchor="start" x="7.2" y="-150.6" font-family="Arial" font-size="8.00">soLuongToChucCttdTcClc</text>
<text xml:space="preserve" text-anchor="start" x="7.2" y="-140.85" font-family="Arial" font-size="8.00">soLuongToChucCtdtbdccqtClc</text>
<text xml:space="preserve" text-anchor="start" x="7.2" y="-131.1" font-family="Arial" font-size="8.00">soLuongToChucCtttckClc</text>
<text xml:space="preserve" text-anchor="start" x="7.2" y="-121.35" font-family="Arial" font-size="8.00">soLuongHdtvdhSauDhClc</text>
<text xml:space="preserve" text-anchor="start" x="7.2" y="-111.6" font-family="Arial" font-size="8.00">🔑 idBaoCao : INTEGER</text>
<text xml:space="preserve" text-anchor="start" x="7.2" y="-100.35" font-family="Arial" font-size="8.00">timestamp</text>
<text xml:space="preserve" text-anchor="start" x="7.2" y="-90.6" font-family="Arial" font-size="8.00">...</text>
</g>
<!-- bcVDtqt&#45;&gt;donVi -->
<g id="edge4" class="edge">
<title>bcVDtqt&#45;&gt;donVi</title>
<path fill="none" stroke="darkblue" d="M122.12,-175.58C148.57,-187.31 180.43,-199.29 210.65,-205.15 273.57,-217.36 347.29,-212.37 397.15,-206.23"/>
<polygon fill="darkblue" stroke="darkblue" points="396.98,-206.25 405.37,-208.81 401.28,-205.7 404.58,-205.28 404.58,-205.28 404.58,-205.28 401.28,-205.7 404.46,-201.67 396.98,-206.25"/>
<text xml:space="preserve" text-anchor="middle" x="272.6" y="-214.44" font-family="Times,serif" font-size="6.00" fill="darkblue"> &#160;idDonVi &#160;</text>
</g>
<!-- bcVDtqt&#45;&gt;nguoiBaoCao -->
<g id="edge5" class="edge">
<title>bcVDtqt&#45;&gt;nguoiBaoCao</title>
<path fill="none" stroke="darkblue" d="M121.94,-145.15C146.96,-145.15 176.16,-145.15 202.09,-145.15"/>
<polygon fill="darkblue" stroke="darkblue" points="202.05,-145.15 210.05,-148.75 206.39,-145.15 209.72,-145.15 209.72,-145.15 209.72,-145.15 206.39,-145.15 210.05,-141.55 202.05,-145.15"/>
<text xml:space="preserve" text-anchor="middle" x="166.15" y="-146.95" font-family="Times,serif" font-size="6.00" fill="darkblue"> &#160;idNguoiBaoCao &#160;</text>
</g>
<!-- bcVDtqt&#45;&gt;giaiDoanBaoCao -->
<g id="edge3" class="edge">
<title>bcVDtqt&#45;&gt;giaiDoanBaoCao</title>
<path fill="none" stroke="darkblue" d="M121.94,-113.63C150.06,-98.88 183.46,-81.37 211.57,-66.63"/>
<polygon fill="darkblue" stroke="darkblue" points="211.59,-66.62 220.34,-66.09 215.43,-64.61 218.38,-63.06 218.38,-63.06 218.38,-63.06 215.43,-64.61 217,-59.72 211.59,-66.62"/>
<text xml:space="preserve" text-anchor="middle" x="166.15" y="-101.8" font-family="Times,serif" font-size="6.00" fill="darkblue"> &#160;idGiaiDoan &#160;</text>
</g>
</g>
</svg>
